<svg width="109" height="109" viewBox="0 0 109 109" fill="none" xmlns="http://www.w3.org/2000/svg">
<rect width="109" height="109" fill="#121212"/>
<rect x="4" width="101" height="66.5934" rx="6" fill="white"/>
<path d="M10 11H99V60H10V11Z" fill="#121212"/>
<path d="M15 18C15 16.8954 15.8954 16 17 16H50C51.1046 16 52 16.8954 52 18V53C52 54.1046 51.1046 55 50 55H17C15.8954 55 15 54.1046 15 53V18Z" fill="white"/>
<path d="M31.468 27.6H35.186L40.774 43H37.276L36.396 40.58H30.258L29.378 43H25.88L31.468 27.6ZM31.468 37.28H35.186L33.316 32.176L31.468 37.28Z" fill="black"/>
<path d="M57 18C57 16.8954 57.8954 16 59 16H92C93.1046 16 94 16.8954 94 18V53C94 54.1046 93.1046 55 92 55H59C57.8954 55 57 54.1046 57 53V18Z" fill="white"/>
<path d="M70.32 43V27.6H76.15C76.9933 27.6 77.756 27.776 78.438 28.128C79.12 28.4727 79.659 28.964 80.055 29.602C80.4583 30.24 80.66 30.988 80.66 31.846C80.66 32.1687 80.6197 32.5097 80.539 32.869C80.4583 33.221 80.3153 33.551 80.11 33.859C79.9047 34.167 79.6113 34.409 79.23 34.585C79.7213 34.7023 80.11 34.9223 80.396 35.245C80.682 35.5677 80.8947 35.9417 81.034 36.367C81.1807 36.785 81.276 37.2103 81.32 37.643C81.364 38.0683 81.386 38.4533 81.386 38.798C81.386 39.5753 81.177 40.283 80.759 40.921C80.341 41.5517 79.78 42.0577 79.076 42.439C78.372 42.813 77.5947 43 76.744 43H70.32ZM73.62 40.206H76.392C76.7733 40.206 77.118 40.118 77.426 39.942C77.7413 39.7587 77.9907 39.5093 78.174 39.194C78.3647 38.8787 78.46 38.5193 78.46 38.116C78.46 37.7787 78.3647 37.4597 78.174 37.159C77.9907 36.851 77.7413 36.6017 77.426 36.411C77.118 36.2203 76.7733 36.125 76.392 36.125H73.62V40.206ZM73.62 33.375H75.754C76.194 33.375 76.5717 33.2283 76.887 32.935C77.2023 32.6417 77.36 32.2713 77.36 31.824C77.36 31.3693 77.2023 31.021 76.887 30.779C76.5717 30.537 76.194 30.416 75.754 30.416H73.62V33.375Z" fill="black"/>
<circle cx="12" cy="6" r="2" fill="#121212"/>
<circle cx="18" cy="6" r="2" fill="#121212"/>
<circle cx="24" cy="6" r="2" fill="#121212"/>
</svg>
