<svg width="110" height="110" viewBox="0 0 110 110" fill="none" xmlns="http://www.w3.org/2000/svg">
<rect x="10" y="31" width="89" height="47" rx="3" stroke="white" stroke-width="2"/>
<rect x="16" y="39" width="24" height="24" rx="1" stroke="white" stroke-width="2"/>
<path d="M33.3337 57V55.6667C33.3337 54.9594 33.0527 54.2811 32.5526 53.781C32.0525 53.281 31.3742 53 30.667 53H25.3337C24.6264 53 23.9481 53.281 23.448 53.781C22.9479 54.2811 22.667 54.9594 22.667 55.6667V57" fill="white"/>
<path d="M33.3337 57V55.6667C33.3337 54.9594 33.0527 54.2811 32.5526 53.781C32.0525 53.281 31.3742 53 30.667 53H25.3337C24.6264 53 23.9481 53.281 23.448 53.781C22.9479 54.2811 22.667 54.9594 22.667 55.6667V57H33.3337Z" stroke="white" stroke-width="2" stroke-linecap="round" stroke-linejoin="round"/>
<path d="M27.9997 50.3333C29.4724 50.3333 30.6663 49.1394 30.6663 47.6667C30.6663 46.1939 29.4724 45 27.9997 45C26.5269 45 25.333 46.1939 25.333 47.6667C25.333 49.1394 26.5269 50.3333 27.9997 50.3333Z" fill="white" stroke="white" stroke-width="2" stroke-linecap="round" stroke-linejoin="round"/>
<rect x="47" y="38" width="43" height="2" rx="1" fill="white"/>
<rect x="47" y="44" width="43" height="2" rx="1" fill="white"/>
<rect x="47" y="50" width="43" height="2" rx="1" fill="white"/>
<rect x="47" y="56" width="43" height="2" rx="1" fill="white"/>
<rect x="47" y="62" width="22" height="2" rx="1" fill="white"/>
</svg>
