<svg width="880" height="278" viewBox="0 0 880 278" fill="none" xmlns="http://www.w3.org/2000/svg">
<rect x="1" y="19" width="103" height="68" rx="7" stroke="white" stroke-width="2"/>
<path d="M10 26C8.89543 26 8 26.8954 8 28V74C8 75.1046 8.89544 76 10 76H95C96.1046 76 97 75.1046 97 74V28C97 26.8954 96.1046 26 95 26H10Z" stroke="white" stroke-width="2"/>
<rect x="45" y="87" width="14" height="6" stroke="white" stroke-width="2"/>
<rect x="40" y="92" width="24" height="2" fill="white"/>
<path d="M43 43L36 50.7L43 58.75" stroke="white" stroke-width="3" stroke-linecap="round"/>
<path d="M62 43L69 50.7L62 58.75" stroke="white" stroke-width="3" stroke-linecap="round"/>
<path d="M56.8145 38.5254L47.2379 64.8368" stroke="white" stroke-width="3" stroke-linecap="round"/>
<path fill-rule="evenodd" clip-rule="evenodd" d="M169.573 92.924C164.63 95.0026 159.199 96.1514 153.5 96.1514C130.58 96.1514 112 77.5712 112 54.6514C112 31.7316 130.58 13.1514 153.5 13.1514C176.42 13.1514 195 31.7316 195 54.6514C195 61.9253 193.129 68.7621 189.841 74.7066L191.647 75.5736C195.059 69.3659 197 62.2353 197 54.6514C197 30.627 177.524 11.1514 153.5 11.1514C129.476 11.1514 110 30.627 110 54.6514C110 78.6758 129.476 98.1514 153.5 98.1514C159.256 98.1514 164.75 97.0335 169.779 95.0031L169.573 92.924Z" fill="white"/>
<path fill-rule="evenodd" clip-rule="evenodd" d="M168.142 78.4417C163.885 81.0679 158.869 82.5831 153.5 82.5831C138.074 82.5831 125.568 70.0779 125.568 54.6519C125.568 39.2259 138.074 26.7207 153.5 26.7207C168.926 26.7207 181.431 39.2259 181.431 54.6519C181.431 59.823 180.025 64.6659 177.576 68.8195L179.385 69.6881C181.958 65.2697 183.431 60.1329 183.431 54.6519C183.431 38.1214 170.03 24.7207 153.5 24.7207C136.969 24.7207 123.568 38.1214 123.568 54.6519C123.568 71.1824 136.969 84.5831 153.5 84.5831C158.908 84.5831 163.981 83.1487 168.36 80.6396L168.142 78.4417Z" fill="white"/>
<g filter="url(#filter0_d_1084_1388)">
<path d="M146.893 65.2445V61.5845C147.403 61.5845 147.923 61.5195 148.453 61.3895C148.983 61.2595 149.453 61.0745 149.863 60.8345C150.283 60.5845 150.578 60.2845 150.748 59.9345C150.928 59.5845 150.923 59.1945 150.733 58.7645C150.633 58.3845 150.458 58.0245 150.208 57.6845C149.958 57.3345 149.673 56.9895 149.353 56.6495C149.033 56.2995 148.708 55.9445 148.378 55.5845C148.048 55.2145 147.743 54.8295 147.463 54.4295C147.183 54.0195 146.958 53.5845 146.788 53.1245C146.618 52.6545 146.533 52.1495 146.533 51.6095C146.533 50.5395 146.733 49.5395 147.133 48.6095C147.543 47.6795 148.103 46.8595 148.813 46.1495C149.533 45.4295 150.358 44.8695 151.288 44.4695C152.218 44.0595 153.218 43.8545 154.288 43.8545C155.358 43.8545 156.363 44.0595 157.303 44.4695C158.243 44.8695 159.068 45.4245 159.778 46.1345C160.498 46.8445 161.058 47.6695 161.458 48.6095C161.858 49.5395 162.058 50.5395 162.058 51.6095H158.398C158.398 50.8595 158.213 50.1745 157.843 49.5545C157.473 48.9345 156.973 48.4395 156.343 48.0695C155.723 47.6995 155.038 47.5145 154.288 47.5145C153.538 47.5145 152.853 47.6995 152.233 48.0695C151.613 48.4395 151.118 48.9345 150.748 49.5545C150.378 50.1745 150.193 50.8595 150.193 51.6095C150.193 52.2295 150.298 52.7695 150.508 53.2295C150.718 53.6895 150.988 54.1095 151.318 54.4895C151.648 54.8695 151.998 55.2395 152.368 55.5995C152.748 55.9495 153.103 56.3245 153.433 56.7245C153.763 57.1245 154.033 57.5795 154.243 58.0895C154.453 58.5895 154.558 59.1845 154.558 59.8745C154.558 60.1145 154.518 60.3495 154.438 60.5795C154.358 60.7995 154.263 60.9995 154.153 61.1795C154.043 61.3595 153.928 61.4945 153.808 61.5845H161.758V65.2445H146.893ZM146.893 58.5545V56.0495H158.443V58.5545H146.893Z" fill="white"/>
</g>
<path d="M173.285 93.968L170.844 69.2568L193.23 80.0026L187.273 84.1733L186.338 84.8282L187.111 85.669L195.433 94.7278C195.855 95.1873 195.758 95.917 195.23 96.25L187.542 101.102C187.042 101.417 186.379 101.232 186.114 100.704L180.804 90.1021L180.285 89.0663L179.337 89.7308L173.285 93.968Z" stroke="white" stroke-width="2"/>
<path d="M294 90H223V19H294V90Z" stroke="white" stroke-width="2"/>
<rect x="292" y="17" width="4" height="4" stroke="white" stroke-width="2"/>
<rect x="221" y="17" width="4" height="4" stroke="white" stroke-width="2"/>
<rect x="221" y="88" width="4" height="4" stroke="white" stroke-width="2"/>
<rect x="292" y="88" width="4" height="4" stroke="white" stroke-width="2"/>
<g filter="url(#filter1_d_1084_1388)">
<path fill-rule="evenodd" clip-rule="evenodd" d="M256.838 53.2913L242.972 39.4254L251.602 64.6485C251.882 65.467 252.691 65.9832 253.551 65.8927L260.123 65.2013C260.68 65.1427 261.233 65.3386 261.629 65.7344L263.199 67.3051C263.924 68.0295 265.098 68.0295 265.823 67.3051L272.071 61.0564C272.796 60.332 272.796 59.1576 272.071 58.4332L270.501 56.8625C270.105 56.4667 269.909 55.9134 269.968 55.3568L270.659 48.7847C270.749 47.9244 270.233 47.1157 269.415 46.8356L244.057 38.1597L257.996 52.0982C258.868 51.6797 259.935 51.8235 260.647 52.535C261.552 53.4406 261.538 54.9227 260.616 55.8455C259.693 56.7683 258.211 56.7822 257.305 55.8767C256.612 55.183 256.457 54.1511 256.838 53.2913ZM266.368 68.7219C265.877 69.2134 265.877 70.0104 266.368 70.502C266.86 70.9936 267.657 70.9936 268.148 70.502L275.269 63.3815C275.761 62.8899 275.761 62.0929 275.269 61.6014C274.777 61.1098 273.98 61.1098 273.489 61.6014L266.368 68.7219Z" fill="white"/>
</g>
<path d="M331 23C331 20.2386 333.239 18 336 18H407C409.761 18 412 20.2386 412 23V87C412 89.7614 409.761 92 407 92H336C333.239 92 331 89.7614 331 87V23Z" stroke="white" stroke-width="2"/>
<path d="M331 23C331 20.2386 333.239 18 336 18H407C409.761 18 412 20.2386 412 23V45H331V23Z" stroke="white" stroke-width="2"/>
<mask id="mask0_1084_1388" style="mask-type:alpha" maskUnits="userSpaceOnUse" x="330" y="17" width="83" height="29">
<path d="M330 23C330 19.6863 332.686 17 336 17H407C410.314 17 413 19.6863 413 23V46H330V23Z" fill="white"/>
</mask>
<g mask="url(#mask0_1084_1388)">
<path d="M348 15L334 53" stroke="white" stroke-width="2"/>
<path d="M363 15L349 53" stroke="white" stroke-width="2"/>
<path d="M378 15L364 53" stroke="white" stroke-width="2"/>
<path d="M393 15L379 53" stroke="white" stroke-width="2"/>
<path d="M408 15L394 53" stroke="white" stroke-width="2"/>
</g>
<g filter="url(#filter2_d_1084_1388)">
<path d="M367 60L379 69.1346L367 79V60Z" fill="white"/>
</g>
<path fill-rule="evenodd" clip-rule="evenodd" d="M446 23H535C537.209 23 539 24.7909 539 27V64.3031C539.723 65.0406 540.392 65.8313 541 66.6686V27C541 23.6863 538.314 21 535 21H446C442.686 21 440 23.6863 440 27V82C440 85.3137 442.686 88 446 88H505.021C504.713 87.351 504.437 86.6836 504.195 86H446C443.791 86 442 84.2091 442 82V27C442 24.7909 443.791 23 446 23Z" fill="white"/>
<path fill-rule="evenodd" clip-rule="evenodd" d="M448 34H533V60.0209C533.688 60.3478 534.356 60.711 535 61.108V32H446V81H503.094C503.032 80.3417 503 79.6746 503 79H448V34Z" fill="white"/>
<g filter="url(#filter3_d_1084_1388)">
<path d="M477.425 64.286C476.559 64.286 475.731 64.1503 474.939 63.879C474.147 63.6003 473.454 63.2043 472.86 62.691C472.266 62.1703 471.837 61.5507 471.573 60.832L474.675 59.688C474.748 59.9007 474.909 60.106 475.159 60.304C475.415 60.502 475.738 60.667 476.127 60.799C476.515 60.9237 476.948 60.986 477.425 60.986C477.865 60.986 478.279 60.9237 478.668 60.799C479.056 60.667 479.372 60.4873 479.614 60.26C479.856 60.0327 479.977 59.7687 479.977 59.468C479.977 59.16 479.848 58.907 479.592 58.709C479.342 58.5037 479.02 58.3423 478.624 58.225C478.235 58.1003 477.835 58.0087 477.425 57.95C476.31 57.7887 475.309 57.5247 474.422 57.158C473.542 56.784 472.845 56.2707 472.332 55.618C471.826 54.9653 471.573 54.1367 471.573 53.132C471.573 52.1713 471.844 51.3317 472.387 50.613C472.929 49.887 473.644 49.3223 474.532 48.919C475.426 48.5157 476.391 48.314 477.425 48.314C478.29 48.314 479.119 48.4533 479.911 48.732C480.71 49.0033 481.407 49.3993 482.001 49.92C482.595 50.4407 483.02 51.064 483.277 51.79L480.175 52.912C480.101 52.6993 479.936 52.4977 479.68 52.307C479.43 52.109 479.111 51.9477 478.723 51.823C478.334 51.6983 477.901 51.636 477.425 51.636C476.999 51.6287 476.592 51.691 476.204 51.823C475.815 51.955 475.496 52.1347 475.247 52.362C474.997 52.5893 474.873 52.846 474.873 53.132C474.873 53.528 474.99 53.825 475.225 54.023C475.459 54.2137 475.767 54.3493 476.149 54.43C476.537 54.5107 476.963 54.584 477.425 54.65C478.481 54.804 479.452 55.079 480.34 55.475C481.227 55.871 481.938 56.399 482.474 57.059C483.009 57.719 483.277 58.522 483.277 59.468C483.277 60.4287 483.005 61.272 482.463 61.998C481.927 62.7167 481.216 63.2777 480.329 63.681C479.441 64.0843 478.473 64.286 477.425 64.286ZM485.693 64V48.6H495.505V51.9H488.993V54.1H494.009V57.4H488.993V60.7H495.505V64H485.693ZM505.068 64.286C504.026 64.286 503.047 64.0807 502.131 63.67C501.214 63.252 500.407 62.6763 499.711 61.943C499.014 61.2097 498.468 60.3627 498.072 59.402C497.676 58.434 497.478 57.4 497.478 56.3C497.478 55.2 497.676 54.1697 498.072 53.209C498.468 52.241 499.014 51.3903 499.711 50.657C500.407 49.9237 501.214 49.3517 502.131 48.941C503.047 48.523 504.026 48.314 505.068 48.314C506.116 48.314 507.099 48.523 508.016 48.941C508.932 49.3517 509.739 49.9237 510.436 50.657C511.132 51.3903 511.675 52.241 512.064 53.209C512.46 54.1697 512.658 55.2 512.658 56.3C512.658 57.4 512.46 58.434 512.064 59.402C511.675 60.3627 511.132 61.2097 510.436 61.943C509.739 62.6763 508.932 63.252 508.016 63.67C507.099 64.0807 506.116 64.286 505.068 64.286ZM505.068 60.986C505.654 60.986 506.204 60.865 506.718 60.623C507.238 60.3737 507.697 60.0363 508.093 59.611C508.489 59.1783 508.797 58.6797 509.017 58.115C509.244 57.5503 509.358 56.9453 509.358 56.3C509.358 55.6547 509.244 55.0497 509.017 54.485C508.797 53.9203 508.489 53.4253 508.093 53C507.697 52.5673 507.238 52.23 506.718 51.988C506.204 51.7387 505.654 51.614 505.068 51.614C504.481 51.614 503.927 51.7387 503.407 51.988C502.893 52.23 502.439 52.5673 502.043 53C501.647 53.4253 501.335 53.9203 501.108 54.485C500.888 55.0497 500.778 55.6547 500.778 56.3C500.778 56.9453 500.888 57.5503 501.108 58.115C501.335 58.6797 501.647 59.1783 502.043 59.611C502.439 60.0363 502.893 60.3737 503.407 60.623C503.927 60.865 504.481 60.986 505.068 60.986Z" fill="white"/>
</g>
<g filter="url(#filter4_d_1084_1388)">
<path fill-rule="evenodd" clip-rule="evenodd" d="M537.778 88.6182C537.477 88.7473 537.2 89.089 536.875 89.4917L536.875 89.4917C536.667 89.7488 536.439 90.0308 536.172 90.2981C535.905 90.5654 535.623 90.7933 535.366 91.001C534.844 91.4223 534.425 91.761 534.438 92.179C535.726 91.1724 536.854 89.9706 537.778 88.6182ZM539.483 89.6687C539.105 90.2274 538.697 90.7635 538.26 91.2746L547.061 100.076C547.368 100.383 547.368 100.88 547.061 101.187C546.754 101.493 546.257 101.493 545.95 101.187L537.188 92.4239C536.711 92.8919 536.208 93.3334 535.681 93.7458L544.536 102.601C545.624 103.689 547.388 103.689 548.475 102.601C549.563 101.513 549.563 99.7493 548.475 98.6615L539.483 89.6687Z" fill="white"/>
<path d="M540.654 78.8272C540.654 88.1207 533.121 95.6545 523.827 95.6545C514.534 95.6545 507 88.1207 507 78.8272C507 69.5338 514.534 62 523.827 62C533.121 62 540.654 69.5338 540.654 78.8272Z" stroke="white" stroke-width="2"/>
<path d="M523.825 91.0828C530.594 91.0828 536.081 85.5955 536.081 78.8265C536.081 72.0576 530.594 66.5703 523.825 66.5703C517.056 66.5703 511.568 72.0576 511.568 78.8265C511.568 85.5955 517.056 91.0828 523.825 91.0828Z" stroke="white" stroke-width="2" stroke-linecap="round" stroke-linejoin="round"/>
</g>
<circle cx="448" cy="28" r="1" stroke="white" stroke-width="2"/>
<circle cx="454" cy="28" r="1" stroke="white" stroke-width="2"/>
<circle cx="460" cy="28" r="1" stroke="white" stroke-width="2"/>
<rect x="551" y="15" width="63" height="81" rx="3" stroke="white" stroke-width="2"/>
<g filter="url(#filter5_d_1084_1388)">
<rect x="561" y="27" width="43" height="2" rx="1" fill="white"/>
<rect x="561" y="39" width="43" height="2" rx="1" fill="white"/>
<rect x="561" y="51" width="27" height="2" rx="1" fill="white"/>
</g>
<path d="M623 41H631V85.7132L627 92.1132L623 85.7132V41Z" stroke="white" stroke-width="2"/>
<path d="M623 31H631V37H623V31Z" stroke="white" stroke-width="2"/>
<rect x="681" y="11" width="87" height="14" rx="3" stroke="white" stroke-width="2"/>
<g filter="url(#filter6_d_1084_1388)">
<rect x="688" y="17" width="22" height="2" rx="1" fill="white"/>
<rect x="712" y="17" width="16" height="2" rx="1" fill="white"/>
</g>
<rect x="661" y="33" width="99" height="64.5934" rx="5" stroke="white" stroke-width="2"/>
<circle cx="668" cy="39" r="2" fill="white"/>
<circle cx="674" cy="39" r="2" fill="white"/>
<circle cx="680" cy="39" r="2" fill="white"/>
<g filter="url(#filter7_d_1084_1388)">
<rect x="667" y="47" width="87" height="20" rx="1" stroke="white" stroke-width="2"/>
<rect x="667" y="74" width="21" height="15" rx="1" stroke="white" stroke-width="2"/>
<rect x="700" y="74" width="21" height="15" rx="1" stroke="white" stroke-width="2"/>
<rect x="733" y="74" width="21" height="15" rx="1" stroke="white" stroke-width="2"/>
</g>
<rect x="771" y="14" width="47" height="84" rx="5" stroke="white" stroke-width="2"/>
<rect x="787" y="19" width="16" height="3" rx="1.5" fill="white"/>
<g filter="url(#filter8_d_1084_1388)">
<rect x="776" y="27" width="37" height="14" stroke="white" stroke-width="2"/>
<rect x="776" y="47" width="14" height="14" stroke="white" stroke-width="2"/>
<rect x="794" y="47" width="14" height="2" rx="1" fill="white"/>
<rect x="794" y="51" width="7" height="2" rx="1" fill="white"/>
<path d="M784.898 82.488L776.898 80.216V76.2L784.898 73.912V76.408L778.61 78.2L784.898 79.992V82.488ZM791.827 71.8L788.579 83.896H786.179L789.427 71.8H791.827ZM793.101 82.392V79.896L799.389 78.2L793.101 76.504V74.008L801.101 76.2V80.216L793.101 82.392Z" fill="white"/>
</g>
<path d="M23.2143 110C23.9881 110 24.6458 110.271 25.1875 110.812C25.7292 111.354 26 112.012 26 112.786V133.214C26 133.988 25.7292 134.646 25.1875 135.188C24.6458 135.729 23.9881 136 23.2143 136H15.2634V127.179H18.6295L19.2679 123H15.2634V120.272C15.2634 118.802 16.0372 118.067 17.5848 118.067H19.3839V114.527C18.3006 114.333 17.2366 114.237 16.192 114.237C15.0699 114.237 14.1027 114.449 13.2902 114.875C12.5164 115.301 11.8973 115.939 11.433 116.79C10.9688 117.641 10.7366 118.647 10.7366 119.808V123H7.08036V127.179H10.7366V136H2.78571C2.0119 136 1.35417 135.729 0.8125 135.188C0.270833 134.646 0 133.988 0 133.214V112.786C0 112.012 0.270833 111.354 0.8125 110.812C1.35417 110.271 2.0119 110 2.78571 110H23.2143Z" fill="#333333"/>
<path d="M50.1429 110C50.6458 110 51.0714 110.193 51.4196 110.58C51.8065 110.929 52 111.354 52 111.857V134.143C52 134.646 51.8065 135.071 51.4196 135.42C51.0714 135.807 50.6458 136 50.1429 136H27.8571C27.3542 136 26.9092 135.807 26.5223 135.42C26.1741 135.071 26 134.646 26 134.143V111.857C26 111.354 26.1741 110.929 26.5223 110.58C26.9092 110.193 27.3542 110 27.8571 110H50.1429ZM33.8348 132.286H33.8929V119.866H30.0045V132.286H33.8348ZM30.3527 117.545C30.7783 117.97 31.3006 118.183 31.9196 118.183C32.5387 118.183 33.061 117.97 33.4866 117.545C33.9509 117.08 34.183 116.558 34.183 115.978C34.183 115.359 33.9509 114.836 33.4866 114.411C33.061 113.946 32.5387 113.714 31.9196 113.714C31.3006 113.714 30.7783 113.946 30.3527 114.411C29.9271 114.836 29.7143 115.359 29.7143 115.978C29.7143 116.558 29.9271 117.08 30.3527 117.545ZM48.2857 132.286V125.496C48.2857 124.567 48.2277 123.774 48.1116 123.116C47.9955 122.458 47.7827 121.859 47.4732 121.317C47.1637 120.737 46.6801 120.311 46.0223 120.04C45.4033 119.731 44.6295 119.576 43.7009 119.576C42.811 119.576 42.0372 119.769 41.3795 120.156C40.7604 120.543 40.3155 121.007 40.0446 121.549H39.9866V119.866H36.2723V132.286H40.1607V126.134C40.1607 125.167 40.3155 124.393 40.625 123.812C40.9345 123.232 41.5342 122.942 42.4241 122.942C42.8884 122.942 43.2753 123.039 43.5848 123.232C43.8943 123.426 44.0878 123.716 44.1652 124.103C44.2812 124.49 44.3586 124.838 44.3973 125.147C44.436 125.418 44.4554 125.786 44.4554 126.25V132.286H48.2857Z" fill="#333333"/>
<path d="M60.2411 118.299C61.5565 116.984 63.1429 116.326 65 116.326C66.8571 116.326 68.4241 116.984 69.7009 118.299C71.0164 119.576 71.6741 121.143 71.6741 123C71.6741 124.857 71.0164 126.443 69.7009 127.759C68.4241 129.036 66.8571 129.674 65 129.674C63.1429 129.674 61.5565 129.036 60.2411 127.759C58.9643 126.443 58.3259 124.857 58.3259 123C58.3259 121.143 58.9643 119.576 60.2411 118.299ZM61.9241 126.076C62.7753 126.927 63.8006 127.353 65 127.353C66.1994 127.353 67.2247 126.927 68.0759 126.076C68.9271 125.225 69.3527 124.199 69.3527 123C69.3527 121.801 68.9271 120.775 68.0759 119.924C67.2247 119.073 66.1994 118.647 65 118.647C63.8006 118.647 62.7753 119.073 61.9241 119.924C61.0729 120.775 60.6473 121.801 60.6473 123C60.6473 124.199 61.0729 125.225 61.9241 126.076ZM73.0089 114.991C73.3185 115.262 73.4732 115.61 73.4732 116.036C73.4732 116.461 73.3185 116.829 73.0089 117.138C72.7381 117.448 72.3899 117.603 71.9643 117.603C71.5387 117.603 71.1711 117.448 70.8616 117.138C70.5521 116.829 70.3973 116.461 70.3973 116.036C70.3973 115.61 70.5521 115.262 70.8616 114.991C71.1711 114.682 71.5387 114.527 71.9643 114.527C72.3899 114.527 72.7381 114.682 73.0089 114.991ZM77.942 117.661C77.9807 118.705 78 120.485 78 123C78 125.515 77.9807 127.295 77.942 128.339C77.8259 130.699 77.1101 132.537 75.7946 133.853C74.5179 135.129 72.6994 135.807 70.3393 135.884C69.2946 135.961 67.5149 136 65 136C62.4851 136 60.7054 135.961 59.6607 135.884C57.3006 135.768 55.4821 135.071 54.2054 133.795C53.7024 133.33 53.2961 132.789 52.9866 132.17C52.6771 131.551 52.4449 130.951 52.2902 130.371C52.1741 129.79 52.1161 129.113 52.1161 128.339C52.0387 127.295 52 125.515 52 123C52 120.485 52.0387 118.686 52.1161 117.603C52.2321 115.281 52.9286 113.482 54.2054 112.205C55.4821 110.89 57.3006 110.174 59.6607 110.058C60.7054 110.019 62.4851 110 65 110C67.5149 110 69.2946 110.019 70.3393 110.058C72.6994 110.174 74.5179 110.89 75.7946 112.205C77.1101 113.482 77.8259 115.301 77.942 117.661ZM75.1562 130.661C75.2723 130.351 75.369 129.964 75.4464 129.5C75.5238 128.997 75.5818 128.417 75.6205 127.759C75.6592 127.062 75.6786 126.501 75.6786 126.076C75.6786 125.65 75.6786 125.051 75.6786 124.277C75.6786 123.503 75.6786 123.077 75.6786 123C75.6786 122.884 75.6786 122.458 75.6786 121.723C75.6786 120.949 75.6786 120.35 75.6786 119.924C75.6786 119.499 75.6592 118.957 75.6205 118.299C75.5818 117.603 75.5238 117.022 75.4464 116.558C75.369 116.055 75.2723 115.649 75.1562 115.339C74.692 114.14 73.8601 113.308 72.6607 112.844C72.3512 112.728 71.9449 112.631 71.442 112.554C70.9777 112.476 70.3973 112.418 69.7009 112.379C69.0432 112.341 68.5015 112.321 68.0759 112.321C67.689 112.321 67.0893 112.321 66.2768 112.321C65.503 112.321 65.0774 112.321 65 112.321C64.9226 112.321 64.497 112.321 63.7232 112.321C62.9494 112.321 62.3497 112.321 61.9241 112.321C61.4985 112.321 60.9375 112.341 60.2411 112.379C59.5833 112.418 59.003 112.476 58.5 112.554C58.0357 112.631 57.6488 112.728 57.3393 112.844C56.1399 113.308 55.308 114.14 54.8438 115.339C54.7277 115.649 54.631 116.055 54.5536 116.558C54.4762 117.022 54.4182 117.603 54.3795 118.299C54.3408 118.957 54.3214 119.499 54.3214 119.924C54.3214 120.311 54.3214 120.911 54.3214 121.723C54.3214 122.497 54.3214 122.923 54.3214 123C54.3214 123.155 54.3214 123.522 54.3214 124.103C54.3214 124.644 54.3214 125.109 54.3214 125.496C54.3214 125.844 54.3214 126.308 54.3214 126.888C54.3601 127.469 54.3988 127.972 54.4375 128.397C54.4762 128.784 54.5342 129.19 54.6116 129.616C54.689 130.042 54.7664 130.39 54.8438 130.661C55.3467 131.86 56.1786 132.692 57.3393 133.156C57.6488 133.272 58.0357 133.369 58.5 133.446C59.003 133.524 59.5833 133.582 60.2411 133.621C60.9375 133.659 61.4792 133.679 61.8661 133.679C62.2917 133.679 62.8914 133.679 63.6652 133.679C64.4777 133.679 64.9226 133.679 65 133.679C65.1161 133.679 65.5417 133.679 66.2768 133.679C67.0506 133.679 67.6503 133.679 68.0759 133.679C68.5015 133.679 69.0432 133.659 69.7009 133.621C70.3973 133.582 70.9777 133.524 71.442 133.446C71.9449 133.369 72.3512 133.272 72.6607 133.156C73.8601 132.653 74.692 131.821 75.1562 130.661Z" fill="#333333"/>
<g clip-path="url(#clip0_1084_1388)">
<path d="M92.2833 121.157L101.218 111H99.1006L91.3427 119.819L85.1466 111H78L87.3698 124.336L78 134.988H80.1173L88.3098 125.674L94.8534 134.988H102L92.2827 121.157H92.2833ZM89.3833 124.454L88.4339 123.126L80.8802 112.559H84.1323L90.2282 121.087L91.1776 122.415L99.1016 133.5H95.8495L89.3833 124.454V124.454Z" fill="#333333"/>
</g>
<path d="M19 139H5C3.89543 139 3 139.895 3 141V155C3 156.105 3.89543 157 5 157H19C20.1046 157 21 156.105 21 155V141C21 139.895 20.1046 139 19 139Z" stroke="white" stroke-width="1.5" stroke-linecap="round" stroke-linejoin="round"/>
<path d="M3 145H21" stroke="white" stroke-width="1.5" stroke-linecap="round" stroke-linejoin="round"/>
<path d="M9 157V145" stroke="white" stroke-width="1.5" stroke-linecap="round" stroke-linejoin="round"/>
<path d="M41 138H31C29.8954 138 29 138.895 29 140V156C29 157.105 29.8954 158 31 158H41C42.1046 158 43 157.105 43 156V140C43 138.895 42.1046 138 41 138Z" stroke="white" stroke-width="1.5" stroke-linecap="round" stroke-linejoin="round"/>
<path d="M36 154H36.01" stroke="white" stroke-width="1.5" stroke-linecap="round" stroke-linejoin="round"/>
<path d="M67 140H53C51.8954 140 51 140.895 51 142V156C51 157.105 51.8954 158 53 158H67C68.1046 158 69 157.105 69 156V142C69 140.895 68.1046 140 67 140Z" stroke="white" stroke-width="1.5" stroke-linecap="round" stroke-linejoin="round"/>
<path d="M64 138V142" stroke="white" stroke-width="1.5" stroke-linecap="round" stroke-linejoin="round"/>
<path d="M56 138V142" stroke="white" stroke-width="1.5" stroke-linecap="round" stroke-linejoin="round"/>
<path d="M51 146H69" stroke="white" stroke-width="1.5" stroke-linecap="round" stroke-linejoin="round"/>
<path d="M82 143L87 148L82 153" stroke="white" stroke-linecap="round" stroke-linejoin="round"/>
<defs>
<filter id="filter0_d_1084_1388" x="142.533" y="41.8545" width="23.5254" height="29.3896" filterUnits="userSpaceOnUse" color-interpolation-filters="sRGB">
<feFlood flood-opacity="0" result="BackgroundImageFix"/>
<feColorMatrix in="SourceAlpha" type="matrix" values="0 0 0 0 0 0 0 0 0 0 0 0 0 0 0 0 0 0 127 0" result="hardAlpha"/>
<feOffset dy="2"/>
<feGaussianBlur stdDeviation="2"/>
<feComposite in2="hardAlpha" operator="out"/>
<feColorMatrix type="matrix" values="0 0 0 0 0 0 0 0 0 0 0 0 0 0 0 0 0 0 0.15 0"/>
<feBlend mode="normal" in2="BackgroundImageFix" result="effect1_dropShadow_1084_1388"/>
<feBlend mode="normal" in="SourceGraphic" in2="effect1_dropShadow_1084_1388" result="shape"/>
</filter>
<filter id="filter1_d_1084_1388" x="238.973" y="36.1602" width="40.6641" height="40.7109" filterUnits="userSpaceOnUse" color-interpolation-filters="sRGB">
<feFlood flood-opacity="0" result="BackgroundImageFix"/>
<feColorMatrix in="SourceAlpha" type="matrix" values="0 0 0 0 0 0 0 0 0 0 0 0 0 0 0 0 0 0 127 0" result="hardAlpha"/>
<feOffset dy="2"/>
<feGaussianBlur stdDeviation="2"/>
<feComposite in2="hardAlpha" operator="out"/>
<feColorMatrix type="matrix" values="0 0 0 0 0 0 0 0 0 0 0 0 0 0 0 0 0 0 0.15 0"/>
<feBlend mode="normal" in2="BackgroundImageFix" result="effect1_dropShadow_1084_1388"/>
<feBlend mode="normal" in="SourceGraphic" in2="effect1_dropShadow_1084_1388" result="shape"/>
</filter>
<filter id="filter2_d_1084_1388" x="363" y="58" width="20" height="27" filterUnits="userSpaceOnUse" color-interpolation-filters="sRGB">
<feFlood flood-opacity="0" result="BackgroundImageFix"/>
<feColorMatrix in="SourceAlpha" type="matrix" values="0 0 0 0 0 0 0 0 0 0 0 0 0 0 0 0 0 0 127 0" result="hardAlpha"/>
<feOffset dy="2"/>
<feGaussianBlur stdDeviation="2"/>
<feComposite in2="hardAlpha" operator="out"/>
<feColorMatrix type="matrix" values="0 0 0 0 0 0 0 0 0 0 0 0 0 0 0 0 0 0 0.15 0"/>
<feBlend mode="normal" in2="BackgroundImageFix" result="effect1_dropShadow_1084_1388"/>
<feBlend mode="normal" in="SourceGraphic" in2="effect1_dropShadow_1084_1388" result="shape"/>
</filter>
<filter id="filter3_d_1084_1388" x="467.572" y="46.3145" width="49.0859" height="23.9717" filterUnits="userSpaceOnUse" color-interpolation-filters="sRGB">
<feFlood flood-opacity="0" result="BackgroundImageFix"/>
<feColorMatrix in="SourceAlpha" type="matrix" values="0 0 0 0 0 0 0 0 0 0 0 0 0 0 0 0 0 0 127 0" result="hardAlpha"/>
<feOffset dy="2"/>
<feGaussianBlur stdDeviation="2"/>
<feComposite in2="hardAlpha" operator="out"/>
<feColorMatrix type="matrix" values="0 0 0 0 0 0 0 0 0 0 0 0 0 0 0 0 0 0 0.15 0"/>
<feBlend mode="normal" in2="BackgroundImageFix" result="effect1_dropShadow_1084_1388"/>
<feBlend mode="normal" in="SourceGraphic" in2="effect1_dropShadow_1084_1388" result="shape"/>
</filter>
<filter id="filter4_d_1084_1388" x="502" y="59" width="51.291" height="50.417" filterUnits="userSpaceOnUse" color-interpolation-filters="sRGB">
<feFlood flood-opacity="0" result="BackgroundImageFix"/>
<feColorMatrix in="SourceAlpha" type="matrix" values="0 0 0 0 0 0 0 0 0 0 0 0 0 0 0 0 0 0 127 0" result="hardAlpha"/>
<feOffset dy="2"/>
<feGaussianBlur stdDeviation="2"/>
<feComposite in2="hardAlpha" operator="out"/>
<feColorMatrix type="matrix" values="0 0 0 0 0 0 0 0 0 0 0 0 0 0 0 0 0 0 0.15 0"/>
<feBlend mode="normal" in2="BackgroundImageFix" result="effect1_dropShadow_1084_1388"/>
<feBlend mode="normal" in="SourceGraphic" in2="effect1_dropShadow_1084_1388" result="shape"/>
</filter>
<filter id="filter5_d_1084_1388" x="557" y="25" width="51" height="34" filterUnits="userSpaceOnUse" color-interpolation-filters="sRGB">
<feFlood flood-opacity="0" result="BackgroundImageFix"/>
<feColorMatrix in="SourceAlpha" type="matrix" values="0 0 0 0 0 0 0 0 0 0 0 0 0 0 0 0 0 0 127 0" result="hardAlpha"/>
<feOffset dy="2"/>
<feGaussianBlur stdDeviation="2"/>
<feComposite in2="hardAlpha" operator="out"/>
<feColorMatrix type="matrix" values="0 0 0 0 0 0 0 0 0 0 0 0 0 0 0 0 0 0 0.15 0"/>
<feBlend mode="normal" in2="BackgroundImageFix" result="effect1_dropShadow_1084_1388"/>
<feBlend mode="normal" in="SourceGraphic" in2="effect1_dropShadow_1084_1388" result="shape"/>
</filter>
<filter id="filter6_d_1084_1388" x="684" y="15" width="48" height="10" filterUnits="userSpaceOnUse" color-interpolation-filters="sRGB">
<feFlood flood-opacity="0" result="BackgroundImageFix"/>
<feColorMatrix in="SourceAlpha" type="matrix" values="0 0 0 0 0 0 0 0 0 0 0 0 0 0 0 0 0 0 127 0" result="hardAlpha"/>
<feOffset dy="2"/>
<feGaussianBlur stdDeviation="2"/>
<feComposite in2="hardAlpha" operator="out"/>
<feColorMatrix type="matrix" values="0 0 0 0 0 0 0 0 0 0 0 0 0 0 0 0 0 0 0.15 0"/>
<feBlend mode="normal" in2="BackgroundImageFix" result="effect1_dropShadow_1084_1388"/>
<feBlend mode="normal" in="SourceGraphic" in2="effect1_dropShadow_1084_1388" result="shape"/>
</filter>
<filter id="filter7_d_1084_1388" x="662" y="44" width="97" height="52" filterUnits="userSpaceOnUse" color-interpolation-filters="sRGB">
<feFlood flood-opacity="0" result="BackgroundImageFix"/>
<feColorMatrix in="SourceAlpha" type="matrix" values="0 0 0 0 0 0 0 0 0 0 0 0 0 0 0 0 0 0 127 0" result="hardAlpha"/>
<feOffset dy="2"/>
<feGaussianBlur stdDeviation="2"/>
<feComposite in2="hardAlpha" operator="out"/>
<feColorMatrix type="matrix" values="0 0 0 0 0 0 0 0 0 0 0 0 0 0 0 0 0 0 0.15 0"/>
<feBlend mode="normal" in2="BackgroundImageFix" result="effect1_dropShadow_1084_1388"/>
<feBlend mode="normal" in="SourceGraphic" in2="effect1_dropShadow_1084_1388" result="shape"/>
</filter>
<filter id="filter8_d_1084_1388" x="771" y="24" width="47" height="65.8965" filterUnits="userSpaceOnUse" color-interpolation-filters="sRGB">
<feFlood flood-opacity="0" result="BackgroundImageFix"/>
<feColorMatrix in="SourceAlpha" type="matrix" values="0 0 0 0 0 0 0 0 0 0 0 0 0 0 0 0 0 0 127 0" result="hardAlpha"/>
<feOffset dy="2"/>
<feGaussianBlur stdDeviation="2"/>
<feComposite in2="hardAlpha" operator="out"/>
<feColorMatrix type="matrix" values="0 0 0 0 0 0 0 0 0 0 0 0 0 0 0 0 0 0 0.15 0"/>
<feBlend mode="normal" in2="BackgroundImageFix" result="effect1_dropShadow_1084_1388"/>
<feBlend mode="normal" in="SourceGraphic" in2="effect1_dropShadow_1084_1388" result="shape"/>
</filter>
<clipPath id="clip0_1084_1388">
<rect width="24" height="24" fill="white" transform="translate(78 111)"/>
</clipPath>
</defs>
</svg>
