<svg width="110" height="110" viewBox="0 0 110 110" fill="none" xmlns="http://www.w3.org/2000/svg">
<rect x="3" y="1" width="103" height="68.5934" rx="7" stroke="white" stroke-width="2"/>
<path d="M10 12H9V13V62V63H10H99H100V62V13V12H99H10Z" stroke="white" stroke-width="2"/>
<circle cx="12" cy="7" r="2" fill="white"/>
<circle cx="18" cy="7" r="2" fill="white"/>
<circle cx="24" cy="7" r="2" fill="white"/>
<mask id="path-6-inside-1_1800_8096" fill="white">
<path d="M47.4507 37.2761C47.4507 40.3863 46.5284 43.4267 44.8005 46.0127C43.0726 48.5987 40.6166 50.6143 37.7432 51.8045C34.8698 52.9947 31.7079 53.3061 28.6575 52.6993C25.6071 52.0926 22.8051 50.5949 20.6058 48.3956C18.4066 46.1964 16.9089 43.3944 16.3022 40.344C15.6954 37.2936 16.0068 34.1317 17.197 31.2583C18.3872 28.3849 20.4028 25.9289 22.9888 24.201C25.5748 22.4731 28.6152 21.5508 31.7254 21.5508V37.2761H47.4507Z"/>
</mask>
<path d="M47.4507 37.2761C47.4507 40.3863 46.5284 43.4267 44.8005 46.0127C43.0726 48.5987 40.6166 50.6143 37.7432 51.8045C34.8698 52.9947 31.7079 53.3061 28.6575 52.6993C25.6071 52.0926 22.8051 50.5949 20.6058 48.3956C18.4066 46.1964 16.9089 43.3944 16.3022 40.344C15.6954 37.2936 16.0068 34.1317 17.197 31.2583C18.3872 28.3849 20.4028 25.9289 22.9888 24.201C25.5748 22.4731 28.6152 21.5508 31.7254 21.5508V37.2761H47.4507Z" stroke="white" stroke-width="4" mask="url(#path-6-inside-1_1800_8096)"/>
<path d="M47.8789 29.0902C48.491 30.5681 48.8574 32.1338 48.9658 33.7254H35.2744L35.2744 20.034C36.866 20.1423 38.4317 20.5087 39.9096 21.1209C41.6961 21.8609 43.3194 22.9456 44.6868 24.313C46.0542 25.6803 47.1388 27.3036 47.8789 29.0902Z" stroke="white" stroke-width="2"/>
<ellipse cx="58.5" cy="44.5" rx="2.5" ry="2.5" fill="white"/>
<ellipse cx="67.5" cy="46.5" rx="2.5" ry="2.5" fill="white"/>
<ellipse cx="74.5" cy="34.5" rx="2.5" ry="2.5" fill="white"/>
<ellipse cx="84.5" cy="38.5" rx="2.5" ry="2.5" fill="white"/>
<path fill-rule="evenodd" clip-rule="evenodd" d="M89.9772 27.9258L86.0983 35.3852C86.7323 35.7112 87.2537 36.225 87.5893 36.8531L91.7186 28.9122C91.0428 28.7581 90.4414 28.4084 89.9772 27.9258ZM81.0227 38.0993C81.1026 37.397 81.3905 36.7578 81.8232 36.2447L77.9443 33.8742C77.9809 34.0772 78 34.2862 78 34.4997C78 35.0507 77.8727 35.572 77.6458 36.0357L81.0227 38.0993ZM73.2394 37.7658C72.591 37.5154 72.0359 37.0775 71.6405 36.5185L68.1019 43.0513C68.7879 43.1702 69.4054 43.4888 69.8924 43.945L73.2394 37.7658ZM64.015 46.8258C64.0051 46.7184 64 46.6097 64 46.4997C64 45.8968 64.1525 45.3294 64.421 44.8341L61.9381 43.841C61.9787 44.0543 62 44.2746 62 44.4997C62 44.9987 61.8956 45.4733 61.7074 45.9028L64.015 46.8258ZM56.5787 47.4257C56.0006 47.0453 55.5419 46.4982 55.2711 45.8527L51.2137 51.0167C50.8725 51.451 50.9479 52.0796 51.3822 52.4208C51.8165 52.762 52.4451 52.6866 52.7864 52.2523L56.5787 47.4257Z" fill="white"/>
<ellipse cx="92.5" cy="25.5" rx="2.5" ry="2.5" fill="white"/>
</svg>
