<svg width="204" height="35" viewBox="0 0 204 35" fill="none" xmlns="http://www.w3.org/2000/svg">
<rect y="14.3999" width="2" height="6.2" rx="1" fill="#666666"/>
<rect x="4.24207" y="7.54736" width="2" height="19.9053" rx="1" fill="#666666"/>
<rect x="8.48425" y="2" width="2" height="31" rx="1" fill="#666666"/>
<rect x="12.7263" y="7.54736" width="2" height="19.9053" rx="1" fill="#666666"/>
<rect x="16.9684" y="15.0527" width="2" height="4.89474" rx="1" fill="#666666"/>
<rect x="21.2106" y="7.54736" width="2" height="19.9053" rx="1" fill="#666666"/>
<rect x="25.4526" y="2" width="2" height="31" rx="1" fill="#666666"/>
<rect x="29.6947" y="7.54736" width="2" height="19.9053" rx="1" fill="#666666"/>
<rect x="33.9369" y="14.3999" width="2" height="6.2" rx="1" fill="#666666"/>
<rect x="38.179" y="10.8105" width="2" height="13.3789" rx="1" fill="#666666"/>
<rect x="42.421" y="4.6106" width="2" height="25.7789" rx="1" fill="#666666"/>
<rect x="46.6632" y="15.7053" width="2" height="3.58947" rx="1" fill="#666666"/>
<rect x="51.2737" y="10.8098" width="2" height="13.3779" rx="1" fill="#666666"/>
<rect x="55.5155" y="3.95776" width="2" height="27.0822" rx="1" fill="#666666"/>
<rect x="59.7572" y="0.368652" width="2" height="34.2606" rx="1" fill="#666666"/>
<rect x="63.999" y="11.7888" width="2" height="11.4202" rx="1" fill="#666666"/>
<rect x="68.2408" y="8.85205" width="2" height="17.2934" rx="1" fill="#666666"/>
<rect x="72.4826" y="4.61035" width="2" height="25.777" rx="1" fill="#666666"/>
<rect x="76.7244" y="13.7466" width="2" height="7.5047" rx="1" fill="#666666"/>
<rect x="80.9662" y="1.02124" width="2" height="32.9554" rx="1" fill="#666666"/>
<rect x="85.208" y="10.1572" width="2" height="14.6831" rx="1" fill="#666666"/>
<rect x="89.4498" y="15.7043" width="2" height="3.58921" rx="1" fill="#666666"/>
<rect x="93.6916" y="7.2207" width="2" height="20.5564" rx="1" fill="#666666"/>
<rect x="97.9333" y="11.7888" width="2" height="11.4202" rx="1" fill="#666666"/>
<rect x="102.544" y="15.0518" width="2" height="4.89437" rx="1" fill="#666666"/>
<rect x="106.785" y="9.50464" width="2" height="15.9883" rx="1" fill="#666666"/>
<rect x="111.027" y="4.61035" width="2" height="25.777" rx="1" fill="#666666"/>
<rect x="115.269" y="9.50464" width="2" height="15.9883" rx="1" fill="#666666"/>
<rect x="119.511" y="1.02124" width="2" height="32.9554" rx="1" fill="#666666"/>
<rect x="123.753" y="11.7888" width="2" height="11.4202" rx="1" fill="#666666"/>
<rect x="127.994" y="15.0518" width="2" height="4.89437" rx="1" fill="#666666"/>
<rect x="132.236" y="7.2207" width="2" height="20.5564" rx="1" fill="#666666"/>
<rect x="136.478" y="3.63135" width="2" height="27.7348" rx="1" fill="#666666"/>
<rect x="140.72" y="11.1362" width="2" height="12.7254" rx="1" fill="#666666"/>
<rect x="144.962" y="2" width="2" height="30.9977" rx="1" fill="#666666"/>
<rect x="149.203" y="15.0518" width="2" height="4.89437" rx="1" fill="#666666"/>
<rect x="153.814" y="11.1362" width="2" height="12.7254" rx="1" fill="#666666"/>
<rect x="158.055" y="3.63135" width="2" height="27.7348" rx="1" fill="#666666"/>
<rect x="162.297" y="13.4202" width="2" height="8.15728" rx="1" fill="#666666"/>
<rect x="166.539" y="16.0305" width="2" height="2.93662" rx="1" fill="#666666"/>
<rect x="170.781" y="6.56812" width="2" height="21.8615" rx="1" fill="#666666"/>
<rect x="175.023" y="2" width="2" height="30.9977" rx="1" fill="#666666"/>
<rect x="179.264" y="11.7888" width="2" height="11.4202" rx="1" fill="#666666"/>
<rect x="183.506" y="14.0728" width="2" height="6.85212" rx="1" fill="#666666"/>
<rect x="187.748" y="7.2207" width="2" height="20.5564" rx="1" fill="#666666"/>
<rect x="191.99" y="15.0518" width="2" height="4.89437" rx="1" fill="#666666"/>
<rect x="196.232" y="9.17847" width="2" height="16.6409" rx="1" fill="#666666"/>
<rect x="200.473" y="12.4414" width="2" height="10.115" rx="1" fill="#666666"/>
</svg>
