<svg width="109" height="109" viewBox="0 0 109 109" fill="none" xmlns="http://www.w3.org/2000/svg">
<rect x="4" width="101" height="66.5934" rx="6" fill="#232323"/>
<path d="M9.54956 7.54945C9.54956 6.44488 10.445 5.54945 11.5496 5.54945H97.4507C98.5552 5.54945 99.4507 6.44488 99.4507 7.54945V54.6044C99.4507 55.709 98.5552 56.6044 97.4507 56.6044H11.5496C10.445 56.6044 9.54956 55.709 9.54956 54.6044V7.54945Z" fill="white"/>
<rect x="46.1758" y="64.3736" width="16.6484" height="7.76923" fill="#232323"/>
<rect x="43.9561" y="71.033" width="21.0879" height="3.32967" fill="#232323"/>
<rect x="18" y="15" width="20" height="4" rx="2" fill="#232323"/>
<rect x="40" y="15" width="10" height="4" rx="2" fill="#232323"/>
<rect x="52" y="15" width="42" height="4" rx="2" fill="#232323"/>
<rect x="18" y="22" width="35" height="4" rx="2" fill="#232323"/>
<rect x="55" y="22" width="20" height="4" rx="2" fill="#232323"/>
<rect x="18" y="29" width="13" height="4" rx="2" fill="#232323"/>
<rect x="18" y="35" width="21" height="4" rx="2" fill="#232323"/>
<rect x="18" y="41" width="26" height="4" rx="2" fill="#232323"/>
<rect x="46" y="41" width="13" height="4" rx="2" fill="#232323"/>
<rect x="61" y="41" width="20" height="4" rx="2" fill="#232323"/>
<rect x="41" y="35" width="25" height="4" rx="2" fill="#232323"/>
<rect x="68" y="35" width="20" height="4" rx="2" fill="#232323"/>
<rect x="33" y="29" width="26" height="4" rx="2" fill="#232323"/>
<rect x="61" y="29" width="11" height="4" rx="2" fill="#232323"/>
<rect x="74" y="29" width="11" height="4" rx="2" fill="#232323"/>
</svg>
