<svg width="25" height="24" viewBox="0 0 25 24" fill="none" xmlns="http://www.w3.org/2000/svg">
<path d="M20.6744 17.5C21.5028 17.5 22.1744 18.1716 22.1744 19C22.1744 19.7797 21.5795 20.4204 20.8189 20.4931L20.6744 20.5H4.67441C3.84598 20.5 3.17441 19.8284 3.17441 19C3.17441 18.2203 3.76929 17.5796 4.52995 17.5069L4.67441 17.5H20.6744ZM20.6744 10.5C21.5028 10.5 22.1744 11.1716 22.1744 12C22.1744 12.8284 21.5028 13.5 20.6744 13.5H4.67441C3.84598 13.5 3.17441 12.8284 3.17441 12C3.17441 11.1716 3.84598 10.5 4.67441 10.5H20.6744ZM20.6744 3.5C21.5028 3.5 22.1744 4.17157 22.1744 5C22.1744 5.82843 21.5028 6.5 20.6744 6.5H4.67441C3.84598 6.5 3.17441 5.82843 3.17441 5C3.17441 4.17157 3.84598 3.5 4.67441 3.5H20.6744Z" fill="white"/>
</svg>
