<svg width="109" height="109" viewBox="0 0 109 109" fill="none" xmlns="http://www.w3.org/2000/svg">
<path d="M37.6374 58.2066C41.4332 46.8192 58.198 41.8635 66.1059 40.8091H67.6875L70.1064 60.0363C70.1064 60.0363 77.5111 66.5916 78.6203 70.0779C78.7804 70.5812 78.6541 71.1102 78.4509 71.5977L71.8763 87.3767C71.2553 88.8673 69.7991 89.8383 68.1843 89.8383H47.1269C43.3311 89.8383 39.219 85.6207 37.6374 83.5119H23V58.2066H37.6374Z" fill="white"/>
<rect x="57.7852" y="20.6207" width="12.4976" height="41.3383" fill="#121212"/>
<rect x="61" y="35" width="11" height="43" fill="white"/>
<rect x="57.7852" y="59.075" width="15.3817" height="3" fill="#121212"/>
<rect x="29.73" y="56.1908" width="4.80678" height="29.802" fill="#121212"/>
<rect x="42.3452" y="2" width="46.6552" height="30.7241" rx="4" fill="white"/>
<path d="M73.613 21.7363H74.4323C75.0513 21.7363 75.6036 21.6392 76.0891 21.445C76.5746 21.2508 76.9813 20.9837 77.309 20.6439C77.6488 20.304 77.9037 19.9035 78.0737 19.4422C78.2557 18.9688 78.3468 18.453 78.3468 17.8946C78.3468 17.3484 78.2557 16.8386 78.0737 16.3653C77.8916 15.8919 77.6306 15.4853 77.2908 15.1454C76.9631 14.8055 76.5564 14.5385 76.0709 14.3443C75.5854 14.1501 75.0392 14.053 74.4323 14.053H73.613V21.7363ZM70.0444 11.0306H75.3244C76.2591 11.0306 77.133 11.2188 77.9462 11.5951C78.7716 11.9713 79.4877 12.4751 80.0946 13.1062C80.7137 13.7253 81.1992 14.4535 81.5512 15.2911C81.9032 16.1164 82.0792 16.9843 82.0792 17.8946C82.0792 18.7928 81.9032 19.6607 81.5512 20.4982C81.2113 21.3236 80.7319 22.0519 80.1128 22.6831C79.506 23.3142 78.7898 23.818 77.9644 24.1942C77.1512 24.5705 76.2712 24.7586 75.3244 24.7586H70.0444V11.0306Z" fill="#121212"/>
<path d="M67.1769 11.0306V24.7586H63.6084V11.0306H67.1769Z" fill="#121212"/>
<path d="M54.5705 21.9912H55.3534C56.2516 21.9912 56.8949 21.8759 57.2833 21.6453C57.6717 21.4146 57.866 21.0444 57.866 20.5346C57.866 20.0248 57.6717 19.6546 57.2833 19.424C56.8949 19.1934 56.2516 19.0781 55.3534 19.0781H54.5705V21.9912ZM54.5705 16.4199H55.226C56.3426 16.4199 56.901 15.9768 56.901 15.0908C56.901 14.2047 56.3426 13.7617 55.226 13.7617H54.5705V16.4199ZM51.002 11.0306H56.3184C57.5807 11.0306 58.5396 11.3341 59.1951 11.941C59.8505 12.5479 60.1782 13.4218 60.1782 14.5628C60.1782 15.2546 60.0508 15.8312 59.7959 16.2924C59.5531 16.7415 59.1769 17.1239 58.6671 17.4395C59.1769 17.5366 59.6077 17.6883 59.9597 17.8946C60.3239 18.0888 60.6152 18.3316 60.8337 18.6229C61.0643 18.9142 61.2282 19.242 61.3253 19.6061C61.4224 19.9702 61.4709 20.3586 61.4709 20.7713C61.4709 21.4146 61.3556 21.9851 61.125 22.4828C60.9065 22.9804 60.5909 23.3992 60.1782 23.7391C59.7777 24.0789 59.2861 24.3338 58.7035 24.5037C58.1209 24.6737 57.4654 24.7586 56.7371 24.7586H51.002V11.0306Z" fill="#121212"/>
</svg>
