<svg width="109" height="109" viewBox="0 0 109 109" fill="none" xmlns="http://www.w3.org/2000/svg">
<rect width="109" height="109" fill="#111734"/>
<path d="M40.2737 92.5567V103H84.109L82.8184 71.6702C86.6861 62.5324 97 53.3945 97 41.6458C97 -10.5705 18.3564 -17.0976 20.9349 41.6458C19.6456 44.2566 16.5515 50.0005 14.4887 52.0891C11.9102 54.6999 13.1994 57.3107 14.4887 58.6162C15.7779 59.9216 18.3564 59.9216 18.3564 62.5324C18.3564 64.621 20.0754 66.8837 20.9349 67.754C20.9349 67.754 18.3564 67.754 18.3564 70.3648C18.3564 72.9756 19.6456 71.4092 19.6456 75.5865C19.6456 80.8081 20.9351 83.4189 31.249 84.7243C39.5001 85.7686 40.7034 90.3811 40.2737 92.5567Z" fill="white"/>
<rect x="39.5801" y="29.5" width="31" height="31" transform="rotate(-45 39.5801 29.5)" fill="#111734"/>
<path d="M65.7626 29C65.7626 31.4281 65.2954 33.6019 64.5621 35.1499C63.8108 36.7361 62.871 37.5 61.9995 37.5C61.1279 37.5 60.1882 36.7361 59.4368 35.1499C58.7036 33.6019 58.2363 31.4281 58.2363 29C58.2363 26.5719 58.7036 24.3981 59.4368 22.8501C60.1882 21.2639 61.1279 20.5 61.9995 20.5C62.871 20.5 63.8108 21.2639 64.5621 22.8501C65.2954 24.3981 65.7626 26.5719 65.7626 29Z" stroke="white"/>
<path d="M63.6729 25.6298C65.8479 26.7093 67.5873 28.0941 68.648 29.4392C69.7348 30.8174 70.0013 31.9987 69.6138 32.7794C69.2264 33.5601 68.1243 34.0623 66.3695 34.0301C64.6568 33.9988 62.502 33.451 60.327 32.3715C58.152 31.2921 56.4126 29.9072 55.3519 28.5621C54.2651 27.184 53.9986 26.0026 54.3861 25.2219C54.7735 24.4412 55.8755 23.9391 57.6304 23.9712C59.343 24.0025 61.4979 24.5504 63.6729 25.6298Z" stroke="white"/>
<path d="M60.3271 25.6298C58.1521 26.7093 56.4127 28.0941 55.352 29.4392C54.2652 30.8174 53.9987 31.9987 54.3862 32.7794C54.7736 33.5601 55.8757 34.0623 57.6305 34.0301C59.3432 33.9988 61.498 33.451 63.673 32.3715C65.848 31.2921 67.5874 29.9072 68.6481 28.5621C69.7349 27.184 70.0014 26.0026 69.6139 25.2219C69.2265 24.4412 68.1245 23.9391 66.3696 23.9712C64.657 24.0025 62.5021 24.5504 60.3271 25.6298Z" stroke="white"/>
</svg>
