<svg width="109" height="109" viewBox="0 0 109 109" fill="none" xmlns="http://www.w3.org/2000/svg">
<rect width="109" height="109" fill="#121212"/>
<rect x="4" width="101" height="66.5934" rx="6" fill="white"/>
<path d="M10 11H99V60H10V11Z" fill="#121212"/>
<circle cx="12" cy="6" r="2" fill="#121212"/>
<circle cx="18" cy="6" r="2" fill="#121212"/>
<circle cx="24" cy="6" r="2" fill="#121212"/>
<path d="M44 44.8473C44 44.4094 44.2848 44.0225 44.7029 43.8924L54 41V48H45C44.4477 48 44 47.5523 44 47V44.8473Z" fill="#D9D9D9"/>
<path d="M64 44.8473C64 44.4094 63.7152 44.0225 63.2971 43.8924L54 41V48H63C63.5523 48 64 47.5523 64 47V44.8473Z" fill="#D9D9D9"/>
<circle cx="53.6306" cy="48.2826" r="5.97826" fill="white"/>
<circle cx="47.1091" cy="53.7174" r="5.97826" fill="white"/>
<circle cx="40.5867" cy="58.0652" r="5.97826" fill="white"/>
<circle cx="32.9783" cy="60.2391" r="5.97826" fill="white"/>
<circle cx="62.3259" cy="53.7174" r="5.97826" fill="white"/>
<circle cx="71.0222" cy="58.0652" r="5.97826" fill="white"/>
<circle cx="61.239" cy="59.1522" r="5.97826" fill="white"/>
<ellipse cx="51.4569" cy="57.5217" rx="8.15217" ry="6.52174" fill="white"/>
<path d="M54 13C59.9127 13 63 21.5091 63 24.5244C63 29.3113 60.0205 39.5652 58.3984 44.7928C57.8016 46.7162 56.0163 48 54.0024 48C51.9862 48 50.1994 46.7134 49.6037 44.7872C47.9821 39.5438 45 29.2577 45 24.5244C45 21.5229 48.1088 13 54 13Z" fill="white"/>
<circle cx="54" cy="25" r="2.5" fill="#121212" stroke="#121212"/>
</svg>
