<svg width="109" height="109" viewBox="0 0 109 109" fill="none" xmlns="http://www.w3.org/2000/svg">
<rect width="109" height="109" fill="#121212"/>
<path d="M38.6374 59.2066C42.4332 47.8192 59.198 42.8635 67.1059 41.8091H68.6875L71.1064 61.0363C71.1064 61.0363 78.5111 67.5916 79.6203 71.0779C79.7804 71.5812 79.6541 72.1102 79.4509 72.5977L72.8763 88.3767C72.2553 89.8673 70.7991 90.8383 69.1843 90.8383H48.1269C44.3311 90.8383 40.219 86.6207 38.6374 84.5119H24V59.2066H38.6374Z" fill="white"/>
<rect x="58.7852" y="21.6207" width="12.4976" height="41.3383" fill="#121212"/>
<rect x="62" y="36" width="11" height="43" fill="white"/>
<rect x="58.7852" y="60.075" width="15.3817" height="3" fill="#121212"/>
<rect x="30.73" y="57.1908" width="4.80678" height="29.802" fill="#121212"/>
<circle cx="67.5" cy="18.5" r="17.5" fill="white" stroke="black" stroke-width="2"/>
<path d="M73.1936 25H62.857V22.2876H73.1936V25ZM70.6027 19.4538H62.8232V16.9034H70.6027V19.4538ZM67.5597 15.0007L67.7757 20.7021C67.7981 21.3363 67.652 21.8491 67.3371 22.2404C67.0222 22.6272 66.4892 22.9691 65.738 23.266L63.8488 22.2876C64.0242 22.2292 64.1547 22.137 64.2401 22.011C64.3301 21.8806 64.3886 21.7231 64.4156 21.5387C64.4471 21.3543 64.4606 21.1474 64.4561 20.918L64.2469 15.0007C64.2154 14.1551 64.3818 13.4331 64.7462 12.8349C65.115 12.2366 65.6368 11.7801 66.3115 11.4652C66.9862 11.1503 67.7667 10.9929 68.6528 10.9929C69.377 10.9929 70.018 11.0851 70.5757 11.2695C71.1335 11.4495 71.6035 11.7126 71.9859 12.0589C72.3727 12.4053 72.6651 12.8214 72.863 13.3072C73.0654 13.793 73.1711 14.3395 73.1801 14.9467L70.0562 14.9872C70.0517 14.6364 69.9865 14.362 69.8605 14.1641C69.7391 13.9616 69.5749 13.8222 69.368 13.7457C69.1656 13.6648 68.9384 13.6243 68.6865 13.6243C68.4526 13.6243 68.2502 13.676 68.0793 13.7795C67.9128 13.8784 67.7824 14.0314 67.6879 14.2383C67.598 14.4407 67.5552 14.6948 67.5597 15.0007Z" fill="black"/>
</svg>
