<svg width="24" height="24" viewBox="0 0 24 24" fill="none" xmlns="http://www.w3.org/2000/svg">
<path d="M6.06066 3.93934C5.47487 3.35355 4.52513 3.35355 3.93934 3.93934C3.35355 4.52513 3.35355 5.47487 3.93934 6.06066L8.11091 10.2322C10.2588 12.3801 13.7412 12.3801 15.8891 10.2322L20.0607 6.06066C20.6464 5.47487 20.6464 4.52513 20.0607 3.93934C19.4749 3.35355 18.5251 3.35355 17.9393 3.93934L13.7678 8.11091C12.7915 9.08722 11.2085 9.08722 10.2322 8.11091L6.06066 3.93934ZM6.06066 20.0607C5.47487 20.6464 4.52513 20.6464 3.93934 20.0607C3.35355 19.4749 3.35355 18.5251 3.93934 17.9393L8.11091 13.7678C10.2588 11.6199 13.7412 11.6199 15.8891 13.7678L20.0607 17.9393C20.6464 18.5251 20.6464 19.4749 20.0607 20.0607C19.4749 20.6464 18.5251 20.6464 17.9393 20.0607L13.7678 15.8891C12.7915 14.9128 11.2085 14.9128 10.2322 15.8891L6.06066 20.0607Z" fill="#0A0A0A"/>
</svg>
