<svg width="197" height="21" viewBox="0 0 197 21" fill="none" xmlns="http://www.w3.org/2000/svg">
<path d="M12.694 13.249C12.8553 13.249 12.9983 13.3113 13.123 13.436L14.289 14.701C13.6437 15.5003 12.848 16.1127 11.902 16.538C10.9633 16.9633 9.834 17.176 8.514 17.176C7.33333 17.176 6.27 16.9743 5.324 16.571C4.38533 16.1677 3.58233 15.6067 2.915 14.888C2.24767 14.1693 1.73433 13.3113 1.375 12.314C1.023 11.3167 0.847 10.2277 0.847 9.047C0.847 7.85167 1.03767 6.759 1.419 5.769C1.80033 4.77167 2.33567 3.91367 3.025 3.195C3.72167 2.47633 4.55033 1.919 5.511 1.523C6.47167 1.11967 7.535 0.918 8.701 0.918C9.85967 0.918 10.8863 1.10867 11.781 1.49C12.683 1.87133 13.4493 2.37 14.08 2.986L13.09 4.361C13.0313 4.449 12.9543 4.526 12.859 4.592C12.771 4.658 12.6463 4.691 12.485 4.691C12.375 4.691 12.2613 4.66167 12.144 4.603C12.0267 4.537 11.8983 4.46 11.759 4.372C11.6197 4.27667 11.4583 4.174 11.275 4.064C11.0917 3.954 10.879 3.855 10.637 3.767C10.395 3.67167 10.1127 3.59467 9.79 3.536C9.47467 3.47 9.108 3.437 8.69 3.437C7.97867 3.437 7.326 3.56533 6.732 3.822C6.14533 4.07133 5.63933 4.438 5.214 4.922C4.78867 5.39867 4.45867 5.98533 4.224 6.682C3.98933 7.37133 3.872 8.15967 3.872 9.047C3.872 9.94167 3.99667 10.7373 4.246 11.434C4.50267 12.1307 4.84733 12.7173 5.28 13.194C5.71267 13.6707 6.22233 14.0373 6.809 14.294C7.39567 14.5433 8.02633 14.668 8.701 14.668C9.10433 14.668 9.46733 14.646 9.79 14.602C10.12 14.558 10.4207 14.4883 10.692 14.393C10.9707 14.2977 11.231 14.1767 11.473 14.03C11.7223 13.876 11.968 13.689 12.21 13.469C12.2833 13.403 12.3603 13.3517 12.441 13.315C12.5217 13.271 12.606 13.249 12.694 13.249ZM20.6446 5.538C21.4806 5.538 22.2396 5.67367 22.9216 5.945C23.6109 6.21633 24.1976 6.60133 24.6816 7.1C25.1729 7.59867 25.5506 8.20733 25.8146 8.926C26.0786 9.64467 26.2106 10.4477 26.2106 11.335C26.2106 12.2297 26.0786 13.0363 25.8146 13.755C25.5506 14.4737 25.1729 15.086 24.6816 15.592C24.1976 16.098 23.6109 16.4867 22.9216 16.758C22.2396 17.0293 21.4806 17.165 20.6446 17.165C19.8013 17.165 19.0349 17.0293 18.3456 16.758C17.6563 16.4867 17.0659 16.098 16.5746 15.592C16.0906 15.086 15.7129 14.4737 15.4416 13.755C15.1776 13.0363 15.0456 12.2297 15.0456 11.335C15.0456 10.4477 15.1776 9.64467 15.4416 8.926C15.7129 8.20733 16.0906 7.59867 16.5746 7.1C17.0659 6.60133 17.6563 6.21633 18.3456 5.945C19.0349 5.67367 19.8013 5.538 20.6446 5.538ZM20.6446 15.075C21.5833 15.075 22.2763 14.7597 22.7236 14.129C23.1783 13.4983 23.4056 12.5743 23.4056 11.357C23.4056 10.1397 23.1783 9.212 22.7236 8.574C22.2763 7.936 21.5833 7.617 20.6446 7.617C19.6913 7.617 18.9836 7.93967 18.5216 8.585C18.0669 9.223 17.8396 10.147 17.8396 11.357C17.8396 12.567 18.0669 13.491 18.5216 14.129C18.9836 14.7597 19.6913 15.075 20.6446 15.075ZM28.2834 17V5.714H29.9444C30.2964 5.714 30.5274 5.879 30.6374 6.209L30.8134 7.045C31.0114 6.825 31.2167 6.62333 31.4294 6.44C31.6494 6.25667 31.8804 6.099 32.1224 5.967C32.3717 5.835 32.6357 5.73233 32.9144 5.659C33.2004 5.57833 33.5121 5.538 33.8494 5.538C34.5607 5.538 35.1437 5.73233 35.5984 6.121C36.0604 6.50233 36.4051 7.012 36.6324 7.65C36.8084 7.276 37.0284 6.957 37.2924 6.693C37.5564 6.42167 37.8461 6.20167 38.1614 6.033C38.4767 5.86433 38.8104 5.73967 39.1624 5.659C39.5217 5.57833 39.8811 5.538 40.2404 5.538C40.8637 5.538 41.4174 5.63333 41.9014 5.824C42.3854 6.01467 42.7924 6.29333 43.1224 6.66C43.4524 7.02667 43.7017 7.474 43.8704 8.002C44.0464 8.53 44.1344 9.135 44.1344 9.817V17H41.4174V9.817C41.4174 9.09833 41.2597 8.55933 40.9444 8.2C40.6291 7.83333 40.1671 7.65 39.5584 7.65C39.2797 7.65 39.0194 7.69767 38.7774 7.793C38.5427 7.88833 38.3337 8.02767 38.1504 8.211C37.9744 8.387 37.8351 8.61067 37.7324 8.882C37.6297 9.15333 37.5784 9.465 37.5784 9.817V17H34.8504V9.817C34.8504 9.06167 34.6964 8.51167 34.3884 8.167C34.0877 7.82233 33.6441 7.65 33.0574 7.65C32.6614 7.65 32.2911 7.749 31.9464 7.947C31.6091 8.13767 31.2937 8.40167 31.0004 8.739V17H28.2834ZM49.434 14.074C49.742 14.448 50.0757 14.712 50.435 14.866C50.8017 15.02 51.1977 15.097 51.623 15.097C52.0337 15.097 52.404 15.02 52.734 14.866C53.064 14.712 53.3427 14.4773 53.57 14.162C53.8047 13.8467 53.9843 13.4507 54.109 12.974C54.2337 12.49 54.296 11.9217 54.296 11.269C54.296 10.609 54.241 10.0517 54.131 9.597C54.0283 9.135 53.878 8.761 53.68 8.475C53.482 8.189 53.24 7.98 52.954 7.848C52.6753 7.716 52.3563 7.65 51.997 7.65C51.4323 7.65 50.952 7.771 50.556 8.013C50.16 8.24767 49.786 8.58133 49.434 9.014V14.074ZM49.291 7.254C49.753 6.73333 50.2773 6.31167 50.864 5.989C51.4507 5.66633 52.14 5.505 52.932 5.505C53.548 5.505 54.109 5.63333 54.615 5.89C55.1283 6.14667 55.5683 6.52067 55.935 7.012C56.309 7.496 56.595 8.09733 56.793 8.816C56.9983 9.52733 57.101 10.345 57.101 11.269C57.101 12.1123 56.9873 12.8933 56.76 13.612C56.5327 14.3307 56.2063 14.954 55.781 15.482C55.363 16.01 54.8533 16.4243 54.252 16.725C53.658 17.0183 52.9907 17.165 52.25 17.165C51.6193 17.165 51.0803 17.0697 50.633 16.879C50.1857 16.681 49.786 16.4097 49.434 16.065V20.685H46.717V5.714H48.378C48.73 5.714 48.961 5.879 49.071 6.209L49.291 7.254ZM66.4919 10.059C66.4919 9.707 66.4406 9.377 66.3379 9.069C66.2426 8.75367 66.0959 8.47867 65.8979 8.244C65.6999 8.00933 65.4469 7.826 65.1389 7.694C64.8382 7.55467 64.4862 7.485 64.0829 7.485C63.2982 7.485 62.6786 7.70867 62.2239 8.156C61.7766 8.60333 61.4906 9.23767 61.3659 10.059H66.4919ZM61.3109 11.698C61.3549 12.2773 61.4576 12.7797 61.6189 13.205C61.7802 13.623 61.9929 13.9713 62.2569 14.25C62.5209 14.5213 62.8326 14.7267 63.1919 14.866C63.5586 14.998 63.9619 15.064 64.4019 15.064C64.8419 15.064 65.2196 15.0127 65.5349 14.91C65.8576 14.8073 66.1362 14.6937 66.3709 14.569C66.6129 14.4443 66.8219 14.3307 66.9979 14.228C67.1812 14.1253 67.3572 14.074 67.5259 14.074C67.7532 14.074 67.9219 14.1583 68.0319 14.327L68.8129 15.317C68.5122 15.669 68.1749 15.966 67.8009 16.208C67.4269 16.4427 67.0346 16.6333 66.6239 16.78C66.2206 16.9193 65.8062 17.0183 65.3809 17.077C64.9629 17.1357 64.5559 17.165 64.1599 17.165C63.3752 17.165 62.6456 17.0367 61.9709 16.78C61.2962 16.516 60.7096 16.131 60.2109 15.625C59.7122 15.1117 59.3199 14.481 59.0339 13.733C58.7479 12.9777 58.6049 12.105 58.6049 11.115C58.6049 10.345 58.7296 9.62267 58.9789 8.948C59.2282 8.266 59.5839 7.67567 60.0459 7.177C60.5152 6.671 61.0836 6.27133 61.7509 5.978C62.4256 5.68467 63.1846 5.538 64.0279 5.538C64.7392 5.538 65.3956 5.65167 65.9969 5.879C66.5982 6.10633 67.1152 6.44 67.5479 6.88C67.9806 7.31267 68.3179 7.848 68.5599 8.486C68.8092 9.11667 68.9339 9.839 68.9339 10.653C68.9339 11.0637 68.8899 11.3423 68.8019 11.489C68.7139 11.6283 68.5452 11.698 68.2959 11.698H61.3109ZM82.2504 17H79.5334V7.749H74.2974V13.865C74.2974 14.217 74.3818 14.492 74.5504 14.69C74.7264 14.888 74.9648 14.987 75.2654 14.987C75.4341 14.987 75.5734 14.9687 75.6834 14.932C75.8008 14.888 75.8998 14.844 75.9804 14.8C76.0684 14.756 76.1454 14.7157 76.2114 14.679C76.2774 14.635 76.3434 14.613 76.4094 14.613C76.4901 14.613 76.5561 14.635 76.6074 14.679C76.6588 14.7157 76.7138 14.7743 76.7724 14.855L77.5864 16.175C77.1904 16.505 76.7358 16.7543 76.2224 16.923C75.7091 17.0917 75.1774 17.176 74.6274 17.176C73.6448 17.176 72.8894 16.901 72.3614 16.351C71.8408 15.7937 71.5804 15.0273 71.5804 14.052V7.749H70.4254C70.2788 7.749 70.1541 7.70133 70.0514 7.606C69.9488 7.51067 69.8974 7.36767 69.8974 7.177V6.099L71.7124 5.791L72.2844 2.722C72.3211 2.57533 72.3908 2.46167 72.4934 2.381C72.5961 2.30033 72.7281 2.26 72.8894 2.26H74.2974V5.813H82.2504V17ZM82.7234 2.381C82.7234 2.61567 82.6758 2.83933 82.5804 3.052C82.4851 3.25733 82.3568 3.437 82.1954 3.591C82.0414 3.745 81.8544 3.86967 81.6344 3.965C81.4218 4.053 81.1944 4.097 80.9524 4.097C80.7178 4.097 80.4978 4.053 80.2924 3.965C80.0871 3.86967 79.9074 3.745 79.7534 3.591C79.5994 3.437 79.4748 3.25733 79.3794 3.052C79.2914 2.83933 79.2474 2.61567 79.2474 2.381C79.2474 2.139 79.2914 1.91533 79.3794 1.71C79.4748 1.49733 79.5994 1.314 79.7534 1.16C79.9074 0.998666 80.0871 0.874 80.2924 0.785999C80.4978 0.690666 80.7178 0.642999 80.9524 0.642999C81.1944 0.642999 81.4218 0.690666 81.6344 0.785999C81.8544 0.874 82.0414 0.998666 82.1954 1.16C82.3568 1.314 82.4851 1.49733 82.5804 1.71C82.6758 1.91533 82.7234 2.139 82.7234 2.381ZM88.7856 17.176C87.803 17.176 87.0476 16.901 86.5196 16.351C85.999 15.7937 85.7386 15.0273 85.7386 14.052V7.749H84.5836C84.437 7.749 84.3123 7.70133 84.2096 7.606C84.107 7.51067 84.0556 7.36767 84.0556 7.177V6.099L85.8706 5.802L86.4426 2.722C86.4793 2.57533 86.549 2.46167 86.6516 2.381C86.7543 2.30033 86.8863 2.26 87.0476 2.26H88.4556V5.813H91.4696V7.749H88.4556V13.865C88.4556 14.217 88.54 14.492 88.7086 14.69C88.8846 14.888 89.123 14.987 89.4236 14.987C89.5923 14.987 89.7316 14.9687 89.8416 14.932C89.959 14.888 90.058 14.844 90.1386 14.8C90.2266 14.756 90.3036 14.7157 90.3696 14.679C90.4356 14.635 90.5016 14.613 90.5676 14.613C90.6483 14.613 90.7143 14.635 90.7656 14.679C90.817 14.7157 90.872 14.7743 90.9306 14.855L91.7446 16.175C91.3486 16.505 90.894 16.7543 90.3806 16.923C89.8673 17.0917 89.3356 17.176 88.7856 17.176ZM98.1173 5.538C98.9533 5.538 99.7123 5.67367 100.394 5.945C101.084 6.21633 101.67 6.60133 102.154 7.1C102.646 7.59867 103.023 8.20733 103.287 8.926C103.551 9.64467 103.683 10.4477 103.683 11.335C103.683 12.2297 103.551 13.0363 103.287 13.755C103.023 14.4737 102.646 15.086 102.154 15.592C101.67 16.098 101.084 16.4867 100.394 16.758C99.7123 17.0293 98.9533 17.165 98.1173 17.165C97.2739 17.165 96.5076 17.0293 95.8183 16.758C95.1289 16.4867 94.5386 16.098 94.0473 15.592C93.5633 15.086 93.1856 14.4737 92.9143 13.755C92.6503 13.0363 92.5183 12.2297 92.5183 11.335C92.5183 10.4477 92.6503 9.64467 92.9143 8.926C93.1856 8.20733 93.5633 7.59867 94.0473 7.1C94.5386 6.60133 95.1289 6.21633 95.8183 5.945C96.5076 5.67367 97.2739 5.538 98.1173 5.538ZM98.1173 15.075C99.0559 15.075 99.7489 14.7597 100.196 14.129C100.651 13.4983 100.878 12.5743 100.878 11.357C100.878 10.1397 100.651 9.212 100.196 8.574C99.7489 7.936 99.0559 7.617 98.1173 7.617C97.1639 7.617 96.4563 7.93967 95.9943 8.585C95.5396 9.223 95.3123 10.147 95.3123 11.357C95.3123 12.567 95.5396 13.491 95.9943 14.129C96.4563 14.7597 97.1639 15.075 98.1173 15.075ZM108.319 7.672C108.671 6.99733 109.089 6.46933 109.573 6.088C110.057 5.69933 110.629 5.505 111.289 5.505C111.81 5.505 112.228 5.61867 112.543 5.846L112.367 7.881C112.33 8.013 112.275 8.10833 112.202 8.167C112.136 8.21833 112.044 8.244 111.927 8.244C111.817 8.244 111.652 8.22567 111.432 8.189C111.219 8.15233 111.01 8.134 110.805 8.134C110.504 8.134 110.237 8.178 110.002 8.266C109.767 8.354 109.555 8.48233 109.364 8.651C109.181 8.81233 109.016 9.01033 108.869 9.245C108.73 9.47967 108.598 9.74733 108.473 10.048V17H105.756V5.714H107.351C107.63 5.714 107.824 5.76533 107.934 5.868C108.044 5.96333 108.117 6.13933 108.154 6.396L108.319 7.672ZM126.943 10.994L125.007 5.703C124.911 5.46833 124.812 5.18967 124.71 4.867C124.607 4.54433 124.504 4.196 124.402 3.822C124.306 4.196 124.207 4.548 124.105 4.878C124.002 5.20067 123.903 5.483 123.808 5.725L121.883 10.994H126.943ZM132.168 17H129.88C129.623 17 129.414 16.9377 129.253 16.813C129.091 16.681 128.97 16.5197 128.89 16.329L127.702 13.084H121.113L119.925 16.329C119.866 16.4977 119.752 16.6517 119.584 16.791C119.415 16.9303 119.206 17 118.957 17H116.647L122.906 1.094H125.92L132.168 17ZM135.904 7.1C136.132 6.87267 136.37 6.66367 136.619 6.473C136.876 6.275 137.144 6.11 137.422 5.978C137.708 5.83867 138.013 5.73233 138.335 5.659C138.658 5.57833 139.01 5.538 139.391 5.538C140.007 5.538 140.554 5.64433 141.03 5.857C141.507 6.06233 141.903 6.35567 142.218 6.737C142.541 7.111 142.783 7.562 142.944 8.09C143.113 8.61067 143.197 9.18633 143.197 9.817V17H140.48V9.817C140.48 9.12767 140.323 8.596 140.007 8.222C139.692 7.84067 139.212 7.65 138.566 7.65C138.097 7.65 137.657 7.75633 137.246 7.969C136.836 8.18167 136.447 8.47133 136.08 8.838V17H133.363V5.714H135.024C135.376 5.714 135.607 5.879 135.717 6.209L135.904 7.1ZM151.743 12.182C150.959 12.2187 150.299 12.2883 149.763 12.391C149.228 12.4863 148.799 12.611 148.476 12.765C148.154 12.919 147.923 13.0987 147.783 13.304C147.644 13.5093 147.574 13.733 147.574 13.975C147.574 14.4517 147.714 14.7927 147.992 14.998C148.278 15.2033 148.649 15.306 149.103 15.306C149.661 15.306 150.141 15.207 150.544 15.009C150.955 14.8037 151.355 14.4957 151.743 14.085V12.182ZM145.517 7.287C146.815 6.099 148.377 5.505 150.203 5.505C150.863 5.505 151.454 5.615 151.974 5.835C152.495 6.04767 152.935 6.34833 153.294 6.737C153.654 7.11833 153.925 7.57667 154.108 8.112C154.299 8.64733 154.394 9.234 154.394 9.872V17H153.162C152.906 17 152.708 16.9633 152.568 16.89C152.429 16.8093 152.319 16.6517 152.238 16.417L151.996 15.603C151.71 15.8597 151.432 16.087 151.16 16.285C150.889 16.4757 150.607 16.637 150.313 16.769C150.02 16.901 149.705 17 149.367 17.066C149.037 17.1393 148.671 17.176 148.267 17.176C147.791 17.176 147.351 17.1137 146.947 16.989C146.544 16.857 146.196 16.6627 145.902 16.406C145.609 16.1493 145.382 15.8303 145.22 15.449C145.059 15.0677 144.978 14.624 144.978 14.118C144.978 13.832 145.026 13.5497 145.121 13.271C145.217 12.985 145.371 12.7137 145.583 12.457C145.803 12.2003 146.086 11.9583 146.43 11.731C146.775 11.5037 147.197 11.3057 147.695 11.137C148.201 10.9683 148.788 10.8327 149.455 10.73C150.123 10.62 150.885 10.554 151.743 10.532V9.872C151.743 9.11667 151.582 8.55933 151.259 8.2C150.937 7.83333 150.471 7.65 149.862 7.65C149.422 7.65 149.056 7.70133 148.762 7.804C148.476 7.90667 148.223 8.024 148.003 8.156C147.783 8.28067 147.582 8.39433 147.398 8.497C147.222 8.59967 147.024 8.651 146.804 8.651C146.614 8.651 146.452 8.60333 146.32 8.508C146.188 8.40533 146.082 8.288 146.001 8.156L145.517 7.287ZM159.703 0.653999V17H156.986V0.653999H159.703ZM172.662 5.714L166.513 20.102C166.433 20.2927 166.326 20.4357 166.194 20.531C166.07 20.6337 165.875 20.685 165.611 20.685H163.587L165.699 16.153L161.134 5.714H163.521C163.734 5.714 163.899 5.76533 164.016 5.868C164.141 5.97067 164.233 6.088 164.291 6.22L166.689 12.072C166.77 12.27 166.836 12.468 166.887 12.666C166.946 12.864 167.001 13.0657 167.052 13.271C167.118 13.0657 167.184 12.864 167.25 12.666C167.316 12.4607 167.39 12.259 167.47 12.061L169.736 6.22C169.795 6.07333 169.89 5.95233 170.022 5.857C170.162 5.76167 170.316 5.714 170.484 5.714H172.662ZM180.662 7.914C180.588 8.03133 180.511 8.11567 180.431 8.167C180.35 8.211 180.247 8.233 180.123 8.233C179.991 8.233 179.848 8.19633 179.694 8.123C179.547 8.04967 179.375 7.969 179.177 7.881C178.979 7.78567 178.751 7.70133 178.495 7.628C178.245 7.55467 177.948 7.518 177.604 7.518C177.068 7.518 176.647 7.63167 176.339 7.859C176.038 8.08633 175.888 8.38333 175.888 8.75C175.888 8.992 175.965 9.19733 176.119 9.366C176.28 9.52733 176.489 9.67033 176.746 9.795C177.01 9.91967 177.307 10.0333 177.637 10.136C177.967 10.2313 178.3 10.3377 178.638 10.455C178.982 10.5723 179.32 10.708 179.65 10.862C179.98 11.0087 180.273 11.1993 180.53 11.434C180.794 11.6613 181.003 11.9363 181.157 12.259C181.318 12.5817 181.399 12.9703 181.399 13.425C181.399 13.9677 181.3 14.47 181.102 14.932C180.911 15.3867 180.625 15.7827 180.244 16.12C179.862 16.45 179.389 16.7103 178.825 16.901C178.267 17.0843 177.622 17.176 176.889 17.176C176.5 17.176 176.119 17.1393 175.745 17.066C175.378 17 175.022 16.9047 174.678 16.78C174.34 16.6553 174.025 16.5087 173.732 16.34C173.446 16.1713 173.193 15.988 172.973 15.79L173.6 14.756C173.68 14.6313 173.776 14.536 173.886 14.47C173.996 14.404 174.135 14.371 174.304 14.371C174.472 14.371 174.63 14.4187 174.777 14.514C174.931 14.6093 175.107 14.712 175.305 14.822C175.503 14.932 175.734 15.0347 175.998 15.13C176.269 15.2253 176.61 15.273 177.021 15.273C177.343 15.273 177.618 15.2363 177.846 15.163C178.08 15.0823 178.271 14.9797 178.418 14.855C178.572 14.7303 178.682 14.5873 178.748 14.426C178.821 14.2573 178.858 14.085 178.858 13.909C178.858 13.645 178.777 13.4287 178.616 13.26C178.462 13.0913 178.253 12.9447 177.989 12.82C177.732 12.6953 177.435 12.5853 177.098 12.49C176.768 12.3873 176.427 12.2773 176.075 12.16C175.73 12.0427 175.389 11.907 175.052 11.753C174.722 11.5917 174.425 11.39 174.161 11.148C173.904 10.906 173.695 10.609 173.534 10.257C173.38 9.905 173.303 9.47967 173.303 8.981C173.303 8.519 173.394 8.079 173.578 7.661C173.761 7.243 174.029 6.88 174.381 6.572C174.74 6.25667 175.184 6.00733 175.712 5.824C176.247 5.63333 176.863 5.538 177.56 5.538C178.337 5.538 179.045 5.66633 179.683 5.923C180.321 6.17967 180.852 6.517 181.278 6.935L180.662 7.914ZM186.26 5.714V17H183.532V5.714H186.26ZM186.634 2.425C186.634 2.65967 186.586 2.87967 186.491 3.085C186.395 3.29033 186.267 3.47 186.106 3.624C185.952 3.778 185.768 3.90267 185.556 3.998C185.343 4.086 185.116 4.13 184.874 4.13C184.639 4.13 184.415 4.086 184.203 3.998C183.997 3.90267 183.818 3.778 183.664 3.624C183.51 3.47 183.385 3.29033 183.29 3.085C183.202 2.87967 183.158 2.65967 183.158 2.425C183.158 2.183 183.202 1.95567 183.29 1.743C183.385 1.53033 183.51 1.347 183.664 1.193C183.818 1.039 183.997 0.917999 184.203 0.83C184.415 0.734666 184.639 0.687 184.874 0.687C185.116 0.687 185.343 0.734666 185.556 0.83C185.768 0.917999 185.952 1.039 186.106 1.193C186.267 1.347 186.395 1.53033 186.491 1.743C186.586 1.95567 186.634 2.183 186.634 2.425ZM195.916 7.914C195.842 8.03133 195.765 8.11567 195.685 8.167C195.604 8.211 195.501 8.233 195.377 8.233C195.245 8.233 195.102 8.19633 194.948 8.123C194.801 8.04967 194.629 7.969 194.431 7.881C194.233 7.78567 194.005 7.70133 193.748 7.628C193.499 7.55467 193.202 7.518 192.858 7.518C192.322 7.518 191.901 7.63167 191.593 7.859C191.292 8.08633 191.142 8.38333 191.142 8.75C191.142 8.992 191.219 9.19733 191.373 9.366C191.534 9.52733 191.743 9.67033 192 9.795C192.264 9.91967 192.561 10.0333 192.891 10.136C193.221 10.2313 193.554 10.3377 193.892 10.455C194.236 10.5723 194.574 10.708 194.904 10.862C195.234 11.0087 195.527 11.1993 195.784 11.434C196.048 11.6613 196.257 11.9363 196.411 12.259C196.572 12.5817 196.653 12.9703 196.653 13.425C196.653 13.9677 196.554 14.47 196.356 14.932C196.165 15.3867 195.879 15.7827 195.498 16.12C195.116 16.45 194.643 16.7103 194.079 16.901C193.521 17.0843 192.876 17.176 192.143 17.176C191.754 17.176 191.373 17.1393 190.999 17.066C190.632 17 190.276 16.9047 189.932 16.78C189.594 16.6553 189.279 16.5087 188.986 16.34C188.7 16.1713 188.447 15.988 188.227 15.79L188.854 14.756C188.934 14.6313 189.03 14.536 189.139 14.47C189.249 14.404 189.389 14.371 189.558 14.371C189.726 14.371 189.884 14.4187 190.031 14.514C190.185 14.6093 190.361 14.712 190.559 14.822C190.757 14.932 190.988 15.0347 191.252 15.13C191.523 15.2253 191.864 15.273 192.275 15.273C192.597 15.273 192.872 15.2363 193.1 15.163C193.334 15.0823 193.525 14.9797 193.672 14.855C193.826 14.7303 193.935 14.5873 194.002 14.426C194.075 14.2573 194.112 14.085 194.112 13.909C194.112 13.645 194.031 13.4287 193.87 13.26C193.716 13.0913 193.507 12.9447 193.242 12.82C192.986 12.6953 192.689 12.5853 192.352 12.49C192.022 12.3873 191.681 12.2773 191.329 12.16C190.984 12.0427 190.643 11.907 190.306 11.753C189.976 11.5917 189.679 11.39 189.415 11.148C189.158 10.906 188.949 10.609 188.788 10.257C188.634 9.905 188.557 9.47967 188.557 8.981C188.557 8.519 188.648 8.079 188.832 7.661C189.015 7.243 189.283 6.88 189.635 6.572C189.994 6.25667 190.438 6.00733 190.966 5.824C191.501 5.63333 192.117 5.538 192.814 5.538C193.591 5.538 194.299 5.66633 194.937 5.923C195.575 6.17967 196.106 6.517 196.532 6.935L195.916 7.914Z" fill="white"/>
</svg>
