<svg width="110" height="110" viewBox="0 0 110 110" fill="none" xmlns="http://www.w3.org/2000/svg">
<path d="M90 42C90 40.3431 88.6569 39 87 39H81C79.3431 39 78 40.3431 78 42V92H90V42Z" stroke="white" stroke-width="2"/>
<circle cx="9" cy="9" r="8" transform="matrix(-1 0 0 1 93 17)" stroke="white" stroke-width="2"/>
<mask id="mask0_1807_8895" style="mask-type:alpha" maskUnits="userSpaceOnUse" x="77" y="19" width="14" height="14">
<circle cx="7" cy="7" r="7" transform="matrix(-1 0 0 1 91 19)" fill="#D9D9D9"/>
</mask>
<g mask="url(#mask0_1807_8895)">
<path fill-rule="evenodd" clip-rule="evenodd" d="M84 27C82.3431 27 81 25.6569 81 24C81 22.3431 82.3431 21 84 21C85.6569 21 87 22.3431 87 24C87 25.6569 85.6569 27 84 27ZM84 27C80.6863 27 78 29.6863 78 33C78 36.3137 80.6863 39 84 39C87.3137 39 90 36.3137 90 33C90 29.6863 87.3137 27 84 27Z" fill="white"/>
</g>
<path d="M61 62C61 60.3431 59.6569 59 58 59H52C50.3431 59 49 60.3431 49 62V92H61V62Z" stroke="white" stroke-width="2"/>
<circle cx="9" cy="9" r="8" transform="matrix(-1 0 0 1 64 37)" stroke="white" stroke-width="2"/>
<mask id="mask1_1807_8895" style="mask-type:alpha" maskUnits="userSpaceOnUse" x="48" y="39" width="14" height="14">
<circle cx="7" cy="7" r="7" transform="matrix(-1 0 0 1 62 39)" fill="#D9D9D9"/>
</mask>
<g mask="url(#mask1_1807_8895)">
<path fill-rule="evenodd" clip-rule="evenodd" d="M55 47C53.3431 47 52 45.6569 52 44C52 42.3431 53.3431 41 55 41C56.6569 41 58 42.3431 58 44C58 45.6569 56.6569 47 55 47ZM55 47C51.6863 47 49 49.6863 49 53C49 56.3137 51.6863 59 55 59C58.3137 59 61 56.3137 61 53C61 49.6863 58.3137 47 55 47Z" fill="white"/>
</g>
<path d="M32 82C32 80.3431 30.6569 79 29 79H23C21.3431 79 20 80.3431 20 82V92H32V82Z" stroke="white" stroke-width="2"/>
<circle cx="9" cy="9" r="8" transform="matrix(-1 0 0 1 35 58)" stroke="white" stroke-width="2"/>
<mask id="mask2_1807_8895" style="mask-type:alpha" maskUnits="userSpaceOnUse" x="19" y="60" width="14" height="14">
<circle cx="7" cy="7" r="7" transform="matrix(-1 0 0 1 33 60)" fill="#D9D9D9"/>
</mask>
<g mask="url(#mask2_1807_8895)">
<path fill-rule="evenodd" clip-rule="evenodd" d="M26 68C24.3431 68 23 66.6569 23 65C23 63.3431 24.3431 62 26 62C27.6569 62 29 63.3431 29 65C29 66.6569 27.6569 68 26 68ZM26 68C22.6863 68 20 70.6863 20 74C20 77.3137 22.6863 80 26 80C29.3137 80 32 77.3137 32 74C32 70.6863 29.3137 68 26 68Z" fill="white"/>
</g>
</svg>
