<svg width="109" height="109" viewBox="0 0 109 109" fill="none" xmlns="http://www.w3.org/2000/svg">
<path d="M106 31C106 28.7909 104.209 27 102 27H96C93.7909 27 92 28.7909 92 31V82H106V31Z" fill="white"/>
<circle cx="9" cy="9" r="9" transform="matrix(-1 0 0 1 108 6)" fill="white"/>
<circle cx="3" cy="3" r="3" transform="matrix(-1 0 0 1 102 9)" fill="#121212"/>
<mask id="mask0_98_4452" style="mask-type:alpha" maskUnits="userSpaceOnUse" x="90" y="6" width="18" height="18">
<circle cx="9" cy="9" r="9" transform="matrix(-1 0 0 1 108 6)" fill="white"/>
</mask>
<g mask="url(#mask0_98_4452)">
<circle cx="6" cy="6" r="6" transform="matrix(-1 0 0 1 105 16)" fill="#121212"/>
</g>
<path d="M77 51C77 48.7909 75.2091 47 73 47H67C64.7909 47 63 48.7909 63 51V82H77V51Z" fill="white"/>
<circle cx="9" cy="9" r="9" transform="matrix(-1 0 0 1 79 26)" fill="white"/>
<circle cx="3" cy="3" r="3" transform="matrix(-1 0 0 1 73 29)" fill="#121212"/>
<mask id="mask1_98_4452" style="mask-type:alpha" maskUnits="userSpaceOnUse" x="61" y="26" width="18" height="18">
<circle cx="9" cy="9" r="9" transform="matrix(-1 0 0 1 79 26)" fill="white"/>
</mask>
<g mask="url(#mask1_98_4452)">
<circle cx="6" cy="6" r="6" transform="matrix(-1 0 0 1 76 36)" fill="#121212"/>
</g>
<path d="M48 71C48 68.7909 46.2091 67 44 67H38C35.7909 67 34 68.7909 34 71V82H48V71Z" fill="white"/>
<circle cx="9" cy="9" r="9" transform="matrix(-1 0 0 1 50 47)" fill="white"/>
<circle cx="3" cy="3" r="3" transform="matrix(-1 0 0 1 44 50)" fill="#121212"/>
<mask id="mask2_98_4452" style="mask-type:alpha" maskUnits="userSpaceOnUse" x="32" y="47" width="18" height="18">
<circle cx="9" cy="9" r="9" transform="matrix(-1 0 0 1 50 47)" fill="white"/>
</mask>
<g mask="url(#mask2_98_4452)">
<circle cx="6" cy="6" r="6" transform="matrix(-1 0 0 1 47 57)" fill="#121212"/>
</g>
</svg>
