<svg width="117" height="117" viewBox="0 0 117 117" fill="none" xmlns="http://www.w3.org/2000/svg">
<g filter="url(#filter0_d_2312_7325)">
<rect x="4" width="109" height="109" fill="#10142D"/>
<path d="M96 25C96 22.7909 94.2091 21 92 21H86C83.7909 21 82 22.7909 82 25V76H96V25Z" fill="white"/>
<circle cx="9" cy="9" r="9" transform="matrix(-1 0 0 1 98 0)" fill="white"/>
<circle cx="3" cy="3" r="3" transform="matrix(-1 0 0 1 92 3)" fill="#10142D"/>
<mask id="mask0_2312_7325" style="mask-type:alpha" maskUnits="userSpaceOnUse" x="80" y="0" width="18" height="18">
<circle cx="9" cy="9" r="9" transform="matrix(-1 0 0 1 98 0)" fill="white"/>
</mask>
<g mask="url(#mask0_2312_7325)">
<circle cx="6" cy="6" r="6" transform="matrix(-1 0 0 1 95 10)" fill="#10142D"/>
</g>
<path d="M67 45C67 42.7909 65.2091 41 63 41H57C54.7909 41 53 42.7909 53 45V76H67V45Z" fill="white"/>
<circle cx="9" cy="9" r="9" transform="matrix(-1 0 0 1 69 20)" fill="white"/>
<circle cx="3" cy="3" r="3" transform="matrix(-1 0 0 1 63 23)" fill="#10142D"/>
<mask id="mask1_2312_7325" style="mask-type:alpha" maskUnits="userSpaceOnUse" x="51" y="20" width="18" height="18">
<circle cx="9" cy="9" r="9" transform="matrix(-1 0 0 1 69 20)" fill="white"/>
</mask>
<g mask="url(#mask1_2312_7325)">
<circle cx="6" cy="6" r="6" transform="matrix(-1 0 0 1 66 30)" fill="#10142D"/>
</g>
<path d="M38 65C38 62.7909 36.2091 61 34 61H28C25.7909 61 24 62.7909 24 65V76H38V65Z" fill="white"/>
<circle cx="9" cy="9" r="9" transform="matrix(-1 0 0 1 40 41)" fill="white"/>
<circle cx="3" cy="3" r="3" transform="matrix(-1 0 0 1 34 44)" fill="#10142D"/>
<mask id="mask2_2312_7325" style="mask-type:alpha" maskUnits="userSpaceOnUse" x="22" y="41" width="18" height="18">
<circle cx="9" cy="9" r="9" transform="matrix(-1 0 0 1 40 41)" fill="white"/>
</mask>
<g mask="url(#mask2_2312_7325)">
<circle cx="6" cy="6" r="6" transform="matrix(-1 0 0 1 37 51)" fill="#10142D"/>
</g>
<mask id="path-17-outside-1_2312_7325" maskUnits="userSpaceOnUse" x="23.752" y="0.75" width="80" height="80" fill="black">
<rect fill="white" x="23.752" y="0.75" width="80" height="80"/>
<path fill-rule="evenodd" clip-rule="evenodd" d="M34.2029 36.9418C34.2029 22.7255 45.7275 11.201 59.9437 11.201C74.16 11.201 85.6845 22.7255 85.6845 36.9418C85.6845 43.9012 82.9226 50.2156 78.4352 54.8486C78.3254 54.9294 78.2203 55.0195 78.1209 55.1189C78.0215 55.2182 77.9315 55.3233 77.8507 55.4331C73.2176 59.9207 66.9032 62.6826 59.9437 62.6826C45.7275 62.6826 34.2029 51.158 34.2029 36.9418ZM79.9886 60.841C74.5677 65.3924 67.5758 68.1335 59.9437 68.1335C42.717 68.1335 28.752 54.1685 28.752 36.9418C28.752 19.715 42.717 5.75 59.9437 5.75C77.1705 5.75 91.1355 19.715 91.1355 36.9418C91.1355 44.5738 88.3944 51.5657 83.843 56.9866L97.4539 70.5974C98.5182 71.6618 98.5182 73.3875 97.4539 74.4518C96.3895 75.5162 94.6638 75.5162 93.5994 74.4518L79.9886 60.841Z"/>
</mask>
<path fill-rule="evenodd" clip-rule="evenodd" d="M34.2029 36.9418C34.2029 22.7255 45.7275 11.201 59.9437 11.201C74.16 11.201 85.6845 22.7255 85.6845 36.9418C85.6845 43.9012 82.9226 50.2156 78.4352 54.8486C78.3254 54.9294 78.2203 55.0195 78.1209 55.1189C78.0215 55.2182 77.9315 55.3233 77.8507 55.4331C73.2176 59.9207 66.9032 62.6826 59.9437 62.6826C45.7275 62.6826 34.2029 51.158 34.2029 36.9418ZM79.9886 60.841C74.5677 65.3924 67.5758 68.1335 59.9437 68.1335C42.717 68.1335 28.752 54.1685 28.752 36.9418C28.752 19.715 42.717 5.75 59.9437 5.75C77.1705 5.75 91.1355 19.715 91.1355 36.9418C91.1355 44.5738 88.3944 51.5657 83.843 56.9866L97.4539 70.5974C98.5182 71.6618 98.5182 73.3875 97.4539 74.4518C96.3895 75.5162 94.6638 75.5162 93.5994 74.4518L79.9886 60.841Z" fill="white"/>
<path d="M78.4352 54.8486L81.3987 58.8757C81.623 58.7107 81.833 58.5273 82.0267 58.3273L78.4352 54.8486ZM77.8507 55.4331L81.3294 59.0246C81.5293 58.831 81.7127 58.6209 81.8777 58.3967L77.8507 55.4331ZM79.9886 60.841L83.5242 57.3055C81.6906 55.4719 78.7595 55.3443 76.7735 57.0117L79.9886 60.841ZM83.843 56.9866L80.0138 53.7715C78.3464 55.7574 78.4739 58.6885 80.3075 60.5221L83.843 56.9866ZM97.4539 70.5974L100.989 67.0619L97.4539 70.5974ZM93.5994 74.4518L97.135 70.9163L97.135 70.9163L93.5994 74.4518ZM59.9437 6.20099C42.9661 6.20099 29.2029 19.9641 29.2029 36.9418H39.2029C39.2029 25.487 48.4889 16.201 59.9437 16.201V6.20099ZM90.6845 36.9418C90.6845 19.9641 76.9214 6.20099 59.9437 6.20099V16.201C71.3985 16.201 80.6845 25.487 80.6845 36.9418H90.6845ZM82.0267 58.3273C87.3811 52.7992 90.6845 45.2511 90.6845 36.9418H80.6845C80.6845 42.5513 78.4642 47.632 74.8437 51.37L82.0267 58.3273ZM81.6564 58.6544C81.5771 58.7337 81.491 58.8078 81.3987 58.8757L75.4716 50.8216C75.1598 51.0511 74.8634 51.3053 74.5854 51.5833L81.6564 58.6544ZM81.8777 58.3967C81.8099 58.4889 81.7357 58.5751 81.6564 58.6544L74.5854 51.5833C74.3074 51.8613 74.0531 52.1577 73.8236 52.4695L81.8777 58.3967ZM59.9437 67.6826C68.2531 67.6826 75.8013 64.3791 81.3294 59.0246L74.372 51.8416C70.634 55.4622 65.5533 57.6826 59.9437 57.6826V67.6826ZM29.2029 36.9418C29.2029 53.9194 42.9661 67.6826 59.9437 67.6826V57.6826C48.4889 57.6826 39.2029 48.3966 39.2029 36.9418H29.2029ZM76.7735 57.0117C72.2197 60.8352 66.3566 63.1335 59.9437 63.1335V73.1335C68.7951 73.1335 76.9158 69.9497 83.2037 64.6703L76.7735 57.0117ZM59.9437 63.1335C45.4784 63.1335 33.752 51.4071 33.752 36.9418H23.752C23.752 56.9299 39.9556 73.1335 59.9437 73.1335V63.1335ZM33.752 36.9418C33.752 22.4765 45.4784 10.75 59.9437 10.75V0.75C39.9556 0.75 23.752 16.9536 23.752 36.9418H33.752ZM59.9437 10.75C74.409 10.75 86.1355 22.4765 86.1355 36.9418H96.1355C96.1355 16.9536 79.9319 0.75 59.9437 0.75V10.75ZM86.1355 36.9418C86.1355 43.3546 83.8372 49.2176 80.0138 53.7715L87.6723 60.2016C92.9516 53.9137 96.1355 45.7931 96.1355 36.9418H86.1355ZM80.3075 60.5221L93.9183 74.1329L100.989 67.0619L87.3786 53.451L80.3075 60.5221ZM93.9183 74.1329C93.0301 73.2447 93.0301 71.8045 93.9183 70.9163L100.989 77.9874C104.006 74.9704 104.006 70.0788 100.989 67.0619L93.9183 74.1329ZM93.9183 70.9163C94.8066 70.0281 96.2467 70.028 97.135 70.9163L90.0639 77.9874C93.0809 81.0044 97.9724 81.0044 100.989 77.9874L93.9183 70.9163ZM97.135 70.9163L83.5242 57.3055L76.4531 64.3765L90.0639 77.9874L97.135 70.9163Z" fill="#10142D" mask="url(#path-17-outside-1_2312_7325)"/>
</g>
<defs>
<filter id="filter0_d_2312_7325" x="0" y="0" width="117" height="117" filterUnits="userSpaceOnUse" color-interpolation-filters="sRGB">
<feFlood flood-opacity="0" result="BackgroundImageFix"/>
<feColorMatrix in="SourceAlpha" type="matrix" values="0 0 0 0 0 0 0 0 0 0 0 0 0 0 0 0 0 0 127 0" result="hardAlpha"/>
<feOffset dy="4"/>
<feGaussianBlur stdDeviation="2"/>
<feComposite in2="hardAlpha" operator="out"/>
<feColorMatrix type="matrix" values="0 0 0 0 0 0 0 0 0 0 0 0 0 0 0 0 0 0 0.25 0"/>
<feBlend mode="normal" in2="BackgroundImageFix" result="effect1_dropShadow_2312_7325"/>
<feBlend mode="normal" in="SourceGraphic" in2="effect1_dropShadow_2312_7325" result="shape"/>
</filter>
</defs>
</svg>
