<svg width="110" height="110" viewBox="0 0 110 110" fill="none" xmlns="http://www.w3.org/2000/svg">
<path fill-rule="evenodd" clip-rule="evenodd" d="M12 20H99C103.418 20 107 23.5817 107 28V82.5934C107 87.0117 103.418 90.5934 99 90.5934H92.8166C92.7557 90.5196 92.6907 90.4481 92.6217 90.3791L90.836 88.5934H99C102.314 88.5934 105 85.9071 105 82.5934V28C105 24.6863 102.314 22 99 22H12C8.68629 22 6 24.6863 6 28V82.5934C6 85.9071 8.68629 88.5934 12 88.5934H50.4255C52.0775 88.8609 53.7725 89 55.5 89C57.2275 89 58.9225 88.8609 60.5745 88.5934H82.3508L84.3508 90.5934H12C7.58172 90.5934 4 87.0117 4 82.5934V28C4 23.5817 7.58173 20 12 20ZM84.2426 82H100V33H75.3007C76.0805 33.6311 76.8296 34.2986 77.5454 35H98V80H82.2426L84.2426 82ZM24.0351 59C24.0666 59.6724 24.1192 60.3393 24.1923 61H19C18.4477 61 18 60.5523 18 60C18 59.4477 18.4477 59 19 59H24.0351ZM24.8983 50C24.7374 50.6588 24.5972 51.3257 24.4785 52H19C18.4477 52 18 51.5523 18 51C18 50.4477 18.4477 50 19 50H24.8983ZM28.662 41C28.2607 41.6513 27.8825 42.3184 27.5284 43H19C18.4477 43 18 42.5523 18 42C18 41.4477 18.4477 41 19 41H28.662ZM33.4546 35H13V80H33.4546C34.1704 80.7014 34.9195 81.3689 35.6993 82H11V33H35.6993C34.9195 33.6311 34.1704 34.2986 33.4546 35ZM75.3007 82C75.3848 81.9319 75.4685 81.8635 75.5519 81.7946L75.7574 82H75.3007ZM86.5215 52H89C89.5523 52 90 51.5523 90 51C90 50.4477 89.5523 50 89 50H86.1017C86.2626 50.6588 86.4027 51.3257 86.5215 52ZM83.4716 43H92C92.5523 43 93 42.5523 93 42C93 41.4477 92.5523 41 92 41H82.338C82.7393 41.6513 83.1175 42.3184 83.4716 43ZM88 59C87.4477 59 87 59.4477 87 60C87 60.5523 87.4477 61 88 61H92C92.5523 61 93 60.5523 93 60C93 59.4477 92.5523 59 92 59H88Z" fill="white"/>
<mask id="mask0_1821_9484" style="mask-type:alpha" maskUnits="userSpaceOnUse" x="31" y="33" width="49" height="49">
<circle cx="55.5" cy="57.5" r="24.5" fill="#474747"/>
</mask>
<g mask="url(#mask0_1821_9484)">
<path fill-rule="evenodd" clip-rule="evenodd" d="M19 41C18.4477 41 18 41.4477 18 42C18 42.5523 18.4477 43 19 43H51C51.5523 43 52 42.5523 52 42C52 41.4477 51.5523 41 51 41H19ZM19 50C18.4477 50 18 50.4477 18 51C18 51.5523 18.4477 52 19 52H62C62.5523 52 63 51.5523 63 51C63 50.4477 62.5523 50 62 50H19ZM18 60C18 59.4477 18.4477 59 19 59H38C38.5523 59 39 59.4477 39 60C39 60.5523 38.5523 61 38 61H19C18.4477 61 18 60.5523 18 60ZM57 41C56.4477 41 56 41.4477 56 42C56 42.5523 56.4477 43 57 43H74C74.5523 43 75 42.5523 75 42C75 41.4477 74.5523 41 74 41H57ZM67 51C67 50.4477 67.4477 50 68 50H74C74.5523 50 75 50.4477 75 51C75 51.5523 74.5523 52 74 52H68C67.4477 52 67 51.5523 67 51ZM43 59C42.4477 59 42 59.4477 42 60C42 60.5523 42.4477 61 43 61H54C54.5523 61 55 60.5523 55 60C55 59.4477 54.5523 59 54 59H43ZM58 60C58 59.4477 58.4477 59 59 59H82C82.5523 59 83 59.4477 83 60C83 60.5523 82.5523 61 82 61H59C58.4477 61 58 60.5523 58 60ZM80 41C79.4477 41 79 41.4477 79 42C79 42.5523 79.4477 43 80 43H92C92.5523 43 93 42.5523 93 42C93 41.4477 92.5523 41 92 41H80ZM79 51C79 50.4477 79.4477 50 80 50H89C89.5523 50 90 50.4477 90 51C90 51.5523 89.5523 52 89 52H80C79.4477 52 79 51.5523 79 51ZM88 59C87.4477 59 87 59.4477 87 60C87 60.5523 87.4477 61 88 61H92C92.5523 61 93 60.5523 93 60C93 59.4477 92.5523 59 92 59H88Z" fill="white"/>
</g>
<path d="M55.5 85.5C70.964 85.5 83.5 72.964 83.5 57.5C83.5 42.036 70.964 29.5 55.5 29.5C40.036 29.5 27.5 42.036 27.5 57.5C27.5 72.964 40.036 85.5 55.5 85.5Z" stroke="white" stroke-width="2" stroke-linecap="round" stroke-linejoin="round"/>
<path d="M90.5004 92.5004L75.2754 77.2754" stroke="white" stroke-width="2" stroke-linecap="round" stroke-linejoin="round"/>
<circle cx="13" cy="28" r="2" fill="white"/>
<circle cx="19" cy="28" r="2" fill="white"/>
<circle cx="25" cy="28" r="2" fill="white"/>
</svg>
