<svg width="272" height="62" viewBox="0 0 272 62" fill="none" xmlns="http://www.w3.org/2000/svg">
<g clip-path="url(#clip0_1998_5213)">
<path d="M47.7314 25.3152H56.8762C64.2366 25.3152 69.3665 30.3336 69.3665 36.8019V36.9134C69.3665 43.3816 64.3481 48.4001 56.8762 48.4001H47.7314V25.3152ZM56.8762 43.7162C61.114 43.7162 63.902 40.9281 63.902 36.9134V36.8019C63.902 32.7871 61.114 29.8876 56.8762 29.8876H52.9729V43.7162H56.8762Z" fill="white"/>
<path d="M73.8271 25.3152H91.559V29.776H79.0686V34.4599H90.1092V38.9208H79.0686V43.7162H91.7821V48.177H73.9387L73.8271 25.3152Z" fill="white"/>
<path d="M94.6816 44.943L97.8042 41.3743C99.9231 43.0471 102.154 44.1624 104.83 44.1624C106.949 44.1624 108.176 43.2702 108.176 42.0435V41.9319C108.176 40.5937 107.284 39.9246 103.492 39.0324C98.8079 37.8056 95.6853 36.5789 95.6853 32.0065V31.895C95.6853 27.7687 99.031 24.9807 103.938 24.9807C107.284 24.9807 110.295 25.9844 112.637 27.8803L109.96 31.7835C107.953 30.3337 105.834 29.5531 103.826 29.5531C101.819 29.5531 100.815 30.4453 100.815 31.5605V31.4489C100.815 32.8987 101.819 33.4563 105.834 34.46C110.629 35.6867 113.194 37.3596 113.194 41.2628V41.3743C113.194 45.9467 109.625 48.5117 104.607 48.5117C101.038 48.5117 97.4697 47.2849 94.6816 44.943Z" fill="white"/>
<path d="M117.878 25.3152H123.008V48.2885H117.878V25.3152Z" fill="white"/>
<path d="M127.915 36.8019C127.915 30.2222 133.045 24.8691 140.182 24.8691C144.42 24.8691 146.874 25.9844 149.327 28.1033L146.093 32.0065C144.309 30.5567 142.747 29.6646 139.959 29.6646C136.168 29.6646 133.268 32.8987 133.268 36.8019V36.9134C133.268 41.1512 136.168 44.2738 140.405 44.2738C142.301 44.2738 143.974 43.8277 145.312 42.8241V39.5899H140.071V35.2406H150.219V45.166C147.766 47.1734 144.532 48.8462 140.182 48.8462C132.822 48.5116 127.915 43.6047 127.915 36.8019Z" fill="white"/>
<path d="M155.126 25.3152H159.921L170.85 39.3669V25.3152H175.869V48.2885H171.52L160.144 33.6793V48.2885H155.126V25.3152Z" fill="white"/>
<path d="M181.556 25.3152H192.262C195.273 25.3152 197.504 26.2074 199.065 27.6571C200.403 28.9954 201.072 30.7797 201.072 32.8986V33.0101C201.072 36.6903 199.065 39.0323 196.054 40.1475L201.741 48.2885H195.719L190.701 40.9282H190.589H186.574V48.2885H181.333V25.3152H181.556ZM191.928 36.3558C194.492 36.3558 195.831 35.0175 195.831 33.1217V33.0101C195.831 30.8912 194.381 29.776 191.816 29.776H186.686V36.3558H191.928Z" fill="url(#paint0_linear_1998_5213)"/>
<path d="M205.422 38.3633V25.2038H210.552V38.1403C210.552 41.932 212.448 43.7163 215.57 43.7163C218.693 43.7163 220.589 41.8205 220.589 38.1403V25.0923H225.719V38.0287C225.719 44.943 221.704 48.4002 215.459 48.4002C209.214 48.4002 205.422 45.0546 205.422 38.3633Z" fill="url(#paint1_linear_1998_5213)"/>
<path d="M229.398 44.943L232.521 41.3743C234.64 43.0471 236.87 44.1624 239.547 44.1624C241.666 44.1624 242.892 43.2702 242.892 42.0435V41.9319C242.892 40.5937 242 39.9246 238.209 39.0324C233.525 37.8056 230.402 36.5789 230.402 32.0065V31.895C230.402 27.7687 233.748 24.9807 238.655 24.9807C242 24.9807 245.011 25.9844 247.353 27.8803L244.677 31.7835C242.669 30.3337 240.551 29.5531 238.543 29.5531C236.536 29.5531 235.532 30.4453 235.532 31.5605V31.4489C235.532 32.8987 236.536 33.4563 240.551 34.46C245.346 35.6867 247.911 37.3596 247.911 41.2628V41.3743C247.911 45.9467 244.342 48.5117 239.324 48.5117C235.867 48.5117 232.186 47.2849 229.398 44.943Z" fill="url(#paint2_linear_1998_5213)"/>
<path d="M252.372 25.3152H257.502V34.4599H266.981V25.3152H272.111V48.2885H266.981V39.1438H257.502V48.2885H252.372V25.3152Z" fill="url(#paint3_linear_1998_5213)"/>
<path d="M18.2895 38.2516C18.1779 38.1401 18.1779 38.2516 18.2895 38.2516L17.7319 37.9171L17.6203 37.8056L4.46084 28.4378C4.46084 28.4378 4.34932 28.4378 4.34932 28.3263L4.12628 28.1032L4.01476 27.9917H3.79172L0 25.3152L7.47192 26.4304C7.80648 26.4304 7.918 26.5419 8.25256 26.6534C8.36408 26.6534 8.58713 26.765 8.58713 26.765C8.92169 26.8765 9.03321 26.988 9.25625 27.0995C9.4793 27.211 9.59082 27.3226 9.81386 27.4341C9.92538 27.5456 10.1484 27.6571 10.1484 27.7686C10.2599 27.8802 10.3715 27.8802 10.483 27.9917C10.706 28.1032 10.8175 28.2147 10.8175 28.3263C11.1521 28.6608 11.3752 28.9954 11.7097 29.2184L17.6203 37.5825L17.7319 37.694L18.2895 38.2516Z" fill="#2AD2FF"/>
<path d="M18.2893 51.1881L17.7317 50.2959L17.6201 50.1844L0.111328 25.3152L3.90305 27.9917L4.57217 28.4378L17.7317 37.8056H17.8432L18.2893 38.1401C18.2893 38.1401 18.4008 38.1401 18.4008 38.2516L18.9584 37.8056L36.6903 25.3152L18.8469 50.2959L18.7354 50.4074L18.2893 51.1881Z" fill="url(#paint4_linear_1998_5213)"/>
<path d="M18.289 34.0141L17.7314 33.1219L17.6198 33.0104L13.2705 26.9882L17.6198 27.8804H17.7314L18.289 27.9919L18.8466 27.8804L23.0844 26.8767L18.8466 33.1219V33.2334L18.289 34.0141Z" fill="#2AD2FF"/>
<path d="M36.8016 25.2039L31.2255 25.9845L29.1066 26.3191C27.4338 26.5421 25.8725 27.4343 24.8688 28.8841L18.9582 37.3597L18.8467 37.4712L18.2891 38.2518L18.9582 37.5827L19.0697 37.4712L18.2891 38.2518L33.3444 27.5458L36.8016 25.2039Z" fill="#2AD2FF"/>
<path d="M21.0775 7.58349C21.0775 12.4904 12.6019 15.0554 12.6019 20.2969C12.4904 21.5236 12.8249 22.7504 13.3825 23.8656C13.3825 23.8656 10.1484 20.743 10.1484 17.3974C10.1484 14.0517 13.271 9.03327 13.271 9.03327C13.271 11.2637 14.1632 11.9328 15.0554 12.0443H15.1669C16.1706 12.0443 16.7282 11.2637 16.7282 10.1485C16.7282 9.03327 15.5015 7.91805 15.5015 5.68763C15.5015 3.56873 18.178 0.111572 18.178 0.111572C20.0738 2.342 21.0775 4.90698 21.0775 7.58349Z" fill="#2AF4FF"/>
<path d="M18.7356 25.427C16.0591 25.427 14.0518 23.3081 14.0518 20.7431V20.6316C14.0518 14.944 21.9698 14.3864 21.9698 6.69141C22.1928 7.02597 24.3117 9.92552 24.3117 13.0481C24.3117 16.9514 20.6315 17.955 20.6315 19.8509C20.6315 20.6316 20.9661 21.1892 22.0813 21.1892C22.1928 21.1892 22.3043 21.1892 22.4158 21.0776C24.5347 20.1855 25.9845 18.1781 26.096 15.8361C26.096 15.9477 27.2112 25.427 18.7356 25.427Z" fill="#2AF4FF"/>
<path d="M22.1931 21.1892C22.3046 21.1892 22.4161 21.1892 22.5276 21.0776C21.4124 21.4122 17.2861 22.4159 17.2861 19.5163C17.2861 15.9477 23.4198 15.167 23.4198 12.1559C23.4198 10.2601 22.9737 8.36422 21.97 6.69141C22.1931 7.02597 24.312 9.92552 24.312 13.0481C24.312 16.9514 20.6318 17.955 20.6318 19.8509C20.7433 20.6316 21.1894 21.1892 22.1931 21.1892Z" fill="#2AD2FF"/>
<path d="M18.8474 9.59087C18.8474 12.3789 15.2787 12.1559 15.0557 12.0443H15.3902C16.3939 12.0443 16.9515 11.2637 16.9515 10.1485C16.9515 9.03327 15.7248 7.91805 15.7248 5.68763C15.7248 3.56873 18.4013 0.111572 18.4013 0.111572C17.5091 1.56135 17.063 3.12264 16.9515 4.68394C16.9515 7.24893 18.8474 7.47197 18.8474 9.59087Z" fill="#2AD2FF"/>
<path d="M16.6166 58.3255L14.1631 56.6527H17.1742L18.1778 53.6416L19.07 56.6527H22.0811L19.6276 58.3255L20.5198 61.225L18.0663 59.4407L15.5013 61.225L16.6166 58.3255Z" fill="#2AD2FF"/>
<path d="M29.4417 58.3257L26.9883 56.6529H29.9994L31.003 53.6418L31.8952 56.6529H34.9063L32.4528 58.3257L33.345 61.2253L30.8915 59.4409L28.3265 61.2253L29.4417 58.3257Z" fill="#2AD2FF"/>
<path d="M3.90366 58.3257L1.4502 56.6529H4.46127L5.46496 53.6418L6.35712 56.6529H9.36819L6.91473 58.3257L7.8069 61.2253L5.35343 59.4409L2.89997 61.2253L3.90366 58.3257Z" fill="#2AD2FF"/>
</g>
<defs>
<linearGradient id="paint0_linear_1998_5213" x1="179.169" y1="-0.000121093" x2="273.07" y2="-0.000121093" gradientUnits="userSpaceOnUse">
<stop offset="0.73" stop-color="#2AF4FF"/>
<stop offset="0.884" stop-color="#2AF4FF"/>
</linearGradient>
<linearGradient id="paint1_linear_1998_5213" x1="179.17" y1="3.28119e-05" x2="273.071" y2="3.28119e-05" gradientUnits="userSpaceOnUse">
<stop offset="0.73" stop-color="#2AF4FF"/>
<stop offset="0.884" stop-color="#2AF4FF"/>
</linearGradient>
<linearGradient id="paint2_linear_1998_5213" x1="179.169" y1="-3.13393e-05" x2="273.07" y2="-3.13393e-05" gradientUnits="userSpaceOnUse">
<stop offset="0.73" stop-color="#2AF4FF"/>
<stop offset="0.884" stop-color="#2AF4FF"/>
</linearGradient>
<linearGradient id="paint3_linear_1998_5213" x1="179.17" y1="-0.000121093" x2="273.07" y2="-0.000121093" gradientUnits="userSpaceOnUse">
<stop offset="0.73" stop-color="#2AF4FF"/>
<stop offset="0.884" stop-color="#2AF4FF"/>
</linearGradient>
<linearGradient id="paint4_linear_1998_5213" x1="-0.000192965" y1="51.2349" x2="-0.000192965" y2="37.5468" gradientUnits="userSpaceOnUse">
<stop offset="0.73" stop-color="#2AF4FF"/>
<stop offset="0.884" stop-color="#2AF4FF"/>
</linearGradient>
<clipPath id="clip0_1998_5213">
<rect width="272" height="61.5597" fill="white"/>
</clipPath>
</defs>
</svg>
