<svg width="109" height="109" viewBox="0 0 109 109" fill="none" xmlns="http://www.w3.org/2000/svg">
<circle cx="48" cy="59.416" r="38.5" stroke="white" stroke-width="9"/>
<path d="M70.5 59.5C70.5 72.2808 60.3489 82.5 48 82.5C35.6511 82.5 25.5 72.2808 25.5 59.5C25.5 46.7192 35.6511 36.5 48 36.5C60.3489 36.5 70.5 46.7192 70.5 59.5Z" stroke="white" stroke-width="9"/>
<circle cx="48" cy="59" r="10" fill="white"/>
<mask id="path-4-outside-1_2312_9778" maskUnits="userSpaceOnUse" x="44.0616" y="15.2361" width="49.4975" height="49.4975" fill="black">
<rect fill="white" x="44.0616" y="15.2361" width="49.4975" height="49.4975"/>
<path d="M88.6094 17.3574L93.5591 22.3072L51.5691 64.2972L46.6193 59.3475L88.6094 17.3574Z"/>
</mask>
<path d="M88.6094 17.3574L93.5591 22.3072L51.5691 64.2972L46.6193 59.3475L88.6094 17.3574Z" fill="white"/>
<path d="M48.7407 61.4688L90.7307 19.4787L86.4881 15.2361L44.498 57.2261L48.7407 61.4688Z" fill="#121212" mask="url(#path-4-outside-1_2312_9778)"/>
<path d="M95.3848 3.41602L97.8596 12.962L107.406 15.4368L92.5563 30.2861L83.0104 27.8112L80.5355 18.2653L95.3848 3.41602Z" fill="white"/>
<path opacity="0.2" d="M95.3848 3.41602L97.8596 12.962L107.406 15.4368L92.5563 30.2861L83.0104 27.8112L80.5355 18.2653L95.3848 3.41602Z" fill="black"/>
</svg>
