<svg width="109" height="109" viewBox="0 0 109 109" fill="none" xmlns="http://www.w3.org/2000/svg">
<rect x="4" width="101" height="66.5934" rx="6" fill="white"/>
<path d="M9.54932 7.54944C9.54932 6.44487 10.4447 5.54944 11.5493 5.54944H97.4504C98.555 5.54944 99.4504 6.44487 99.4504 7.54944V54.6044C99.4504 55.709 98.555 56.6044 97.4504 56.6044H11.5493C10.4447 56.6044 9.54932 55.709 9.54932 54.6044V7.54944Z" fill="#121212"/>
<rect x="46.1758" y="64.3737" width="16.6484" height="7.76923" fill="white"/>
<rect x="43.9561" y="71.033" width="21.0879" height="3.32967" fill="white"/>
<rect x="35.0771" y="37.7363" width="5.54945" height="12.2088" rx="2.77473" fill="white"/>
<rect x="46.1763" y="27.7473" width="5.54945" height="22.1978" rx="2.77473" fill="white"/>
<rect x="57.2749" y="32.1868" width="5.54945" height="17.7582" rx="2.77473" fill="white"/>
<rect x="68.374" y="18.8682" width="5.54945" height="31.0769" rx="2.77473" fill="white"/>
<path d="M35.0771 24.9725L51.4944 15.9695C51.9417 15.7242 52.502 15.8549 52.7945 16.2728L55.6454 20.3455C55.9403 20.7668 56.5067 20.8957 56.9549 20.6436L73.9233 11.0989" stroke="white" stroke-width="4" stroke-linecap="round"/>
</svg>
