<svg width="103" height="74" viewBox="0 0 103 74" fill="none" xmlns="http://www.w3.org/2000/svg">
<path fill-rule="evenodd" clip-rule="evenodd" d="M8 0H95C99.4183 0 103 3.58172 103 8V62.5934C103 67.0117 99.4183 70.5934 95 70.5934H88.8166C88.7557 70.5196 88.6907 70.4481 88.6217 70.3791L86.836 68.5934H95C98.3137 68.5934 101 65.9071 101 62.5934V8C101 4.68629 98.3137 2 95 2H8C4.68629 2 2 4.68629 2 7.99999V62.5934C2 65.9071 4.68629 68.5934 8 68.5934H46.4255C48.0775 68.8609 49.7725 69 51.5 69C53.2275 69 54.9225 68.8609 56.5745 68.5934H78.3508L80.3508 70.5934H8C3.58172 70.5934 0 67.0117 0 62.5934V7.99999C0 3.58171 3.58173 0 8 0ZM80.2426 62H96V13H71.3007C72.0805 13.6311 72.8296 14.2986 73.5454 15H94V60H78.2426L80.2426 62ZM20.0351 39C20.0666 39.6724 20.1192 40.3393 20.1923 41H15C14.4477 41 14 40.5523 14 40C14 39.4477 14.4477 39 15 39H20.0351ZM20.8983 30C20.7374 30.6588 20.5972 31.3257 20.4785 32H15C14.4477 32 14 31.5523 14 31C14 30.4477 14.4477 30 15 30H20.8983ZM24.662 21C24.2607 21.6513 23.8825 22.3184 23.5284 23H15C14.4477 23 14 22.5523 14 22C14 21.4477 14.4477 21 15 21H24.662ZM29.4546 15H9V60H29.4546C30.1704 60.7014 30.9195 61.3689 31.6993 62H7V13H31.6993C30.9195 13.6311 30.1704 14.2986 29.4546 15ZM71.3007 62C71.3848 61.9319 71.4685 61.8635 71.5519 61.7946L71.7574 62H71.3007ZM82.5215 32H85C85.5523 32 86 31.5523 86 31C86 30.4477 85.5523 30 85 30H82.1017C82.2626 30.6588 82.4027 31.3257 82.5215 32ZM79.4716 23H88C88.5523 23 89 22.5523 89 22C89 21.4477 88.5523 21 88 21H78.338C78.7393 21.6513 79.1175 22.3184 79.4716 23ZM84 39C83.4477 39 83 39.4477 83 40C83 40.5523 83.4477 41 84 41H88C88.5523 41 89 40.5523 89 40C89 39.4477 88.5523 39 88 39H84Z" fill="white"/>
<mask id="mask0_2051_4665" style="mask-type:alpha" maskUnits="userSpaceOnUse" x="27" y="13" width="49" height="49">
<circle cx="51.5" cy="37.5" r="24.5" fill="#474747"/>
</mask>
<g mask="url(#mask0_2051_4665)">
<path fill-rule="evenodd" clip-rule="evenodd" d="M15 21C14.4477 21 14 21.4477 14 22C14 22.5523 14.4477 23 15 23H47C47.5523 23 48 22.5523 48 22C48 21.4477 47.5523 21 47 21H15ZM15 30C14.4477 30 14 30.4477 14 31C14 31.5523 14.4477 32 15 32H58C58.5523 32 59 31.5523 59 31C59 30.4477 58.5523 30 58 30H15ZM14 40C14 39.4477 14.4477 39 15 39H34C34.5523 39 35 39.4477 35 40C35 40.5523 34.5523 41 34 41H15C14.4477 41 14 40.5523 14 40ZM53 21C52.4477 21 52 21.4477 52 22C52 22.5523 52.4477 23 53 23H70C70.5523 23 71 22.5523 71 22C71 21.4477 70.5523 21 70 21H53ZM63 31C63 30.4477 63.4477 30 64 30H70C70.5523 30 71 30.4477 71 31C71 31.5523 70.5523 32 70 32H64C63.4477 32 63 31.5523 63 31ZM39 39C38.4477 39 38 39.4477 38 40C38 40.5523 38.4477 41 39 41H50C50.5523 41 51 40.5523 51 40C51 39.4477 50.5523 39 50 39H39ZM54 40C54 39.4477 54.4477 39 55 39H78C78.5523 39 79 39.4477 79 40C79 40.5523 78.5523 41 78 41H55C54.4477 41 54 40.5523 54 40ZM76 21C75.4477 21 75 21.4477 75 22C75 22.5523 75.4477 23 76 23H88C88.5523 23 89 22.5523 89 22C89 21.4477 88.5523 21 88 21H76ZM75 31C75 30.4477 75.4477 30 76 30H85C85.5523 30 86 30.4477 86 31C86 31.5523 85.5523 32 85 32H76C75.4477 32 75 31.5523 75 31ZM84 39C83.4477 39 83 39.4477 83 40C83 40.5523 83.4477 41 84 41H88C88.5523 41 89 40.5523 89 40C89 39.4477 88.5523 39 88 39H84Z" fill="white"/>
</g>
<path d="M51.5 65.5C66.964 65.5 79.5 52.964 79.5 37.5C79.5 22.036 66.964 9.5 51.5 9.5C36.036 9.5 23.5 22.036 23.5 37.5C23.5 52.964 36.036 65.5 51.5 65.5Z" stroke="white" stroke-width="2" stroke-linecap="round" stroke-linejoin="round"/>
<path d="M86.5004 72.5004L71.2754 57.2754" stroke="white" stroke-width="2" stroke-linecap="round" stroke-linejoin="round"/>
<circle cx="9" cy="8" r="2" fill="white"/>
<circle cx="15" cy="8" r="2" fill="white"/>
<circle cx="21" cy="8" r="2" fill="white"/>
</svg>
