<svg width="115" height="110" viewBox="0 0 115 110" fill="none" xmlns="http://www.w3.org/2000/svg">
<path fill-rule="evenodd" clip-rule="evenodd" d="M7 3H96C98.2091 3 100 4.79086 100 7V44.3031C100.723 45.0406 101.392 45.8313 102 46.6686V7C102 3.68629 99.3137 1 96 1H7C3.68629 1 1 3.68629 1 7V62C1 65.3137 3.68629 68 7 68H66.0209C65.7126 67.351 65.4366 66.6836 65.1949 66H7C4.79086 66 3 64.2091 3 62V7C3 4.79086 4.79086 3 7 3Z" fill="white"/>
<path fill-rule="evenodd" clip-rule="evenodd" d="M9 14H94V40.0209C94.6881 40.3478 95.3556 40.711 96 41.108V12H7V61H64.094C64.0318 60.3417 64 59.6746 64 59H9V14Z" fill="white"/>
<g filter="url(#filter0_d_1765_7755)">
<path d="M38.4247 44.286C37.5593 44.286 36.7307 44.1503 35.9387 43.879C35.1467 43.6003 34.4537 43.2043 33.8597 42.691C33.2657 42.1703 32.8367 41.5507 32.5727 40.832L35.6747 39.688C35.748 39.9007 35.9093 40.106 36.1587 40.304C36.4153 40.502 36.738 40.667 37.1267 40.799C37.5153 40.9237 37.948 40.986 38.4247 40.986C38.8647 40.986 39.279 40.9237 39.6677 40.799C40.0563 40.667 40.3717 40.4873 40.6137 40.26C40.8557 40.0327 40.9767 39.7687 40.9767 39.468C40.9767 39.16 40.8483 38.907 40.5917 38.709C40.3423 38.5037 40.0197 38.3423 39.6237 38.225C39.235 38.1003 38.8353 38.0087 38.4247 37.95C37.31 37.7887 36.309 37.5247 35.4217 37.158C34.5417 36.784 33.845 36.2707 33.3317 35.618C32.8257 34.9653 32.5727 34.1367 32.5727 33.132C32.5727 32.1713 32.844 31.3317 33.3867 30.613C33.9293 29.887 34.6443 29.3223 35.5317 28.919C36.4263 28.5157 37.3907 28.314 38.4247 28.314C39.29 28.314 40.1187 28.4533 40.9107 28.732C41.71 29.0033 42.4067 29.3993 43.0007 29.92C43.5947 30.4407 44.02 31.064 44.2767 31.79L41.1747 32.912C41.1013 32.6993 40.9363 32.4977 40.6797 32.307C40.4303 32.109 40.1113 31.9477 39.7227 31.823C39.334 31.6983 38.9013 31.636 38.4247 31.636C37.9993 31.6287 37.5923 31.691 37.2037 31.823C36.815 31.955 36.496 32.1347 36.2467 32.362C35.9973 32.5893 35.8727 32.846 35.8727 33.132C35.8727 33.528 35.99 33.825 36.2247 34.023C36.4593 34.2137 36.7673 34.3493 37.1487 34.43C37.5373 34.5107 37.9627 34.584 38.4247 34.65C39.4807 34.804 40.4523 35.079 41.3397 35.475C42.227 35.871 42.9383 36.399 43.4737 37.059C44.009 37.719 44.2767 38.522 44.2767 39.468C44.2767 40.4287 44.0053 41.272 43.4627 41.998C42.9273 42.7167 42.216 43.2777 41.3287 43.681C40.4413 44.0843 39.4733 44.286 38.4247 44.286ZM46.693 44V28.6H56.505V31.9H49.993V34.1H55.009V37.4H49.993V40.7H56.505V44H46.693ZM66.0677 44.286C65.0263 44.286 64.0473 44.0807 63.1307 43.67C62.214 43.252 61.4073 42.6763 60.7107 41.943C60.014 41.2097 59.4677 40.3627 59.0717 39.402C58.6757 38.434 58.4777 37.4 58.4777 36.3C58.4777 35.2 58.6757 34.1697 59.0717 33.209C59.4677 32.241 60.014 31.3903 60.7107 30.657C61.4073 29.9237 62.214 29.3517 63.1307 28.941C64.0473 28.523 65.0263 28.314 66.0677 28.314C67.1163 28.314 68.099 28.523 69.0157 28.941C69.9323 29.3517 70.739 29.9237 71.4357 30.657C72.1323 31.3903 72.675 32.241 73.0637 33.209C73.4597 34.1697 73.6577 35.2 73.6577 36.3C73.6577 37.4 73.4597 38.434 73.0637 39.402C72.675 40.3627 72.1323 41.2097 71.4357 41.943C70.739 42.6763 69.9323 43.252 69.0157 43.67C68.099 44.0807 67.1163 44.286 66.0677 44.286ZM66.0677 40.986C66.6543 40.986 67.2043 40.865 67.7177 40.623C68.2383 40.3737 68.6967 40.0363 69.0927 39.611C69.4887 39.1783 69.7967 38.6797 70.0167 38.115C70.244 37.5503 70.3577 36.9453 70.3577 36.3C70.3577 35.6547 70.244 35.0497 70.0167 34.485C69.7967 33.9203 69.4887 33.4253 69.0927 33C68.6967 32.5673 68.2383 32.23 67.7177 31.988C67.2043 31.7387 66.6543 31.614 66.0677 31.614C65.481 31.614 64.9273 31.7387 64.4067 31.988C63.8933 32.23 63.4387 32.5673 63.0427 33C62.6467 33.4253 62.335 33.9203 62.1077 34.485C61.8877 35.0497 61.7777 35.6547 61.7777 36.3C61.7777 36.9453 61.8877 37.5503 62.1077 38.115C62.335 38.6797 62.6467 39.1783 63.0427 39.611C63.4387 40.0363 63.8933 40.3737 64.4067 40.623C64.9273 40.865 65.481 40.986 66.0677 40.986Z" fill="white"/>
</g>
<g filter="url(#filter1_d_1765_7755)">
<path fill-rule="evenodd" clip-rule="evenodd" d="M98.7771 68.6191C98.4757 68.7483 98.1995 69.09 97.8741 69.4927L97.8741 69.4927C97.6663 69.7498 97.4385 70.0317 97.1712 70.2991C96.9039 70.5664 96.6219 70.7942 96.3648 71.002C95.8434 71.4233 95.4243 71.7619 95.4368 72.18C96.7249 71.1733 97.8532 69.9716 98.7771 68.6191ZM100.482 69.6696C100.104 70.2283 99.6958 70.7645 99.2591 71.2756L108.06 80.0767C108.367 80.3835 108.367 80.8808 108.06 81.1876C107.753 81.4944 107.256 81.4944 106.949 81.1876L98.1866 72.4249C97.7098 72.8929 97.2068 73.3343 96.6801 73.7468L105.535 82.6018C106.623 83.6896 108.387 83.6896 109.474 82.6018C110.562 81.514 110.562 79.7503 109.474 78.6625L100.482 69.6696Z" fill="white"/>
<path d="M101.654 58.8272C101.654 68.1207 94.1207 75.6545 84.8272 75.6545C75.5338 75.6545 68 68.1207 68 58.8272C68 49.5338 75.5338 42 84.8272 42C94.1207 42 101.654 49.5338 101.654 58.8272Z" stroke="white" stroke-width="2"/>
<path d="M84.8246 71.0828C91.5935 71.0828 97.0808 65.5955 97.0808 58.8265C97.0808 52.0576 91.5935 46.5703 84.8246 46.5703C78.0557 46.5703 72.5684 52.0576 72.5684 58.8265C72.5684 65.5955 78.0557 71.0828 84.8246 71.0828Z" stroke="white" stroke-width="2" stroke-linecap="round" stroke-linejoin="round"/>
</g>
<circle cx="9" cy="8" r="1" stroke="white" stroke-width="2"/>
<circle cx="15" cy="8" r="1" stroke="white" stroke-width="2"/>
<circle cx="21" cy="8" r="1" stroke="white" stroke-width="2"/>
<defs>
<filter id="filter0_d_1765_7755" x="28.5723" y="26.3145" width="49.085" height="23.9707" filterUnits="userSpaceOnUse" color-interpolation-filters="sRGB">
<feFlood flood-opacity="0" result="BackgroundImageFix"/>
<feColorMatrix in="SourceAlpha" type="matrix" values="0 0 0 0 0 0 0 0 0 0 0 0 0 0 0 0 0 0 127 0" result="hardAlpha"/>
<feOffset dy="2"/>
<feGaussianBlur stdDeviation="2"/>
<feComposite in2="hardAlpha" operator="out"/>
<feColorMatrix type="matrix" values="0 0 0 0 0 0 0 0 0 0 0 0 0 0 0 0 0 0 0.15 0"/>
<feBlend mode="normal" in2="BackgroundImageFix" result="effect1_dropShadow_1765_7755"/>
<feBlend mode="normal" in="SourceGraphic" in2="effect1_dropShadow_1765_7755" result="shape"/>
</filter>
<filter id="filter1_d_1765_7755" x="63" y="39" width="51.29" height="50.418" filterUnits="userSpaceOnUse" color-interpolation-filters="sRGB">
<feFlood flood-opacity="0" result="BackgroundImageFix"/>
<feColorMatrix in="SourceAlpha" type="matrix" values="0 0 0 0 0 0 0 0 0 0 0 0 0 0 0 0 0 0 127 0" result="hardAlpha"/>
<feOffset dy="2"/>
<feGaussianBlur stdDeviation="2"/>
<feComposite in2="hardAlpha" operator="out"/>
<feColorMatrix type="matrix" values="0 0 0 0 0 0 0 0 0 0 0 0 0 0 0 0 0 0 0.15 0"/>
<feBlend mode="normal" in2="BackgroundImageFix" result="effect1_dropShadow_1765_7755"/>
<feBlend mode="normal" in="SourceGraphic" in2="effect1_dropShadow_1765_7755" result="shape"/>
</filter>
</defs>
</svg>
