<svg width="109" height="109" viewBox="0 0 109 109" fill="none" xmlns="http://www.w3.org/2000/svg">
<rect x="4" width="101" height="66.5934" rx="6" fill="white"/>
<path d="M9.5498 7.54883C9.5498 6.44426 10.4452 5.54883 11.5498 5.54883H97.4509C98.5555 5.54883 99.4509 6.44426 99.4509 7.54883V54.6038C99.4509 55.7083 98.5555 56.6038 97.4509 56.6038H11.5498C10.4452 56.6038 9.5498 55.7083 9.5498 54.6038V7.54883Z" fill="#121212"/>
<rect x="46.1758" y="64.373" width="16.6484" height="7.76923" fill="white"/>
<rect x="43.9561" y="71.0332" width="21.0879" height="3.32967" fill="white"/>
<rect x="19" y="14" width="31" height="31" rx="2" fill="white"/>
<rect x="54" y="15" width="35" height="4" rx="2" fill="white"/>
<rect x="54" y="22" width="35" height="4" rx="2" fill="white"/>
<rect x="54" y="29" width="20" height="4" rx="2" fill="white"/>
</svg>
