<svg width="24" height="24" viewBox="0 0 24 24" fill="none" xmlns="http://www.w3.org/2000/svg">
<path fill-rule="evenodd" clip-rule="evenodd" d="M12 5.5C8.41015 5.5 5.5 8.41015 5.5 12C5.5 15.5899 8.41015 18.5 12 18.5C15.0736 18.5 17.6489 16.3667 18.3261 13.5H13C12.1716 13.5 11.5 12.8284 11.5 12C11.5 11.1716 12.1716 10.5 13 10.5H20C20.8284 10.5 21.5 11.1716 21.5 12C21.5 17.2467 17.2467 21.5 12 21.5C6.75329 21.5 2.5 17.2467 2.5 12C2.5 6.75329 6.75329 2.5 12 2.5C14.6135 2.5 16.9829 3.55733 18.699 5.26402C19.2864 5.8482 19.289 6.79795 18.7048 7.38534C18.1206 7.97272 17.1709 7.97532 16.5835 7.39114C15.4066 6.2207 13.7889 5.5 12 5.5Z" fill="white"/>
</svg>
