<svg width="27" height="28" viewBox="0 0 27 28" fill="none" xmlns="http://www.w3.org/2000/svg">
<path d="M8.37891 9.33789C9.70703 8.00977 11.3086 7.3457 13.1836 7.3457C15.0586 7.3457 16.6406 8.00977 17.9297 9.33789C19.2578 10.627 19.9219 12.209 19.9219 14.084C19.9219 15.959 19.2578 17.5605 17.9297 18.8887C16.6406 20.1777 15.0586 20.8223 13.1836 20.8223C11.3086 20.8223 9.70703 20.1777 8.37891 18.8887C7.08984 17.5605 6.44531 15.959 6.44531 14.084C6.44531 12.209 7.08984 10.627 8.37891 9.33789ZM10.0781 17.1895C10.9375 18.0488 11.9727 18.4785 13.1836 18.4785C14.3945 18.4785 15.4297 18.0488 16.2891 17.1895C17.1484 16.3301 17.5781 15.2949 17.5781 14.084C17.5781 12.873 17.1484 11.8379 16.2891 10.9785C15.4297 10.1191 14.3945 9.68945 13.1836 9.68945C11.9727 9.68945 10.9375 10.1191 10.0781 10.9785C9.21875 11.8379 8.78906 12.873 8.78906 14.084C8.78906 15.2949 9.21875 16.3301 10.0781 17.1895ZM21.2695 5.99805C21.582 6.27148 21.7383 6.62305 21.7383 7.05273C21.7383 7.48242 21.582 7.85352 21.2695 8.16602C20.9961 8.47852 20.6445 8.63477 20.2148 8.63477C19.7852 8.63477 19.4141 8.47852 19.1016 8.16602C18.7891 7.85352 18.6328 7.48242 18.6328 7.05273C18.6328 6.62305 18.7891 6.27148 19.1016 5.99805C19.4141 5.68555 19.7852 5.5293 20.2148 5.5293C20.6445 5.5293 20.9961 5.68555 21.2695 5.99805ZM26.25 8.69336C26.2891 9.74805 26.3086 11.5449 26.3086 14.084C26.3086 16.623 26.2891 18.4199 26.25 19.4746C26.1328 21.8574 25.4102 23.7129 24.082 25.041C22.793 26.3301 20.957 27.0137 18.5742 27.0918C17.5195 27.1699 15.7227 27.209 13.1836 27.209C10.6445 27.209 8.84766 27.1699 7.79297 27.0918C5.41016 26.9746 3.57422 26.2715 2.28516 24.9824C1.77734 24.5137 1.36719 23.9668 1.05469 23.3418C0.742188 22.7168 0.507812 22.1113 0.351562 21.5254C0.234375 20.9395 0.175781 20.2559 0.175781 19.4746C0.0976562 18.4199 0.0585938 16.623 0.0585938 14.084C0.0585938 11.5449 0.0976562 9.72852 0.175781 8.63477C0.292969 6.29102 0.996094 4.47461 2.28516 3.18555C3.57422 1.85742 5.41016 1.13477 7.79297 1.01758C8.84766 0.978516 10.6445 0.958984 13.1836 0.958984C15.7227 0.958984 17.5195 0.978516 18.5742 1.01758C20.957 1.13477 22.793 1.85742 24.082 3.18555C25.4102 4.47461 26.1328 6.31055 26.25 8.69336ZM23.4375 21.8184C23.5547 21.5059 23.6523 21.1152 23.7305 20.6465C23.8086 20.1387 23.8672 19.5527 23.9062 18.8887C23.9453 18.1855 23.9648 17.6191 23.9648 17.1895C23.9648 16.7598 23.9648 16.1543 23.9648 15.373C23.9648 14.5918 23.9648 14.1621 23.9648 14.084C23.9648 13.9668 23.9648 13.5371 23.9648 12.7949C23.9648 12.0137 23.9648 11.4082 23.9648 10.9785C23.9648 10.5488 23.9453 10.002 23.9062 9.33789C23.8672 8.63477 23.8086 8.04883 23.7305 7.58008C23.6523 7.07227 23.5547 6.66211 23.4375 6.34961C22.9688 5.13867 22.1289 4.29883 20.918 3.83008C20.6055 3.71289 20.1953 3.61523 19.6875 3.53711C19.2188 3.45898 18.6328 3.40039 17.9297 3.36133C17.2656 3.32227 16.7188 3.30273 16.2891 3.30273C15.8984 3.30273 15.293 3.30273 14.4727 3.30273C13.6914 3.30273 13.2617 3.30273 13.1836 3.30273C13.1055 3.30273 12.6758 3.30273 11.8945 3.30273C11.1133 3.30273 10.5078 3.30273 10.0781 3.30273C9.64844 3.30273 9.08203 3.32227 8.37891 3.36133C7.71484 3.40039 7.12891 3.45898 6.62109 3.53711C6.15234 3.61523 5.76172 3.71289 5.44922 3.83008C4.23828 4.29883 3.39844 5.13867 2.92969 6.34961C2.8125 6.66211 2.71484 7.07227 2.63672 7.58008C2.55859 8.04883 2.5 8.63477 2.46094 9.33789C2.42188 10.002 2.40234 10.5488 2.40234 10.9785C2.40234 11.3691 2.40234 11.9746 2.40234 12.7949C2.40234 13.5762 2.40234 14.0059 2.40234 14.084C2.40234 14.2402 2.40234 14.6113 2.40234 15.1973C2.40234 15.7441 2.40234 16.2129 2.40234 16.6035C2.40234 16.9551 2.40234 17.4238 2.40234 18.0098C2.44141 18.5957 2.48047 19.1035 2.51953 19.5332C2.55859 19.9238 2.61719 20.334 2.69531 20.7637C2.77344 21.1934 2.85156 21.5449 2.92969 21.8184C3.4375 23.0293 4.27734 23.8691 5.44922 24.3379C5.76172 24.4551 6.15234 24.5527 6.62109 24.6309C7.12891 24.709 7.71484 24.7676 8.37891 24.8066C9.08203 24.8457 9.62891 24.8652 10.0195 24.8652C10.4492 24.8652 11.0547 24.8652 11.8359 24.8652C12.6562 24.8652 13.1055 24.8652 13.1836 24.8652C13.3008 24.8652 13.7305 24.8652 14.4727 24.8652C15.2539 24.8652 15.8594 24.8652 16.2891 24.8652C16.7188 24.8652 17.2656 24.8457 17.9297 24.8066C18.6328 24.7676 19.2188 24.709 19.6875 24.6309C20.1953 24.5527 20.6055 24.4551 20.918 24.3379C22.1289 23.8301 22.9688 22.9902 23.4375 21.8184Z" fill="#333333"/>
</svg>
