<svg width="27" height="28" viewBox="0 0 27 28" fill="none" xmlns="http://www.w3.org/2000/svg">
<path d="M24.375 0.958984C24.8828 0.958984 25.3125 1.1543 25.6641 1.54492C26.0547 1.89648 26.25 2.32617 26.25 2.83398V25.334C26.25 25.8418 26.0547 26.2715 25.6641 26.623C25.3125 27.0137 24.8828 27.209 24.375 27.209H1.875C1.36719 27.209 0.917969 27.0137 0.527344 26.623C0.175781 26.2715 0 25.8418 0 25.334V2.83398C0 2.32617 0.175781 1.89648 0.527344 1.54492C0.917969 1.1543 1.36719 0.958984 1.875 0.958984H24.375ZM7.91016 23.459H7.96875V10.9199H4.04297V23.459H7.91016ZM4.39453 8.57617C4.82422 9.00586 5.35156 9.2207 5.97656 9.2207C6.60156 9.2207 7.12891 9.00586 7.55859 8.57617C8.02734 8.10742 8.26172 7.58008 8.26172 6.99414C8.26172 6.36914 8.02734 5.8418 7.55859 5.41211C7.12891 4.94336 6.60156 4.70898 5.97656 4.70898C5.35156 4.70898 4.82422 4.94336 4.39453 5.41211C3.96484 5.8418 3.75 6.36914 3.75 6.99414C3.75 7.58008 3.96484 8.10742 4.39453 8.57617ZM22.5 23.459V16.6035C22.5 15.666 22.4414 14.8652 22.3242 14.2012C22.207 13.5371 21.9922 12.9316 21.6797 12.3848C21.3672 11.7988 20.8789 11.3691 20.2148 11.0957C19.5898 10.7832 18.8086 10.627 17.8711 10.627C16.9727 10.627 16.1914 10.8223 15.5273 11.2129C14.9023 11.6035 14.4531 12.0723 14.1797 12.6191H14.1211V10.9199H10.3711V23.459H14.2969V17.248C14.2969 16.2715 14.4531 15.4902 14.7656 14.9043C15.0781 14.3184 15.6836 14.0254 16.582 14.0254C17.0508 14.0254 17.4414 14.123 17.7539 14.3184C18.0664 14.5137 18.2617 14.8066 18.3398 15.1973C18.457 15.5879 18.5352 15.9395 18.5742 16.252C18.6133 16.5254 18.6328 16.8965 18.6328 17.3652V23.459H22.5Z" fill="#333333"/>
</svg>
