<svg width="46" height="56" viewBox="0 0 46 56" fill="none" xmlns="http://www.w3.org/2000/svg">
<g clip-path="url(#clip0_1861_5464)">
<path fill-rule="evenodd" clip-rule="evenodd" d="M3.48662 1.79878C3.38831 1.0655 2.7602 0.5 2 0.5C1.17157 0.5 0.5 1.17157 0.5 2V2.65452C0.5 2.65433 0.5 2.65471 0.5 2.65452L0.500001 34.1556C0.5 34.157 0.5 34.1584 0.500001 34.1598L0.500002 54.5C0.500002 55.3284 1.17158 56 2 56C2.82843 56 3.5 55.3284 3.5 54.5V35.0057L9.33447 31.505C9.40857 31.4605 9.47744 31.4107 9.54089 31.3563L9.55666 31.3445C9.59135 31.3191 9.66336 31.269 9.77709 31.2016C10.0041 31.067 10.4007 30.8619 11.003 30.6477C12.2063 30.2198 14.2487 29.75 17.4219 29.75C20.4507 29.75 22.9891 30.6402 25.7787 31.6321L25.8565 31.6597C28.5828 32.6292 31.559 33.6875 35.1406 33.6875C38.612 33.6875 40.9993 33.173 42.5645 32.6164C43.3465 32.3384 43.9189 32.0514 44.3148 31.8168C44.5125 31.6996 44.6655 31.596 44.7779 31.5137C44.834 31.4726 44.88 31.4369 44.9163 31.4076L44.9425 31.3861L44.9635 31.3685L44.9818 31.3528L44.9896 31.346L44.9932 31.3428L44.9949 31.3413C44.9957 31.3406 44.9965 31.3399 44 30.2188L44.9965 31.3399C45.3168 31.0552 45.5 30.6472 45.5 30.2188V6.59375C45.5 6.00306 45.1533 5.46737 44.6145 5.22539C44.0854 4.98779 43.4677 5.07681 43.0276 5.45164C43.0238 5.45458 43.0166 5.46011 43.0058 5.46798C42.9711 5.49338 42.8991 5.54353 42.7854 5.61093C42.5584 5.74547 42.1618 5.95065 41.5595 6.1648C40.3562 6.59266 38.3138 7.0625 35.1406 7.0625C32.1118 7.0625 29.5734 6.17231 26.7838 5.18043L26.706 5.15279C23.9798 4.18333 21.0036 3.125 17.4219 3.125C13.9505 3.125 11.5632 3.63953 9.99797 4.19605C9.39099 4.41187 8.91026 4.63309 8.54035 4.83102L3.48662 1.79878ZM3.5 5.30538V31.5071L7.0625 29.3696V7.44288L3.5 5.30538ZM10.0625 27.7983V7.4205C10.2918 7.30404 10.6018 7.16536 11.003 7.0227C12.2063 6.59484 14.2487 6.125 17.4219 6.125C20.4507 6.125 22.9891 7.01519 25.7787 8.00707L25.8565 8.03471C28.5827 9.00417 31.5589 10.0625 35.1406 10.0625C38.5646 10.0625 40.934 9.56191 42.5 9.0142V29.392C42.2707 29.5085 41.9607 29.6471 41.5595 29.7898C40.3562 30.2177 38.3138 30.6875 35.1406 30.6875C32.1118 30.6875 29.5734 29.7973 26.7838 28.8054L26.706 28.7778C23.9797 27.8083 21.0035 26.75 17.4219 26.75C13.9979 26.75 11.6285 27.2506 10.0625 27.7983Z" fill="white"/>
</g>
<defs>
<clipPath id="clip0_1861_5464">
<rect width="46" height="56" fill="white"/>
</clipPath>
</defs>
</svg>
