<svg width="1870" height="120" viewBox="0 0 1870 120" fill="none" xmlns="http://www.w3.org/2000/svg">
<path fill-rule="evenodd" clip-rule="evenodd" d="M12 20H99C103.418 20 107 23.5817 107 28V82.5934C107 87.0117 103.418 90.5934 99 90.5934H92.8166C92.7557 90.5196 92.6907 90.4481 92.6217 90.3791L90.836 88.5934H99C102.314 88.5934 105 85.9071 105 82.5934V28C105 24.6863 102.314 22 99 22H12C8.68629 22 6 24.6863 6 28V82.5934C6 85.9071 8.68629 88.5934 12 88.5934H50.4255C52.0775 88.8609 53.7725 89 55.5 89C57.2275 89 58.9225 88.8609 60.5745 88.5934H82.3508L84.3508 90.5934H12C7.58172 90.5934 4 87.0117 4 82.5934V28C4 23.5817 7.58173 20 12 20ZM84.2426 82H100V33H75.3007C76.0805 33.6311 76.8296 34.2986 77.5454 35H98V80H82.2426L84.2426 82ZM24.0351 59C24.0666 59.6724 24.1192 60.3393 24.1923 61H19C18.4477 61 18 60.5523 18 60C18 59.4477 18.4477 59 19 59H24.0351ZM24.8983 50C24.7374 50.6588 24.5972 51.3257 24.4785 52H19C18.4477 52 18 51.5523 18 51C18 50.4477 18.4477 50 19 50H24.8983ZM28.662 41C28.2607 41.6513 27.8825 42.3184 27.5284 43H19C18.4477 43 18 42.5523 18 42C18 41.4477 18.4477 41 19 41H28.662ZM33.4546 35H13V80H33.4546C34.1704 80.7014 34.9195 81.3689 35.6993 82H11V33H35.6993C34.9195 33.6311 34.1704 34.2986 33.4546 35ZM75.3007 82C75.3848 81.9319 75.4685 81.8635 75.5519 81.7946L75.7574 82H75.3007ZM86.5215 52H89C89.5523 52 90 51.5523 90 51C90 50.4477 89.5523 50 89 50H86.1017C86.2626 50.6588 86.4027 51.3257 86.5215 52ZM83.4716 43H92C92.5523 43 93 42.5523 93 42C93 41.4477 92.5523 41 92 41H82.338C82.7393 41.6513 83.1175 42.3184 83.4716 43ZM88 59C87.4477 59 87 59.4477 87 60C87 60.5523 87.4477 61 88 61H92C92.5523 61 93 60.5523 93 60C93 59.4477 92.5523 59 92 59H88Z" fill="white"/>
<mask id="mask0_2306_7345" style="mask-type:alpha" maskUnits="userSpaceOnUse" x="31" y="33" width="49" height="49">
<circle cx="55.5" cy="57.5" r="24.5" fill="#474747"/>
</mask>
<g mask="url(#mask0_2306_7345)">
<path fill-rule="evenodd" clip-rule="evenodd" d="M19 41C18.4477 41 18 41.4477 18 42C18 42.5523 18.4477 43 19 43H51C51.5523 43 52 42.5523 52 42C52 41.4477 51.5523 41 51 41H19ZM19 50C18.4477 50 18 50.4477 18 51C18 51.5523 18.4477 52 19 52H62C62.5523 52 63 51.5523 63 51C63 50.4477 62.5523 50 62 50H19ZM18 60C18 59.4477 18.4477 59 19 59H38C38.5523 59 39 59.4477 39 60C39 60.5523 38.5523 61 38 61H19C18.4477 61 18 60.5523 18 60ZM57 41C56.4477 41 56 41.4477 56 42C56 42.5523 56.4477 43 57 43H74C74.5523 43 75 42.5523 75 42C75 41.4477 74.5523 41 74 41H57ZM67 51C67 50.4477 67.4477 50 68 50H74C74.5523 50 75 50.4477 75 51C75 51.5523 74.5523 52 74 52H68C67.4477 52 67 51.5523 67 51ZM43 59C42.4477 59 42 59.4477 42 60C42 60.5523 42.4477 61 43 61H54C54.5523 61 55 60.5523 55 60C55 59.4477 54.5523 59 54 59H43ZM58 60C58 59.4477 58.4477 59 59 59H82C82.5523 59 83 59.4477 83 60C83 60.5523 82.5523 61 82 61H59C58.4477 61 58 60.5523 58 60ZM80 41C79.4477 41 79 41.4477 79 42C79 42.5523 79.4477 43 80 43H92C92.5523 43 93 42.5523 93 42C93 41.4477 92.5523 41 92 41H80ZM79 51C79 50.4477 79.4477 50 80 50H89C89.5523 50 90 50.4477 90 51C90 51.5523 89.5523 52 89 52H80C79.4477 52 79 51.5523 79 51ZM88 59C87.4477 59 87 59.4477 87 60C87 60.5523 87.4477 61 88 61H92C92.5523 61 93 60.5523 93 60C93 59.4477 92.5523 59 92 59H88Z" fill="white"/>
</g>
<path d="M55.5 85.5C70.964 85.5 83.5 72.964 83.5 57.5C83.5 42.036 70.964 29.5 55.5 29.5C40.036 29.5 27.5 42.036 27.5 57.5C27.5 72.964 40.036 85.5 55.5 85.5Z" stroke="white" stroke-width="2" stroke-linecap="round" stroke-linejoin="round"/>
<path d="M90.5004 92.5004L75.2754 77.2754" stroke="white" stroke-width="2" stroke-linecap="round" stroke-linejoin="round"/>
<circle cx="13" cy="28" r="2" fill="white"/>
<circle cx="19" cy="28" r="2" fill="white"/>
<circle cx="25" cy="28" r="2" fill="white"/>
<path d="M197 39H191C189.343 39 188 40.3431 188 42V92H200V42C200 40.3431 198.657 39 197 39Z" stroke="white" stroke-width="2"/>
<circle cx="9" cy="9" r="8" transform="matrix(-1 0 0 1 203 17)" stroke="white" stroke-width="2"/>
<mask id="mask1_2306_7345" style="mask-type:alpha" maskUnits="userSpaceOnUse" x="187" y="19" width="14" height="14">
<circle cx="7" cy="7" r="7" transform="matrix(-1 0 0 1 201 19)" fill="#D9D9D9"/>
</mask>
<g mask="url(#mask1_2306_7345)">
<path fill-rule="evenodd" clip-rule="evenodd" d="M194 27C192.343 27 191 25.6569 191 24C191 22.3431 192.343 21 194 21C195.657 21 197 22.3431 197 24C197 25.6569 195.657 27 194 27ZM194 27C190.686 27 188 29.6863 188 33C188 36.3137 190.686 39 194 39C197.314 39 200 36.3137 200 33C200 29.6863 197.314 27 194 27Z" fill="white"/>
</g>
<path d="M168 59H162C160.343 59 159 60.3431 159 62V92H171V62C171 60.3431 169.657 59 168 59Z" stroke="white" stroke-width="2"/>
<circle cx="9" cy="9" r="8" transform="matrix(-1 0 0 1 174 37)" stroke="white" stroke-width="2"/>
<mask id="mask2_2306_7345" style="mask-type:alpha" maskUnits="userSpaceOnUse" x="158" y="39" width="14" height="14">
<circle cx="7" cy="7" r="7" transform="matrix(-1 0 0 1 172 39)" fill="#D9D9D9"/>
</mask>
<g mask="url(#mask2_2306_7345)">
<path fill-rule="evenodd" clip-rule="evenodd" d="M165 47C163.343 47 162 45.6569 162 44C162 42.3431 163.343 41 165 41C166.657 41 168 42.3431 168 44C168 45.6569 166.657 47 165 47ZM165 47C161.686 47 159 49.6863 159 53C159 56.3137 161.686 59 165 59C168.314 59 171 56.3137 171 53C171 49.6863 168.314 47 165 47Z" fill="white"/>
</g>
<path d="M139 79H133C131.343 79 130 80.3431 130 82V92H142V82C142 80.3431 140.657 79 139 79Z" stroke="white" stroke-width="2"/>
<circle cx="9" cy="9" r="8" transform="matrix(-1 0 0 1 145 58)" stroke="white" stroke-width="2"/>
<mask id="mask3_2306_7345" style="mask-type:alpha" maskUnits="userSpaceOnUse" x="129" y="60" width="14" height="14">
<circle cx="7" cy="7" r="7" transform="matrix(-1 0 0 1 143 60)" fill="#D9D9D9"/>
</mask>
<g mask="url(#mask3_2306_7345)">
<path fill-rule="evenodd" clip-rule="evenodd" d="M136 68C134.343 68 133 66.6569 133 65C133 63.3431 134.343 62 136 62C137.657 62 139 63.3431 139 65C139 66.6569 137.657 68 136 68ZM136 68C132.686 68 130 70.6863 130 74C130 77.3137 132.686 80 136 80C139.314 80 142 77.3137 142 74C142 70.6863 139.314 68 136 68Z" fill="white"/>
</g>
<path fill-rule="evenodd" clip-rule="evenodd" d="M262.476 91.1042C258.913 96.0251 254.582 100 251.989 102.178C250.656 103.298 248.753 103.298 247.419 102.178C242.43 97.9868 231 87.1384 231 75.7039C231 67.9485 235.72 61.2955 242.444 58.4609C242.618 59.1084 242.807 59.7535 243.008 60.3959C237.116 62.9767 233 68.8596 233 75.7039C233 80.7858 235.561 85.9306 238.941 90.4611C242.294 94.9541 246.271 98.6015 248.706 100.647C249.295 101.142 250.113 101.142 250.702 100.647C253.137 98.6015 257.114 94.9541 260.467 90.4611C260.679 90.1763 260.889 89.8889 261.094 89.5993C261.556 90.1098 262.017 90.6115 262.476 91.1042ZM246.833 69.5849C245.661 70.5069 244.908 71.9382 244.908 73.5453C244.908 76.3264 247.163 78.581 249.944 78.581C250.671 78.581 251.362 78.427 251.986 78.1499C250.106 75.4109 248.358 72.5454 246.833 69.5849Z" fill="white"/>
<path d="M321 45C321 57.6589 314.085 70.0736 306 80.2375C297.935 90.3763 288.823 98.1288 284.671 101.444C283.675 102.239 282.325 102.239 281.329 101.444C277.177 98.1288 268.065 90.3763 260 80.2375C251.915 70.0736 245 57.6589 245 45C245 24.0132 262.013 7 283 7C303.987 7 321 24.0132 321 45Z" stroke="white" stroke-width="2"/>
<circle cx="283" cy="40" r="9" stroke="white" stroke-width="2"/>
<path d="M392 46H401V68.0752H392V46Z" stroke="white" stroke-width="2"/>
<path d="M388 52.625H389V51.2742L387.708 51.6686L388 52.625ZM367.637 68.2068V69.2068H368.358L368.586 68.523L367.637 68.2068ZM388 72H387V73H388V72ZM402.206 72L402.903 71.2828L402.612 71H402.206V72ZM408.62 80.0781L407.667 80.3813L407.667 80.3813L408.62 80.0781ZM408.451 81.5979L407.528 81.2133L407.528 81.2133L408.451 81.5979ZM401.876 97.3769L402.799 97.7616L402.799 97.7616L401.876 97.3769ZM367.637 93.5121L368.437 92.9121L368.137 92.5121H367.637V93.5121ZM364.537 93.5121H363.537V94.5121H364.537V93.5121ZM364.537 68.2068V67.2068H363.537V68.2068H364.537ZM359.73 68.2068H360.73V67.2068H359.73V68.2068ZM353 68.2068V67.2068H352V68.2068H353ZM353 93.5121H352V94.5121H353V93.5121ZM359.73 93.5121V94.5121H360.73V93.5121H359.73ZM387.708 51.6686C383.615 52.918 379.11 54.789 375.262 57.4209C371.416 60.0506 368.156 63.4887 366.689 67.8906L368.586 68.523C369.868 64.678 372.758 61.5559 376.391 59.0718C380.02 56.5898 384.322 54.7934 388.292 53.5814L387.708 51.6686ZM389 72V52.625H387V72H389ZM402.206 71H388V73H402.206V71ZM409.573 79.7749C409.145 78.4283 407.989 76.8289 406.761 75.3711C405.502 73.8769 404.054 72.4006 402.903 71.2828L401.51 72.7172C402.638 73.8132 404.033 75.2374 405.231 76.6594C406.46 78.1179 407.371 79.4506 407.667 80.3813L409.573 79.7749ZM409.374 81.9825C409.606 81.4252 409.842 80.6204 409.573 79.7749L407.667 80.3813C407.719 80.5424 407.702 80.7957 407.528 81.2133L409.374 81.9825ZM402.799 97.7616L409.374 81.9825L407.528 81.2133L400.953 96.9923L402.799 97.7616ZM398.184 100.838C400.203 100.838 402.023 99.6247 402.799 97.7616L400.953 96.9923C400.487 98.1103 399.395 98.8385 398.184 98.8385V100.838ZM377.127 100.838H398.184V98.8385H377.127V100.838ZM366.837 94.1121C367.673 95.2267 369.158 96.8756 370.939 98.2564C372.693 99.6157 374.891 100.838 377.127 100.838V98.8385C375.567 98.8385 373.811 97.9525 372.165 96.6758C370.545 95.4207 369.183 93.9064 368.437 92.9121L366.837 94.1121ZM364.537 94.5121H367.637V92.5121H364.537V94.5121ZM363.537 68.2068V93.5121H365.537V68.2068H363.537ZM367.637 67.2068H364.537V69.2068H367.637V67.2068ZM359.73 67.2068H353V69.2068H359.73V67.2068ZM352 68.2068V93.5121H354V68.2068H352ZM353 94.5121H359.73V92.5121H353V94.5121ZM360.73 93.5121V68.2068H358.73V93.5121H360.73Z" fill="white"/>
<rect x="373.346" y="13" width="44.6552" height="28.7241" rx="3" stroke="white" stroke-width="2"/>
<path d="M403.613 31.7364H404.433C405.052 31.7364 405.604 31.6393 406.09 31.4451C406.575 31.2509 406.982 30.9839 407.309 30.644C407.649 30.3041 407.904 29.9036 408.074 29.4423C408.256 28.969 408.347 28.4531 408.347 27.8948C408.347 27.3486 408.256 26.8388 408.074 26.3654C407.892 25.892 407.631 25.4854 407.291 25.1455C406.964 24.8057 406.557 24.5386 406.071 24.3444C405.586 24.1502 405.04 24.0531 404.433 24.0531H403.613V31.7364ZM400.045 21.0308H405.325C406.26 21.0308 407.133 21.2189 407.947 21.5952C408.772 21.9715 409.488 22.4752 410.095 23.1063C410.714 23.7254 411.2 24.4537 411.552 25.2912C411.904 26.1166 412.08 26.9844 412.08 27.8948C412.08 28.793 411.904 29.6608 411.552 30.4983C411.212 31.3237 410.732 32.052 410.113 32.6832C409.506 33.3143 408.79 33.8181 407.965 34.1943C407.152 34.5706 406.272 34.7588 405.325 34.7588H400.045V21.0308Z" fill="white"/>
<path d="M397.176 21.0308V34.7588H393.607V21.0308H397.176Z" fill="white"/>
<path d="M384.571 31.9913H385.353C386.252 31.9913 386.895 31.876 387.283 31.6454C387.672 31.4148 387.866 31.0446 387.866 30.5348C387.866 30.025 387.672 29.6548 387.283 29.4241C386.895 29.1935 386.252 29.0782 385.353 29.0782H384.571V31.9913ZM384.571 26.42H385.226C386.343 26.42 386.901 25.977 386.901 25.0909C386.901 24.2048 386.343 23.7618 385.226 23.7618H384.571V26.42ZM381.002 21.0308H386.318C387.581 21.0308 388.54 21.3342 389.195 21.9411C389.851 22.548 390.178 23.4219 390.178 24.5629C390.178 25.2548 390.051 25.8313 389.796 26.2926C389.553 26.7417 389.177 27.124 388.667 27.4396C389.177 27.5367 389.608 27.6884 389.96 27.8948C390.324 28.089 390.615 28.3317 390.834 28.623C391.064 28.9143 391.228 29.2421 391.325 29.6062C391.422 29.9703 391.471 30.3588 391.471 30.7715C391.471 31.4148 391.356 31.9852 391.125 32.4829C390.907 32.9806 390.591 33.3993 390.178 33.7392C389.778 34.079 389.286 34.3339 388.703 34.5039C388.121 34.6738 387.465 34.7588 386.737 34.7588H381.002V21.0308Z" fill="white"/>
<path fill-rule="evenodd" clip-rule="evenodd" d="M514.971 70H539C541.209 70 543 68.2091 543 66V44C543 41.7909 541.209 40 539 40H513.1C513.764 40.6271 514.389 41.2951 514.971 42H539C540.105 42 541 42.8954 541 44V66C541 67.1046 540.105 68 539 68H516.442C515.989 68.6948 515.498 69.3625 514.971 70ZM481.029 70C480.502 69.3625 480.011 68.6948 479.558 68H451C449.895 68 449 67.1046 449 66V44C449 42.8954 449.895 42 451 42H481.029C481.611 41.2951 482.236 40.6271 482.9 40H451C448.791 40 447 41.7909 447 44V66C447 68.2091 448.791 70 451 70H481.029Z" fill="white"/>
<path d="M497.75 73.75C507.691 73.75 515.75 65.6911 515.75 55.75C515.75 45.8089 507.691 37.75 497.75 37.75C487.809 37.75 479.75 45.8089 479.75 55.75C479.75 65.6911 487.809 73.75 497.75 73.75Z" stroke="white" stroke-width="2" stroke-linecap="round" stroke-linejoin="round"/>
<path d="M520.25 78.2504L510.463 68.4629" stroke="white" stroke-width="2" stroke-linecap="round" stroke-linejoin="round"/>
<path d="M459 54C458.448 54 458 54.4477 458 55C458 55.5523 458.448 56 459 56H475C475.552 56 476 55.5523 476 55C476 54.4477 475.552 54 475 54H459Z" fill="white"/>
<path d="M483 54C482.448 54 482 54.4477 482 55C482 55.5523 482.448 56 483 56H497C497.552 56 498 55.5523 498 55C498 54.4477 497.552 54 497 54H483Z" fill="white"/>
<path d="M646.988 73C646.732 61.958 642.234 51.4225 634.406 43.5944C626.342 35.5303 615.404 31 604 31C592.596 31 581.658 35.5303 573.594 43.5944C565.766 51.4225 561.268 61.958 561.012 73L570.2 73C570.454 64.3944 573.984 56.1945 580.089 50.089C586.431 43.7474 595.032 40.1848 604 40.1848C612.968 40.1848 621.569 43.7474 627.911 50.089C634.016 56.1945 637.546 64.3944 637.8 73H646.988Z" stroke="white" stroke-width="2"/>
<path d="M600.539 65.5769L623.408 47.7899L606.187 71.0883C604.74 73.0466 601.89 73.2591 600.168 71.5373C598.474 69.8432 598.648 67.0477 600.539 65.5769Z" stroke="white" stroke-width="2"/>
<rect x="670" y="31" width="89" height="47" rx="3" stroke="white" stroke-width="2"/>
<rect x="676" y="39" width="24" height="24" rx="1" stroke="white" stroke-width="2"/>
<path d="M693.333 57V55.6667C693.333 54.9594 693.052 54.2811 692.552 53.781C692.052 53.281 691.373 53 690.666 53H685.333C684.625 53 683.947 53.281 683.447 53.781C682.947 54.2811 682.666 54.9594 682.666 55.6667V57" fill="white" stroke="white" stroke-width="2" stroke-linecap="round" stroke-linejoin="round"/>
<path d="M688.001 50.3333C689.473 50.3333 690.667 49.1394 690.667 47.6667C690.667 46.1939 689.473 45 688.001 45C686.528 45 685.334 46.1939 685.334 47.6667C685.334 49.1394 686.528 50.3333 688.001 50.3333Z" fill="white" stroke="white" stroke-width="2" stroke-linecap="round" stroke-linejoin="round"/>
<rect x="707" y="38" width="43" height="2" rx="1" fill="white"/>
<rect x="707" y="44" width="43" height="2" rx="1" fill="white"/>
<rect x="707" y="50" width="43" height="2" rx="1" fill="white"/>
<rect x="707" y="56" width="43" height="2" rx="1" fill="white"/>
<rect x="707" y="62" width="22" height="2" rx="1" fill="white"/>
<path d="M789 31.999L860.804 31.999C861.909 31.999 862.804 32.8945 862.804 33.999L862.804 68.0853L864.804 69.2925L864.804 33.999C864.804 31.7899 863.013 29.999 860.804 29.999L789 29.999C786.791 29.999 785 31.7899 785 33.999L785 76.3369C785 78.5461 786.791 80.3369 789 80.3369L842.959 80.3369L842.921 78.3369L789 78.3369C787.895 78.3369 787 77.4415 787 76.3369L787 33.999C787 32.8945 787.895 31.999 789 31.999Z" fill="#D9D9D9"/>
<mask id="path-46-outside-1_2306_7345" maskUnits="userSpaceOnUse" x="831.821" y="51.6489" width="45.1147" height="49.141" fill="black">
<rect fill="white" x="831.821" y="51.6489" width="45.1147" height="49.141"/>
<path fill-rule="evenodd" clip-rule="evenodd" d="M865.551 74.8275L846.823 63.261L847.476 85.2634L853.138 81.9941L858.06 94.647L868.389 88.6836L859.892 78.0951L865.551 74.8275Z"/>
</mask>
<path d="M846.823 63.261L847.874 61.5594L844.714 59.6077L844.824 63.3204L846.823 63.261ZM865.551 74.8275L866.551 76.5596L869.451 74.8853L866.602 73.1259L865.551 74.8275ZM847.476 85.2634L845.477 85.3227L845.576 88.6697L848.476 86.9955L847.476 85.2634ZM853.138 81.9941L855.002 81.2691L854.157 79.0964L852.138 80.262L853.138 81.9941ZM858.06 94.647L856.196 95.372L857.041 97.5446L859.06 96.379L858.06 94.647ZM868.389 88.6836L869.389 90.4156L871.408 89.25L869.948 87.4318L868.389 88.6836ZM859.892 78.0951L858.892 76.363L856.873 77.5286L858.332 79.3468L859.892 78.0951ZM845.772 64.9627L864.5 76.5292L866.602 73.1259L847.874 61.5594L845.772 64.9627ZM849.475 85.2041L848.822 63.2017L844.824 63.3204L845.477 85.3227L849.475 85.2041ZM852.138 80.262L846.476 83.5314L848.476 86.9955L854.138 83.7261L852.138 80.262ZM859.924 93.922L855.002 81.2691L851.274 82.7191L856.196 95.372L859.924 93.922ZM867.389 86.9515L857.06 92.9149L859.06 96.379L869.389 90.4156L867.389 86.9515ZM858.332 79.3468L866.829 89.9353L869.948 87.4318L861.451 76.8433L858.332 79.3468ZM864.551 73.0955L858.892 76.363L860.892 79.8271L866.551 76.5596L864.551 73.0955Z" fill="white" mask="url(#path-46-outside-1_2306_7345)"/>
<path d="M810.823 64.3662H806.1L812.234 46.1844H818.085L824.219 64.3662H819.496L815.226 50.7654H815.084L810.823 64.3662ZM810.192 57.2107H820.065V60.5487H810.192V57.2107ZM832.898 64.3662H826.177V46.1844H832.889C834.741 46.1844 836.336 46.5484 837.674 47.2764C839.017 47.9984 840.053 49.0401 840.781 50.4014C841.509 51.7567 841.873 53.3784 841.873 55.2664C841.873 57.1604 841.509 58.788 840.781 60.1492C840.059 61.5105 839.026 62.5551 837.683 63.2831C836.339 64.0052 834.744 64.3662 832.898 64.3662ZM830.572 60.6198H832.729C833.747 60.6198 834.608 60.4481 835.312 60.1048C836.023 59.7557 836.558 59.1904 836.919 58.4092C837.286 57.622 837.47 56.5744 837.47 55.2664C837.47 53.9584 837.286 52.9168 836.919 52.1414C836.552 51.3602 836.011 50.7979 835.295 50.4546C834.584 50.1054 833.708 49.9308 832.667 49.9308H830.572V60.6198Z" fill="white"/>
<path fill-rule="evenodd" clip-rule="evenodd" d="M887 23H976C978.209 23 980 24.7909 980 27V64.3031C980.723 65.0406 981.392 65.8313 982 66.6686V27C982 23.6863 979.314 21 976 21H887C883.686 21 881 23.6863 881 27V82C881 85.3137 883.686 88 887 88H946.021C945.713 87.351 945.437 86.6836 945.195 86H887C884.791 86 883 84.2091 883 82V27C883 24.7909 884.791 23 887 23Z" fill="white"/>
<path fill-rule="evenodd" clip-rule="evenodd" d="M889 34H974V60.0209C974.688 60.3478 975.356 60.711 976 61.108V32H887V81H944.094C944.032 80.3417 944 79.6746 944 79H889V34Z" fill="white"/>
<g filter="url(#filter0_d_2306_7345)">
<path d="M918.425 64.286C917.559 64.286 916.731 64.1503 915.939 63.879C915.147 63.6003 914.454 63.2043 913.86 62.691C913.266 62.1703 912.837 61.5507 912.573 60.832L915.675 59.688C915.748 59.9007 915.909 60.106 916.159 60.304C916.415 60.502 916.738 60.667 917.127 60.799C917.515 60.9237 917.948 60.986 918.425 60.986C918.865 60.986 919.279 60.9237 919.668 60.799C920.056 60.667 920.372 60.4873 920.614 60.26C920.856 60.0327 920.977 59.7687 920.977 59.468C920.977 59.16 920.848 58.907 920.592 58.709C920.342 58.5037 920.02 58.3423 919.624 58.225C919.235 58.1003 918.835 58.0087 918.425 57.95C917.31 57.7887 916.309 57.5247 915.422 57.158C914.542 56.784 913.845 56.2707 913.332 55.618C912.826 54.9653 912.573 54.1367 912.573 53.132C912.573 52.1713 912.844 51.3317 913.387 50.613C913.929 49.887 914.644 49.3223 915.532 48.919C916.426 48.5157 917.391 48.314 918.425 48.314C919.29 48.314 920.119 48.4533 920.911 48.732C921.71 49.0033 922.407 49.3993 923.001 49.92C923.595 50.4407 924.02 51.064 924.277 51.79L921.175 52.912C921.101 52.6993 920.936 52.4977 920.68 52.307C920.43 52.109 920.111 51.9477 919.723 51.823C919.334 51.6983 918.901 51.636 918.425 51.636C917.999 51.6287 917.592 51.691 917.204 51.823C916.815 51.955 916.496 52.1347 916.247 52.362C915.997 52.5893 915.873 52.846 915.873 53.132C915.873 53.528 915.99 53.825 916.225 54.023C916.459 54.2137 916.767 54.3493 917.149 54.43C917.537 54.5107 917.963 54.584 918.425 54.65C919.481 54.804 920.452 55.079 921.34 55.475C922.227 55.871 922.938 56.399 923.474 57.059C924.009 57.719 924.277 58.522 924.277 59.468C924.277 60.4287 924.005 61.272 923.463 61.998C922.927 62.7167 922.216 63.2777 921.329 63.681C920.441 64.0843 919.473 64.286 918.425 64.286ZM926.693 64V48.6H936.505V51.9H929.993V54.1H935.009V57.4H929.993V60.7H936.505V64H926.693ZM946.068 64.286C945.026 64.286 944.047 64.0807 943.131 63.67C942.214 63.252 941.407 62.6763 940.711 61.943C940.014 61.2097 939.468 60.3627 939.072 59.402C938.676 58.434 938.478 57.4 938.478 56.3C938.478 55.2 938.676 54.1697 939.072 53.209C939.468 52.241 940.014 51.3903 940.711 50.657C941.407 49.9237 942.214 49.3517 943.131 48.941C944.047 48.523 945.026 48.314 946.068 48.314C947.116 48.314 948.099 48.523 949.016 48.941C949.932 49.3517 950.739 49.9237 951.436 50.657C952.132 51.3903 952.675 52.241 953.064 53.209C953.46 54.1697 953.658 55.2 953.658 56.3C953.658 57.4 953.46 58.434 953.064 59.402C952.675 60.3627 952.132 61.2097 951.436 61.943C950.739 62.6763 949.932 63.252 949.016 63.67C948.099 64.0807 947.116 64.286 946.068 64.286ZM946.068 60.986C946.654 60.986 947.204 60.865 947.718 60.623C948.238 60.3737 948.697 60.0363 949.093 59.611C949.489 59.1783 949.797 58.6797 950.017 58.115C950.244 57.5503 950.358 56.9453 950.358 56.3C950.358 55.6547 950.244 55.0497 950.017 54.485C949.797 53.9203 949.489 53.4253 949.093 53C948.697 52.5673 948.238 52.23 947.718 51.988C947.204 51.7387 946.654 51.614 946.068 51.614C945.481 51.614 944.927 51.7387 944.407 51.988C943.893 52.23 943.439 52.5673 943.043 53C942.647 53.4253 942.335 53.9203 942.108 54.485C941.888 55.0497 941.778 55.6547 941.778 56.3C941.778 56.9453 941.888 57.5503 942.108 58.115C942.335 58.6797 942.647 59.1783 943.043 59.611C943.439 60.0363 943.893 60.3737 944.407 60.623C944.927 60.865 945.481 60.986 946.068 60.986Z" fill="white"/>
</g>
<g filter="url(#filter1_d_2306_7345)">
<path fill-rule="evenodd" clip-rule="evenodd" d="M978.778 88.6182C978.477 88.7473 978.2 89.089 977.875 89.4917L977.875 89.4917C977.667 89.7488 977.439 90.0308 977.172 90.2981C976.905 90.5654 976.623 90.7933 976.366 91.001C975.844 91.4223 975.425 91.761 975.438 92.179C976.726 91.1724 977.854 89.9706 978.778 88.6182ZM980.483 89.6687C980.105 90.2274 979.697 90.7635 979.26 91.2746L988.061 100.076C988.368 100.383 988.368 100.88 988.061 101.187C987.754 101.493 987.257 101.493 986.95 101.187L978.188 92.4239C977.711 92.8919 977.208 93.3334 976.681 93.7458L985.536 102.601C986.624 103.689 988.388 103.689 989.475 102.601C990.563 101.513 990.563 99.7493 989.475 98.6615L980.483 89.6687Z" fill="white"/>
<path d="M981.654 78.8272C981.654 88.1207 974.121 95.6545 964.827 95.6545C955.534 95.6545 948 88.1207 948 78.8272C948 69.5338 955.534 62 964.827 62C974.121 62 981.654 69.5338 981.654 78.8272Z" stroke="white" stroke-width="2"/>
<path d="M964.825 91.0833C971.594 91.0833 977.081 85.596 977.081 78.827C977.081 72.0581 971.594 66.5708 964.825 66.5708C958.056 66.5708 952.568 72.0581 952.568 78.827C952.568 85.596 958.056 91.0833 964.825 91.0833Z" stroke="white" stroke-width="2" stroke-linecap="round" stroke-linejoin="round"/>
</g>
<circle cx="889" cy="28" r="1" stroke="white" stroke-width="2"/>
<circle cx="895" cy="28" r="1" stroke="white" stroke-width="2"/>
<circle cx="901" cy="28" r="1" stroke="white" stroke-width="2"/>
<rect x="993" y="21" width="103" height="68.5934" rx="7" stroke="white" stroke-width="2"/>
<path d="M1001 32H1000V33V81V82H1001H1088H1089V81V33V32H1088H1001Z" stroke="white" stroke-width="2"/>
<circle cx="1002" cy="27" r="2" fill="white"/>
<circle cx="1008" cy="27" r="2" fill="white"/>
<circle cx="1014" cy="27" r="2" fill="white"/>
<rect x="1006" y="39" width="77" height="24" rx="1" stroke="white" stroke-width="2"/>
<path d="M1007 69H1024C1024.55 69 1025 69.4477 1025 70V82H1006V70C1006 69.4477 1006.45 69 1007 69Z" stroke="white" stroke-width="2"/>
<path d="M1036 69H1053C1053.55 69 1054 69.4477 1054 70V82H1035V70C1035 69.4477 1035.45 69 1036 69Z" stroke="white" stroke-width="2"/>
<path d="M1065 69H1082C1082.55 69 1083 69.4477 1083 70V82H1064V70C1064 69.4477 1064.45 69 1065 69Z" stroke="white" stroke-width="2"/>
<rect x="1023" y="47" width="43" height="2" rx="1" fill="white"/>
<rect x="1034" y="52" width="21" height="2" rx="1" fill="white"/>
<rect x="1103" y="21" width="103" height="68.5934" rx="7" stroke="white" stroke-width="2"/>
<path d="M1110 32H1109V33V82V83H1110H1199H1200V82V33V32H1199H1110Z" stroke="white" stroke-width="2"/>
<circle cx="1112" cy="27" r="2" fill="white"/>
<circle cx="1118" cy="27" r="2" fill="white"/>
<circle cx="1124" cy="27" r="2" fill="white"/>
<mask id="path-74-inside-2_2306_7345" fill="white">
<path d="M1147.45 57.2756C1147.45 60.3858 1146.53 63.4262 1144.8 66.0122C1143.07 68.5982 1140.62 70.6138 1137.74 71.804C1134.87 72.9942 1131.71 73.3056 1128.66 72.6988C1125.61 72.0921 1122.81 70.5944 1120.61 68.3952C1118.41 66.1959 1116.91 63.3939 1116.3 60.3435C1115.7 57.2931 1116.01 54.1312 1117.2 51.2578C1118.39 48.3844 1120.4 45.9284 1122.99 44.2005C1125.57 42.4726 1128.62 41.5503 1131.73 41.5503L1131.73 57.2756H1147.45Z"/>
</mask>
<path d="M1147.45 57.2756C1147.45 60.3858 1146.53 63.4262 1144.8 66.0122C1143.07 68.5982 1140.62 70.6138 1137.74 71.804C1134.87 72.9942 1131.71 73.3056 1128.66 72.6988C1125.61 72.0921 1122.81 70.5944 1120.61 68.3952C1118.41 66.1959 1116.91 63.3939 1116.3 60.3435C1115.7 57.2931 1116.01 54.1312 1117.2 51.2578C1118.39 48.3844 1120.4 45.9284 1122.99 44.2005C1125.57 42.4726 1128.62 41.5503 1131.73 41.5503L1131.73 57.2756H1147.45Z" stroke="white" stroke-width="4" mask="url(#path-74-inside-2_2306_7345)"/>
<path d="M1147.88 49.0902C1148.49 50.5681 1148.86 52.1338 1148.97 53.7254H1135.28L1135.28 40.034C1136.87 40.1423 1138.43 40.5087 1139.91 41.1209C1141.7 41.8609 1143.32 42.9456 1144.69 44.313C1146.06 45.6803 1147.14 47.3036 1147.88 49.0902Z" stroke="white" stroke-width="2"/>
<ellipse cx="1158.5" cy="64.5" rx="2.5" ry="2.5" fill="white"/>
<ellipse cx="1167.5" cy="66.5" rx="2.5" ry="2.5" fill="white"/>
<ellipse cx="1174.5" cy="54.5" rx="2.5" ry="2.5" fill="white"/>
<ellipse cx="1184.5" cy="58.5" rx="2.5" ry="2.5" fill="white"/>
<path fill-rule="evenodd" clip-rule="evenodd" d="M1189.98 47.9263L1186.1 55.3857C1186.73 55.7116 1187.25 56.2255 1187.59 56.8536L1191.72 48.9127C1191.04 48.7585 1190.44 48.4088 1189.98 47.9263ZM1181.02 58.0998C1181.1 57.3975 1181.39 56.7583 1181.82 56.2452L1177.94 53.8747C1177.98 54.0777 1178 54.2867 1178 54.5002C1178 55.0512 1177.87 55.5725 1177.65 56.0362L1181.02 58.0998ZM1173.24 57.7663C1172.59 57.5159 1172.04 57.0779 1171.64 56.519L1168.1 63.0518C1168.79 63.1707 1169.41 63.4893 1169.89 63.9455L1173.24 57.7663ZM1164.01 66.8263C1164.01 66.7189 1164 66.6102 1164 66.5002C1164 65.8973 1164.15 65.3299 1164.42 64.8346L1161.94 63.8415C1161.98 64.0548 1162 64.275 1162 64.5002C1162 64.9992 1161.9 65.4737 1161.71 65.9033L1164.01 66.8263ZM1156.58 67.4262C1156 67.0458 1155.54 66.4987 1155.27 65.8532L1151.21 71.0172C1150.87 71.4514 1150.95 72.0801 1151.38 72.4213C1151.82 72.7625 1152.45 72.6871 1152.79 72.2528L1156.58 67.4262Z" fill="white"/>
<ellipse cx="1192.5" cy="45.5" rx="2.5" ry="2.5" fill="white"/>
<rect x="1213" y="21" width="103" height="68.5934" rx="7" stroke="white" stroke-width="2"/>
<path d="M1220 32H1219V33V82V83H1220H1309H1310V82V33V32H1309H1220Z" stroke="white" stroke-width="2"/>
<path d="M1227 39H1260C1260.55 39 1261 39.4477 1261 40V75C1261 75.5523 1260.55 76 1260 76H1227C1226.45 76 1226 75.5523 1226 75V40C1226 39.4477 1226.45 39 1227 39Z" stroke="white" stroke-width="2"/>
<path d="M1241.47 49.6H1245.19L1250.77 65H1247.28L1246.4 62.58H1240.26L1239.38 65H1235.88L1241.47 49.6ZM1241.47 59.28H1245.19L1243.32 54.176L1241.47 59.28Z" fill="white"/>
<path d="M1269 39H1302C1302.55 39 1303 39.4477 1303 40V75C1303 75.5523 1302.55 76 1302 76H1269C1268.45 76 1268 75.5523 1268 75V40C1268 39.4477 1268.45 39 1269 39Z" stroke="white" stroke-width="2"/>
<path d="M1280.32 65V49.6H1286.15C1286.99 49.6 1287.76 49.776 1288.44 50.128C1289.12 50.4727 1289.66 50.964 1290.05 51.602C1290.46 52.24 1290.66 52.988 1290.66 53.846C1290.66 54.1687 1290.62 54.5097 1290.54 54.869C1290.46 55.221 1290.32 55.551 1290.11 55.859C1289.9 56.167 1289.61 56.409 1289.23 56.585C1289.72 56.7023 1290.11 56.9223 1290.4 57.245C1290.68 57.5677 1290.89 57.9417 1291.03 58.367C1291.18 58.785 1291.28 59.2103 1291.32 59.643C1291.36 60.0683 1291.39 60.4533 1291.39 60.798C1291.39 61.5753 1291.18 62.283 1290.76 62.921C1290.34 63.5517 1289.78 64.0577 1289.08 64.439C1288.37 64.813 1287.59 65 1286.74 65H1280.32ZM1283.62 62.206H1286.39C1286.77 62.206 1287.12 62.118 1287.43 61.942C1287.74 61.7587 1287.99 61.5093 1288.17 61.194C1288.36 60.8787 1288.46 60.5193 1288.46 60.116C1288.46 59.7787 1288.36 59.4597 1288.17 59.159C1287.99 58.851 1287.74 58.6017 1287.43 58.411C1287.12 58.2203 1286.77 58.125 1286.39 58.125H1283.62V62.206ZM1283.62 55.375H1285.75C1286.19 55.375 1286.57 55.2283 1286.89 54.935C1287.2 54.6417 1287.36 54.2713 1287.36 53.824C1287.36 53.3693 1287.2 53.021 1286.89 52.779C1286.57 52.537 1286.19 52.416 1285.75 52.416H1283.62V55.375Z" fill="white"/>
<circle cx="1222" cy="27" r="2" fill="white"/>
<circle cx="1228" cy="27" r="2" fill="white"/>
<circle cx="1234" cy="27" r="2" fill="white"/>
<mask id="path-91-inside-3_2306_7345" fill="white">
<path d="M1389.5 20H1396.75C1398.67 20 1400.52 20.8546 1401.88 22.3757C1403.24 23.8968 1404 25.9599 1404 28.1111V84.8889C1404 87.0401 1403.24 89.1032 1401.88 90.6243C1400.52 92.1454 1398.67 93 1396.75 93H1353.25C1351.33 93 1349.48 92.1454 1348.12 90.6243C1346.76 89.1032 1346 87.0401 1346 84.8889V28.1111C1346 25.9599 1346.76 23.8968 1348.12 22.3757C1349.48 20.8546 1351.33 20 1353.25 20H1360.5"/>
</mask>
<path d="M1389.5 18C1388.4 18 1387.5 18.8954 1387.5 20C1387.5 21.1046 1388.4 22 1389.5 22V18ZM1396.75 20V18V20ZM1346 84.8889H1344H1346ZM1353.25 20V18V20ZM1360.5 22C1361.6 22 1362.5 21.1046 1362.5 20C1362.5 18.8954 1361.6 18 1360.5 18V22ZM1389.5 22H1396.75V18H1389.5V22ZM1396.75 22C1398.07 22 1399.38 22.5826 1400.39 23.7085L1403.37 21.0428C1401.65 19.1265 1399.28 18 1396.75 18V22ZM1400.39 23.7085C1401.4 24.8418 1402 26.4224 1402 28.1111H1406C1406 25.4974 1405.07 22.9518 1403.37 21.0428L1400.39 23.7085ZM1402 28.1111V84.8889H1406V28.1111H1402ZM1402 84.8889C1402 86.5776 1401.4 88.1582 1400.39 89.2915L1403.37 91.9571C1405.07 90.0482 1406 87.5026 1406 84.8889H1402ZM1400.39 89.2915C1399.38 90.4174 1398.07 91 1396.75 91V95C1399.28 95 1401.65 93.8735 1403.37 91.9571L1400.39 89.2915ZM1396.75 91H1353.25V95H1396.75V91ZM1353.25 91C1351.93 91 1350.62 90.4174 1349.61 89.2915L1346.63 91.9571C1348.35 93.8735 1350.72 95 1353.25 95V91ZM1349.61 89.2915C1348.6 88.1582 1348 86.5776 1348 84.8889H1344C1344 87.5026 1344.93 90.0482 1346.63 91.9571L1349.61 89.2915ZM1348 84.8889V28.1111H1344V84.8889H1348ZM1348 28.1111C1348 26.4224 1348.6 24.8418 1349.61 23.7085L1346.63 21.0428C1344.93 22.9518 1344 25.4974 1344 28.1111H1348ZM1349.61 23.7085C1350.62 22.5826 1351.93 22 1353.25 22V18C1350.72 18 1348.35 19.1265 1346.63 21.0428L1349.61 23.7085ZM1353.25 22H1360.5V18H1353.25V22Z" fill="white" mask="url(#path-91-inside-3_2306_7345)"/>
<path d="M1364.5 13.0005H1385.5C1386.82 13.0005 1388 14.1656 1388 15.7505V23.2505C1388 24.8354 1386.82 26.0005 1385.5 26.0005H1364.5C1363.18 26.0005 1362 24.8354 1362 23.2505V15.7505C1362 14.1656 1363.18 13.0005 1364.5 13.0005Z" stroke="white" stroke-width="2" stroke-linecap="round" stroke-linejoin="round"/>
<rect x="1354" y="34" width="42" height="3" rx="1.5" fill="white"/>
<rect x="1354" y="40" width="42" height="3" rx="1.5" fill="white"/>
<rect x="1354" y="46" width="42" height="3" rx="1.5" fill="white"/>
<rect x="1354" y="52" width="21" height="3" rx="1.5" fill="white"/>
<path fill-rule="evenodd" clip-rule="evenodd" d="M1452.25 12H1461.5C1461.5 13.1046 1460.6 14 1459.5 14H1452.25C1450.93 14 1449.62 14.5826 1448.61 15.7085C1447.6 16.8418 1447 18.4224 1447 20.1111V76.8889C1447 78.5776 1447.6 80.1582 1448.61 81.2915C1449.62 82.4174 1450.93 83 1452.25 83H1480V85H1452.25C1450.33 85 1448.48 84.1454 1447.12 82.6243C1445.76 81.1032 1445 79.0401 1445 76.8889V20.1111C1445 17.9599 1445.76 15.8968 1447.12 14.3757C1448.48 12.8546 1450.33 12 1452.25 12ZM1503 47V32L1483 12H1481C1481 12.5118 1481.2 13.0237 1481.59 13.4142L1501 32.8284V47H1503Z" fill="white"/>
<path d="M1484 14.4142L1500.59 31H1484V14.4142Z" stroke="white" stroke-width="2"/>
<rect x="1453" y="35" width="42" height="2" rx="1" fill="white"/>
<rect x="1453" y="44" width="42" height="2" rx="1" fill="white"/>
<rect x="1453" y="53" width="21" height="2" rx="1" fill="white"/>
<rect x="1483" y="50" width="44" height="57" rx="5" stroke="white" stroke-width="2"/>
<rect x="1483" y="50" width="44" height="57" rx="5" stroke="white" stroke-width="2"/>
<rect x="1490" y="56" width="29" height="9" rx="1" stroke="white" stroke-width="2"/>
<rect x="1490" y="70" width="7" height="7" rx="1" stroke="white" stroke-width="2"/>
<rect x="1501" y="70" width="7" height="7" rx="1" stroke="white" stroke-width="2"/>
<rect x="1512" y="70" width="7" height="7" rx="1" stroke="white" stroke-width="2"/>
<rect x="1490" y="81" width="7" height="7" rx="1" stroke="white" stroke-width="2"/>
<rect x="1501" y="81" width="7" height="7" rx="1" stroke="white" stroke-width="2"/>
<rect x="1512" y="81" width="7" height="7" rx="1" stroke="white" stroke-width="2"/>
<rect x="1490" y="92" width="7" height="7" rx="1" stroke="white" stroke-width="2"/>
<rect x="1501" y="92" width="7" height="7" rx="1" stroke="white" stroke-width="2"/>
<rect x="1512" y="92" width="7" height="7" rx="1" stroke="white" stroke-width="2"/>
<rect x="1515" y="59" width="1" height="3" fill="white"/>
<rect x="1458" y="12" width="25" height="2" fill="white"/>
<path fill-rule="evenodd" clip-rule="evenodd" d="M1551 19H1638C1642.42 19 1646 22.5817 1646 27V81.5934C1646 86.0117 1642.42 89.5934 1638 89.5934H1631.82C1631.76 89.5196 1631.69 89.4481 1631.62 89.3791L1629.84 87.5934H1638C1641.31 87.5934 1644 84.9071 1644 81.5934V27C1644 23.6863 1641.31 21 1638 21H1551C1547.69 21 1545 23.6863 1545 27V81.5934C1545 84.9071 1547.69 87.5934 1551 87.5934H1589.43C1591.08 87.8609 1592.77 88 1594.5 88C1596.23 88 1597.92 87.8609 1599.57 87.5934H1621.35L1623.35 89.5934H1551C1546.58 89.5934 1543 86.0117 1543 81.5934V27C1543 22.5817 1546.58 19 1551 19ZM1623.24 81H1639V32H1614.3C1615.08 32.6311 1615.83 33.2986 1616.55 34H1637V79H1621.24L1623.24 81ZM1572.45 34H1552V79H1572.45C1573.17 79.7014 1573.92 80.3689 1574.7 81H1550V32H1574.7C1573.92 32.6311 1573.17 33.2986 1572.45 34ZM1614.3 81C1614.38 80.9319 1614.47 80.8635 1614.55 80.7946L1614.76 81H1614.3Z" fill="white"/>
<path d="M1594.5 84.5C1609.96 84.5 1622.5 71.964 1622.5 56.5C1622.5 41.036 1609.96 28.5 1594.5 28.5C1579.04 28.5 1566.5 41.036 1566.5 56.5C1566.5 71.964 1579.04 84.5 1594.5 84.5Z" stroke="white" stroke-width="2" stroke-linecap="round" stroke-linejoin="round"/>
<path d="M1629.5 91.5004L1614.28 76.2754" stroke="white" stroke-width="2" stroke-linecap="round" stroke-linejoin="round"/>
<circle cx="1552" cy="27" r="2" fill="white"/>
<circle cx="1558" cy="27" r="2" fill="white"/>
<circle cx="1564" cy="27" r="2" fill="white"/>
<path fill-rule="evenodd" clip-rule="evenodd" d="M1597.5 64.621C1597.43 64.2425 1597.48 63.8522 1597.63 63.5003C1597.78 63.1553 1598.03 62.861 1598.34 62.6537C1598.65 62.4464 1599.02 62.3352 1599.39 62.3337H1599.5C1600.12 62.3337 1600.71 62.0878 1601.15 61.6502C1601.59 61.2127 1601.83 60.6192 1601.83 60.0003C1601.83 59.3815 1601.59 58.788 1601.15 58.3504C1600.71 57.9128 1600.12 57.667 1599.5 57.667H1599.3C1598.93 57.6655 1598.56 57.5543 1598.25 57.347C1597.93 57.1397 1597.69 56.8454 1597.54 56.5003V56.407C1597.38 56.0551 1597.34 55.6648 1597.41 55.2863C1597.47 54.9078 1597.66 54.5586 1597.92 54.2837L1597.99 54.2137C1598.21 53.997 1598.38 53.7396 1598.5 53.4564C1598.62 53.1731 1598.68 52.8695 1598.68 52.5628C1598.68 52.2562 1598.62 51.9526 1598.5 51.6693C1598.38 51.386 1598.21 51.1287 1597.99 50.912C1597.78 50.695 1597.52 50.5229 1597.24 50.4055C1596.95 50.2881 1596.65 50.2277 1596.34 50.2277C1596.04 50.2277 1595.73 50.2881 1595.45 50.4055C1595.17 50.5229 1594.91 50.695 1594.69 50.912L1594.62 50.982C1594.35 51.251 1594 51.4314 1593.62 51.5C1593.24 51.5686 1592.85 51.5223 1592.5 51.367C1592.15 51.2191 1591.86 50.9735 1591.65 50.6605C1591.45 50.3475 1591.33 49.9807 1591.33 49.6053V49.5003C1591.33 48.8815 1591.09 48.288 1590.65 47.8504C1590.21 47.4128 1589.62 47.167 1589 47.167C1588.38 47.167 1587.79 47.4128 1587.35 47.8504C1586.91 48.288 1586.67 48.8815 1586.67 49.5003V49.6987C1586.66 50.0741 1586.55 50.4409 1586.35 50.7539C1586.14 51.0669 1585.84 51.3124 1585.5 51.4603H1585.41C1585.05 51.6156 1584.66 51.662 1584.29 51.5933C1583.91 51.5247 1583.56 51.3443 1583.28 51.0753L1583.21 51.0053C1583 50.7884 1582.74 50.6163 1582.46 50.4989C1582.17 50.3814 1581.87 50.321 1581.56 50.321C1581.26 50.321 1580.95 50.3814 1580.67 50.4989C1580.39 50.6163 1580.13 50.7884 1579.91 51.0053C1579.69 51.222 1579.52 51.4794 1579.4 51.7626C1579.29 52.0459 1579.23 52.3495 1579.23 52.6562C1579.23 52.9628 1579.29 53.2664 1579.4 53.5497C1579.52 53.8329 1579.69 54.0903 1579.91 54.307L1579.98 54.377C1580.25 54.6519 1580.43 55.0012 1580.5 55.3796C1580.57 55.7581 1580.52 56.1484 1580.37 56.5003C1580.23 56.8628 1579.99 57.1769 1579.68 57.4016C1579.37 57.6263 1578.99 57.7513 1578.6 57.7603H1578.5C1577.88 57.7603 1577.29 58.0062 1576.85 58.4437C1576.41 58.8813 1576.17 59.4748 1576.17 60.0937C1576.17 60.7125 1576.41 61.306 1576.85 61.7436C1577.29 62.1812 1577.88 62.427 1578.5 62.427H1578.7C1579.07 62.4285 1579.44 62.5397 1579.75 62.747C1580.07 62.9543 1580.31 63.2486 1580.46 63.5937C1580.61 63.9455 1580.66 64.3359 1580.59 64.7143C1580.52 65.0928 1580.34 65.442 1580.07 65.717L1580 65.787C1579.79 66.0037 1579.62 66.261 1579.5 66.5443C1579.38 66.8276 1579.32 67.1312 1579.32 67.4378C1579.32 67.7445 1579.38 68.0481 1579.5 68.3314C1579.62 68.6146 1579.79 68.872 1580 69.0887C1580.22 69.3056 1580.48 69.4777 1580.76 69.5951C1581.04 69.7126 1581.35 69.773 1581.66 69.773C1581.96 69.773 1582.27 69.7126 1582.55 69.5951C1582.83 69.4777 1583.09 69.3056 1583.31 69.0887L1583.38 69.0187C1583.65 68.7497 1584 68.5693 1584.38 68.5007C1584.76 68.432 1585.15 68.4784 1585.5 68.6337C1585.86 68.767 1586.18 69.0063 1586.4 69.3205C1586.63 69.6347 1586.75 70.0092 1586.76 70.3953V70.5003C1586.76 71.1192 1587.01 71.7127 1587.44 72.1502C1587.88 72.5878 1588.47 72.8337 1589.09 72.8337C1589.71 72.8337 1590.31 72.5878 1590.74 72.1502C1591.18 71.7127 1591.43 71.1192 1591.43 70.5003V70.302C1591.43 69.9266 1591.54 69.5598 1591.75 69.2468C1591.95 68.9338 1592.25 68.6882 1592.59 68.5403C1592.94 68.385 1593.33 68.3387 1593.71 68.4073C1594.09 68.4759 1594.44 68.6564 1594.72 68.9253L1594.79 68.9953C1595 69.2123 1595.26 69.3844 1595.54 69.5018C1595.83 69.6192 1596.13 69.6797 1596.44 69.6797C1596.74 69.6797 1597.05 69.6192 1597.33 69.5018C1597.61 69.3844 1597.87 69.2123 1598.09 68.9953C1598.3 68.7786 1598.48 68.5213 1598.59 68.238C1598.71 67.9548 1598.77 67.6511 1598.77 67.3445C1598.77 67.0379 1598.71 66.7342 1598.59 66.451C1598.48 66.1677 1598.3 65.9104 1598.09 65.6937L1598.02 65.6237C1597.75 65.3487 1597.57 64.9995 1597.5 64.621ZM1586.5 60C1586.5 58.6193 1587.62 57.5 1589 57.5C1590.38 57.5 1591.5 58.6193 1591.5 60C1591.5 61.3807 1590.38 62.5 1589 62.5C1587.62 62.5 1586.5 61.3807 1586.5 60ZM1589 55.5C1586.51 55.5 1584.5 57.5147 1584.5 60C1584.5 62.4853 1586.51 64.5 1589 64.5C1591.49 64.5 1593.5 62.4853 1593.5 60C1593.5 57.5147 1591.49 55.5 1589 55.5Z" fill="white"/>
<g clip-path="url(#clip0_2306_7345)">
<path fill-rule="evenodd" clip-rule="evenodd" d="M1610.82 48.2584C1610.72 48.0186 1610.69 47.7535 1610.74 47.4971C1610.79 47.2464 1610.9 47.0143 1611.08 46.8295C1611.25 46.6446 1611.48 46.5151 1611.73 46.4568L1611.8 46.4408C1612.21 46.3463 1612.56 46.0932 1612.78 45.7371C1613.01 45.3809 1613.08 44.951 1612.98 44.5419C1612.89 44.1327 1612.64 43.7778 1612.28 43.5553C1611.92 43.3328 1611.49 43.2608 1611.08 43.3553L1610.95 43.3855C1610.71 43.4419 1610.45 43.4243 1610.21 43.335C1609.97 43.2457 1609.76 43.0887 1609.61 42.8831L1609.6 42.8214C1609.44 42.6124 1609.35 42.3614 1609.34 42.1007C1609.33 41.84 1609.39 41.5815 1609.53 41.3587L1609.56 41.3017C1609.67 41.1253 1609.75 40.9289 1609.78 40.7237C1609.82 40.5185 1609.81 40.3085 1609.76 40.1058C1609.72 39.903 1609.63 39.7115 1609.51 39.5421C1609.39 39.3728 1609.24 39.2289 1609.06 39.1187C1608.88 39.0084 1608.69 38.9339 1608.48 38.8995C1608.28 38.8651 1608.07 38.8714 1607.86 38.9183C1607.66 38.9651 1607.47 39.0514 1607.3 39.1722C1607.13 39.2931 1606.99 39.4462 1606.88 39.6227L1606.84 39.6797C1606.7 39.8995 1606.5 40.0721 1606.26 40.1752C1606.02 40.2784 1605.75 40.3073 1605.5 40.2584C1605.24 40.2132 1605.01 40.0958 1604.83 39.9205C1604.64 39.7452 1604.51 39.5197 1604.45 39.2717L1604.44 39.2022C1604.34 38.7931 1604.09 38.4382 1603.74 38.2157C1603.38 37.9931 1602.95 37.9212 1602.54 38.0157C1602.13 38.1101 1601.78 38.3633 1601.55 38.7194C1601.33 39.0755 1601.26 39.5054 1601.35 39.9146L1601.38 40.0457C1601.44 40.2942 1601.42 40.5537 1601.33 40.7923C1601.24 41.0308 1601.09 41.2381 1600.88 41.3886L1600.82 41.4028C1600.61 41.5592 1600.36 41.6494 1600.1 41.6618C1599.84 41.6742 1599.58 41.6083 1599.36 41.4724L1599.3 41.4368C1599.12 41.3264 1598.93 41.2519 1598.72 41.2175C1598.52 41.1831 1598.31 41.1895 1598.1 41.2363C1597.9 41.2831 1597.71 41.3694 1597.54 41.4903C1597.37 41.6112 1597.23 41.7643 1597.12 41.9408C1597.01 42.1172 1596.93 42.3136 1596.9 42.5188C1596.86 42.724 1596.87 42.934 1596.92 43.1367C1596.96 43.3395 1597.05 43.531 1597.17 43.7004C1597.29 43.8697 1597.44 44.0136 1597.62 44.1238L1597.68 44.1594C1597.9 44.3001 1598.07 44.5035 1598.17 44.7432C1598.28 44.983 1598.31 45.2481 1598.26 45.5045C1598.22 45.7646 1598.11 46.0087 1597.94 46.2052C1597.77 46.4018 1597.54 46.5416 1597.28 46.6065L1597.21 46.6225C1596.81 46.717 1596.45 46.9701 1596.23 47.3262C1596.01 47.6824 1595.93 48.1123 1596.03 48.5215C1596.12 48.9306 1596.38 49.2855 1596.73 49.508C1597.09 49.7306 1597.52 49.8025 1597.93 49.708L1598.06 49.6778C1598.31 49.6215 1598.57 49.639 1598.8 49.7283C1599.04 49.8176 1599.25 49.9747 1599.4 50.1802C1599.56 50.3892 1599.65 50.6402 1599.66 50.9009C1599.67 51.1616 1599.61 51.4201 1599.47 51.6429L1599.43 51.6999C1599.32 51.8763 1599.25 52.0727 1599.22 52.2779C1599.18 52.4831 1599.19 52.6931 1599.23 52.8958C1599.28 53.0986 1599.37 53.2901 1599.49 53.4595C1599.61 53.6288 1599.76 53.7727 1599.94 53.8829C1600.12 53.9932 1600.31 54.0677 1600.52 54.1021C1600.72 54.1365 1600.93 54.1302 1601.13 54.0833C1601.34 54.0365 1601.53 53.9502 1601.7 53.8294C1601.87 53.7085 1602.01 53.5554 1602.12 53.3789L1602.16 53.3219C1602.3 53.1021 1602.5 52.9295 1602.74 52.8264C1602.98 52.7232 1603.25 52.6943 1603.5 52.7432C1603.76 52.7761 1604.01 52.8864 1604.2 53.0598C1604.4 53.2332 1604.54 53.4617 1604.6 53.7157L1604.62 53.7851C1604.71 54.1943 1604.97 54.5492 1605.32 54.7717C1605.68 54.9942 1606.11 55.0662 1606.52 54.9717C1606.93 54.8772 1607.28 54.6241 1607.51 54.268C1607.73 53.9119 1607.8 53.4819 1607.71 53.0728L1607.68 52.9416C1607.62 52.6932 1607.64 52.4337 1607.73 52.1951C1607.82 51.9565 1607.97 51.7492 1608.18 51.5988C1608.39 51.4424 1608.64 51.3522 1608.9 51.3398C1609.16 51.3274 1609.42 51.3933 1609.64 51.5292L1609.7 51.5648C1609.87 51.6752 1610.07 51.7497 1610.28 51.7841C1610.48 51.8185 1610.69 51.8121 1610.89 51.7653C1611.1 51.7185 1611.29 51.6322 1611.46 51.5113C1611.63 51.3904 1611.77 51.2373 1611.88 51.0608C1611.99 50.8844 1612.07 50.688 1612.1 50.4828C1612.13 50.2776 1612.13 50.0676 1612.08 49.8649C1612.03 49.6621 1611.95 49.4706 1611.83 49.3012C1611.71 49.1319 1611.55 48.988 1611.38 48.8778L1611.32 48.8422C1611.1 48.7015 1610.93 48.4981 1610.82 48.2584ZM1603.16 46.8093C1602.99 46.0694 1603.45 45.3311 1604.19 45.1602C1604.93 44.9894 1605.67 45.4508 1605.84 46.1907C1606.01 46.9306 1605.55 47.6689 1604.81 47.8398C1604.07 48.0106 1603.33 47.5492 1603.16 46.8093ZM1603.74 43.2115C1601.92 43.6308 1600.79 45.443 1601.21 47.2592C1601.63 49.0754 1603.44 50.2078 1605.26 49.7885C1607.07 49.3692 1608.21 47.557 1607.79 45.7408C1607.37 43.9246 1605.56 42.7922 1603.74 43.2115Z" fill="white"/>
</g>
<path d="M1668 42C1668 41.4477 1668.45 41 1669 41H1701C1701.55 41 1702 41.4477 1702 42C1702 42.5523 1701.55 43 1701 43H1669C1668.45 43 1668 42.5523 1668 42Z" fill="white"/>
<path d="M1668 51C1668 50.4477 1668.45 50 1669 50H1712C1712.55 50 1713 50.4477 1713 51C1713 51.5523 1712.55 52 1712 52H1669C1668.45 52 1668 51.5523 1668 51Z" fill="white"/>
<path d="M1669 59C1668.45 59 1668 59.4477 1668 60C1668 60.5523 1668.45 61 1669 61H1688C1688.55 61 1689 60.5523 1689 60C1689 59.4477 1688.55 59 1688 59H1669Z" fill="white"/>
<path d="M1706 42C1706 41.4477 1706.45 41 1707 41H1724C1724.55 41 1725 41.4477 1725 42C1725 42.5523 1724.55 43 1724 43H1707C1706.45 43 1706 42.5523 1706 42Z" fill="white"/>
<path d="M1718 50C1717.45 50 1717 50.4477 1717 51C1717 51.5523 1717.45 52 1718 52H1724C1724.55 52 1725 51.5523 1725 51C1725 50.4477 1724.55 50 1724 50H1718Z" fill="white"/>
<path d="M1692 60C1692 59.4477 1692.45 59 1693 59H1704C1704.55 59 1705 59.4477 1705 60C1705 60.5523 1704.55 61 1704 61H1693C1692.45 61 1692 60.5523 1692 60Z" fill="white"/>
<path d="M1709 59C1708.45 59 1708 59.4477 1708 60C1708 60.5523 1708.45 61 1709 61H1732C1732.55 61 1733 60.5523 1733 60C1733 59.4477 1732.55 59 1732 59H1709Z" fill="white"/>
<path d="M1729 42C1729 41.4477 1729.45 41 1730 41H1742C1742.55 41 1743 41.4477 1743 42C1743 42.5523 1742.55 43 1742 43H1730C1729.45 43 1729 42.5523 1729 42Z" fill="white"/>
<path d="M1730 50C1729.45 50 1729 50.4477 1729 51C1729 51.5523 1729.45 52 1730 52H1739C1739.55 52 1740 51.5523 1740 51C1740 50.4477 1739.55 50 1739 50H1730Z" fill="white"/>
<path d="M1737 60C1737 59.4477 1737.45 59 1738 59H1742C1742.55 59 1743 59.4477 1743 60C1743 60.5523 1742.55 61 1742 61H1738C1737.45 61 1737 60.5523 1737 60Z" fill="white"/>
<path fill-rule="evenodd" clip-rule="evenodd" d="M1661 33V82H1750V33H1661ZM1748 35H1663V80H1748V35Z" fill="white"/>
<path fill-rule="evenodd" clip-rule="evenodd" d="M1749 20H1662C1657.58 20 1654 23.5817 1654 28V82.5934C1654 87.0117 1657.58 90.5934 1662 90.5934H1749C1753.42 90.5934 1757 87.0117 1757 82.5934V28C1757 23.5817 1753.42 20 1749 20ZM1656 28C1656 24.6863 1658.69 22 1662 22H1749C1752.31 22 1755 24.6863 1755 28V82.5934C1755 85.9071 1752.31 88.5934 1749 88.5934H1662C1658.69 88.5934 1656 85.9071 1656 82.5934V28Z" fill="white"/>
<mask id="mask4_2306_7345" style="mask-type:alpha" maskUnits="userSpaceOnUse" x="1681" y="33" width="49" height="49">
<circle cx="1705.5" cy="57.5" r="24.5" fill="#474747"/>
</mask>
<g mask="url(#mask4_2306_7345)">
<path fill-rule="evenodd" clip-rule="evenodd" d="M1669 41C1668.45 41 1668 41.4477 1668 42C1668 42.5523 1668.45 43 1669 43H1701C1701.55 43 1702 42.5523 1702 42C1702 41.4477 1701.55 41 1701 41H1669ZM1669 50C1668.45 50 1668 50.4477 1668 51C1668 51.5523 1668.45 52 1669 52H1712C1712.55 52 1713 51.5523 1713 51C1713 50.4477 1712.55 50 1712 50H1669ZM1668 60C1668 59.4477 1668.45 59 1669 59H1688C1688.55 59 1689 59.4477 1689 60C1689 60.5523 1688.55 61 1688 61H1669C1668.45 61 1668 60.5523 1668 60ZM1707 41C1706.45 41 1706 41.4477 1706 42C1706 42.5523 1706.45 43 1707 43H1724C1724.55 43 1725 42.5523 1725 42C1725 41.4477 1724.55 41 1724 41H1707ZM1717 51C1717 50.4477 1717.45 50 1718 50H1724C1724.55 50 1725 50.4477 1725 51C1725 51.5523 1724.55 52 1724 52H1718C1717.45 52 1717 51.5523 1717 51ZM1693 59C1692.45 59 1692 59.4477 1692 60C1692 60.5523 1692.45 61 1693 61H1704C1704.55 61 1705 60.5523 1705 60C1705 59.4477 1704.55 59 1704 59H1693ZM1708 60C1708 59.4477 1708.45 59 1709 59H1732C1732.55 59 1733 59.4477 1733 60C1733 60.5523 1732.55 61 1732 61H1709C1708.45 61 1708 60.5523 1708 60ZM1730 41C1729.45 41 1729 41.4477 1729 42C1729 42.5523 1729.45 43 1730 43H1742C1742.55 43 1743 42.5523 1743 42C1743 41.4477 1742.55 41 1742 41H1730ZM1729 51C1729 50.4477 1729.45 50 1730 50H1739C1739.55 50 1740 50.4477 1740 51C1740 51.5523 1739.55 52 1739 52H1730C1729.45 52 1729 51.5523 1729 51ZM1738 59C1737.45 59 1737 59.4477 1737 60C1737 60.5523 1737.45 61 1738 61H1742C1742.55 61 1743 60.5523 1743 60C1743 59.4477 1742.55 59 1742 59H1738Z" fill="white"/>
</g>
<circle cx="1663" cy="28" r="2" fill="white"/>
<circle cx="1669" cy="28" r="2" fill="white"/>
<circle cx="1675" cy="28" r="2" fill="white"/>
<rect x="1774" y="16.0005" width="34.71" height="34.71" rx="3" stroke="white" stroke-width="2"/>
<path d="M1803.02 32.6846C1803.02 35.6794 1802.05 38.3161 1800.09 40.5947C1798.14 42.8408 1795.72 44.1917 1792.82 44.6475V36.2002H1795.65L1796.19 32.6846H1792.82V30.3896C1792.82 29.1527 1793.47 28.5342 1794.77 28.5342H1796.29V25.5557C1795.37 25.3929 1794.48 25.3115 1793.6 25.3115C1792.66 25.3115 1791.84 25.4906 1791.16 25.8486C1790.51 26.2067 1789.99 26.7438 1789.6 27.46C1789.21 28.1761 1789.01 29.0225 1789.01 29.999V32.6846H1785.93V36.2002H1789.01V44.6475C1786.11 44.1917 1783.69 42.8408 1781.74 40.5947C1779.78 38.3161 1778.81 35.6794 1778.81 32.6846C1778.81 29.3317 1779.98 26.4834 1782.32 24.1396C1784.7 21.7633 1787.56 20.5752 1790.91 20.5752C1794.27 20.5752 1797.12 21.7633 1799.46 24.1396C1801.84 26.4834 1803.02 29.3317 1803.02 32.6846Z" fill="white"/>
<rect x="1822.11" y="15.7373" width="34.7107" height="34.7107" rx="3" stroke="white" stroke-width="2"/>
<path d="M1836.45 29.7119C1837.3 28.8708 1838.31 28.4502 1839.5 28.4502C1840.68 28.4502 1841.69 28.8708 1842.5 29.7119C1843.34 30.5283 1843.76 31.5303 1843.76 32.7178C1843.76 33.9053 1843.34 34.9196 1842.5 35.7607C1841.69 36.5771 1840.68 36.9854 1839.5 36.9854C1838.31 36.9854 1837.3 36.5771 1836.45 35.7607C1835.64 34.9196 1835.23 33.9053 1835.23 32.7178C1835.23 31.5303 1835.64 30.5283 1836.45 29.7119ZM1837.53 34.6846C1838.07 35.2288 1838.73 35.501 1839.5 35.501C1840.26 35.501 1840.92 35.2288 1841.46 34.6846C1842.01 34.1403 1842.28 33.4847 1842.28 32.7178C1842.28 31.9508 1842.01 31.2952 1841.46 30.751C1840.92 30.2067 1840.26 29.9346 1839.5 29.9346C1838.73 29.9346 1838.07 30.2067 1837.53 30.751C1836.99 31.2952 1836.71 31.9508 1836.71 32.7178C1836.71 33.4847 1836.99 34.1403 1837.53 34.6846ZM1844.62 27.5967C1844.82 27.7699 1844.91 27.9925 1844.91 28.2646C1844.91 28.5368 1844.82 28.7718 1844.62 28.9697C1844.44 29.1676 1844.22 29.2666 1843.95 29.2666C1843.68 29.2666 1843.44 29.1676 1843.24 28.9697C1843.05 28.7718 1842.95 28.5368 1842.95 28.2646C1842.95 27.9925 1843.05 27.7699 1843.24 27.5967C1843.44 27.3988 1843.68 27.2998 1843.95 27.2998C1844.22 27.2998 1844.44 27.3988 1844.62 27.5967ZM1847.77 29.3037C1847.8 29.9717 1847.81 31.1097 1847.81 32.7178C1847.81 34.3258 1847.8 35.4639 1847.77 36.1318C1847.7 37.641 1847.24 38.8161 1846.4 39.6572C1845.58 40.4736 1844.42 40.9066 1842.91 40.9561C1842.24 41.0055 1841.1 41.0303 1839.5 41.0303C1837.89 41.0303 1836.75 41.0055 1836.08 40.9561C1834.57 40.8818 1833.41 40.4365 1832.59 39.6201C1832.27 39.3232 1832.01 38.9769 1831.82 38.5811C1831.62 38.1852 1831.47 37.8018 1831.37 37.4307C1831.3 37.0596 1831.26 36.6266 1831.26 36.1318C1831.21 35.4639 1831.18 34.3258 1831.18 32.7178C1831.18 31.1097 1831.21 29.9593 1831.26 29.2666C1831.33 27.7822 1831.78 26.6318 1832.59 25.8154C1833.41 24.9743 1834.57 24.5166 1836.08 24.4424C1836.75 24.4176 1837.89 24.4053 1839.5 24.4053C1841.1 24.4053 1842.24 24.4176 1842.91 24.4424C1844.42 24.5166 1845.58 24.9743 1846.4 25.8154C1847.24 26.6318 1847.7 27.7946 1847.77 29.3037ZM1845.99 37.6162C1846.07 37.4183 1846.13 37.1709 1846.18 36.874C1846.23 36.5524 1846.26 36.1813 1846.29 35.7607C1846.31 35.3154 1846.32 34.9567 1846.32 34.6846C1846.32 34.4124 1846.32 34.029 1846.32 33.5342C1846.32 33.0394 1846.32 32.7673 1846.32 32.7178C1846.32 32.6436 1846.32 32.3714 1846.32 31.9014C1846.32 31.4066 1846.32 31.0231 1846.32 30.751C1846.32 30.4788 1846.31 30.1325 1846.29 29.7119C1846.26 29.2666 1846.23 28.8955 1846.18 28.5986C1846.13 28.277 1846.07 28.0173 1845.99 27.8193C1845.69 27.0524 1845.16 26.5205 1844.4 26.2236C1844.2 26.1494 1843.94 26.0876 1843.62 26.0381C1843.32 25.9886 1842.95 25.9515 1842.5 25.9268C1842.08 25.902 1841.74 25.8896 1841.46 25.8896C1841.22 25.8896 1840.83 25.8896 1840.31 25.8896C1839.82 25.8896 1839.55 25.8896 1839.5 25.8896C1839.45 25.8896 1839.18 25.8896 1838.68 25.8896C1838.19 25.8896 1837.8 25.8896 1837.53 25.8896C1837.26 25.8896 1836.9 25.902 1836.45 25.9268C1836.03 25.9515 1835.66 25.9886 1835.34 26.0381C1835.04 26.0876 1834.8 26.1494 1834.6 26.2236C1833.83 26.5205 1833.3 27.0524 1833 27.8193C1832.93 28.0173 1832.87 28.277 1832.82 28.5986C1832.77 28.8955 1832.73 29.2666 1832.71 29.7119C1832.68 30.1325 1832.67 30.4788 1832.67 30.751C1832.67 30.9984 1832.67 31.3818 1832.67 31.9014C1832.67 32.3962 1832.67 32.6683 1832.67 32.7178C1832.67 32.8167 1832.67 33.0518 1832.67 33.4229C1832.67 33.7692 1832.67 34.0661 1832.67 34.3135C1832.67 34.5361 1832.67 34.833 1832.67 35.2041C1832.69 35.5752 1832.72 35.8968 1832.74 36.1689C1832.77 36.4163 1832.8 36.6761 1832.85 36.9482C1832.9 37.2204 1832.95 37.443 1833 37.6162C1833.32 38.3831 1833.86 38.915 1834.6 39.2119C1834.8 39.2861 1835.04 39.348 1835.34 39.3975C1835.66 39.4469 1836.03 39.484 1836.45 39.5088C1836.9 39.5335 1837.25 39.5459 1837.49 39.5459C1837.77 39.5459 1838.15 39.5459 1838.64 39.5459C1839.16 39.5459 1839.45 39.5459 1839.5 39.5459C1839.57 39.5459 1839.84 39.5459 1840.31 39.5459C1840.81 39.5459 1841.19 39.5459 1841.46 39.5459C1841.74 39.5459 1842.08 39.5335 1842.5 39.5088C1842.95 39.484 1843.32 39.4469 1843.62 39.3975C1843.94 39.348 1844.2 39.2861 1844.4 39.2119C1845.16 38.8903 1845.69 38.3584 1845.99 37.6162Z" fill="white"/>
<rect x="1822" y="60.0005" width="34.71" height="34.71" rx="3" stroke="white" stroke-width="2"/>
<path d="M1849.09 72.4839C1849.51 73.9604 1849.51 77.1245 1849.51 77.1245C1849.51 77.1245 1849.51 80.2534 1849.09 81.7651C1848.88 82.6089 1848.21 83.2417 1847.4 83.4526C1845.89 83.8394 1839.91 83.8394 1839.91 83.8394C1839.91 83.8394 1833.9 83.8394 1832.39 83.4526C1831.58 83.2417 1830.91 82.6089 1830.7 81.7651C1830.28 80.2534 1830.28 77.1245 1830.28 77.1245C1830.28 77.1245 1830.28 73.9604 1830.7 72.4839C1830.91 71.6401 1831.58 70.9722 1832.39 70.7612C1833.9 70.3394 1839.91 70.3394 1839.91 70.3394C1839.91 70.3394 1845.89 70.3394 1847.4 70.7612C1848.21 70.9722 1848.88 71.6401 1849.09 72.4839ZM1837.94 79.9722L1842.93 77.1245L1837.94 74.2769V79.9722Z" fill="white"/>
<rect x="1774.74" y="60.7373" width="34.7107" height="34.7107" rx="3" stroke="white" stroke-width="2"/>
<path d="M1797.34 70H1800.14L1794.03 76.9734L1801.21 86.4639H1795.59L1791.19 80.7095L1786.15 86.4639H1783.36L1789.88 79.0037L1783 70H1788.76L1792.74 75.2598L1797.34 70ZM1796.36 84.7938H1797.91L1787.92 71.5831H1786.26L1796.36 84.7938Z" fill="white"/>
<defs>
<filter id="filter0_d_2306_7345" x="908.572" y="46.314" width="49.0859" height="23.9722" filterUnits="userSpaceOnUse" color-interpolation-filters="sRGB">
<feFlood flood-opacity="0" result="BackgroundImageFix"/>
<feColorMatrix in="SourceAlpha" type="matrix" values="0 0 0 0 0 0 0 0 0 0 0 0 0 0 0 0 0 0 127 0" result="hardAlpha"/>
<feOffset dy="2"/>
<feGaussianBlur stdDeviation="2"/>
<feComposite in2="hardAlpha" operator="out"/>
<feColorMatrix type="matrix" values="0 0 0 0 0 0 0 0 0 0 0 0 0 0 0 0 0 0 0.15 0"/>
<feBlend mode="normal" in2="BackgroundImageFix" result="effect1_dropShadow_2306_7345"/>
<feBlend mode="normal" in="SourceGraphic" in2="effect1_dropShadow_2306_7345" result="shape"/>
</filter>
<filter id="filter1_d_2306_7345" x="943" y="59" width="51.291" height="50.4165" filterUnits="userSpaceOnUse" color-interpolation-filters="sRGB">
<feFlood flood-opacity="0" result="BackgroundImageFix"/>
<feColorMatrix in="SourceAlpha" type="matrix" values="0 0 0 0 0 0 0 0 0 0 0 0 0 0 0 0 0 0 127 0" result="hardAlpha"/>
<feOffset dy="2"/>
<feGaussianBlur stdDeviation="2"/>
<feComposite in2="hardAlpha" operator="out"/>
<feColorMatrix type="matrix" values="0 0 0 0 0 0 0 0 0 0 0 0 0 0 0 0 0 0 0.15 0"/>
<feBlend mode="normal" in2="BackgroundImageFix" result="effect1_dropShadow_2306_7345"/>
<feBlend mode="normal" in="SourceGraphic" in2="effect1_dropShadow_2306_7345" result="shape"/>
</filter>
<clipPath id="clip0_2306_7345">
<rect width="19" height="19" fill="white" transform="translate(1593.11 39.3809) rotate(-13)"/>
</clipPath>
</defs>
</svg>
