<svg width="11" height="13" viewBox="0 0 11 13" fill="none" xmlns="http://www.w3.org/2000/svg">
<path d="M1.34081 12.1198C0.754141 11.1464 0.360807 10.1264 0.160807 9.05977C-0.0391927 7.97977 -0.0591927 6.9131 0.100807 5.85977C0.260807 4.80643 0.600807 3.79977 1.12081 2.83977C1.65414 1.87977 2.36081 1.01977 3.24081 0.259766L4.46081 0.999765C4.67414 1.14643 4.76747 1.32643 4.74081 1.53977C4.71414 1.73977 4.64081 1.90643 4.52081 2.03977C4.20081 2.43977 3.91414 2.93977 3.66081 3.53977C3.42081 4.12643 3.26081 4.76643 3.18081 5.45977C3.10081 6.1531 3.12747 6.8731 3.26081 7.61977C3.39414 8.36643 3.67414 9.09977 4.10081 9.81977C4.28747 10.1264 4.34081 10.3998 4.26081 10.6398C4.18081 10.8798 4.00747 11.0531 3.74081 11.1598L1.34081 12.1198ZM7.56081 12.1198C6.97414 11.1464 6.58081 10.1264 6.38081 9.05977C6.18081 7.97977 6.16081 6.9131 6.32081 5.85977C6.48081 4.80643 6.82081 3.79977 7.34081 2.83977C7.87414 1.87977 8.58081 1.01977 9.46081 0.259766L10.6808 0.999765C10.8941 1.14643 10.9875 1.32643 10.9608 1.53977C10.9341 1.73977 10.8608 1.90643 10.7408 2.03977C10.4208 2.43977 10.1341 2.93977 9.88081 3.53977C9.64081 4.12643 9.48081 4.76643 9.40081 5.45977C9.32081 6.1531 9.34747 6.8731 9.48081 7.61977C9.61414 8.36643 9.89414 9.09977 10.3208 9.81977C10.5075 10.1264 10.5608 10.3998 10.4808 10.6398C10.4008 10.8798 10.2275 11.0531 9.96081 11.1598L7.56081 12.1198Z" fill="white"/>
</svg>
