<svg width="11" height="13" viewBox="0 0 11 13" fill="none" xmlns="http://www.w3.org/2000/svg">
<path d="M9.65919 0.880234C10.2459 1.85357 10.6392 2.87357 10.8392 3.94023C11.0392 5.02023 11.0592 6.0869 10.8992 7.14023C10.7392 8.19357 10.3992 9.20023 9.87919 10.1602C9.34586 11.1202 8.63919 11.9802 7.75919 12.7402L6.53919 12.0002C6.32586 11.8536 6.23253 11.6736 6.25919 11.4602C6.28586 11.2602 6.35919 11.0936 6.47919 10.9602C6.79919 10.5602 7.08586 10.0602 7.33919 9.46023C7.57919 8.87357 7.73919 8.23357 7.81919 7.54023C7.89919 6.8469 7.87253 6.1269 7.73919 5.38023C7.60586 4.63357 7.32586 3.90023 6.89919 3.18023C6.71253 2.87357 6.65919 2.60023 6.73919 2.36023C6.81919 2.12023 6.99253 1.9469 7.25919 1.84023L9.65919 0.880234ZM3.43919 0.880234C4.02586 1.85357 4.41919 2.87357 4.61919 3.94023C4.81919 5.02023 4.83919 6.0869 4.67919 7.14023C4.51919 8.19357 4.17919 9.20023 3.65919 10.1602C3.12586 11.1202 2.41919 11.9802 1.53919 12.7402L0.319193 12.0002C0.105859 11.8536 0.012526 11.6736 0.0391932 11.4602C0.0658595 11.2602 0.139192 11.0936 0.259192 10.9602C0.579192 10.5602 0.865859 10.0602 1.11919 9.46023C1.35919 8.87357 1.51919 8.23357 1.59919 7.54023C1.67919 6.8469 1.65253 6.1269 1.51919 5.38023C1.38586 4.63357 1.10586 3.90023 0.679192 3.18023C0.492525 2.87357 0.439192 2.60023 0.519193 2.36023C0.599192 2.12023 0.772526 1.9469 1.03919 1.84023L3.43919 0.880234Z" fill="white"/>
</svg>
