<svg width="64" height="39" viewBox="0 0 64 39" fill="none" xmlns="http://www.w3.org/2000/svg">
<g clip-path="url(#clip0_1861_5462)">
<path fill-rule="evenodd" clip-rule="evenodd" d="M5.18194 21.4297C4.58252 20.6747 4.12122 20.0404 3.8026 19.5833C4.12122 19.1262 4.58252 18.4919 5.18194 17.7369C6.4621 16.1245 8.36357 13.9726 10.8409 11.8231C15.8058 7.51515 22.9858 3.29688 32.065 3.29688C41.1442 3.29688 48.3242 7.51515 53.2891 11.8231C55.7664 13.9726 57.6679 16.1245 58.9481 17.7369C59.5475 18.4919 60.0088 19.1262 60.3274 19.5833C60.0088 20.0404 59.5475 20.6747 58.9481 21.4297C57.6679 23.0421 55.7664 25.194 53.2891 27.3435C48.3242 31.6514 41.1442 35.8697 32.065 35.8697C25.3357 35.8697 19.6497 33.5524 15.1356 30.5988L23.5537 20.5665C23.8849 22.4333 24.8487 24.1987 26.4147 25.5127C29.9563 28.4844 35.2363 28.0225 38.208 24.4809C41.1797 20.9394 40.7178 15.6594 37.1762 12.6877C33.6347 9.71595 28.3547 10.1779 25.3829 13.7194C25.2919 13.8279 25.2041 13.9381 25.1195 14.0497C25.0766 14.0901 25.0356 14.1334 24.9968 14.1796L12.6842 28.8531C12.0395 28.3557 11.4249 27.8502 10.8409 27.3435C8.36357 25.194 6.4621 23.0421 5.18194 21.4297ZM63.4072 18.7966C63.4076 18.7973 63.4079 18.7978 62.13 19.5833C63.4079 20.3688 63.4076 20.3693 63.4072 20.37L63.4035 20.3759L63.395 20.3895L63.366 20.4357C63.3414 20.4748 63.306 20.5302 63.2599 20.601C63.1679 20.7425 63.0332 20.9453 62.8566 21.2007C62.5036 21.7113 61.9822 22.4329 61.2976 23.2951C59.93 25.0177 57.9025 27.3124 55.2552 29.6095C49.9706 34.1948 42.1181 38.8697 32.065 38.8697C22.0119 38.8697 14.1594 34.1948 8.87485 29.6095C6.22751 27.3124 4.20003 25.0177 2.83242 23.2951C2.14784 22.4329 1.62644 21.7113 1.27338 21.2007C1.09679 20.9453 0.962144 20.7425 0.870086 20.601C0.824052 20.5302 0.78865 20.4748 0.763964 20.4357L0.734973 20.3895L0.72652 20.3759L0.722829 20.37C0.722445 20.3693 0.722104 20.3688 2 19.5833C0.722104 18.7978 0.722445 18.7973 0.722829 18.7966L0.72652 18.7907L0.734973 18.777L0.763964 18.7309C0.78865 18.6918 0.824052 18.6364 0.870086 18.5656C0.962144 18.4241 1.09679 18.2213 1.27338 17.9659C1.62644 17.4553 2.14784 16.7337 2.83242 15.8715C4.20003 14.1489 6.22751 11.8542 8.87485 9.55711C14.1594 4.97181 22.0119 0.296875 32.065 0.296875C42.1181 0.296875 49.9706 4.97181 55.2552 9.55711C57.9025 11.8542 59.93 14.1489 61.2976 15.8715C61.9822 16.7337 62.5036 17.4553 62.8566 17.9659C63.0332 18.2213 63.1679 18.4241 63.2599 18.5656C63.306 18.6364 63.3414 18.6918 63.366 18.7309L63.395 18.777L63.4035 18.7907L63.4072 18.7966ZM2 19.5833L0.722104 20.3688C0.425965 19.887 0.425965 19.2796 0.722104 18.7978L2 19.5833ZM62.13 19.5833L63.4079 18.7978C63.704 19.2796 63.704 19.887 63.4079 20.3688L62.13 19.5833ZM35.2479 14.9858C32.9755 13.0791 29.5878 13.3755 27.6811 15.6478C25.7744 17.9201 26.0708 21.3079 28.3431 23.2146C30.6154 25.1213 34.0032 24.8249 35.9099 22.5526C37.8166 20.2803 37.5202 16.8925 35.2479 14.9858Z" fill="white"/>
</g>
<defs>
<clipPath id="clip0_1861_5462">
<rect width="64" height="39" fill="white"/>
</clipPath>
</defs>
</svg>
