<svg width="27" height="28" viewBox="0 0 27 28" fill="none" xmlns="http://www.w3.org/2000/svg">
<path d="M23.4375 0.958984C24.2188 0.958984 24.8828 1.23242 25.4297 1.7793C25.9766 2.32617 26.25 2.99023 26.25 3.77148V24.3965C26.25 25.1777 25.9766 25.8418 25.4297 26.3887C24.8828 26.9355 24.2188 27.209 23.4375 27.209H15.4102V18.3027H18.8086L19.4531 14.084H15.4102V11.3301C15.4102 9.8457 16.1914 9.10352 17.7539 9.10352H19.5703V5.5293C18.4766 5.33398 17.4023 5.23633 16.3477 5.23633C15.2148 5.23633 14.2383 5.45117 13.418 5.88086C12.6367 6.31055 12.0117 6.95508 11.543 7.81445C11.0742 8.67383 10.8398 9.68945 10.8398 10.8613V14.084H7.14844V18.3027H10.8398V27.209H2.8125C2.03125 27.209 1.36719 26.9355 0.820312 26.3887C0.273438 25.8418 0 25.1777 0 24.3965V3.77148C0 2.99023 0.273438 2.32617 0.820312 1.7793C1.36719 1.23242 2.03125 0.958984 2.8125 0.958984H23.4375Z" fill="#333333"/>
</svg>
