<svg width="66" height="84" viewBox="0 0 66 84" fill="none" xmlns="http://www.w3.org/2000/svg">
<g clip-path="url(#clip0_1858_4911)">
<path fill-rule="evenodd" clip-rule="evenodd" d="M5.79868 10.6142C3.62237 14.5323 2.60983 19.7443 3.3655 25.3118C4.11865 30.8606 6.30523 34.4199 9.1443 36.484C11.9995 38.5598 15.7215 39.274 19.8186 38.7179C20.471 38.6294 21.1057 38.5123 21.7206 38.3669L23.7474 37.7041C24.1022 39.2049 24.5346 40.7002 25.0412 42.163L24.1134 40.8066C23.7621 40.9221 23.4058 41.0284 23.0451 41.1256L23.0672 43.7499C23.5073 43.486 23.9868 43.2515 24.4733 43.1091C24.7446 43.0297 25.0305 42.9753 25.3182 42.9395C26.0498 44.9307 26.9201 46.8514 27.9204 48.6314C28.8497 52.7652 30.3569 56.3432 31.9019 59.7217C32.1672 60.302 32.4356 60.8798 32.7033 61.4561C33.3412 62.8296 33.9753 64.1945 34.5548 65.5643C34.5809 65.5182 34.6071 65.4723 34.6333 65.4264C35.0055 64.7767 35.3668 64.1848 35.7228 63.6019C36.2486 62.7408 36.7624 61.899 37.2815 60.9194C37.4197 60.6585 37.5553 60.3927 37.6873 60.1208C37.4144 60.1767 37.173 60.234 36.9836 60.2821C36.8491 60.3162 36.7428 60.3453 36.6723 60.3651C36.6372 60.375 36.6111 60.3825 36.595 60.3872L36.5787 60.392L36.5777 60.3923L36.5766 60.3926C35.8932 60.5992 35.1676 60.3645 34.7392 59.7981C34.3105 59.2312 34.2643 58.4443 34.6223 57.8058L37.1932 53.2198C33.5509 50.9912 30.805 46.9127 28.9896 42.5449C26.5121 36.5839 25.5142 29.515 26.4491 24.2131L26.4502 24.2071C27.3785 19.0649 30.3063 14.5 34.5927 11.5116C38.8791 8.52324 44.1748 7.35486 49.3207 8.26221C54.4666 9.16957 59.0434 12.0788 62.0492 16.353C65.055 20.6271 66.2449 25.9181 65.3585 31.0677L65.3575 31.0737C64.4255 36.3591 61.1829 42.674 56.9165 47.4512C53.8098 50.9298 49.9355 53.8313 45.8061 54.7079L46.1337 60.1929C46.177 60.9171 45.7909 61.6091 45.1556 61.9457C44.5204 62.2823 43.7615 62.1974 43.2329 61.7306L43.2217 61.7209C43.2108 61.7114 43.1929 61.696 43.1687 61.6754C43.12 61.6341 43.046 61.5722 42.9513 61.4957C42.7609 61.3418 42.4921 61.1331 42.181 60.9154C41.7555 60.6175 41.3271 60.3574 40.951 60.1781C40.637 60.9322 40.2928 61.6437 39.9323 62.324C39.3918 63.3441 38.7689 64.3686 38.194 65.3141C37.8479 65.8832 37.5193 66.4238 37.2365 66.9175C36.745 67.7756 36.3229 68.5992 35.9995 69.4421C36.1595 69.9564 36.3056 70.473 36.4351 70.9927C37.1243 71.1281 37.6443 71.7356 37.6443 72.4645C37.6443 73.0071 37.3562 73.4824 36.9247 73.7458C36.9649 74.4355 36.917 75.1175 36.8227 75.7806C36.958 75.9484 37.1066 76.1064 37.2699 76.2525C37.8872 76.8049 37.9398 77.7532 37.3874 78.3705C37.0646 78.7312 36.6067 78.8991 36.1586 78.8662C35.9191 79.8355 35.6952 80.7666 35.5639 81.7696C35.4563 82.591 34.7031 83.1696 33.8817 83.062C33.0603 82.9545 32.4817 82.2013 32.5893 81.3799C32.7524 80.1344 33.0548 78.9138 33.3209 77.8398L33.3211 77.8388C33.4066 77.4936 33.4884 77.1635 33.5606 76.8525C33.5969 76.6963 33.631 76.544 33.6629 76.3953C33.2676 75.6325 33.0163 74.8511 32.8546 74.1334C32.8419 74.0769 32.8297 74.0206 32.818 73.9645H32.6404C31.812 73.9645 31.1404 73.2929 31.1404 72.4645C31.1404 71.6699 31.7582 71.0196 32.5397 70.9678C32.5396 70.9073 32.5397 70.8508 32.5398 70.7986L32.54 70.6348L32.5712 70.4845C32.6467 70.1217 32.7366 69.7689 32.8386 69.425C32.0977 67.2883 31.0928 65.1194 29.9957 62.7517C29.7264 62.1704 29.4515 61.5771 29.1736 60.9693C27.2746 56.8166 25.3219 52.1406 24.4534 46.4202C24.1884 46.5907 23.9075 46.7975 23.6288 47.0239C23.3439 47.2555 23.0989 47.4764 22.9254 47.6393C22.8392 47.7202 22.7718 47.7857 22.7275 47.8295L22.6965 47.8603L22.679 47.8778L22.6688 47.8881L22.668 47.8889C22.244 48.3241 21.5987 48.461 21.0347 48.2347C20.4703 48.0082 20.0984 47.4634 20.0933 46.8552L20.0499 41.7134C15.4505 42.3038 10.9642 41.5162 7.38016 38.9105C3.73525 36.2605 1.2295 31.88 0.392758 25.7153C-0.441466 19.5691 0.655905 13.6946 3.1761 9.15744C5.69648 4.61999 9.70063 1.33792 14.6537 0.66563C19.6068 -0.00665528 24.341 2.08938 27.9796 5.79087C29.0997 6.93035 30.1237 8.22794 31.0288 9.65763C30.2309 10.3022 29.4813 10.9958 28.7837 11.7329C27.9181 10.2879 26.9255 8.99796 25.8402 7.89395C22.6985 4.698 18.8606 3.12214 15.0572 3.63838C11.2538 4.15461 7.97483 6.69644 5.79868 10.6142ZM24.7402 17.6501C25.2697 16.5259 25.8916 15.4473 26.5991 14.4249C26.1438 13.5836 25.6258 12.8262 25.0802 12.1509C23.8619 10.6428 22.5261 9.56435 21.4985 8.86294C20.9828 8.51094 20.5391 8.25006 20.2181 8.0743C20.0574 7.98632 19.9269 7.91937 19.8329 7.87274C19.7859 7.84942 19.7479 7.83115 19.7198 7.81784L19.6851 7.80159L19.6734 7.79623L19.6691 7.79424L19.6672 7.79341C19.6664 7.79305 19.6657 7.7927 19.0479 9.15957L19.6657 7.7927C18.9108 7.4515 18.0222 7.78686 17.681 8.54175C17.3404 9.29533 17.674 10.1821 18.4261 10.5247L18.4367 10.5296C18.4486 10.5353 18.4699 10.5455 18.4999 10.5604C18.5598 10.5901 18.6543 10.6384 18.7773 10.7057C19.0237 10.8406 19.3825 11.0509 19.8072 11.3408C20.6605 11.9232 21.7575 12.8118 22.7466 14.0361C23.5302 15.0061 24.2594 16.2003 24.7402 17.6501ZM41.3214 54.8088C41.0088 54.7537 40.7009 54.6857 40.3978 54.6054L39.4474 56.3008C40.0446 56.2825 40.6637 56.318 41.2347 56.4538C41.6405 56.5504 42.0456 56.7032 42.4318 56.883L42.3156 54.9385C41.9848 54.9104 41.6533 54.8674 41.3214 54.8088ZM48.7998 11.2167C44.4354 10.4471 39.9439 11.4381 36.3084 13.9726C32.6738 16.5066 30.1909 20.377 29.403 24.737C28.5882 29.3632 29.4544 35.8464 31.7599 41.3935C34.0961 47.0146 37.6608 51.117 41.8424 51.8544C46.0127 52.5898 50.6623 49.9505 54.6789 45.4529C58.6411 41.0163 61.5831 35.1981 62.4025 30.5557C63.1533 26.1892 62.144 21.7029 59.5952 18.0787C57.0459 14.4536 53.1642 11.9862 48.7998 11.2167ZM49.7175 14.7694C48.9449 14.4704 48.0762 14.8542 47.7771 15.6267L48.6306 17.5656L48.6472 17.5723C48.6637 17.5791 48.6921 17.5909 48.7313 17.6078C48.8097 17.6416 48.9311 17.6959 49.0873 17.7716C49.4003 17.9233 49.8496 18.1592 50.3711 18.4866C51.4208 19.1455 52.7242 20.1508 53.8062 21.5496C54.879 22.9368 55.7345 24.7093 55.9225 26.9492C56.111 29.1933 55.639 32.0196 53.8721 35.5244C53.4992 36.2641 53.7966 37.1661 54.5363 37.539C55.276 37.912 56.178 37.6146 56.551 36.8749C58.516 32.9769 59.1555 29.598 58.912 26.6982C58.6682 23.7942 57.5482 21.4842 56.1792 19.7142C54.8193 17.9559 53.2143 16.7293 51.9661 15.9457C51.3387 15.5518 50.7917 15.2638 50.3956 15.0719C50.1972 14.9758 50.0359 14.9033 49.9202 14.8534C49.8623 14.8284 49.8158 14.809 49.7816 14.7951L49.7399 14.7782L49.7262 14.7728L49.7212 14.7709L49.7192 14.7701C49.7183 14.7698 49.7175 14.7694 49.1759 16.1683L49.7175 14.7694Z" fill="white"/>
</g>
<defs>
<clipPath id="clip0_1858_4911">
<rect width="66" height="84" fill="white"/>
</clipPath>
</defs>
</svg>
