<svg width="187" height="115" viewBox="0 0 187 115" fill="none" xmlns="http://www.w3.org/2000/svg">
<g filter="url(#filter0_b_2135_7147)">
<rect width="187" height="114.32" rx="12" fill="url(#paint0_linear_2135_7147)"/>
</g>
<path opacity="0.7" d="M48.092 61.2487C40.7212 61.2487 27.9193 66.5423 16.2812 87.0109V101.833H172.619V18.5469C152.059 18.5469 143.524 59.8371 125.291 61.2487C107.058 62.6603 111.713 44.0185 99.6874 44.662C87.6614 45.3056 79.1268 73.9534 67.4888 73.9534C55.8507 73.9534 55.4628 61.2487 48.092 61.2487Z" fill="url(#paint1_linear_2135_7147)"/>
<path d="M16.2812 87.0109C27.9193 66.5423 40.7212 61.2487 48.092 61.2487C55.4628 61.2487 55.8507 73.9534 67.4888 73.9534C79.1268 73.9534 87.6614 45.3056 99.6874 44.662C111.713 44.0185 107.058 62.6603 125.291 61.2487C143.524 59.8371 152.059 18.5469 172.619 18.5469" stroke="white" stroke-width="2" stroke-linecap="round"/>
<path d="M24.0397 17.2865C24.0397 17.6045 23.9377 17.8625 23.7337 18.0605C23.5357 18.2585 23.2027 18.3575 22.7347 18.3575H19.1527L18.6847 21.0755C19.2727 20.9555 19.8097 20.8955 20.2957 20.8955C20.9797 20.8955 21.5797 20.9975 22.0957 21.2015C22.6177 21.4055 23.0557 21.6875 23.4097 22.0475C23.7637 22.4075 24.0307 22.8305 24.2107 23.3165C24.3907 23.7965 24.4807 24.3155 24.4807 24.8735C24.4807 25.5635 24.3577 26.1935 24.1117 26.7635C23.8717 27.3335 23.5357 27.8225 23.1037 28.2305C22.6717 28.6325 22.1587 28.9445 21.5647 29.1665C20.9767 29.3885 20.3347 29.4995 19.6387 29.4995C19.2307 29.4995 18.8437 29.4575 18.4777 29.3735C18.1117 29.2895 17.7667 29.1785 17.4427 29.0405C17.1247 28.8965 16.8277 28.7345 16.5517 28.5545C16.2817 28.3685 16.0387 28.1735 15.8227 27.9695L16.5067 27.0245C16.6507 26.8205 16.8427 26.7185 17.0827 26.7185C17.2327 26.7185 17.3827 26.7665 17.5327 26.8625C17.6887 26.9585 17.8687 27.0635 18.0727 27.1775C18.2767 27.2915 18.5137 27.3965 18.7837 27.4925C19.0537 27.5885 19.3807 27.6365 19.7647 27.6365C20.1727 27.6365 20.5327 27.5705 20.8447 27.4385C21.1567 27.3065 21.4147 27.1235 21.6187 26.8895C21.8287 26.6495 21.9847 26.3675 22.0867 26.0435C22.1947 25.7135 22.2487 25.3565 22.2487 24.9725C22.2487 24.2645 22.0417 23.7125 21.6277 23.3165C21.2197 22.9145 20.6167 22.7135 19.8187 22.7135C19.1887 22.7135 18.5557 22.8275 17.9197 23.0555L16.5337 22.6595L17.6137 16.3415H24.0397V17.2865ZM31.6101 21.2285C32.1021 21.2285 32.5791 21.3095 33.0411 21.4715C33.5091 21.6335 33.9201 21.8795 34.2741 22.2095C34.6281 22.5335 34.9131 22.9385 35.1291 23.4245C35.3451 23.9105 35.4531 24.4775 35.4531 25.1255C35.4531 25.7315 35.3421 26.3015 35.1201 26.8355C34.8981 27.3635 34.5861 27.8255 34.1841 28.2215C33.7821 28.6175 33.2961 28.9295 32.7261 29.1575C32.1621 29.3855 31.5381 29.4995 30.8541 29.4995C30.1581 29.4995 29.5341 29.3885 28.9821 29.1665C28.4301 28.9445 27.9591 28.6355 27.5691 28.2395C27.1791 27.8375 26.8791 27.3575 26.6691 26.7995C26.4651 26.2355 26.3631 25.6115 26.3631 24.9275C26.3631 24.3155 26.4861 23.6885 26.7321 23.0465C26.9841 22.3985 27.3711 21.7265 27.8931 21.0305L30.9981 16.8635C31.1061 16.7195 31.2621 16.5965 31.4661 16.4945C31.6761 16.3925 31.9161 16.3415 32.1861 16.3415H34.1661L30.3051 21.0665C30.2211 21.1685 30.1401 21.2645 30.0621 21.3545C29.9901 21.4445 29.9181 21.5375 29.8461 21.6335C30.0981 21.5075 30.3681 21.4085 30.6561 21.3365C30.9501 21.2645 31.2681 21.2285 31.6101 21.2285ZM28.4961 25.2695C28.4961 25.6295 28.5441 25.9595 28.6401 26.2595C28.7421 26.5535 28.8891 26.8055 29.0811 27.0155C29.2791 27.2255 29.5221 27.3905 29.8101 27.5105C30.0981 27.6245 30.4311 27.6815 30.8091 27.6815C31.1631 27.6815 31.4871 27.6215 31.7811 27.5015C32.0811 27.3815 32.3361 27.2135 32.5461 26.9975C32.7621 26.7815 32.9301 26.5295 33.0501 26.2415C33.1701 25.9475 33.2301 25.6295 33.2301 25.2875C33.2301 24.9155 33.1731 24.5825 33.0591 24.2885C32.9451 23.9885 32.7831 23.7365 32.5731 23.5325C32.3631 23.3225 32.1111 23.1635 31.8171 23.0555C31.5231 22.9475 31.1991 22.8935 30.8451 22.8935C30.4911 22.8935 30.1701 22.9535 29.8821 23.0735C29.5941 23.1935 29.3451 23.3615 29.1351 23.5775C28.9311 23.7875 28.7721 24.0395 28.6581 24.3335C28.5501 24.6215 28.4961 24.9335 28.4961 25.2695ZM36.7415 27.9875C36.7415 27.8195 36.7715 27.6635 36.8315 27.5195C36.8975 27.3695 36.9875 27.2405 37.1015 27.1325C37.2155 27.0185 37.3535 26.9315 37.5155 26.8715C37.6775 26.8055 37.8545 26.7725 38.0465 26.7725C38.2745 26.7725 38.4725 26.8145 38.6405 26.8985C38.8085 26.9765 38.9495 27.0875 39.0635 27.2315C39.1775 27.3695 39.2615 27.5315 39.3155 27.7175C39.3695 27.8975 39.3965 28.0895 39.3965 28.2935C39.3965 28.5815 39.3515 28.8845 39.2615 29.2025C39.1775 29.5205 39.0515 29.8385 38.8835 30.1565C38.7155 30.4745 38.5085 30.7835 38.2625 31.0835C38.0165 31.3835 37.7345 31.6595 37.4165 31.9115L37.0295 31.5605C36.9215 31.4705 36.8675 31.3595 36.8675 31.2275C36.8675 31.1795 36.8825 31.1255 36.9125 31.0655C36.9485 31.0055 36.9905 30.9515 37.0385 30.9035C37.1045 30.8315 37.1855 30.7415 37.2815 30.6335C37.3775 30.5315 37.4735 30.4115 37.5695 30.2735C37.6655 30.1415 37.7525 29.9945 37.8305 29.8325C37.9145 29.6765 37.9745 29.5085 38.0105 29.3285C37.8245 29.3285 37.6535 29.2955 37.4975 29.2295C37.3415 29.1575 37.2065 29.0615 37.0925 28.9415C36.9845 28.8215 36.8975 28.6805 36.8315 28.5185C36.7715 28.3565 36.7415 28.1795 36.7415 27.9875ZM48.3149 24.1625C47.8649 24.1625 47.4239 24.0845 46.9919 23.9285C46.5599 23.7725 46.1729 23.5385 45.8309 23.2265C45.4949 22.9085 45.2249 22.5185 45.0209 22.0565C44.8169 21.5885 44.7149 21.0425 44.7149 20.4185C44.7149 19.8365 44.8229 19.2905 45.0389 18.7805C45.2549 18.2705 45.5579 17.8235 45.9479 17.4395C46.3379 17.0555 46.8059 16.7525 47.3519 16.5305C47.8979 16.3085 48.5009 16.1975 49.1609 16.1975C49.8269 16.1975 50.4239 16.3025 50.9519 16.5125C51.4859 16.7225 51.9389 17.0165 52.3109 17.3945C52.6889 17.7725 52.9769 18.2255 53.1749 18.7535C53.3789 19.2815 53.4809 19.8605 53.4809 20.4905C53.4809 20.8925 53.4449 21.2735 53.3729 21.6335C53.3069 21.9935 53.2079 22.3415 53.0759 22.6775C52.9499 23.0075 52.7969 23.3315 52.6169 23.6495C52.4369 23.9615 52.2359 24.2765 52.0139 24.5945L49.0349 28.8425C48.9329 28.9865 48.7799 29.1095 48.5759 29.2115C48.3779 29.3075 48.1499 29.3555 47.8919 29.3555H45.8489L49.8899 24.3065C49.9919 24.1805 50.0879 24.0575 50.1779 23.9375C50.2679 23.8175 50.3549 23.6975 50.4389 23.5775C50.1389 23.7695 49.8089 23.9165 49.4489 24.0185C49.0889 24.1145 48.7109 24.1625 48.3149 24.1625ZM51.3479 20.2655C51.3479 19.9115 51.2939 19.5965 51.1859 19.3205C51.0779 19.0385 50.9249 18.8015 50.7269 18.6095C50.5289 18.4175 50.2919 18.2705 50.0159 18.1685C49.7459 18.0665 49.4489 18.0155 49.1249 18.0155C48.7889 18.0155 48.4859 18.0725 48.2159 18.1865C47.9459 18.2945 47.7149 18.4475 47.5229 18.6455C47.3369 18.8435 47.1929 19.0805 47.0909 19.3565C46.9889 19.6265 46.9379 19.9235 46.9379 20.2475C46.9379 20.9735 47.1239 21.5285 47.4959 21.9125C47.8739 22.2905 48.4079 22.4795 49.0979 22.4795C49.4579 22.4795 49.7759 22.4225 50.0519 22.3085C50.3339 22.1945 50.5709 22.0385 50.7629 21.8405C50.9549 21.6425 51.0989 21.4085 51.1949 21.1385C51.2969 20.8685 51.3479 20.5775 51.3479 20.2655ZM56.4073 27.6905H59.0443V20.1035C59.0443 19.8095 59.0533 19.5005 59.0713 19.1765L57.1993 20.7425C57.1213 20.8085 57.0403 20.8535 56.9563 20.8775C56.8783 20.9015 56.8003 20.9135 56.7223 20.9135C56.6023 20.9135 56.4913 20.8895 56.3893 20.8415C56.2933 20.7875 56.2213 20.7275 56.1733 20.6615L55.4713 19.6985L59.4403 16.3235H61.2673V27.6905H63.6073V29.3555H56.4073V27.6905ZM70.4577 21.2285C70.9497 21.2285 71.4267 21.3095 71.8887 21.4715C72.3567 21.6335 72.7677 21.8795 73.1217 22.2095C73.4757 22.5335 73.7607 22.9385 73.9767 23.4245C74.1927 23.9105 74.3007 24.4775 74.3007 25.1255C74.3007 25.7315 74.1897 26.3015 73.9677 26.8355C73.7457 27.3635 73.4337 27.8255 73.0317 28.2215C72.6297 28.6175 72.1437 28.9295 71.5737 29.1575C71.0097 29.3855 70.3857 29.4995 69.7017 29.4995C69.0057 29.4995 68.3817 29.3885 67.8297 29.1665C67.2777 28.9445 66.8067 28.6355 66.4167 28.2395C66.0267 27.8375 65.7267 27.3575 65.5167 26.7995C65.3127 26.2355 65.2107 25.6115 65.2107 24.9275C65.2107 24.3155 65.3337 23.6885 65.5797 23.0465C65.8317 22.3985 66.2187 21.7265 66.7407 21.0305L69.8457 16.8635C69.9537 16.7195 70.1097 16.5965 70.3137 16.4945C70.5237 16.3925 70.7637 16.3415 71.0337 16.3415H73.0137L69.1527 21.0665C69.0687 21.1685 68.9877 21.2645 68.9097 21.3545C68.8377 21.4445 68.7657 21.5375 68.6937 21.6335C68.9457 21.5075 69.2157 21.4085 69.5037 21.3365C69.7977 21.2645 70.1157 21.2285 70.4577 21.2285ZM67.3437 25.2695C67.3437 25.6295 67.3917 25.9595 67.4877 26.2595C67.5897 26.5535 67.7367 26.8055 67.9287 27.0155C68.1267 27.2255 68.3697 27.3905 68.6577 27.5105C68.9457 27.6245 69.2787 27.6815 69.6567 27.6815C70.0107 27.6815 70.3347 27.6215 70.6287 27.5015C70.9287 27.3815 71.1837 27.2135 71.3937 26.9975C71.6097 26.7815 71.7777 26.5295 71.8977 26.2415C72.0177 25.9475 72.0777 25.6295 72.0777 25.2875C72.0777 24.9155 72.0207 24.5825 71.9067 24.2885C71.7927 23.9885 71.6307 23.7365 71.4207 23.5325C71.2107 23.3225 70.9587 23.1635 70.6647 23.0555C70.3707 22.9475 70.0467 22.8935 69.6927 22.8935C69.3387 22.8935 69.0177 22.9535 68.7297 23.0735C68.4417 23.1935 68.1927 23.3615 67.9827 23.5775C67.7787 23.7875 67.6197 24.0395 67.5057 24.3335C67.3977 24.6215 67.3437 24.9335 67.3437 25.2695Z" fill="white"/>
<path opacity="0.8" d="M81.7857 21.0076H83.0877C83.2277 21.0076 83.3417 21.0416 83.4297 21.1096C83.5177 21.1776 83.5837 21.2656 83.6277 21.3736L85.6677 26.6656C85.7357 26.8376 85.7997 27.0276 85.8597 27.2356C85.9237 27.4396 85.9837 27.6556 86.0397 27.8836C86.1317 27.4236 86.2457 27.0176 86.3817 26.6656L88.4157 21.3736C88.4517 21.2816 88.5157 21.1976 88.6077 21.1216C88.6997 21.0456 88.8137 21.0076 88.9497 21.0076H90.2517L86.7477 29.6836H85.2897L81.7857 21.0076ZM92.6513 23.5276V29.6836H91.1693V23.5276H92.6513ZM92.8733 21.7336C92.8733 21.8616 92.8473 21.9816 92.7953 22.0936C92.7433 22.2056 92.6733 22.3036 92.5853 22.3876C92.5013 22.4716 92.4013 22.5396 92.2853 22.5916C92.1693 22.6396 92.0453 22.6636 91.9133 22.6636C91.7853 22.6636 91.6633 22.6396 91.5473 22.5916C91.4353 22.5396 91.3373 22.4716 91.2533 22.3876C91.1693 22.3036 91.1013 22.2056 91.0493 22.0936C91.0013 21.9816 90.9773 21.8616 90.9773 21.7336C90.9773 21.6016 91.0013 21.4776 91.0493 21.3616C91.1013 21.2456 91.1693 21.1456 91.2533 21.0616C91.3373 20.9776 91.4353 20.9116 91.5473 20.8636C91.6633 20.8116 91.7853 20.7856 91.9133 20.7856C92.0453 20.7856 92.1693 20.8116 92.2853 20.8636C92.4013 20.9116 92.5013 20.9776 92.5853 21.0616C92.6733 21.1456 92.7433 21.2456 92.7953 21.3616C92.8473 21.4776 92.8733 21.6016 92.8733 21.7336ZM96.8751 23.4316C97.2631 23.4316 97.6191 23.4936 97.9431 23.6176C98.2711 23.7416 98.5531 23.9236 98.7891 24.1636C99.0251 24.3996 99.2091 24.6916 99.3411 25.0396C99.4731 25.3836 99.5391 25.7776 99.5391 26.2216C99.5391 26.3336 99.5331 26.4276 99.5211 26.5036C99.5131 26.5756 99.4951 26.6336 99.4671 26.6776C99.4431 26.7176 99.4091 26.7476 99.3651 26.7676C99.3211 26.7836 99.2651 26.7916 99.1971 26.7916H95.3931C95.4371 27.4236 95.6071 27.8876 95.9031 28.1836C96.1991 28.4796 96.5911 28.6276 97.0791 28.6276C97.3191 28.6276 97.5251 28.5996 97.6971 28.5436C97.8731 28.4876 98.0251 28.4256 98.1531 28.3576C98.2851 28.2896 98.3991 28.2276 98.4951 28.1716C98.5951 28.1156 98.6911 28.0876 98.7831 28.0876C98.8431 28.0876 98.8951 28.0996 98.9391 28.1236C98.9831 28.1476 99.0211 28.1816 99.0531 28.2256L99.4851 28.7656C99.3211 28.9576 99.1371 29.1196 98.9331 29.2516C98.7291 29.3796 98.5151 29.4836 98.2911 29.5636C98.0711 29.6396 97.8451 29.6936 97.6131 29.7256C97.3851 29.7576 97.1631 29.7736 96.9471 29.7736C96.5191 29.7736 96.1211 29.7036 95.7531 29.5636C95.3851 29.4196 95.0651 29.2096 94.7931 28.9336C94.5211 28.6536 94.3071 28.3096 94.1511 27.9016C93.9951 27.4896 93.9171 27.0136 93.9171 26.4736C93.9171 26.0536 93.9851 25.6596 94.1211 25.2916C94.2571 24.9196 94.4511 24.5976 94.7031 24.3256C94.9591 24.0496 95.2691 23.8316 95.6331 23.6716C96.0011 23.5116 96.4151 23.4316 96.8751 23.4316ZM96.9051 24.4936C96.4731 24.4936 96.1351 24.6156 95.8911 24.8596C95.6471 25.1036 95.4911 25.4496 95.4231 25.8976H98.2071C98.2071 25.7056 98.1811 25.5256 98.1291 25.3576C98.0771 25.1856 97.9971 25.0356 97.8891 24.9076C97.7811 24.7796 97.6451 24.6796 97.4811 24.6076C97.3171 24.5316 97.1251 24.4936 96.9051 24.4936ZM99.9912 23.5276H101.167C101.279 23.5276 101.373 23.5536 101.449 23.6056C101.525 23.6576 101.573 23.7236 101.593 23.8036L102.475 27.0916C102.523 27.2716 102.561 27.4476 102.589 27.6196C102.621 27.7916 102.651 27.9636 102.679 28.1356C102.723 27.9636 102.769 27.7916 102.817 27.6196C102.869 27.4476 102.923 27.2716 102.979 27.0916L103.999 23.7916C104.023 23.7116 104.071 23.6456 104.143 23.5936C104.215 23.5416 104.299 23.5156 104.395 23.5156H105.049C105.157 23.5156 105.247 23.5416 105.319 23.5936C105.391 23.6456 105.439 23.7116 105.463 23.7916L106.471 27.1516C106.523 27.3236 106.569 27.4916 106.609 27.6556C106.653 27.8156 106.695 27.9776 106.735 28.1416C106.763 27.9696 106.793 27.7976 106.825 27.6256C106.861 27.4536 106.905 27.2756 106.957 27.0916L107.869 23.8036C107.889 23.7236 107.937 23.6576 108.013 23.6056C108.089 23.5536 108.177 23.5276 108.277 23.5276H109.399L107.449 29.6836H106.255C106.127 29.6836 106.035 29.5956 105.979 29.4196L104.869 25.8616C104.833 25.7456 104.799 25.6296 104.767 25.5136C104.739 25.3936 104.715 25.2756 104.695 25.1596C104.671 25.2796 104.645 25.3996 104.617 25.5196C104.589 25.6356 104.557 25.7536 104.521 25.8736L103.399 29.4196C103.343 29.5956 103.235 29.6836 103.075 29.6836H101.941L99.9912 23.5276ZM113.887 24.7276C113.847 24.7916 113.805 24.8376 113.761 24.8656C113.717 24.8896 113.661 24.9016 113.593 24.9016C113.521 24.9016 113.443 24.8816 113.359 24.8416C113.279 24.8016 113.185 24.7576 113.077 24.7096C112.969 24.6576 112.845 24.6116 112.705 24.5716C112.569 24.5316 112.407 24.5116 112.219 24.5116C111.927 24.5116 111.697 24.5736 111.529 24.6976C111.361 24.8216 111.277 24.9836 111.277 25.1836C111.277 25.3156 111.319 25.4276 111.403 25.5196C111.491 25.6076 111.605 25.6856 111.745 25.7536C111.889 25.8216 112.051 25.8836 112.231 25.9396C112.411 25.9916 112.595 26.0496 112.783 26.1136C112.971 26.1776 113.155 26.2516 113.335 26.3356C113.515 26.4156 113.675 26.5196 113.815 26.6476C113.959 26.7716 114.073 26.9216 114.157 27.0976C114.245 27.2736 114.289 27.4856 114.289 27.7336C114.289 28.0296 114.235 28.3036 114.127 28.5556C114.019 28.8036 113.861 29.0196 113.653 29.2036C113.445 29.3836 113.187 29.5256 112.879 29.6296C112.575 29.7296 112.225 29.7796 111.829 29.7796C111.617 29.7796 111.409 29.7596 111.205 29.7196C111.005 29.6836 110.811 29.6316 110.623 29.5636C110.439 29.4956 110.267 29.4156 110.107 29.3236C109.951 29.2316 109.813 29.1316 109.693 29.0236L110.035 28.4596C110.079 28.3916 110.131 28.3396 110.191 28.3036C110.251 28.2676 110.327 28.2496 110.419 28.2496C110.511 28.2496 110.597 28.2756 110.677 28.3276C110.761 28.3796 110.857 28.4356 110.965 28.4956C111.073 28.5556 111.199 28.6116 111.343 28.6636C111.491 28.7156 111.677 28.7416 111.901 28.7416C112.077 28.7416 112.227 28.7216 112.351 28.6816C112.479 28.6376 112.583 28.5816 112.663 28.5136C112.747 28.4456 112.807 28.3676 112.843 28.2796C112.883 28.1876 112.903 28.0936 112.903 27.9976C112.903 27.8536 112.859 27.7356 112.771 27.6436C112.687 27.5516 112.573 27.4716 112.429 27.4036C112.289 27.3356 112.127 27.2756 111.943 27.2236C111.763 27.1676 111.577 27.1076 111.385 27.0436C111.197 26.9796 111.011 26.9056 110.827 26.8216C110.647 26.7336 110.485 26.6236 110.341 26.4916C110.201 26.3596 110.087 26.1976 109.999 26.0056C109.915 25.8136 109.873 25.5816 109.873 25.3096C109.873 25.0576 109.923 24.8176 110.023 24.5896C110.123 24.3616 110.269 24.1636 110.461 23.9956C110.657 23.8236 110.899 23.6876 111.187 23.5876C111.479 23.4836 111.815 23.4316 112.195 23.4316C112.619 23.4316 113.005 23.5016 113.353 23.6416C113.701 23.7816 113.991 23.9656 114.223 24.1936L113.887 24.7276Z" fill="white"/>
<defs>
<filter id="filter0_b_2135_7147" x="-19.2" y="-19.2" width="225.4" height="152.72" filterUnits="userSpaceOnUse" color-interpolation-filters="sRGB">
<feFlood flood-opacity="0" result="BackgroundImageFix"/>
<feGaussianBlur in="BackgroundImageFix" stdDeviation="9.6"/>
<feComposite in2="SourceAlpha" operator="in" result="effect1_backgroundBlur_2135_7147"/>
<feBlend mode="normal" in="SourceGraphic" in2="effect1_backgroundBlur_2135_7147" result="shape"/>
</filter>
<linearGradient id="paint0_linear_2135_7147" x1="0" y1="0" x2="101.749" y2="166.437" gradientUnits="userSpaceOnUse">
<stop stop-color="#52E5E7"/>
<stop offset="1" stop-color="#130CB7"/>
</linearGradient>
<linearGradient id="paint1_linear_2135_7147" x1="94.4503" y1="18.5469" x2="94.4503" y2="101.833" gradientUnits="userSpaceOnUse">
<stop stop-color="#D9D9D9"/>
<stop offset="1" stop-color="#D9D9D9" stop-opacity="0"/>
</linearGradient>
</defs>
</svg>
