<svg width="175" height="114" viewBox="0 0 175 114" fill="none" xmlns="http://www.w3.org/2000/svg">
<g filter="url(#filter0_b_2135_7154)">
<rect width="175" height="114" rx="8" fill="url(#paint0_linear_2135_7154)"/>
</g>
<path d="M27.5917 15.1565V25.3555H25.5057V19.4895C25.5057 19.3541 25.508 19.2071 25.5127 19.0485C25.522 18.8898 25.536 18.7288 25.5547 18.5655L22.8457 23.8085C22.7617 23.9718 22.6473 24.0955 22.5027 24.1795C22.3627 24.2635 22.2017 24.3055 22.0197 24.3055H21.6977C21.5157 24.3055 21.3523 24.2635 21.2077 24.1795C21.0677 24.0955 20.9557 23.9718 20.8717 23.8085L18.1627 18.5515C18.1767 18.7195 18.1883 18.8851 18.1977 19.0485C18.207 19.2071 18.2117 19.3541 18.2117 19.4895V25.3555H16.1257V15.1565H17.9317C18.0343 15.1565 18.123 15.1588 18.1977 15.1635C18.277 15.1681 18.347 15.1821 18.4077 15.2055C18.4683 15.2288 18.522 15.2661 18.5687 15.3175C18.62 15.3641 18.669 15.4318 18.7157 15.5205L21.3407 20.6935C21.434 20.8708 21.5227 21.0551 21.6067 21.2465C21.6953 21.4378 21.7793 21.6338 21.8587 21.8345C21.938 21.6291 22.0197 21.4285 22.1037 21.2325C22.1923 21.0365 22.2857 20.8498 22.3837 20.6725L25.0017 15.5205C25.0483 15.4318 25.095 15.3641 25.1417 15.3175C25.193 15.2661 25.249 15.2288 25.3097 15.2055C25.3703 15.1821 25.438 15.1681 25.5127 15.1635C25.592 15.1588 25.683 15.1565 25.7857 15.1565H27.5917ZM32.4404 17.9845C32.991 17.9845 33.4927 18.0708 33.9454 18.2435C34.398 18.4161 34.7854 18.6635 35.1074 18.9855C35.434 19.3075 35.686 19.6995 35.8634 20.1615C36.0454 20.6188 36.1364 21.1345 36.1364 21.7085C36.1364 22.2871 36.0454 22.8098 35.8634 23.2765C35.686 23.7385 35.434 24.1328 35.1074 24.4595C34.7854 24.7815 34.398 25.0311 33.9454 25.2085C33.4927 25.3811 32.991 25.4675 32.4404 25.4675C31.885 25.4675 31.3787 25.3811 30.9214 25.2085C30.4687 25.0311 30.0767 24.7815 29.7454 24.4595C29.4187 24.1328 29.1644 23.7385 28.9824 23.2765C28.805 22.8098 28.7164 22.2871 28.7164 21.7085C28.7164 21.1345 28.805 20.6188 28.9824 20.1615C29.1644 19.6995 29.4187 19.3075 29.7454 18.9855C30.0767 18.6635 30.4687 18.4161 30.9214 18.2435C31.3787 18.0708 31.885 17.9845 32.4404 17.9845ZM32.4404 23.8575C32.9397 23.8575 33.306 23.6825 33.5394 23.3325C33.7774 22.9778 33.8964 22.4411 33.8964 21.7225C33.8964 21.0038 33.7774 20.4695 33.5394 20.1195C33.306 19.7695 32.9397 19.5945 32.4404 19.5945C31.927 19.5945 31.5514 19.7695 31.3134 20.1195C31.0754 20.4695 30.9564 21.0038 30.9564 21.7225C30.9564 22.4411 31.0754 22.9778 31.3134 23.3325C31.5514 23.6825 31.927 23.8575 32.4404 23.8575ZM39.2311 18.8805C39.3711 18.7498 39.5158 18.6285 39.6651 18.5165C39.8145 18.4045 39.9731 18.3111 40.1411 18.2365C40.3138 18.1571 40.4981 18.0965 40.6941 18.0545C40.8948 18.0078 41.1118 17.9845 41.3451 17.9845C41.7418 17.9845 42.0918 18.0545 42.3951 18.1945C42.7031 18.3298 42.9621 18.5211 43.1721 18.7685C43.3821 19.0111 43.5408 19.3028 43.6481 19.6435C43.7555 19.9795 43.8091 20.3458 43.8091 20.7425V25.3555H41.6391V20.7425C41.6391 20.3878 41.5575 20.1125 41.3941 19.9165C41.2308 19.7158 40.9905 19.6155 40.6731 19.6155C40.4351 19.6155 40.2111 19.6668 40.0011 19.7695C39.7958 19.8675 39.5951 20.0028 39.3991 20.1755V25.3555H37.2291V18.0965H38.5731C38.8438 18.0965 39.0211 18.2178 39.1051 18.4605L39.2311 18.8805ZM47.7148 25.4675C47.3695 25.4675 47.0638 25.4185 46.7978 25.3205C46.5365 25.2178 46.3148 25.0755 46.1328 24.8935C45.9555 24.7068 45.8201 24.4828 45.7268 24.2215C45.6335 23.9601 45.5868 23.6685 45.5868 23.3465V19.5945H44.9708C44.8588 19.5945 44.7631 19.5595 44.6838 19.4895C44.6045 19.4148 44.5648 19.3075 44.5648 19.1675V18.3205L45.7198 18.0965L46.1468 16.3255C46.2028 16.1015 46.3615 15.9895 46.6228 15.9895H47.7568V18.1105H49.5558V19.5945H47.7568V23.1995C47.7568 23.3675 47.7965 23.5075 47.8758 23.6195C47.9598 23.7268 48.0788 23.7805 48.2328 23.7805C48.3121 23.7805 48.3775 23.7735 48.4288 23.7595C48.4848 23.7408 48.5315 23.7221 48.5688 23.7035C48.6108 23.6801 48.6481 23.6615 48.6808 23.6475C48.7181 23.6288 48.7601 23.6195 48.8068 23.6195C48.8721 23.6195 48.9235 23.6358 48.9608 23.6685C49.0028 23.6965 49.0448 23.7431 49.0868 23.8085L49.7448 24.8375C49.4648 25.0475 49.1498 25.2061 48.7998 25.3135C48.4498 25.4161 48.0881 25.4675 47.7148 25.4675ZM52.6609 18.7335C52.9222 18.5095 53.2045 18.3298 53.5079 18.1945C53.8159 18.0545 54.1822 17.9845 54.6069 17.9845C55.0035 17.9845 55.3535 18.0545 55.6569 18.1945C55.9649 18.3298 56.2239 18.5211 56.4339 18.7685C56.6439 19.0111 56.8025 19.3028 56.9099 19.6435C57.0172 19.9795 57.0709 20.3458 57.0709 20.7425V25.3555H54.9009V20.7425C54.9009 20.3878 54.8192 20.1125 54.6559 19.9165C54.4925 19.7158 54.2522 19.6155 53.9349 19.6155C53.6969 19.6155 53.4729 19.6668 53.2629 19.7695C53.0575 19.8675 52.8569 20.0028 52.6609 20.1755V25.3555H50.4909V14.8765H52.6609V18.7335ZM60.6452 14.8765V25.3555H58.4752V14.8765H60.6452ZM69.007 18.0965L65.129 27.2385C65.0636 27.3831 64.9843 27.4881 64.891 27.5535C64.7976 27.6235 64.6483 27.6585 64.443 27.6585H62.819L64.219 24.7185L61.321 18.0965H63.239C63.407 18.0965 63.5353 18.1338 63.624 18.2085C63.7173 18.2831 63.785 18.3718 63.827 18.4745L65.017 21.6035C65.129 21.8881 65.22 22.1798 65.29 22.4785C65.3413 22.3291 65.3926 22.1798 65.444 22.0305C65.4953 21.8811 65.549 21.7341 65.605 21.5895L66.683 18.4745C66.725 18.3671 66.7996 18.2785 66.907 18.2085C67.0143 18.1338 67.131 18.0965 67.257 18.0965H69.007ZM77.6819 20.0705H81.3079V24.3755C80.7853 24.7581 80.2276 25.0358 79.6349 25.2085C79.0469 25.3811 78.4309 25.4675 77.7869 25.4675C76.9469 25.4675 76.1816 25.3368 75.4909 25.0755C74.8049 24.8095 74.2169 24.4455 73.7269 23.9835C73.2369 23.5168 72.8589 22.9661 72.5929 22.3315C72.3269 21.6921 72.1939 20.9991 72.1939 20.2525C72.1939 19.4918 72.3199 18.7941 72.5719 18.1595C72.8239 17.5201 73.1833 16.9695 73.6499 16.5075C74.1213 16.0455 74.6883 15.6861 75.3509 15.4295C76.0183 15.1728 76.7626 15.0445 77.5839 15.0445C78.0086 15.0445 78.4076 15.0795 78.7809 15.1495C79.1543 15.2195 79.4973 15.3151 79.8099 15.4365C80.1273 15.5578 80.4166 15.7025 80.6779 15.8705C80.9393 16.0385 81.1726 16.2205 81.3779 16.4165L80.6919 17.4595C80.5846 17.6228 80.4446 17.7231 80.2719 17.7605C80.1039 17.7978 79.9219 17.7558 79.7259 17.6345C79.5393 17.5225 79.3619 17.4268 79.1939 17.3475C79.0306 17.2635 78.8626 17.1958 78.6899 17.1445C78.5173 17.0931 78.3353 17.0558 78.1439 17.0325C77.9526 17.0091 77.7379 16.9975 77.4999 16.9975C77.0566 16.9975 76.6576 17.0768 76.3029 17.2355C75.9483 17.3895 75.6449 17.6088 75.3929 17.8935C75.1456 18.1781 74.9543 18.5211 74.8189 18.9225C74.6836 19.3191 74.6159 19.7625 74.6159 20.2525C74.6159 20.7938 74.6906 21.2745 74.8399 21.6945C74.9893 22.1145 75.1993 22.4691 75.4699 22.7585C75.7453 23.0478 76.0719 23.2695 76.4499 23.4235C76.8326 23.5728 77.2549 23.6475 77.7169 23.6475C78.0016 23.6475 78.2583 23.6195 78.4869 23.5635C78.7203 23.5075 78.9466 23.4328 79.1659 23.3395V21.7925H78.1579C78.0086 21.7925 77.8919 21.7528 77.8079 21.6735C77.7239 21.5941 77.6819 21.4938 77.6819 21.3725V20.0705ZM84.5814 19.2165C84.8054 18.8245 85.0621 18.5165 85.3514 18.2925C85.6454 18.0685 85.9814 17.9565 86.3594 17.9565C86.6861 17.9565 86.9521 18.0335 87.1574 18.1875L87.0174 19.7835C86.9941 19.8861 86.9544 19.9561 86.8984 19.9935C86.8471 20.0308 86.7747 20.0495 86.6814 20.0495C86.6441 20.0495 86.5951 20.0471 86.5344 20.0425C86.4737 20.0378 86.4107 20.0331 86.3454 20.0285C86.2801 20.0191 86.2124 20.0121 86.1424 20.0075C86.0771 19.9981 86.0164 19.9935 85.9604 19.9935C85.6431 19.9935 85.3887 20.0775 85.1974 20.2455C85.0107 20.4135 84.8521 20.6468 84.7214 20.9455V25.3555H82.5514V18.0965H83.8394C83.9467 18.0965 84.0354 18.1058 84.1054 18.1245C84.1801 18.1431 84.2407 18.1735 84.2874 18.2155C84.3387 18.2528 84.3761 18.3041 84.3994 18.3695C84.4274 18.4348 84.4507 18.5141 84.4694 18.6075L84.5814 19.2165ZM91.1201 17.9845C91.6707 17.9845 92.1724 18.0708 92.6251 18.2435C93.0777 18.4161 93.4651 18.6635 93.7871 18.9855C94.1137 19.3075 94.3657 19.6995 94.5431 20.1615C94.7251 20.6188 94.8161 21.1345 94.8161 21.7085C94.8161 22.2871 94.7251 22.8098 94.5431 23.2765C94.3657 23.7385 94.1137 24.1328 93.7871 24.4595C93.4651 24.7815 93.0777 25.0311 92.6251 25.2085C92.1724 25.3811 91.6707 25.4675 91.1201 25.4675C90.5647 25.4675 90.0584 25.3811 89.6011 25.2085C89.1484 25.0311 88.7564 24.7815 88.4251 24.4595C88.0984 24.1328 87.8441 23.7385 87.6621 23.2765C87.4847 22.8098 87.3961 22.2871 87.3961 21.7085C87.3961 21.1345 87.4847 20.6188 87.6621 20.1615C87.8441 19.6995 88.0984 19.3075 88.4251 18.9855C88.7564 18.6635 89.1484 18.4161 89.6011 18.2435C90.0584 18.0708 90.5647 17.9845 91.1201 17.9845ZM91.1201 23.8575C91.6194 23.8575 91.9857 23.6825 92.2191 23.3325C92.4571 22.9778 92.5761 22.4411 92.5761 21.7225C92.5761 21.0038 92.4571 20.4695 92.2191 20.1195C91.9857 19.7695 91.6194 19.5945 91.1201 19.5945C90.6067 19.5945 90.2311 19.7695 89.9931 20.1195C89.7551 20.4695 89.6361 21.0038 89.6361 21.7225C89.6361 22.4411 89.7551 22.9778 89.9931 23.3325C90.2311 23.6825 90.6067 23.8575 91.1201 23.8575ZM106.454 18.0965L104.2 25.3555H102.436C102.343 25.3555 102.263 25.3275 102.198 25.2715C102.133 25.2155 102.081 25.1221 102.044 24.9915L101.008 21.3725C100.957 21.2091 100.91 21.0481 100.868 20.8895C100.831 20.7308 100.796 20.5698 100.763 20.4065C100.73 20.5698 100.693 20.7331 100.651 20.8965C100.614 21.0598 100.569 21.2231 100.518 21.3865L99.4681 24.9915C99.3981 25.2341 99.2441 25.3555 99.0061 25.3555H97.3261L95.0721 18.0965H96.8081C96.9621 18.0965 97.0904 18.1338 97.1931 18.2085C97.3004 18.2785 97.3728 18.3671 97.4101 18.4745L98.1381 21.7295C98.1988 21.9768 98.2524 22.2171 98.2991 22.4505C98.3458 22.6791 98.3878 22.9101 98.4251 23.1435C98.4858 22.9101 98.5488 22.6791 98.6141 22.4505C98.6841 22.2171 98.7588 21.9768 98.8381 21.7295L99.7481 18.4675C99.7854 18.3601 99.8554 18.2715 99.9581 18.2015C100.061 18.1268 100.182 18.0895 100.322 18.0895H101.288C101.442 18.0895 101.57 18.1268 101.673 18.2015C101.78 18.2715 101.853 18.3601 101.89 18.4675L102.758 21.7295C102.828 21.9768 102.896 22.2171 102.961 22.4505C103.031 22.6838 103.094 22.9195 103.15 23.1575C103.187 22.9241 103.232 22.6908 103.283 22.4575C103.334 22.2241 103.393 21.9815 103.458 21.7295L104.228 18.4745C104.265 18.3671 104.335 18.2785 104.438 18.2085C104.541 18.1338 104.662 18.0965 104.802 18.0965H106.454ZM109.826 25.4675C109.481 25.4675 109.175 25.4185 108.909 25.3205C108.648 25.2178 108.426 25.0755 108.244 24.8935C108.067 24.7068 107.931 24.4828 107.838 24.2215C107.745 23.9601 107.698 23.6685 107.698 23.3465V19.5945H107.082C106.97 19.5945 106.874 19.5595 106.795 19.4895C106.716 19.4148 106.676 19.3075 106.676 19.1675V18.3205L107.831 18.0965L108.258 16.3255C108.314 16.1015 108.473 15.9895 108.734 15.9895H109.868V18.1105H111.667V19.5945H109.868V23.1995C109.868 23.3675 109.908 23.5075 109.987 23.6195C110.071 23.7268 110.19 23.7805 110.344 23.7805C110.423 23.7805 110.489 23.7735 110.54 23.7595C110.596 23.7408 110.643 23.7221 110.68 23.7035C110.722 23.6801 110.759 23.6615 110.792 23.6475C110.829 23.6288 110.871 23.6195 110.918 23.6195C110.983 23.6195 111.035 23.6358 111.072 23.6685C111.114 23.6965 111.156 23.7431 111.198 23.8085L111.856 24.8375C111.576 25.0475 111.261 25.2061 110.911 25.3135C110.561 25.4161 110.199 25.4675 109.826 25.4675ZM114.772 18.7335C115.034 18.5095 115.316 18.3298 115.619 18.1945C115.927 18.0545 116.294 17.9845 116.718 17.9845C117.115 17.9845 117.465 18.0545 117.768 18.1945C118.076 18.3298 118.335 18.5211 118.545 18.7685C118.755 19.0111 118.914 19.3028 119.021 19.6435C119.129 19.9795 119.182 20.3458 119.182 20.7425V25.3555H117.012V20.7425C117.012 20.3878 116.931 20.1125 116.767 19.9165C116.604 19.7158 116.364 19.6155 116.046 19.6155C115.808 19.6155 115.584 19.6668 115.374 19.7695C115.169 19.8675 114.968 20.0028 114.772 20.1755V25.3555H112.602V14.8765H114.772V18.7335Z" fill="white"/>
<rect x="20" y="50" width="8" height="50" fill="white"/>
<rect x="50" y="83" width="8" height="17" fill="white"/>
<rect x="80" y="73" width="8" height="27" fill="white"/>
<rect x="110" y="74" width="8" height="26" fill="white"/>
<rect x="140" y="43" width="8" height="57" fill="white"/>
<rect opacity="0.5" x="30" y="66" width="8" height="34" fill="white"/>
<rect opacity="0.5" x="60" y="81" width="8" height="19" fill="white"/>
<rect opacity="0.5" x="90" y="58" width="8" height="42" fill="white"/>
<rect opacity="0.5" x="120" y="55" width="8" height="45" fill="white"/>
<rect opacity="0.5" x="150" y="39" width="8" height="61" fill="white"/>
<defs>
<filter id="filter0_b_2135_7154" x="-19.2" y="-19.2" width="213.4" height="152.4" filterUnits="userSpaceOnUse" color-interpolation-filters="sRGB">
<feFlood flood-opacity="0" result="BackgroundImageFix"/>
<feGaussianBlur in="BackgroundImageFix" stdDeviation="9.6"/>
<feComposite in2="SourceAlpha" operator="in" result="effect1_backgroundBlur_2135_7154"/>
<feBlend mode="normal" in="SourceGraphic" in2="effect1_backgroundBlur_2135_7154" result="shape"/>
</filter>
<linearGradient id="paint0_linear_2135_7154" x1="0" y1="0" x2="104.275" y2="160.072" gradientUnits="userSpaceOnUse">
<stop stop-color="#F1CA74"/>
<stop offset="1" stop-color="#A64DB6"/>
</linearGradient>
</defs>
</svg>
