<svg width="517" height="353" viewBox="0 0 517 353" fill="none" xmlns="http://www.w3.org/2000/svg">
<g opacity="0.08">
<mask id="mask0_1821_10022" style="mask-type:alpha" maskUnits="userSpaceOnUse" x="0" y="0" width="385" height="353">
<path d="M384.117 178.974L228.23 0L0 112.581L56.0074 240.419L195.559 353L384.117 178.974Z" fill="#D9D9D9"/>
</mask>
<g mask="url(#mask0_1821_10022)">
<path fill-rule="evenodd" clip-rule="evenodd" d="M285.929 -35.0527L289.23 -32.1367L55.5708 174.315L52.2705 171.399L285.929 -35.0527ZM291.531 -28.4551L294.831 -25.5391L61.1723 180.913L57.8721 177.997L291.531 -28.4551ZM300.425 -18.9414L297.125 -21.8574L63.4658 184.595L66.7661 187.511L300.425 -18.9414ZM302.73 -15.2598L306.03 -12.3438L72.3716 194.108L69.0713 191.192L302.73 -15.2598ZM311.628 -5.74417L308.328 -8.66016L74.6689 197.792L77.9692 200.708L311.628 -5.74417ZM313.929 -2.06055L317.23 0.855442L83.5708 207.308L80.2705 204.392L313.929 -2.06055ZM322.827 7.4531L319.527 4.53711L85.8682 210.989L89.1684 213.905L322.827 7.4531ZM325.129 11.1348L328.429 14.0508L94.77 220.503L91.4697 217.587L325.129 11.1348ZM334.034 20.6484L330.734 17.7324L97.0752 224.184L100.375 227.1L334.034 20.6484ZM336.332 24.3301L339.632 27.2461L105.973 233.698L102.673 230.782L336.332 24.3301ZM345.234 33.8437L341.933 30.9277L108.274 237.38L111.575 240.296L345.234 33.8437ZM347.531 37.5254L350.831 40.4414L117.172 246.893L113.872 243.977L347.531 37.5254ZM356.437 47.041L353.136 44.125L119.478 250.577L122.778 253.493L356.437 47.041ZM358.734 50.7227L362.034 53.6386L128.375 260.091L125.075 257.175L358.734 50.7227ZM367.636 60.2383L364.336 57.3223L130.677 263.774L133.977 266.69L367.636 60.2383ZM369.933 63.9199L373.234 66.8359L139.575 273.288L136.274 270.372L369.933 63.9199ZM378.839 73.4336L375.539 70.5176L141.88 276.97L145.18 279.886L378.839 73.4336ZM381.136 77.1152L384.437 80.0312L150.778 286.483L147.478 283.567L381.136 77.1152ZM390.038 86.6289L386.738 83.7129L153.079 290.165L156.379 293.081L390.038 86.6289ZM392.343 90.3105L395.644 93.2265L161.985 299.679L158.685 296.763L392.343 90.3105ZM401.241 99.8261L397.941 96.9102L164.282 303.362L167.582 306.278L401.241 99.8261ZM403.543 103.508L406.843 106.424L173.184 312.876L169.884 309.96L403.543 103.508ZM412.441 113.021L409.14 110.105L175.481 316.558L178.782 319.474L412.441 113.021Z" fill="white"/>
</g>
</g>
<rect x="113" y="187" width="129" height="101" rx="6" fill="white"/>
<path d="M118 200H237V283H118V200Z" fill="#141C44"/>
<ellipse cx="120.669" cy="193.907" rx="1.97386" ry="1.97386" fill="#141C45"/>
<ellipse cx="127.572" cy="193.907" rx="1.97386" ry="1.97386" fill="#141C45"/>
<ellipse cx="134.493" cy="193.907" rx="1.97386" ry="1.97386" fill="#141C45"/>
<path d="M191.5 229.5L201.5 241.643L191.5 253.786" stroke="white" stroke-width="5" stroke-linecap="round"/>
<path d="M160.5 229.5L150.5 241.643L160.5 253.786" stroke="white" stroke-width="5" stroke-linecap="round"/>
<path d="M185.359 218.414L168.258 265.399" stroke="white" stroke-width="5" stroke-linecap="round"/>
<path d="M203 119C203 115.686 205.686 113 209 113H418.619C421.933 113 424.619 115.686 424.619 119V250.55C424.619 253.864 421.933 256.55 418.619 256.55H209C205.686 256.55 203 253.864 203 250.55V119Z" fill="#121939"/>
<rect x="208" y="117" width="221.619" height="134.555" rx="6" fill="white"/>
<path d="M213.266 135.465H424.332V246.275H213.266V135.465Z" fill="#121939"/>
<rect opacity="0.1" x="221.188" y="153.939" width="196.555" height="39.5749" rx="2" fill="white"/>
<rect opacity="0.1" x="221.188" y="198.789" width="62.0007" height="39.5749" rx="2" fill="white"/>
<rect opacity="0.1" x="288.477" y="198.789" width="62.0007" height="39.5749" rx="2" fill="white"/>
<rect opacity="0.1" x="355.742" y="198.789" width="62.0007" height="39.5749" rx="2" fill="white"/>
<ellipse cx="218.537" cy="126.232" rx="2.63833" ry="2.63833" fill="#141B40"/>
<ellipse cx="227.763" cy="126.232" rx="2.63833" ry="2.63833" fill="#141B40"/>
<ellipse cx="237.013" cy="126.232" rx="2.63833" ry="2.63833" fill="#141B40"/>
<rect x="384.766" y="186.916" width="71.2348" height="106.852" rx="5" fill="#121734"/>
<rect x="390" y="192" width="60.6815" height="96.2989" rx="5" fill="white"/>
<path d="M395 199C395 197.895 395.895 197 397 197H444C445.105 197 446 197.895 446 199V281C446 282.105 445.105 283 444 283H397C395.895 283 395 282.105 395 281V199Z" fill="#121735"/>
<rect x="413.785" y="201.432" width="13.1916" height="3.95749" rx="1.97875" fill="white"/>
<rect opacity="0.1" x="221.188" y="140.748" width="196.555" height="7.91498" rx="2" fill="white"/>
<rect x="400" y="208.025" width="41" height="14.5108" rx="2" fill="white"/>
<rect x="400" y="225.494" width="41" height="29.0216" rx="2" fill="white"/>
<path d="M400 260C400 258.895 400.895 258 402 258H439C440.105 258 441 258.895 441 260V283H400V260Z" fill="white"/>
<path d="M401.844 48.8477L498.01 145.014" stroke="white" stroke-width="5"/>
<path d="M462.65 195.89C467.939 184.354 470.888 171.523 470.888 158.002C470.888 107.744 430.146 67.002 379.888 67.002C366.367 67.002 353.535 69.9506 342 75.24" stroke="white" stroke-width="5"/>
<circle cx="343" cy="75.002" r="5.5" fill="#121838" stroke="white" stroke-width="5"/>
<circle cx="463" cy="193.002" r="5.5" fill="#121835" stroke="white" stroke-width="5"/>
<circle cx="450" cy="99.002" r="5.5" fill="#121835" stroke="white" stroke-width="5"/>
<rect x="489.536" y="143.002" width="9" height="9" transform="rotate(-45 489.536 143.002)" fill="#121835" stroke="white" stroke-width="5"/>
<rect x="391.844" y="45.502" width="9" height="9" transform="rotate(-45 391.844 45.502)" fill="#121835" stroke="white" stroke-width="5"/>
<mask id="path-36-inside-1_1821_10022" fill="white">
<path fill-rule="evenodd" clip-rule="evenodd" d="M496.054 154.01C496.054 154.01 496.054 154.011 496.054 154.011L516.396 195.511C516.806 196.348 516.583 197.358 515.858 197.945L506.76 205.312C506.291 205.691 506.018 206.263 506.018 206.866V211.795C506.018 212.899 505.123 213.795 504.018 213.795H496.054H496.047H488.083C486.978 213.795 486.083 212.899 486.083 211.795V206.866C486.083 206.263 485.81 205.691 485.341 205.312L476.243 197.945C475.518 197.358 475.295 196.348 475.705 195.511L496.046 154.011C496.047 154.011 496.047 154.01 496.047 154.01V154.001C496.047 154 496.049 153.999 496.049 154.001C496.05 154.002 496.051 154.002 496.052 154.001C496.052 153.999 496.054 154 496.054 154.001V154.01Z"/>
</mask>
<path d="M496.046 154.011L499.638 155.772L496.046 154.011ZM476.243 197.945L473.726 201.054L476.243 197.945ZM475.705 195.511L472.113 193.75L475.705 195.511ZM485.341 205.312L482.824 208.421L485.341 205.312ZM506.76 205.312L504.243 202.203L506.76 205.312ZM496.054 154.011L499.646 152.251L496.054 154.011ZM516.396 195.511L519.987 193.75L516.396 195.511ZM515.858 197.945L518.375 201.054L515.858 197.945ZM519.987 193.75L499.646 152.251L492.463 155.772L512.804 197.271L519.987 193.75ZM509.277 208.421L518.375 201.054L513.341 194.837L504.243 202.203L509.277 208.421ZM510.018 211.795V206.866H502.018V211.795H510.018ZM496.054 217.795H504.018V209.795H496.054V217.795ZM496.047 217.795H496.054V209.795H496.047V217.795ZM496.047 209.795H488.083V217.795H496.047V209.795ZM490.083 211.795V206.866H482.083V211.795H490.083ZM487.858 202.203L478.76 194.837L473.726 201.054L482.824 208.421L487.858 202.203ZM479.297 197.271L499.638 155.772L492.455 152.251L472.113 193.75L479.297 197.271ZM492.047 154.001V154.01H500.047V154.001H492.047ZM492.054 154.001V154.01H500.054V154.001H492.054ZM500.047 154.001C500.047 158.238 494.322 159.566 492.457 155.761L499.641 152.241C497.776 148.433 492.047 149.762 492.047 154.001H500.047ZM499.638 155.772C499.908 155.222 500.047 154.619 500.047 154.01H492.047C492.047 153.402 492.185 152.8 492.455 152.251L499.638 155.772ZM478.76 194.837C479.485 195.423 479.708 196.434 479.297 197.271L472.113 193.75C470.882 196.263 471.551 199.293 473.726 201.054L478.76 194.837ZM490.083 206.866C490.083 205.056 489.265 203.342 487.858 202.203L482.824 208.421C482.355 208.041 482.083 207.47 482.083 206.866H490.083ZM502.018 211.795C502.018 210.69 502.913 209.795 504.018 209.795V217.795C507.332 217.795 510.018 215.108 510.018 211.795H502.018ZM504.243 202.203C502.836 203.342 502.018 205.056 502.018 206.866H510.018C510.018 207.47 509.746 208.041 509.277 208.421L504.243 202.203ZM488.083 209.795C489.187 209.795 490.083 210.69 490.083 211.795H482.083C482.083 215.108 484.769 217.795 488.083 217.795V209.795ZM499.643 155.762C497.782 159.559 492.054 158.246 492.054 154.001H500.054C500.054 149.754 494.323 148.44 492.46 152.24L499.643 155.762ZM499.646 152.251C499.916 152.801 500.054 153.402 500.054 154.01H492.054C492.054 154.618 492.193 155.221 492.463 155.772L499.646 152.251ZM492.457 155.761C493.922 158.75 498.18 158.747 499.643 155.762L492.46 152.24C493.923 149.257 498.177 149.254 499.641 152.241L492.457 155.761ZM512.804 197.271C512.393 196.434 512.616 195.423 513.341 194.837L518.375 201.054C520.55 199.293 521.219 196.263 519.987 193.75L512.804 197.271Z" fill="white" mask="url(#path-36-inside-1_1821_10022)"/>
<rect x="493.84" y="162.693" width="4.4317" height="27.1814" fill="white"/>
<ellipse cx="496.053" cy="192.05" rx="4.4317" ry="4.34902" fill="white"/>
<rect x="486.051" y="216" width="20" height="4" rx="2" fill="black"/>
</svg>
