<svg width="106" height="101" viewBox="0 0 106 101" fill="none" xmlns="http://www.w3.org/2000/svg">
<g id="interview">
<g id="Group 2">
<path id="Union" fill-rule="evenodd" clip-rule="evenodd" d="M35.5 0C32.1863 0 29.5 2.68629 29.5 6V50.5435C29.5 53.8572 32.1863 56.5435 35.5 56.5435H84.9348L96.0217 67.6304V56.5435H100C103.314 56.5435 106 53.8572 106 50.5435V6C106 2.68629 103.314 0 100 0H35.5Z" fill="white"/>
<rect id="Rectangle 5" x="40.5869" y="9.97852" width="53.2174" height="4.43478" rx="2.21739" fill="#121212"/>
<rect id="Rectangle 6" x="40.5869" y="18.8477" width="53.2174" height="4.43478" rx="2.21739" fill="#121212"/>
<path id="Rectangle 7" d="M69.4131 27.7168H91.587C92.8116 27.7168 93.8044 28.7096 93.8044 29.9342C93.8044 31.1588 92.8116 32.1516 91.587 32.1516H69.4131V27.7168Z" fill="#121212"/>
</g>
<g id="Group 1">
<g id="Union_2">
<mask id="path-5-outside-1_2400_5191" maskUnits="userSpaceOnUse" x="0" y="19.2832" width="85" height="82" fill="black">
<rect fill="white" y="19.2832" width="85" height="82"/>
<path fill-rule="evenodd" clip-rule="evenodd" d="M10 23.2832C6.68629 23.2832 4 25.9695 4 29.2832V73.8267C4 77.1404 6.68629 79.8267 10 79.8267H13.9783V90.9136L25.0652 79.8267H74.5C77.8137 79.8267 80.5 77.1404 80.5 73.8267V29.2832C80.5 25.9695 77.8137 23.2832 74.5 23.2832H10Z"/>
</mask>
<path fill-rule="evenodd" clip-rule="evenodd" d="M10 23.2832C6.68629 23.2832 4 25.9695 4 29.2832V73.8267C4 77.1404 6.68629 79.8267 10 79.8267H13.9783V90.9136L25.0652 79.8267H74.5C77.8137 79.8267 80.5 77.1404 80.5 73.8267V29.2832C80.5 25.9695 77.8137 23.2832 74.5 23.2832H10Z" fill="white"/>
<path d="M13.9783 79.8267H17.9783V75.8267H13.9783V79.8267ZM13.9783 90.9136H9.97826V100.57L16.8067 93.7421L13.9783 90.9136ZM25.0652 79.8267V75.8267H23.4084L22.2368 76.9983L25.0652 79.8267ZM8 29.2832C8 28.1786 8.89543 27.2832 10 27.2832V19.2832C4.47715 19.2832 0 23.7604 0 29.2832H8ZM8 73.8267V29.2832H0V73.8267H8ZM10 75.8267C8.89543 75.8267 8 74.9312 8 73.8267H0C0 79.3495 4.47715 83.8267 10 83.8267V75.8267ZM13.9783 75.8267H10V83.8267H13.9783V75.8267ZM17.9783 90.9136V79.8267H9.97826V90.9136H17.9783ZM22.2368 76.9983L11.1498 88.0852L16.8067 93.7421L27.8936 82.6551L22.2368 76.9983ZM74.5 75.8267H25.0652V83.8267H74.5V75.8267ZM76.5 73.8267C76.5 74.9312 75.6046 75.8267 74.5 75.8267V83.8267C80.0228 83.8267 84.5 79.3495 84.5 73.8267H76.5ZM76.5 29.2832V73.8267H84.5V29.2832H76.5ZM74.5 27.2832C75.6046 27.2832 76.5 28.1786 76.5 29.2832H84.5C84.5 23.7604 80.0228 19.2832 74.5 19.2832V27.2832ZM10 27.2832H74.5V19.2832H10V27.2832Z" fill="#121212" mask="url(#path-5-outside-1_2400_5191)"/>
</g>
<path id="Union_3" fill-rule="evenodd" clip-rule="evenodd" d="M33.5019 43.5836C33.0765 44.7099 32.8512 45.9488 32.8262 47.3003H38.3449C38.3449 46.6246 38.42 45.9989 38.5702 45.4232C38.7203 44.8225 38.9456 44.3094 39.2459 43.884C39.5713 43.4335 39.9717 43.0831 40.4473 42.8328C40.9478 42.5575 41.536 42.4198 42.2118 42.4198C43.2129 42.4198 43.9888 42.6951 44.5394 43.2457C45.1151 43.7964 45.4029 44.6473 45.4029 45.7986C45.4279 46.4744 45.3028 47.0375 45.0275 47.488C44.7772 47.9385 44.4393 48.3515 44.0138 48.7269C43.5883 49.1024 43.1253 49.4778 42.6247 49.8532C42.1242 50.2286 41.6486 50.6791 41.1981 51.2047C40.7476 51.7053 40.3472 52.3185 39.9968 53.0443C39.6714 53.7701 39.4712 54.6712 39.3961 55.7474V57.4368H44.4643V56.0102C44.5644 55.2593 44.8022 54.6336 45.1776 54.133C45.5781 53.6325 46.0286 53.1945 46.5292 52.8191C47.0297 52.4186 47.5553 52.0307 48.1059 51.6552C48.6816 51.2548 49.1947 50.7793 49.6452 50.2286C50.1207 49.678 50.5086 49.0148 50.809 48.2389C51.1344 47.463 51.297 46.4744 51.297 45.273C51.297 44.5472 51.1344 43.7713 50.809 42.9454C50.5086 42.0944 49.9956 41.306 49.2698 40.5802C48.5439 39.8544 47.5803 39.2537 46.379 38.7782C45.2027 38.2776 43.726 38.0273 41.949 38.0273C40.5724 38.0273 39.321 38.2651 38.1947 38.7407C37.0935 39.1912 36.1424 39.8294 35.3415 40.6553C34.5656 41.4812 33.9524 42.4573 33.5019 43.5836ZM41.9043 65.4708C43.6321 65.4708 45.0328 64.0702 45.0328 62.3423C45.0328 60.6145 43.6321 59.2138 41.9043 59.2138C40.1764 59.2138 38.7757 60.6145 38.7757 62.3423C38.7757 64.0702 40.1764 65.4708 41.9043 65.4708Z" fill="#121212"/>
</g>
</g>
</svg>
