<svg width="109" height="109" viewBox="0 0 109 109" fill="none" xmlns="http://www.w3.org/2000/svg">
<rect width="109" height="109" fill="#0F1329"/>
<path d="M92 56.6667C92 58.9063 91.1103 61.0541 89.5267 62.6378C87.943 64.2214 85.7952 65.1111 83.5556 65.1111H32.8889L16 82V14.4444C16 12.2048 16.8897 10.057 18.4733 8.47332C20.057 6.88968 22.2048 6 24.4444 6H83.5556C85.7952 6 87.943 6.88968 89.5267 8.47332C91.1103 10.057 92 12.2048 92 14.4444V56.6667Z" fill="white"/>
<rect x="26" y="20" width="55" height="3" rx="1.5" fill="#0F1329"/>
<rect x="26" y="27" width="55" height="3" rx="1.5" fill="#0F1329"/>
<rect x="26" y="34" width="55" height="3" rx="1.5" fill="#0F1329"/>
<rect x="26" y="41" width="28" height="3" rx="1.5" fill="#0F1329"/>
</svg>
