<svg width="110" height="110" viewBox="0 0 110 110" fill="none" xmlns="http://www.w3.org/2000/svg">
<path d="M19 2L90.804 2C91.9086 2 92.804 2.89544 92.804 4L92.804 38.0863L94.804 39.2934L94.804 4C94.804 1.79086 93.0132 1.9515e-06 90.804 2.31469e-06L19 -1.5971e-08C16.7909 -3.23829e-07 15 1.79086 15 4L15 46.3379C15 48.5471 16.7909 50.3379 19 50.3379L72.9595 50.3379L72.9206 48.3379L19 48.3379C17.8954 48.3379 17 47.4425 17 46.3379L17 4C17 2.89543 17.8954 2 19 2Z" fill="#D9D9D9"/>
<mask id="path-2-outside-1_1765_7747" maskUnits="userSpaceOnUse" x="61.8211" y="21.6503" width="45.1147" height="49.141" fill="black">
<rect fill="white" x="61.8211" y="21.6503" width="45.1147" height="49.141"/>
<path fill-rule="evenodd" clip-rule="evenodd" d="M95.5512 44.829L76.8229 33.2625L77.4756 55.2649L83.1383 51.9955L88.0597 64.6484L98.3886 58.685L89.8916 48.0965L95.5512 44.829Z"/>
</mask>
<path d="M76.8229 33.2625L77.8738 31.5609L74.7137 29.6092L74.8238 33.3218L76.8229 33.2625ZM95.5512 44.829L96.5512 46.561L99.451 44.8868L96.6021 43.1273L95.5512 44.829ZM77.4756 55.2649L75.4765 55.3242L75.5758 58.6712L78.4756 56.9969L77.4756 55.2649ZM83.1383 51.9955L85.0023 51.2705L84.1572 49.0979L82.1383 50.2635L83.1383 51.9955ZM88.0597 64.6484L86.1958 65.3734L87.0408 67.5461L89.0597 66.3805L88.0597 64.6484ZM98.3886 58.685L99.3886 60.4171L101.408 59.2515L99.9485 57.4333L98.3886 58.685ZM89.8916 48.0965L88.8916 46.3645L86.8727 47.5301L88.3318 49.3483L89.8916 48.0965ZM75.772 34.9641L94.5003 46.5306L96.6021 43.1273L77.8738 31.5609L75.772 34.9641ZM79.4748 55.2056L78.822 33.2032L74.8238 33.3218L75.4765 55.3242L79.4748 55.2056ZM82.1383 50.2635L76.4756 53.5328L78.4756 56.9969L84.1383 53.7276L82.1383 50.2635ZM89.9237 63.9234L85.0023 51.2705L81.2744 52.7205L86.1958 65.3734L89.9237 63.9234ZM97.3886 56.953L87.0597 62.9164L89.0597 66.3805L99.3886 60.4171L97.3886 56.953ZM88.3318 49.3483L96.8288 59.9368L99.9485 57.4333L91.4515 46.8448L88.3318 49.3483ZM94.5512 43.0969L88.8916 46.3645L90.8916 49.8286L96.5512 46.561L94.5512 43.0969Z" fill="white" mask="url(#path-2-outside-1_1765_7747)"/>
<path d="M40.8228 34.3672H36.0998L42.2344 16.1854H48.0849L54.2195 34.3672H49.4965L45.2262 20.7663H45.0842L40.8228 34.3672ZM40.1925 27.2116H50.0646V30.5497H40.1925V27.2116ZM62.8976 34.3672H56.177V16.1854H62.8887C64.7412 16.1854 66.3362 16.5494 67.6738 17.2773C69.0174 17.9994 70.0531 19.0411 70.7811 20.4023C71.5091 21.7577 71.8731 23.3794 71.8731 25.2674C71.8731 27.1613 71.5091 28.7889 70.7811 30.1502C70.059 31.5115 69.0262 32.5561 67.6827 33.2841C66.3392 34.0062 64.7442 34.3672 62.8976 34.3672ZM60.5716 30.6207H62.7289C63.7469 30.6207 64.608 30.4491 65.3123 30.1058C66.0226 29.7566 66.5582 29.1914 66.9192 28.4102C67.2862 27.623 67.4697 26.5754 67.4697 25.2674C67.4697 23.9594 67.2862 22.9177 66.9192 22.1424C66.5523 21.3612 66.0107 20.7989 65.2946 20.4556C64.5844 20.1064 63.7084 19.9318 62.6667 19.9318H60.5716V30.6207Z" fill="white"/>
</svg>
