<svg width="110" height="110" viewBox="0 0 110 110" fill="none" xmlns="http://www.w3.org/2000/svg">
<path fill-rule="evenodd" clip-rule="evenodd" d="M74.9714 70H99C101.209 70 103 68.2091 103 66V44C103 41.7909 101.209 40 99 40H73.0998C73.764 40.6271 74.3892 41.2951 74.9714 42H99C100.105 42 101 42.8954 101 44V66C101 67.1046 100.105 68 99 68H76.4421C75.9891 68.6948 75.4978 69.3625 74.9714 70ZM41.0286 70C40.5022 69.3625 40.0109 68.6948 39.5579 68H11C9.89543 68 9 67.1046 9 66V44C9 42.8954 9.89543 42 11 42H41.0286C41.6108 41.2951 42.236 40.6271 42.9002 40H11C8.79086 40 7 41.7909 7 44V66C7 68.2091 8.79086 70 11 70H41.0286Z" fill="white"/>
<path d="M57.75 73.75C67.6911 73.75 75.75 65.6911 75.75 55.75C75.75 45.8089 67.6911 37.75 57.75 37.75C47.8089 37.75 39.75 45.8089 39.75 55.75C39.75 65.6911 47.8089 73.75 57.75 73.75Z" stroke="white" stroke-width="2" stroke-linecap="round" stroke-linejoin="round"/>
<path d="M80.2504 78.2504L70.4629 68.4629" stroke="white" stroke-width="2" stroke-linecap="round" stroke-linejoin="round"/>
<path d="M19 54C18.4477 54 18 54.4477 18 55C18 55.5523 18.4477 56 19 56H35C35.5523 56 36 55.5523 36 55C36 54.4477 35.5523 54 35 54H19Z" fill="white"/>
<path d="M43 54C42.4477 54 42 54.4477 42 55C42 55.5523 42.4477 56 43 56H57C57.5523 56 58 55.5523 58 55C58 54.4477 57.5523 54 57 54H43Z" fill="white"/>
</svg>
