<svg width="109" height="109" viewBox="0 0 109 109" fill="none" xmlns="http://www.w3.org/2000/svg">
<path fill-rule="evenodd" clip-rule="evenodd" d="M64.4188 36.1143C64.4102 34.8389 64.0807 33.5482 63.3974 32.3646C62.71 31.174 61.7496 30.2392 60.6409 29.5937L59.0933 30.4871C58.9087 30.5937 58.7365 30.7136 58.5773 30.8448C59.8351 31.2633 60.9504 32.1263 61.6654 33.3646C62.3761 34.5957 62.5677 35.984 62.3082 37.276C62.4964 37.2047 62.6813 37.1174 62.8613 37.0135L64.4188 36.1143ZM52.3354 32.2672L43.8021 37.1939C41.1164 38.7445 40.1961 42.1789 41.7468 44.8646C43.2974 47.5504 46.7317 48.4707 49.4175 46.92L57.9653 41.985C58.9374 42.3399 59.9692 42.5227 61.0104 42.5197C60.8804 42.6058 60.7469 42.6884 60.61 42.7675L50.4175 48.6521C46.7752 50.755 42.1177 49.507 40.0147 45.8646C37.9118 42.2223 39.1598 37.5648 42.8021 35.4618L52.9946 29.5772C53.1222 29.5035 53.2511 29.434 53.3811 29.3685C52.8635 30.2677 52.5105 31.2506 52.3354 32.2672Z" fill="white"/>
<rect x="52.367" y="30.8641" width="25" height="13.2308" rx="6.61538" transform="rotate(-30 52.367 30.8641)" stroke="white" stroke-width="2"/>
<circle cx="58" cy="35" r="32" stroke="white" stroke-width="2"/>
<circle cx="90" cy="35" r="3" fill="white"/>
<circle cx="26" cy="35" r="3" fill="white"/>
<circle cx="58" cy="3" r="3" transform="rotate(-90 58 3)" fill="white"/>
<circle cx="58" cy="67" r="3" transform="rotate(-90 58 67)" fill="white"/>
</svg>
