<?xml version="1.0" encoding="UTF-8"?><svg xmlns="http://www.w3.org/2000/svg" viewBox="0 0 304.83 63.34"><g id="a"/><g id="b"><g id="c"><g><path d="M0,33.18c0-2.6,.47-5.01,1.41-7.24,.94-2.22,2.24-4.15,3.9-5.79,1.66-1.64,3.6-2.93,5.82-3.87,2.22-.94,4.61-1.41,7.17-1.41s4.95,.48,7.17,1.45c2.22,.97,4.15,2.27,5.79,3.9,1.64,1.64,2.94,3.57,3.9,5.79,.96,2.22,1.45,4.61,1.45,7.17s-.48,4.95-1.45,7.17c-.97,2.22-2.27,4.15-3.9,5.79-1.64,1.64-3.57,2.94-5.79,3.9-2.22,.96-4.61,1.45-7.17,1.45-1.93,0-3.87-.39-5.82-1.18-1.95-.79-3.51-1.72-4.68-2.79v11.91c0,1.08-.38,2-1.14,2.76-.76,.76-1.68,1.14-2.76,1.14s-2-.38-2.76-1.14c-.76-.76-1.14-1.68-1.14-2.76v-26.25Zm7.81,0c0,1.44,.28,2.79,.84,4.07,.56,1.28,1.31,2.39,2.25,3.33,.94,.94,2.05,1.69,3.33,2.25,1.28,.56,2.64,.84,4.07,.84s2.79-.28,4.07-.84c1.28-.56,2.39-1.31,3.33-2.25s1.69-2.05,2.25-3.33c.56-1.28,.84-2.64,.84-4.07s-.28-2.79-.84-4.07c-.56-1.28-1.31-2.39-2.25-3.33s-2.05-1.69-3.33-2.25c-1.28-.56-2.64-.84-4.07-.84s-2.79,.28-4.07,.84c-1.28,.56-2.39,1.31-3.33,2.25-.94,.94-1.69,2.05-2.25,3.33-.56,1.28-.84,2.64-.84,4.07Z"/><path d="M39.65,33.12c0-2.56,.48-4.95,1.45-7.17,.96-2.22,2.28-4.15,3.94-5.79,1.66-1.64,3.6-2.94,5.82-3.9,2.22-.96,4.61-1.45,7.17-1.45s4.95,.48,7.17,1.45c2.22,.97,4.15,2.27,5.79,3.9s2.94,3.57,3.9,5.79,1.45,4.61,1.45,7.17v12.99c0,1.08-.38,2-1.14,2.76-.76,.76-1.68,1.14-2.76,1.14s-1.93-.31-2.56-.94c-.63-.63-1.01-1.19-1.14-1.68-3.23,2.69-6.8,4.04-10.7,4.04-2.78,0-5.31-.47-7.57-1.41-2.27-.94-4.2-2.24-5.79-3.9-1.59-1.66-2.83-3.6-3.7-5.82-.88-2.22-1.31-4.61-1.31-7.17Zm7.81,0c0,1.44,.28,2.79,.84,4.07,.56,1.28,1.32,2.39,2.26,3.33,.95,.94,2.06,1.69,3.34,2.25,1.28,.56,2.64,.84,4.09,.84s2.8-.26,4.09-.77c1.28-.52,2.4-1.25,3.34-2.19,.95-.94,1.7-2.05,2.26-3.33,.56-1.28,.84-2.68,.84-4.21,0-1.44-.28-2.79-.84-4.07-.56-1.28-1.32-2.39-2.26-3.33-.95-.94-2.06-1.69-3.34-2.25-1.28-.56-2.64-.84-4.09-.84s-2.8,.28-4.09,.84c-1.28,.56-2.4,1.31-3.34,2.25s-1.7,2.05-2.26,3.33c-.56,1.28-.84,2.64-.84,4.07Z"/><path d="M86.29,16.36c1.03,0,1.94,.38,2.73,1.14,.79,.76,1.18,1.68,1.18,2.76v.54c.58-.81,1.38-1.58,2.39-2.32s2.1-1.38,3.26-1.92c1.17-.54,2.33-.96,3.5-1.28,1.17-.31,2.22-.47,3.16-.47,1.17,0,2.15,.4,2.96,1.21,.81,.81,1.21,1.8,1.21,2.96s-.4,2.14-1.21,2.93c-.81,.79-1.8,1.18-2.96,1.18-1.57,0-3.09,.3-4.54,.91-1.46,.61-2.77,1.44-3.94,2.49-1.17,1.06-2.1,2.28-2.79,3.67-.7,1.39-1.04,2.87-1.04,4.44v11.51c0,1.08-.38,2-1.14,2.76-.76,.76-1.68,1.14-2.76,1.14s-2-.38-2.76-1.14c-.76-.76-1.14-1.68-1.14-2.76V20.26c0-1.08,.38-2,1.14-2.76,.76-.76,1.68-1.14,2.76-1.14Z"/><path d="M113.95,6.8c0-1.08,.38-2,1.14-2.76,.76-.76,1.68-1.14,2.76-1.14s2,.38,2.76,1.14c.76,.76,1.14,1.68,1.14,2.76v9.56h3.97c1.08,0,2,.38,2.76,1.14,.76,.76,1.14,1.68,1.14,2.76s-.38,2-1.14,2.76c-.76,.76-1.68,1.14-2.76,1.14h-3.97v21.88c0,1.12-.36,2.06-1.08,2.83-.72,.76-1.64,1.14-2.76,1.14s-2.07-.38-2.83-1.14c-.76-.76-1.14-1.71-1.14-2.83V24.16c-1.08,0-2-.38-2.76-1.14-.76-.76-1.14-1.68-1.14-2.76s.38-2,1.14-2.76c.76-.76,1.68-1.14,2.76-1.14V6.8Z"/><path d="M134.14,4.98c0-1.44,.47-2.62,1.41-3.57s2.09-1.41,3.43-1.41c1.44,0,2.62,.47,3.57,1.41,.94,.94,1.41,2.13,1.41,3.57,0,1.35-.47,2.49-1.41,3.43-.94,.94-2.13,1.41-3.57,1.41-1.35,0-2.49-.47-3.43-1.41-.94-.94-1.41-2.09-1.41-3.43Zm.88,15.35c0-1.12,.38-2.06,1.14-2.83,.76-.76,1.7-1.14,2.83-1.14s2.06,.38,2.83,1.14c.76,.76,1.14,1.71,1.14,2.83v25.71c0,1.12-.38,2.06-1.14,2.83-.76,.76-1.71,1.14-2.83,1.14s-2.07-.38-2.83-1.14c-.76-.76-1.14-1.71-1.14-2.83V20.33Z"/><path d="M156.49,33.12c0,1.44,.28,2.79,.84,4.07,.56,1.28,1.31,2.39,2.25,3.33s2.05,1.69,3.33,2.25c1.28,.56,2.64,.84,4.07,.84,3.45,0,6.1-1.08,7.94-3.23,.14-.18,.31-.4,.54-.67s.49-.54,.81-.81c.31-.27,.66-.49,1.04-.67,.38-.18,.77-.27,1.18-.27,1.03,0,1.93,.38,2.69,1.14,.76,.76,1.14,1.66,1.14,2.69,0,.49-.15,1.04-.44,1.65-.29,.61-.7,1.21-1.21,1.82-.52,.61-1.11,1.21-1.78,1.82-.67,.61-1.37,1.13-2.09,1.58-1.48,.94-3.05,1.64-4.71,2.09-1.66,.45-3.37,.67-5.12,.67-2.56,0-4.95-.48-7.17-1.45-2.22-.96-4.15-2.26-5.8-3.9-1.65-1.64-2.95-3.57-3.9-5.79s-1.43-4.61-1.43-7.17,.48-4.95,1.43-7.17,2.26-4.15,3.9-5.79c1.65-1.64,3.58-2.94,5.8-3.9,2.22-.96,4.61-1.45,7.17-1.45,1.66,0,3.33,.21,5.01,.64,1.68,.43,3.26,1.11,4.75,2.05,1.52,.94,2.8,2.03,3.84,3.26,1.03,1.24,1.55,2.32,1.55,3.26,0,1.08-.38,2-1.14,2.76-.76,.76-1.66,1.14-2.69,1.14-.72,0-1.38-.25-1.99-.74-.61-.49-1.2-1.03-1.78-1.61-.94-.99-2.02-1.73-3.23-2.22-1.21-.49-2.65-.74-4.31-.74-1.44,0-2.79,.28-4.07,.84-1.28,.56-2.39,1.31-3.33,2.25-.94,.94-1.69,2.05-2.25,3.33-.56,1.28-.84,2.64-.84,4.07Z"/><path d="M209.26,20.26c0-1.08,.38-2,1.14-2.76,.76-.76,1.68-1.14,2.76-1.14s2,.38,2.76,1.14c.76,.76,1.14,1.68,1.14,2.76v15.82c0,2.11-.4,4.08-1.21,5.92-.81,1.84-1.9,3.47-3.26,4.88-1.37,1.41-2.98,2.52-4.85,3.33s-3.85,1.21-5.96,1.21-4.08-.4-5.92-1.21c-1.84-.81-3.47-1.92-4.88-3.33-1.41-1.41-2.52-3.05-3.33-4.91s-1.21-3.85-1.21-5.96v-15.75c0-1.08,.38-2,1.14-2.76,.76-.76,1.68-1.14,2.76-1.14s2,.38,2.76,1.14c.76,.76,1.14,1.68,1.14,2.76v15.82c0,1.03,.2,2,.61,2.89s.94,1.68,1.62,2.36c.67,.67,1.47,1.2,2.39,1.58,.92,.38,1.9,.57,2.93,.57s1.94-.19,2.86-.57c.92-.38,1.72-.91,2.39-1.58,.67-.67,1.21-1.46,1.62-2.36s.61-1.86,.61-2.89v-15.82Z"/><path d="M224.8,6.87c0-1.12,.38-2.06,1.14-2.83,.76-.76,1.7-1.14,2.83-1.14s2.06,.38,2.83,1.14c.76,.76,1.14,1.71,1.14,2.83V46.04c0,1.12-.38,2.06-1.14,2.83s-1.71,1.14-2.83,1.14-2.07-.38-2.83-1.14c-.76-.76-1.14-1.71-1.14-2.83V6.87Z"/><path d="M237.8,33.12c0-2.56,.48-4.95,1.45-7.17,.96-2.22,2.28-4.15,3.94-5.79,1.66-1.64,3.6-2.94,5.82-3.9,2.22-.96,4.61-1.45,7.17-1.45s4.95,.48,7.17,1.45c2.22,.97,4.15,2.27,5.79,3.9,1.64,1.64,2.94,3.57,3.9,5.79,.96,2.22,1.45,4.61,1.45,7.17v12.99c0,1.08-.38,2-1.14,2.76-.76,.76-1.68,1.14-2.76,1.14s-1.93-.31-2.56-.94c-.63-.63-1.01-1.19-1.14-1.68-3.23,2.69-6.8,4.04-10.7,4.04-2.78,0-5.31-.47-7.57-1.41s-4.2-2.24-5.79-3.9c-1.59-1.66-2.83-3.6-3.7-5.82s-1.31-4.61-1.31-7.17Zm7.81,0c0,1.44,.28,2.79,.84,4.07s1.32,2.39,2.26,3.33c.94,.94,2.06,1.69,3.34,2.25,1.28,.56,2.65,.84,4.09,.84s2.8-.26,4.08-.77c1.28-.52,2.4-1.25,3.34-2.19,.94-.94,1.7-2.05,2.26-3.33,.56-1.28,.84-2.68,.84-4.21,0-1.44-.28-2.79-.84-4.07-.56-1.28-1.32-2.39-2.26-3.33-.95-.94-2.06-1.69-3.34-2.25-1.28-.56-2.64-.84-4.08-.84s-2.8,.28-4.09,.84c-1.28,.56-2.4,1.31-3.34,2.25-.95,.94-1.7,2.05-2.26,3.33s-.84,2.64-.84,4.07Z"/><path d="M284.44,16.36c1.03,0,1.94,.38,2.73,1.14,.79,.76,1.18,1.68,1.18,2.76v.54c.58-.81,1.38-1.58,2.39-2.32s2.1-1.38,3.26-1.92c1.17-.54,2.33-.96,3.5-1.28,1.17-.31,2.22-.47,3.16-.47,1.17,0,2.15,.4,2.96,1.21,.81,.81,1.21,1.8,1.21,2.96s-.4,2.14-1.21,2.93c-.81,.79-1.79,1.18-2.96,1.18-1.57,0-3.09,.3-4.54,.91-1.46,.61-2.77,1.44-3.94,2.49-1.17,1.06-2.1,2.28-2.79,3.67-.7,1.39-1.04,2.87-1.04,4.44v11.51c0,1.08-.38,2-1.14,2.76-.76,.76-1.68,1.14-2.76,1.14s-2-.38-2.76-1.14c-.76-.76-1.14-1.68-1.14-2.76V20.26c0-1.08,.38-2,1.14-2.76,.76-.76,1.68-1.14,2.76-1.14Z"/></g></g></g></svg>