<svg width="109" height="109" viewBox="0 0 109 109" fill="none" xmlns="http://www.w3.org/2000/svg">
<rect width="109" height="109" fill="#111631"/>
<path d="M75.9461 49.9995C75.9461 63.382 73.3715 75.3752 69.3196 83.9294C65.1773 92.6742 59.9459 96.9971 54.9999 96.9971C50.0539 96.9971 44.8226 92.6742 40.6803 83.9294C36.6283 75.3752 34.0537 63.382 34.0537 49.9995C34.0537 36.617 36.6283 24.6238 40.6803 16.0697C44.8226 7.32484 50.0539 3.00195 54.9999 3.00195C59.9459 3.00195 65.1773 7.32484 69.3196 16.0697C73.3715 24.6238 75.9461 36.617 75.9461 49.9995Z" stroke="white" stroke-width="5"/>
<path d="M64.3117 31.2362C76.2991 37.1855 85.8974 44.8234 91.7585 52.2557C97.7502 59.8538 99.2967 66.4615 97.0979 70.8919C94.8992 75.3223 88.7013 78.0865 79.0266 77.9093C69.5629 77.7361 57.6755 74.7106 45.6881 68.7613C33.7007 62.812 24.1024 55.1741 18.2413 47.7417C12.2496 40.1437 10.7031 33.5359 12.9019 29.1056C15.1006 24.6752 21.2985 21.911 30.9732 22.0881C40.4369 22.2614 52.3243 25.2868 64.3117 31.2362Z" stroke="white" stroke-width="5"/>
<path d="M45.6883 31.2362C33.7009 37.1855 24.1026 44.8234 18.2415 52.2557C12.2498 59.8538 10.7033 66.4615 12.9021 70.8919C15.1008 75.3223 21.2987 78.0865 30.9734 77.9093C40.4371 77.7361 52.3245 74.7106 64.3119 68.7613C76.2993 62.812 85.8976 55.1741 91.7587 47.7417C97.7504 40.1437 99.2969 33.5359 97.0981 29.1056C94.8994 24.6752 88.7015 21.911 79.0268 22.0881C69.5631 22.2614 57.6757 25.2868 45.6883 31.2362Z" stroke="white" stroke-width="5"/>
</svg>
