<svg width="110" height="110" viewBox="0 0 110 110" fill="none" xmlns="http://www.w3.org/2000/svg">
<path d="M96.9884 73C96.7318 61.958 92.2337 51.4225 84.4056 43.5944C76.3415 35.5303 65.4043 31 54 31C42.5957 31 31.6585 35.5303 23.5944 43.5944C15.7663 51.4225 11.2682 61.958 11.0116 73L20.1995 73C20.4539 64.3944 23.9835 56.1945 30.089 50.089C36.4306 43.7474 45.0317 40.1848 54 40.1848C62.9684 40.1848 71.5694 43.7474 77.911 50.089C84.0165 56.1945 87.5461 64.3944 87.8005 73H96.9884Z" stroke="white" stroke-width="2"/>
<path d="M50.5387 65.5774L73.4077 47.7904L56.1871 71.0888C54.7397 73.0471 51.8895 73.2596 50.1676 71.5378C48.4736 69.8437 48.6476 67.0482 50.5387 65.5774Z" stroke="white" stroke-width="2"/>
</svg>
