<svg width="109" height="109" viewBox="0 0 109 109" fill="none" xmlns="http://www.w3.org/2000/svg">
<path d="M27.8103 42.9496C18.5589 22.8921 33.2099 0 55.2981 0C76.9765 0 91.6278 22.1199 83.1704 42.0805L68.7369 76.1457C68.0505 77.7658 66.4616 78.8182 64.702 78.8182H47.1085C45.4297 78.8182 43.9042 77.8419 43.2011 76.3174L27.8103 42.9496Z" fill="white"/>
<path d="M46.5055 50.0768L52.6871 75.473C52.9053 76.3692 53.708 77 54.6304 77H57.3696C58.292 77 59.0947 76.3692 59.3129 75.473L65.4945 50.0768C65.6951 49.2526 64.843 48.5687 64.0817 48.9429L56.4411 52.6984C56.1629 52.8352 55.8371 52.8352 55.5589 52.6984L47.9183 48.9429C47.157 48.5687 46.3049 49.2526 46.5055 50.0768Z" fill="#121212"/>
<rect x="45" y="81.9082" width="22" height="3.09091" rx="1.54545" fill="white"/>
<rect x="47" y="88.0918" width="18" height="3.09091" rx="1.54545" fill="white"/>
<path d="M74.6626 39.4494C74.6629 39.4497 74.6632 39.4499 74.6634 39.4502C75.112 39.8988 75.6445 40.2548 76.2306 40.4977L76.9964 38.6502L76.2306 40.4977C76.8173 40.741 77.4462 40.8662 78.0814 40.8662C78.7166 40.8662 79.3456 40.741 79.9323 40.4977L79.1825 38.689L79.9323 40.4977C80.5187 40.2546 81.0515 39.8984 81.5003 39.4494C81.5005 39.4491 81.5008 39.4489 81.501 39.4486L81.5739 39.3757C81.6214 39.3309 81.681 39.3008 81.7453 39.2891C81.8117 39.2771 81.8801 39.2852 81.9418 39.3124C81.9804 39.3294 82.0194 39.3452 82.059 39.3598C82.1225 39.3831 82.1776 39.4251 82.217 39.4802C82.2539 39.5318 82.2755 39.5926 82.2793 39.6558V39.7493C82.2793 41.0312 82.7886 42.2606 83.695 43.167C84.6014 44.0735 85.8308 44.5827 87.1127 44.5827C88.3946 44.5827 89.6239 44.0735 90.5304 43.167C91.4368 42.2606 91.946 41.0312 91.946 39.7493V39.5144C91.9467 39.4493 91.9662 39.3858 92.0021 39.3315C92.0385 39.2766 92.09 39.2336 92.1505 39.2076L92.1702 39.1991C92.2319 39.1718 92.3003 39.1637 92.3667 39.1758C92.4311 39.1874 92.4906 39.2175 92.5381 39.2624L92.611 39.3353C93.0599 39.7847 93.593 40.1412 94.1797 40.3844C94.7665 40.6276 95.3954 40.7528 96.0306 40.7528C96.6658 40.7528 97.2947 40.6276 97.8815 40.3844C98.4679 40.1413 99.0007 39.7851 99.4494 39.3361C99.8984 38.8873 100.255 38.3546 100.498 37.7681L98.6502 37.0023L100.498 37.7681C100.741 37.1814 100.866 36.5524 100.866 35.9173C100.866 35.2821 100.741 34.6531 100.498 34.0664L98.6502 34.8323L100.498 34.0664C100.255 33.48 99.8984 32.9472 99.4494 32.4984C99.4491 32.4982 99.4489 32.4979 99.4486 32.4977L99.3757 32.4247C99.3309 32.3772 99.3008 32.3177 99.2891 32.2534C99.2771 32.187 99.2852 32.1186 99.3124 32.0569L99.321 32.0372L76.0768 34.026C75.8134 34.2892 75.6044 34.6016 75.4618 34.9456C75.3193 35.2896 75.2459 35.6583 75.2459 36.0306C75.2459 36.4029 75.3193 36.7716 75.4618 37.1156C75.6044 37.4596 75.8134 37.772 76.0768 38.0352L74.6618 39.4486C74.6621 39.4489 74.6624 39.4491 74.6626 39.4494ZM74.6626 39.4494C74.2136 39.0007 73.8574 38.4679 73.6143 37.8815C73.3711 37.2947 73.2459 36.6658 73.2459 36.0306C73.2459 35.3954 73.3711 34.7665 73.6143 34.1797C73.8575 33.593 74.214 33.0599 74.6634 32.611M74.6626 39.4494L74.6634 32.611M74.7363 32.5381L74.6634 32.611M74.7363 32.5381C74.7349 32.5396 74.7335 32.541 74.7321 32.5425L76.1618 33.941L74.7476 32.5268L74.7363 32.5381ZM74.7363 32.5381C74.7812 32.4906 74.8113 32.4311 74.8229 32.3667C74.835 32.3003 74.8269 32.2319 74.7996 32.1702L74.7911 32.1505C74.7651 32.09 74.7221 32.0385 74.6672 32.0021C74.6129 31.9662 74.5494 31.9467 74.4843 31.946H74.2493C72.9675 31.946 71.7381 31.4368 70.8317 30.5304C69.9252 29.6239 69.416 28.3946 69.416 27.1127C69.416 25.8308 69.9252 24.6014 70.8317 23.695C71.7381 22.7886 72.9675 22.2793 74.2493 22.2793H74.3429C74.4061 22.2755 74.4669 22.2539 74.5185 22.217C74.5736 22.1776 74.6156 22.1225 74.6389 22.059C74.6535 22.0194 74.6693 21.9804 74.6863 21.9418C74.7135 21.8801 74.7216 21.8117 74.7096 21.7453C74.6979 21.681 74.6678 21.6214 74.623 21.5739L74.5501 21.501C74.5498 21.5008 74.5496 21.5005 74.5493 21.5002C74.1003 21.0515 73.7441 20.5187 73.501 19.9323L75.3485 19.1664L73.501 19.9323C73.2577 19.3456 73.1325 18.7166 73.1325 18.0814C73.1325 17.4463 73.2577 16.8173 73.501 16.2306L75.3485 16.9964L73.501 16.2306C73.7441 15.6441 74.1003 15.1114 74.5493 14.6626C74.998 14.2136 75.5308 13.8574 76.1172 13.6143C76.704 13.3711 77.3329 13.2459 77.9681 13.2459C78.6033 13.2459 79.2322 13.3711 79.819 13.6143C80.4057 13.8575 80.9388 14.214 81.3877 14.6634L81.4606 14.7363C81.5081 14.7812 81.5676 14.8113 81.632 14.8229C81.6984 14.835 81.7668 14.8269 81.8285 14.7996C81.9095 14.7639 81.9926 14.7336 82.0773 14.709C82.0892 14.696 82.1001 14.682 82.1099 14.6672C82.1459 14.6129 82.1653 14.5495 82.166 14.4844V14.2493C82.166 12.9675 82.6752 11.7381 83.5817 10.8317C84.4881 9.92524 85.7175 9.41602 86.9993 9.41602C88.2812 9.41602 89.5106 9.92524 90.417 10.8317C91.3235 11.7381 91.8327 12.9675 91.8327 14.2493V14.371C91.8334 14.4361 91.8528 14.4996 91.8888 14.5539C91.9251 14.6088 91.9767 14.6518 92.0372 14.6777L92.0569 14.6863C92.1186 14.7135 92.187 14.7216 92.2534 14.7096C92.3177 14.6979 92.3773 14.6678 92.4248 14.623L92.4977 14.5501C92.9466 14.1007 93.4796 13.7442 94.0664 13.501C94.6531 13.2577 95.2821 13.1325 95.9173 13.1325C96.5524 13.1325 97.1814 13.2577 97.7681 13.501C98.3546 13.7441 98.8873 14.1003 99.3361 14.5493M74.6634 32.611L99.3353 21.3877M99.3361 14.5493C99.3363 14.5496 99.3366 14.5498 99.3368 14.5501C99.7855 14.9986 100.141 15.5311 100.384 16.1172C100.628 16.704 100.753 17.3329 100.753 17.9681C100.753 18.6033 100.628 19.2322 100.384 19.819C100.141 20.4057 99.7847 20.9388 99.3353 21.3877M99.3361 14.5493C99.3358 14.549 99.3355 14.5488 99.3353 14.5485L97.9218 15.9635L99.3361 14.5493ZM99.3353 21.3877L99.3361 21.3869L97.9218 19.9727L99.3353 21.3877ZM99.2624 21.4606C99.2638 21.4591 99.2652 21.4577 99.2666 21.4562L97.8368 20.0577L99.2511 21.4719L99.2624 21.4606ZM99.2897 22.0773C99.2546 22.0451 99.2266 22.0056 99.2076 21.9615L97.6338 22.636L97.3693 22.7493H98.908H99.3693V22.636C99.3693 22.4701 99.3487 22.3052 99.3082 22.1451C99.3024 22.1224 99.2963 22.0998 99.2897 22.0773ZM99.5143 22.166H99.5085V24.166L99.5165 22.166C99.5158 22.166 99.515 22.166 99.5143 22.166ZM99.6277 31.8327C99.6284 31.8327 99.6291 31.8327 99.6298 31.8327L99.6218 29.8327V31.8327H99.6277Z" fill="white" stroke="#121212" stroke-width="4" stroke-linecap="round" stroke-linejoin="round"/>
<path d="M87 31.25C89.3472 31.25 91.25 29.3472 91.25 27C91.25 24.6528 89.3472 22.75 87 22.75C84.6528 22.75 82.75 24.6528 82.75 27C82.75 29.3472 84.6528 31.25 87 31.25Z" stroke="#121212" stroke-width="2" stroke-linecap="round" stroke-linejoin="round"/>
</svg>
