<svg width="109" height="109" viewBox="0 0 109 109" fill="none" xmlns="http://www.w3.org/2000/svg">
<path d="M69.5 9H76.75C78.6728 9 80.5169 9.85456 81.8765 11.3757C83.2362 12.8968 84 14.9599 84 17.1111V73.8889C84 76.0401 83.2362 78.1032 81.8765 79.6243C80.5169 81.1454 78.6728 82 76.75 82H33.25C31.3272 82 29.4831 81.1454 28.1235 79.6243C26.7638 78.1032 26 76.0401 26 73.8889V17.1111C26 14.9599 26.7638 12.8968 28.1235 11.3757C29.4831 9.85456 31.3272 9 33.25 9H40.5" fill="white"/>
<path d="M66.7507 0.833984H43.2507C41.0875 0.833984 39.334 2.58754 39.334 4.75065V12.584C39.334 14.7471 41.0875 16.5007 43.2507 16.5007H66.7507C68.9138 16.5007 70.6673 14.7471 70.6673 12.584V4.75065C70.6673 2.58754 68.9138 0.833984 66.7507 0.833984Z" fill="#EEEEEE"/>
<rect x="34" y="25" width="42" height="3" rx="1.5" fill="#121212"/>
<rect x="34" y="31" width="42" height="3" rx="1.5" fill="#121212"/>
<rect x="34" y="37" width="42" height="3" rx="1.5" fill="#121212"/>
<rect x="34" y="43" width="21" height="3" rx="1.5" fill="#121212"/>
</svg>
