<svg width="110" height="120" viewBox="0 0 110 120" fill="none" xmlns="http://www.w3.org/2000/svg">
<mask id="path-1-inside-1_1800_8108" fill="white">
<path d="M69.5 20H76.75C78.6728 20 80.5169 20.8546 81.8765 22.3757C83.2362 23.8968 84 25.9599 84 28.1111V84.8889C84 87.0401 83.2362 89.1032 81.8765 90.6243C80.5169 92.1454 78.6728 93 76.75 93H33.25C31.3272 93 29.4831 92.1454 28.1235 90.6243C26.7638 89.1032 26 87.0401 26 84.8889V28.1111C26 25.9599 26.7638 23.8968 28.1235 22.3757C29.4831 20.8546 31.3272 20 33.25 20H40.5"/>
</mask>
<path d="M69.5 18C68.3954 18 67.5 18.8954 67.5 20C67.5 21.1046 68.3954 22 69.5 22V18ZM76.75 20V18V20ZM26 84.8889H24H26ZM33.25 20V18V20ZM40.5 22C41.6046 22 42.5 21.1046 42.5 20C42.5 18.8954 41.6046 18 40.5 18V22ZM69.5 22H76.75V18H69.5V22ZM76.75 22C78.0653 22 79.379 22.5826 80.3854 23.7085L83.3677 21.0428C81.6548 19.1265 79.2803 18 76.75 18V22ZM80.3854 23.7085C81.3983 24.8418 82 26.4224 82 28.1111H86C86 25.4974 85.074 22.9518 83.3677 21.0428L80.3854 23.7085ZM82 28.1111V84.8889H86V28.1111H82ZM82 84.8889C82 86.5776 81.3983 88.1582 80.3854 89.2915L83.3677 91.9571C85.074 90.0482 86 87.5026 86 84.8889H82ZM80.3854 89.2915C79.379 90.4174 78.0653 91 76.75 91V95C79.2803 95 81.6548 93.8735 83.3677 91.9571L80.3854 89.2915ZM76.75 91H33.25V95H76.75V91ZM33.25 91C31.9347 91 30.621 90.4174 29.6146 89.2915L26.6323 91.9571C28.3452 93.8735 30.7197 95 33.25 95V91ZM29.6146 89.2915C28.6017 88.1582 28 86.5776 28 84.8889H24C24 87.5026 24.926 90.0482 26.6323 91.9571L29.6146 89.2915ZM28 84.8889V28.1111H24V84.8889H28ZM28 28.1111C28 26.4224 28.6017 24.8418 29.6146 23.7085L26.6323 21.0428C24.926 22.9518 24 25.4974 24 28.1111H28ZM29.6146 23.7085C30.621 22.5826 31.9347 22 33.25 22V18C30.7197 18 28.3452 19.1265 26.6323 21.0428L29.6146 23.7085ZM33.25 22H40.5V18H33.25V22Z" fill="white" mask="url(#path-1-inside-1_1800_8108)"/>
<path d="M44.5 13H65.5C66.8168 13 68 14.1651 68 15.75V23.25C68 24.8349 66.8168 26 65.5 26H44.5C43.1832 26 42 24.8349 42 23.25V15.75C42 14.1651 43.1832 13 44.5 13Z" stroke="white" stroke-width="2" stroke-linecap="round" stroke-linejoin="round"/>
<rect x="34" y="34" width="42" height="3" rx="1.5" fill="white"/>
<rect x="34" y="40" width="42" height="3" rx="1.5" fill="white"/>
<rect x="34" y="46" width="42" height="3" rx="1.5" fill="white"/>
<rect x="34" y="52" width="21" height="3" rx="1.5" fill="white"/>
</svg>
