<svg width="109" height="109" viewBox="0 0 109 109" fill="none" xmlns="http://www.w3.org/2000/svg">
<rect width="109" height="109" fill="#121212"/>
<path d="M69.5 9H76.75C78.6728 9 80.5169 9.85456 81.8765 11.3757C83.2362 12.8968 84 14.9599 84 17.1111V73.8889C84 76.0401 83.2362 78.1032 81.8765 79.6243C80.5169 81.1454 78.6728 82 76.75 82H33.25C31.3272 82 29.4831 81.1454 28.1235 79.6243C26.7638 78.1032 26 76.0401 26 73.8889V17.1111C26 14.9599 26.7638 12.8968 28.1235 11.3757C29.4831 9.85456 31.3272 9 33.25 9H40.5" fill="white"/>
<path d="M66.7502 0.833344H43.2502C41.087 0.833344 39.3335 2.58689 39.3335 4.75001V12.5833C39.3335 14.7465 41.087 16.5 43.2502 16.5H66.7502C68.9133 16.5 70.6668 14.7465 70.6668 12.5833V4.75001C70.6668 2.58689 68.9133 0.833344 66.7502 0.833344Z" fill="#EEEEEE"/>
<rect x="34" y="25" width="42" height="3" rx="1.5" fill="#121212"/>
<rect x="34" y="31" width="42" height="3" rx="1.5" fill="#121212"/>
<rect x="34" y="37" width="42" height="3" rx="1.5" fill="#121212"/>
<rect x="34" y="43" width="21" height="3" rx="1.5" fill="#121212"/>
</svg>
