<svg width="109" height="114" viewBox="0 0 109 114" fill="none" xmlns="http://www.w3.org/2000/svg">
<path fill-rule="evenodd" clip-rule="evenodd" d="M35.5 13C32.1863 13 29.5 15.6863 29.5 19V63.5435C29.5 66.8572 32.1863 69.5435 35.5 69.5435H84.9348L96.0217 80.6304V69.5435H100C103.314 69.5435 106 66.8572 106 63.5435V19C106 15.6863 103.314 13 100 13H35.5Z" fill="white"/>
<rect x="40.5869" y="22.9785" width="53.2174" height="4.43478" rx="2.21739" fill="#121212"/>
<rect x="40.5869" y="31.8477" width="53.2174" height="4.43478" rx="2.21739" fill="#121212"/>
<path d="M69.4131 40.7168H91.587C92.8116 40.7168 93.8044 41.7096 93.8044 42.9342C93.8044 44.1588 92.8116 45.1516 91.587 45.1516H69.4131V40.7168Z" fill="#121212"/>
<mask id="path-5-outside-1_2665_8126" maskUnits="userSpaceOnUse" x="0" y="32.2832" width="85" height="82" fill="black">
<rect fill="white" y="32.2832" width="85" height="82"/>
<path fill-rule="evenodd" clip-rule="evenodd" d="M10 36.2832C6.68629 36.2832 4 38.9695 4 42.2832V86.8267C4 90.1404 6.68629 92.8267 10 92.8267H13.9783V103.914L25.0652 92.8267H74.5C77.8137 92.8267 80.5 90.1404 80.5 86.8267V42.2832C80.5 38.9695 77.8137 36.2832 74.5 36.2832H10Z"/>
</mask>
<path fill-rule="evenodd" clip-rule="evenodd" d="M10 36.2832C6.68629 36.2832 4 38.9695 4 42.2832V86.8267C4 90.1404 6.68629 92.8267 10 92.8267H13.9783V103.914L25.0652 92.8267H74.5C77.8137 92.8267 80.5 90.1404 80.5 86.8267V42.2832C80.5 38.9695 77.8137 36.2832 74.5 36.2832H10Z" fill="white"/>
<path d="M13.9783 92.8267H17.9783V88.8267H13.9783V92.8267ZM13.9783 103.914H9.97826V113.57L16.8067 106.742L13.9783 103.914ZM25.0652 92.8267V88.8267H23.4084L22.2368 89.9983L25.0652 92.8267ZM8 42.2832C8 41.1786 8.89543 40.2832 10 40.2832V32.2832C4.47715 32.2832 0 36.7604 0 42.2832H8ZM8 86.8267V42.2832H0V86.8267H8ZM10 88.8267C8.89543 88.8267 8 87.9312 8 86.8267H0C0 92.3495 4.47715 96.8267 10 96.8267V88.8267ZM13.9783 88.8267H10V96.8267H13.9783V88.8267ZM17.9783 103.914V92.8267H9.97826V103.914H17.9783ZM22.2368 89.9983L11.1498 101.085L16.8067 106.742L27.8936 95.6551L22.2368 89.9983ZM74.5 88.8267H25.0652V96.8267H74.5V88.8267ZM76.5 86.8267C76.5 87.9312 75.6046 88.8267 74.5 88.8267V96.8267C80.0228 96.8267 84.5 92.3495 84.5 86.8267H76.5ZM76.5 42.2832V86.8267H84.5V42.2832H76.5ZM74.5 40.2832C75.6046 40.2832 76.5 41.1786 76.5 42.2832H84.5C84.5 36.7604 80.0228 32.2832 74.5 32.2832V40.2832ZM10 40.2832H74.5V32.2832H10V40.2832Z" fill="#121212" mask="url(#path-5-outside-1_2665_8126)"/>
<path fill-rule="evenodd" clip-rule="evenodd" d="M33.5019 56.5836C33.0765 57.7099 32.8512 58.9488 32.8262 60.3003H38.3449C38.3449 59.6246 38.42 58.9989 38.5702 58.4232C38.7203 57.8225 38.9456 57.3094 39.2459 56.884C39.5713 56.4335 39.9717 56.0831 40.4473 55.8328C40.9478 55.5575 41.536 55.4198 42.2118 55.4198C43.2129 55.4198 43.9888 55.6951 44.5394 56.2457C45.1151 56.7964 45.4029 57.6473 45.4029 58.7986C45.4279 59.4744 45.3028 60.0375 45.0275 60.488C44.7772 60.9385 44.4393 61.3515 44.0138 61.7269C43.5883 62.1024 43.1253 62.4778 42.6247 62.8532C42.1242 63.2286 41.6486 63.6791 41.1981 64.2047C40.7476 64.7053 40.3472 65.3185 39.9968 66.0443C39.6714 66.7701 39.4712 67.6712 39.3961 68.7474V70.4368H44.4643V69.0102C44.5644 68.2593 44.8022 67.6336 45.1776 67.133C45.5781 66.6325 46.0286 66.1945 46.5292 65.8191C47.0297 65.4186 47.5553 65.0307 48.1059 64.6552C48.6816 64.2548 49.1947 63.7793 49.6452 63.2286C50.1207 62.678 50.5086 62.0148 50.809 61.2389C51.1344 60.463 51.297 59.4744 51.297 58.273C51.297 57.5472 51.1344 56.7713 50.809 55.9454C50.5086 55.0944 49.9956 54.306 49.2698 53.5802C48.5439 52.8544 47.5803 52.2537 46.379 51.7782C45.2027 51.2776 43.726 51.0273 41.949 51.0273C40.5724 51.0273 39.321 51.2651 38.1947 51.7407C37.0935 52.1912 36.1424 52.8294 35.3415 53.6553C34.5656 54.4812 33.9524 55.4573 33.5019 56.5836ZM41.9043 78.4708C43.6321 78.4708 45.0328 77.0702 45.0328 75.3423C45.0328 73.6145 43.6321 72.2138 41.9043 72.2138C40.1764 72.2138 38.7757 73.6145 38.7757 75.3423C38.7757 77.0702 40.1764 78.4708 41.9043 78.4708Z" fill="#121212"/>
</svg>
