<svg width="109" height="109" viewBox="0 0 109 109" fill="none" xmlns="http://www.w3.org/2000/svg">
<rect x="6" y="27" width="34.71" height="34.71" rx="3" fill="white" stroke="#232323" stroke-width="2"/>
<path d="M33.0431 44.089C33.0431 48.9327 29.4884 52.9561 24.84 53.6593V46.9015H27.1056L27.5353 44.089H24.84V42.2921C24.84 41.5108 25.2306 40.7686 26.4416 40.7686H27.6525V38.3858C27.6525 38.3858 26.5588 38.1905 25.465 38.1905C23.2775 38.1905 21.8322 39.5577 21.8322 41.9796V44.089H19.3713V46.9015H21.8322V53.6593C17.1838 52.9561 13.6681 48.9327 13.6681 44.089C13.6681 38.7374 18.0041 34.4015 23.3556 34.4015C28.7072 34.4015 33.0431 38.7374 33.0431 44.089Z" fill="#232323"/>
<rect x="52" y="27" width="34.7107" height="34.7107" rx="3" fill="white" stroke="#232323" stroke-width="2"/>
<path d="M69.3548 39.7127C71.6926 39.7127 73.6223 41.6424 73.6223 43.9803C73.6223 46.3553 71.6926 48.2479 69.3548 48.2479C66.9798 48.2479 65.0872 46.3553 65.0872 43.9803C65.0872 41.6424 66.9798 39.7127 69.3548 39.7127ZM69.3548 46.7635C70.8762 46.7635 72.1008 45.5389 72.1008 43.9803C72.1008 42.4588 70.8762 41.2342 69.3548 41.2342C67.7962 41.2342 66.5716 42.4588 66.5716 43.9803C66.5716 45.5389 67.8333 46.7635 69.3548 46.7635ZM74.7727 39.5643C74.7727 40.1209 74.3274 40.5662 73.7708 40.5662C73.2141 40.5662 72.7688 40.1209 72.7688 39.5643C72.7688 39.0076 73.2141 38.5623 73.7708 38.5623C74.3274 38.5623 74.7727 39.0076 74.7727 39.5643ZM77.593 40.5662C77.6673 41.9393 77.6673 46.0584 77.593 47.4315C77.5188 48.7674 77.2219 49.9178 76.2571 50.9198C75.2923 51.8846 74.1048 52.1815 72.7688 52.2557C71.3958 52.3299 67.2766 52.3299 65.9036 52.2557C64.5676 52.1815 63.4173 51.8846 62.4153 50.9198C61.4505 49.9178 61.1536 48.7674 61.0794 47.4315C61.0051 46.0584 61.0051 41.9393 61.0794 40.5662C61.1536 39.2303 61.4505 38.0428 62.4153 37.078C63.4173 36.1131 64.5676 35.8162 65.9036 35.742C67.2766 35.6678 71.3958 35.6678 72.7688 35.742C74.1048 35.8162 75.2923 36.1131 76.2571 37.078C77.2219 38.0428 77.5188 39.2303 77.593 40.5662ZM75.8118 48.8787C76.2571 47.8026 76.1458 45.2049 76.1458 43.9803C76.1458 42.7928 76.2571 40.1951 75.8118 39.0819C75.5149 38.3768 74.9583 37.783 74.2532 37.5233C73.1399 37.078 70.5423 37.1893 69.3548 37.1893C68.1301 37.1893 65.5325 37.078 64.4563 37.5233C63.7141 37.8201 63.1575 38.3768 62.8606 39.0819C62.4153 40.1951 62.5266 42.7928 62.5266 43.9803C62.5266 45.2049 62.4153 47.8026 62.8606 48.8787C63.1575 49.6209 63.7141 50.1776 64.4563 50.4744C65.5325 50.9198 68.1301 50.8084 69.3548 50.8084C70.5423 50.8084 73.1399 50.9198 74.2532 50.4744C74.9583 50.1776 75.552 49.6209 75.8118 48.8787Z" fill="#232323"/>
<rect x="51.9214" y="70.5528" width="34.17" height="34.17" rx="3" fill="white" stroke="#232323" stroke-width="2"/>
<path d="M78.0403 83.6445C78.4622 85.1211 78.4622 88.2852 78.4622 88.2852C78.4622 88.2852 78.4622 91.4141 78.0403 92.9258C77.8294 93.7695 77.1614 94.4023 76.3528 94.6133C74.8411 95 68.8645 95 68.8645 95C68.8645 95 62.8528 95 61.3411 94.6133C60.5325 94.4023 59.8645 93.7695 59.6536 92.9258C59.2317 91.4141 59.2317 88.2852 59.2317 88.2852C59.2317 88.2852 59.2317 85.1211 59.6536 83.6445C59.8645 82.8008 60.5325 82.1328 61.3411 81.9219C62.8528 81.5 68.8645 81.5 68.8645 81.5C68.8645 81.5 74.8411 81.5 76.3528 81.9219C77.1614 82.1328 77.8294 82.8008 78.0403 83.6445ZM66.8958 91.1328L71.888 88.2852L66.8958 85.4375V91.1328Z" fill="#232323"/>
<rect x="6" y="70" width="34.7107" height="34.7107" rx="3" fill="white" stroke="black" stroke-width="2"/>
<path d="M28.6234 79.0658H31.4175L25.3148 86.0393L32.494 95.5298H26.8741L22.4692 89.7753L17.435 95.5298H14.637L21.1632 88.0696L14.2808 79.0658H20.0431L24.0206 84.3256L28.6234 79.0658ZM27.6419 93.8596H29.1893L19.2002 80.6489H17.5379L27.6419 93.8596Z" fill="#232323"/>
</svg>
