<svg width="62" height="98" viewBox="0 0 62 98" fill="none" xmlns="http://www.w3.org/2000/svg">
<g id="icon-pentool">
<path id="Union" fill-rule="evenodd" clip-rule="evenodd" d="M30.7938 0.0142508C30.7938 0.0149835 30.7939 0.0157054 30.7943 0.0163633L61.0874 61.8194C61.498 62.657 61.275 63.6672 60.55 64.2541L46.2117 75.8626C45.7426 76.2423 45.4701 76.8135 45.4701 77.417V86.0735C45.4701 87.178 44.5747 88.0735 43.4701 88.0735H30.7938H30.7831H18.1067C17.0021 88.0735 16.1067 87.178 16.1067 86.0735L16.1067 77.417C16.1067 76.8135 15.8342 76.2423 15.3652 75.8626L1.0268 64.2541C0.301834 63.6672 0.0788662 62.657 0.489411 61.8194L30.7826 0.0163633C30.7829 0.0157056 30.7831 0.0149836 30.7831 0.0142512V0.00179341C30.7831 -0.000232756 30.7858 -0.000867543 30.7867 0.000951884C30.7874 0.00237944 30.7894 0.00237926 30.7901 0.000951806C30.791 -0.000867887 30.7938 -0.000233465 30.7938 0.00179314V0.0142508Z" fill="white"/>
<g id="Mask group">
<mask id="mask0_2401_5974" style="mask-type:alpha" maskUnits="userSpaceOnUse" x="0" y="-1" width="62" height="90">
<path id="Union_2" fill-rule="evenodd" clip-rule="evenodd" d="M30.7938 0.0142508C30.7938 0.0149835 30.7939 0.0157054 30.7943 0.0163633L61.0874 61.8194C61.498 62.657 61.275 63.6672 60.55 64.2541L46.2117 75.8626C45.7426 76.2423 45.4701 76.8135 45.4701 77.417V86.0735C45.4701 87.178 44.5747 88.0735 43.4701 88.0735H30.7938H30.7831H18.1067C17.0021 88.0735 16.1067 87.178 16.1067 86.0735L16.1067 77.417C16.1067 76.8135 15.8342 76.2423 15.3652 75.8626L1.0268 64.2541C0.301834 63.6672 0.0788662 62.657 0.489411 61.8194L30.7826 0.0163633C30.7829 0.0157056 30.7831 0.0149836 30.7831 0.0142512V0.00179341C30.7831 -0.000232756 30.7858 -0.000867543 30.7867 0.000951884C30.7874 0.00237944 30.7894 0.00237926 30.7901 0.000951806C30.791 -0.000867887 30.7938 -0.000233465 30.7938 0.00179314V0.0142508Z" fill="#232323"/>
</mask>
<g mask="url(#mask0_2401_5974)">
<rect id="Rectangle 184" x="28.77" y="-1.47302" width="3.89" height="54.4985" fill="#121212"/>
</g>
</g>
<ellipse id="Ellipse 57" cx="30.7942" cy="55.0656" rx="5.53" ry="5.42684" fill="#121212"/>
<rect id="Rectangle 185" x="16.0596" y="91.321" width="29.4586" height="5.89172" rx="2.94586" fill="white"/>
</g>
</svg>
