<svg width="109" height="109" viewBox="0 0 109 109" fill="none" xmlns="http://www.w3.org/2000/svg">
<rect width="109" height="109" fill="#0F1227"/>
<path d="M84 22H94V68L89 76L84 68V22Z" fill="white"/>
<path d="M84 14C84 12.8954 84.8954 12 86 12H92C93.1046 12 94 12.8954 94 14V20H84V14Z" fill="white"/>
<path d="M18 21.4981C18 21.4981 21.2933 16.5191 25.424 16.4353C29.6991 16.3486 29.9682 21.3414 34.24 21.4981C38.8083 21.6656 39.4994 15.7363 43.984 16.4353C47.502 16.9836 47.139 20.4792 50.48 21.4981C56.374 23.2956 57.1094 13.907 62.544 16.4353C65.2209 17.6806 64.7847 20.3618 67.184 21.4981C70.3214 22.9839 73.0304 24.2445 76 20.7738" stroke="white" stroke-width="3" stroke-linecap="round"/>
<path d="M18 33.7593C18 33.7593 21.5488 28.5443 26 28.4565C30.6068 28.3657 30.8967 33.5952 35.5 33.7593C40.4227 33.9348 41.1675 27.7244 46 28.4565C49.7909 29.0309 49.3998 32.6921 53 33.7593" stroke="white" stroke-width="3" stroke-linecap="round"/>
</svg>
