<svg width="109" height="109" viewBox="0 0 109 109" fill="none" xmlns="http://www.w3.org/2000/svg">
<path d="M53.4082 69.7041C53.4082 74.786 50.8473 79.9308 47.4667 84.4613C44.1142 88.9543 40.1373 92.6016 37.7024 94.6469C37.113 95.1419 36.2952 95.1419 35.7058 94.6469C33.2709 92.6016 29.2939 88.9543 25.9415 84.4613C22.5609 79.9308 20 74.786 20 69.7041C20 60.4787 27.4787 53 36.7041 53C45.9295 53 53.4082 60.4787 53.4082 69.7041Z" fill="#121212" stroke="white" stroke-width="4"/>
<circle cx="36.9439" cy="67.5459" r="5.03571" fill="white"/>
<path d="M106 42C106 68.0017 77.6555 92.5499 69.2947 99.2252C67.9341 100.312 66.0659 100.312 64.7053 99.2252C56.3445 92.5499 28 68.0017 28 42C28 20.4609 45.4609 3 67 3C88.5391 3 106 20.4609 106 42Z" fill="#121212"/>
<path d="M105.5 39C105.5 50.8042 99.014 62.6616 91.0436 72.6811C83.1429 82.613 74.1916 90.232 70.1109 93.4901C70.0776 93.5167 70.0527 93.5279 70.0381 93.533C70.0228 93.5384 70.0104 93.54 70 93.54C69.9896 93.54 69.9772 93.5384 69.9619 93.533C69.9473 93.5279 69.9224 93.5167 69.8891 93.4901C65.8084 90.232 56.8571 82.613 48.9564 72.6811C40.986 62.6617 34.5 50.8042 34.5 39C34.5 19.3939 50.3939 3.5 70 3.5C89.6061 3.5 105.5 19.3939 105.5 39Z" fill="#121212" stroke="white" stroke-width="7"/>
<circle cx="70.5" cy="34.5" r="10.5" fill="white"/>
</svg>
