<svg width="110" height="110" viewBox="0 0 110 110" fill="none" xmlns="http://www.w3.org/2000/svg">
<path fill-rule="evenodd" clip-rule="evenodd" d="M42.4762 86.1042C38.913 91.0251 34.5815 95.0003 31.9887 97.1781C30.6556 98.2979 28.7526 98.2979 27.4194 97.1781C22.4295 92.9868 11 82.1384 11 70.7039C11 62.9485 15.7201 56.2955 22.4443 53.4609C22.6183 54.1084 22.8066 54.7535 23.0084 55.3959C17.1163 57.9767 13 63.8596 13 70.7039C13 75.7858 15.5609 80.9306 18.9414 85.4611C22.2939 89.9541 26.2709 93.6015 28.7058 95.6467C29.2952 96.1417 30.113 96.1417 30.7024 95.6467C33.1373 93.6015 37.1142 89.9541 40.4667 85.4611C40.6793 85.1763 40.8886 84.8889 41.0943 84.5993C41.5557 85.1098 42.0167 85.6115 42.4762 86.1042ZM26.8333 64.5849C25.661 65.5069 24.9082 66.9382 24.9082 68.5453C24.9082 71.3264 27.1628 73.581 29.9439 73.581C30.6708 73.581 31.3616 73.427 31.9857 73.1499C30.106 70.4109 28.3576 67.5454 26.8333 64.5849Z" fill="white"/>
<path d="M101 40C101 52.6589 94.0853 65.0736 86.0001 75.2375C77.9347 85.3763 68.8227 93.1288 64.6708 96.4438C63.6751 97.2387 62.3249 97.2387 61.3292 96.4438C57.1773 93.1288 48.0653 85.3763 39.9999 75.2375C31.9147 65.0736 25 52.6589 25 40C25 19.0132 42.0132 2 63 2C83.9868 2 101 19.0132 101 40Z" stroke="white" stroke-width="2"/>
<circle cx="63" cy="35" r="9" stroke="white" stroke-width="2"/>
</svg>
