<svg width="109" height="109" viewBox="0 0 109 109" fill="none" xmlns="http://www.w3.org/2000/svg">
<rect width="109" height="109" fill="#121837"/>
<path d="M51.8435 64.6999V72H21.0544L21.9609 50.0996C19.2443 43.712 12 37.3243 12 29.1117C12 -7.3891 67.2378 -11.9517 65.4267 29.1117C66.3322 30.9367 68.5055 34.9518 69.9544 36.4118C71.7655 38.2368 70.8599 40.0619 69.9544 40.9744C69.0488 41.8869 67.2378 41.8869 67.2378 43.712C67.2378 45.172 66.0304 46.7537 65.4267 47.362C65.4267 47.362 67.2378 47.362 67.2378 49.1871C67.2378 51.0121 66.3322 49.9171 66.3322 52.8371C66.3322 56.4872 65.4266 58.3122 58.1823 59.2248C52.3868 59.9548 51.5417 63.179 51.8435 64.6999Z" fill="white"/>
<path d="M76 38C78.0967 40.6982 79 43.3329 79 46.75C79 50.1671 78.0967 52.8018 76 55.5" stroke="white" stroke-width="2" stroke-linecap="round"/>
<path d="M83 32C86.4945 36.4713 88 40.8374 88 46.5C88 52.1626 86.4945 56.5287 83 61" stroke="white" stroke-width="2" stroke-linecap="round"/>
<path d="M91 26C95.8923 32.3216 98 38.4943 98 46.5C98 54.5057 95.8923 60.6784 91 67" stroke="white" stroke-width="2" stroke-linecap="round"/>
</svg>
