<svg width="169" height="21" viewBox="0 0 169 21" fill="none" xmlns="http://www.w3.org/2000/svg">
<path d="M119.078 4.996H120.03V18.982H119.078V4.996Z" fill="white"/>
<path d="M0 17.98H14V3.98H0V17.98Z" fill="white"/>
<path d="M29.776 11.904C29.776 13 29.484 13.824 28.9 14.376C28.316 14.92 27.484 15.192 26.404 15.192C25.3 15.192 24.436 14.932 23.812 14.412C23.196 13.884 22.888 13.048 22.888 11.904V6.432H24.028V11.904C24.028 12.672 24.232 13.256 24.64 13.656C25.048 14.048 25.636 14.244 26.404 14.244C27.132 14.244 27.684 14.048 28.06 13.656C28.444 13.256 28.636 12.672 28.636 11.904V6.432H29.776V11.904ZM31.4282 8.796H32.3882V9.78H32.4122C32.8362 9.028 33.5082 8.652 34.4282 8.652C34.8362 8.652 35.1762 8.708 35.4482 8.82C35.7202 8.932 35.9402 9.088 36.1082 9.288C36.2762 9.488 36.3922 9.728 36.4562 10.008C36.5282 10.28 36.5642 10.584 36.5642 10.92V15H35.5442V10.8C35.5442 10.416 35.4322 10.112 35.2082 9.888C34.9842 9.664 34.6762 9.552 34.2842 9.552C33.9722 9.552 33.7002 9.6 33.4682 9.696C33.2442 9.792 33.0562 9.928 32.9042 10.104C32.7522 10.28 32.6362 10.488 32.5562 10.728C32.4842 10.96 32.4482 11.216 32.4482 11.496V15H31.4282V8.796ZM39.1761 7.68H38.1561V6.432H39.1761V7.68ZM38.1561 8.796H39.1761V15H38.1561V8.796ZM42.1723 8.796H43.4083V9.696H42.1723V13.548C42.1723 13.668 42.1803 13.764 42.1963 13.836C42.2203 13.908 42.2603 13.964 42.3163 14.004C42.3723 14.044 42.4483 14.072 42.5443 14.088C42.6483 14.096 42.7803 14.1 42.9403 14.1H43.4083V15H42.6283C42.3643 15 42.1363 14.984 41.9443 14.952C41.7603 14.912 41.6083 14.844 41.4883 14.748C41.3763 14.652 41.2923 14.516 41.2363 14.34C41.1803 14.164 41.1523 13.932 41.1523 13.644V9.696H40.0963V8.796H41.1523V6.936H42.1723V8.796ZM48.8494 11.304C48.8334 11.064 48.7774 10.836 48.6814 10.62C48.5934 10.404 48.4694 10.22 48.3094 10.068C48.1574 9.908 47.9734 9.784 47.7574 9.696C47.5494 9.6 47.3174 9.552 47.0614 9.552C46.7974 9.552 46.5574 9.6 46.3414 9.696C46.1334 9.784 45.9534 9.908 45.8014 10.068C45.6494 10.228 45.5294 10.416 45.4414 10.632C45.3534 10.84 45.3014 11.064 45.2854 11.304H48.8494ZM49.8334 13.032C49.6974 13.728 49.3974 14.252 48.9334 14.604C48.4694 14.956 47.8854 15.132 47.1814 15.132C46.6854 15.132 46.2534 15.052 45.8854 14.892C45.5254 14.732 45.2214 14.508 44.9734 14.22C44.7254 13.932 44.5374 13.588 44.4094 13.188C44.2894 12.788 44.2214 12.352 44.2054 11.88C44.2054 11.408 44.2774 10.976 44.4214 10.584C44.5654 10.192 44.7654 9.852 45.0214 9.564C45.2854 9.276 45.5934 9.052 45.9454 8.892C46.3054 8.732 46.6974 8.652 47.1214 8.652C47.6734 8.652 48.1294 8.768 48.4894 9C48.8574 9.224 49.1494 9.512 49.3654 9.864C49.5894 10.216 49.7414 10.6 49.8214 11.016C49.9094 11.432 49.9454 11.828 49.9294 12.204H45.2854C45.2774 12.476 45.3094 12.736 45.3814 12.984C45.4534 13.224 45.5694 13.44 45.7294 13.632C45.8894 13.816 46.0934 13.964 46.3414 14.076C46.5894 14.188 46.8814 14.244 47.2174 14.244C47.6494 14.244 48.0014 14.144 48.2734 13.944C48.5534 13.744 48.7374 13.44 48.8254 13.032H49.8334ZM51.7308 11.952C51.7308 12.24 51.7668 12.524 51.8388 12.804C51.9188 13.076 52.0348 13.32 52.1868 13.536C52.3468 13.752 52.5468 13.924 52.7868 14.052C53.0348 14.18 53.3228 14.244 53.6508 14.244C53.9948 14.244 54.2868 14.176 54.5268 14.04C54.7668 13.904 54.9628 13.728 55.1148 13.512C55.2668 13.288 55.3748 13.036 55.4388 12.756C55.5108 12.476 55.5468 12.192 55.5468 11.904C55.5468 11.6 55.5108 11.308 55.4388 11.028C55.3668 10.74 55.2508 10.488 55.0908 10.272C54.9388 10.056 54.7388 9.884 54.4908 9.756C54.2428 9.62 53.9428 9.552 53.5908 9.552C53.2468 9.552 52.9548 9.62 52.7148 9.756C52.4748 9.892 52.2828 10.072 52.1388 10.296C51.9948 10.52 51.8908 10.776 51.8268 11.064C51.7628 11.352 51.7308 11.648 51.7308 11.952ZM56.5308 15H55.5108V14.16H55.4868C55.3188 14.504 55.0548 14.752 54.6948 14.904C54.3348 15.056 53.9388 15.132 53.5068 15.132C53.0268 15.132 52.6068 15.044 52.2468 14.868C51.8948 14.692 51.5988 14.456 51.3588 14.16C51.1268 13.864 50.9508 13.52 50.8308 13.128C50.7108 12.736 50.6508 12.32 50.6508 11.88C50.6508 11.44 50.7068 11.024 50.8188 10.632C50.9388 10.24 51.1148 9.9 51.3468 9.612C51.5868 9.316 51.8828 9.084 52.2348 8.916C52.5948 8.74 53.0108 8.652 53.4828 8.652C53.6428 8.652 53.8148 8.668 53.9988 8.7C54.1828 8.732 54.3668 8.788 54.5508 8.868C54.7348 8.94 54.9068 9.04 55.0668 9.168C55.2348 9.288 55.3748 9.44 55.4868 9.624H55.5108V6.432H56.5308V15ZM61.6079 6.432H62.7479V10.704L67.0919 6.432H68.5679L64.9559 9.888L68.7119 15H67.2719L64.1759 10.668L62.7479 12V15H61.6079V6.432ZM70.5238 7.68H69.5038V6.432H70.5238V7.68ZM69.5038 8.796H70.5238V15H69.5038V8.796ZM72.1039 8.796H73.0639V9.78H73.0879C73.5119 9.028 74.1839 8.652 75.1039 8.652C75.5119 8.652 75.8519 8.708 76.1239 8.82C76.3959 8.932 76.6159 9.088 76.7839 9.288C76.9519 9.488 77.0679 9.728 77.1319 10.008C77.2039 10.28 77.2399 10.584 77.2399 10.92V15H76.2199V10.8C76.2199 10.416 76.1079 10.112 75.8839 9.888C75.6599 9.664 75.3519 9.552 74.9599 9.552C74.6479 9.552 74.3759 9.6 74.1439 9.696C73.9199 9.792 73.7319 9.928 73.5799 10.104C73.4279 10.28 73.3119 10.488 73.2319 10.728C73.1599 10.96 73.1239 11.216 73.1239 11.496V15H72.1039V8.796ZM84.1239 14.472C84.1239 15.488 83.8919 16.248 83.4279 16.752C82.9639 17.256 82.2359 17.508 81.2439 17.508C80.9559 17.508 80.6599 17.476 80.3559 17.412C80.0599 17.348 79.7879 17.244 79.5399 17.1C79.2999 16.956 79.0999 16.768 78.9399 16.536C78.7799 16.304 78.6919 16.02 78.6759 15.684H79.6959C79.7039 15.868 79.7599 16.024 79.8639 16.152C79.9759 16.28 80.1079 16.384 80.2599 16.464C80.4199 16.544 80.5919 16.6 80.7759 16.632C80.9599 16.672 81.1359 16.692 81.3039 16.692C81.6399 16.692 81.9239 16.632 82.1559 16.512C82.3879 16.4 82.5799 16.24 82.7319 16.032C82.8839 15.832 82.9919 15.588 83.0559 15.3C83.1279 15.012 83.1639 14.696 83.1639 14.352V13.944H83.1399C82.9639 14.328 82.6959 14.612 82.3359 14.796C81.9839 14.972 81.6079 15.06 81.2079 15.06C80.7439 15.06 80.3399 14.976 79.9959 14.808C79.6519 14.64 79.3639 14.416 79.1319 14.136C78.8999 13.848 78.7239 13.516 78.6039 13.14C78.4919 12.756 78.4359 12.352 78.4359 11.928C78.4359 11.56 78.4839 11.184 78.5799 10.8C78.6759 10.408 78.8359 10.056 79.0599 9.744C79.2839 9.424 79.5799 9.164 79.9479 8.964C80.3159 8.756 80.7679 8.652 81.3039 8.652C81.6959 8.652 82.0559 8.74 82.3839 8.916C82.7119 9.084 82.9679 9.34 83.1519 9.684H83.1639V8.796H84.1239V14.472ZM81.2679 14.172C81.6039 14.172 81.8879 14.104 82.1199 13.968C82.3599 13.824 82.5519 13.64 82.6959 13.416C82.8399 13.184 82.9439 12.924 83.0079 12.636C83.0799 12.348 83.1159 12.06 83.1159 11.772C83.1159 11.5 83.0839 11.232 83.0199 10.968C82.9559 10.704 82.8519 10.468 82.7079 10.26C82.5719 10.044 82.3919 9.872 82.1679 9.744C81.9439 9.616 81.6719 9.552 81.3519 9.552C81.0239 9.552 80.7439 9.616 80.5119 9.744C80.2799 9.864 80.0879 10.028 79.9359 10.236C79.7919 10.444 79.6839 10.684 79.6119 10.956C79.5479 11.228 79.5159 11.512 79.5159 11.808C79.5159 12.088 79.5439 12.368 79.5999 12.648C79.6559 12.928 79.7519 13.184 79.8879 13.416C80.0239 13.64 80.2039 13.824 80.4279 13.968C80.6519 14.104 80.9319 14.172 81.2679 14.172ZM86.4065 11.952C86.4065 12.24 86.4425 12.524 86.5145 12.804C86.5945 13.076 86.7105 13.32 86.8625 13.536C87.0225 13.752 87.2225 13.924 87.4625 14.052C87.7105 14.18 87.9985 14.244 88.3265 14.244C88.6705 14.244 88.9625 14.176 89.2025 14.04C89.4425 13.904 89.6385 13.728 89.7905 13.512C89.9425 13.288 90.0505 13.036 90.1145 12.756C90.1865 12.476 90.2225 12.192 90.2225 11.904C90.2225 11.6 90.1865 11.308 90.1145 11.028C90.0425 10.74 89.9265 10.488 89.7665 10.272C89.6145 10.056 89.4145 9.884 89.1665 9.756C88.9185 9.62 88.6185 9.552 88.2665 9.552C87.9225 9.552 87.6305 9.62 87.3905 9.756C87.1505 9.892 86.9585 10.072 86.8145 10.296C86.6705 10.52 86.5665 10.776 86.5025 11.064C86.4385 11.352 86.4065 11.648 86.4065 11.952ZM91.2065 15H90.1865V14.16H90.1625C89.9945 14.504 89.7305 14.752 89.3705 14.904C89.0105 15.056 88.6145 15.132 88.1825 15.132C87.7025 15.132 87.2825 15.044 86.9225 14.868C86.5705 14.692 86.2745 14.456 86.0345 14.16C85.8025 13.864 85.6265 13.52 85.5065 13.128C85.3865 12.736 85.3265 12.32 85.3265 11.88C85.3265 11.44 85.3825 11.024 85.4945 10.632C85.6145 10.24 85.7905 9.9 86.0225 9.612C86.2625 9.316 86.5585 9.084 86.9105 8.916C87.2705 8.74 87.6865 8.652 88.1585 8.652C88.3185 8.652 88.4905 8.668 88.6745 8.7C88.8585 8.732 89.0425 8.788 89.2265 8.868C89.4105 8.94 89.5825 9.04 89.7425 9.168C89.9105 9.288 90.0505 9.44 90.1625 9.624H90.1865V6.432H91.2065V15ZM93.5198 11.904C93.5198 12.28 93.5678 12.616 93.6638 12.912C93.7678 13.2 93.9078 13.444 94.0838 13.644C94.2598 13.836 94.4638 13.984 94.6958 14.088C94.9358 14.192 95.1878 14.244 95.4518 14.244C95.7158 14.244 95.9638 14.192 96.1958 14.088C96.4358 13.984 96.6438 13.836 96.8198 13.644C96.9958 13.444 97.1318 13.2 97.2278 12.912C97.3318 12.616 97.3838 12.28 97.3838 11.904C97.3838 11.528 97.3318 11.196 97.2278 10.908C97.1318 10.612 96.9958 10.364 96.8198 10.164C96.6438 9.964 96.4358 9.812 96.1958 9.708C95.9638 9.604 95.7158 9.552 95.4518 9.552C95.1878 9.552 94.9358 9.604 94.6958 9.708C94.4638 9.812 94.2598 9.964 94.0838 10.164C93.9078 10.364 93.7678 10.612 93.6638 10.908C93.5678 11.196 93.5198 11.528 93.5198 11.904ZM92.4398 11.904C92.4398 11.448 92.5038 11.024 92.6318 10.632C92.7598 10.232 92.9518 9.888 93.2078 9.6C93.4638 9.304 93.7798 9.072 94.1558 8.904C94.5318 8.736 94.9638 8.652 95.4518 8.652C95.9478 8.652 96.3798 8.736 96.7478 8.904C97.1238 9.072 97.4398 9.304 97.6958 9.6C97.9518 9.888 98.1438 10.232 98.2718 10.632C98.3998 11.024 98.4638 11.448 98.4638 11.904C98.4638 12.36 98.3998 12.784 98.2718 13.176C98.1438 13.568 97.9518 13.912 97.6958 14.208C97.4398 14.496 97.1238 14.724 96.7478 14.892C96.3798 15.052 95.9478 15.132 95.4518 15.132C94.9638 15.132 94.5318 15.052 94.1558 14.892C93.7798 14.724 93.4638 14.496 93.2078 14.208C92.9518 13.912 92.7598 13.568 92.6318 13.176C92.5038 12.784 92.4398 12.36 92.4398 11.904ZM99.6664 8.796H100.626V9.708H100.65C101.114 9.004 101.782 8.652 102.654 8.652C103.038 8.652 103.386 8.732 103.698 8.892C104.01 9.052 104.23 9.324 104.358 9.708C104.566 9.372 104.838 9.112 105.174 8.928C105.518 8.744 105.894 8.652 106.302 8.652C106.614 8.652 106.894 8.688 107.142 8.76C107.398 8.824 107.614 8.928 107.79 9.072C107.974 9.216 108.114 9.404 108.21 9.636C108.314 9.86 108.366 10.132 108.366 10.452V15H107.346V10.932C107.346 10.74 107.33 10.56 107.298 10.392C107.266 10.224 107.206 10.08 107.118 9.96C107.03 9.832 106.906 9.732 106.746 9.66C106.594 9.588 106.394 9.552 106.146 9.552C105.642 9.552 105.246 9.696 104.958 9.984C104.67 10.272 104.526 10.656 104.526 11.136V15H103.506V10.932C103.506 10.732 103.486 10.548 103.446 10.38C103.414 10.212 103.354 10.068 103.266 9.948C103.178 9.82 103.058 9.724 102.906 9.66C102.762 9.588 102.574 9.552 102.342 9.552C102.046 9.552 101.79 9.612 101.574 9.732C101.366 9.852 101.194 9.996 101.058 10.164C100.93 10.332 100.834 10.508 100.77 10.692C100.714 10.868 100.686 11.016 100.686 11.136V15H99.6664V8.796Z" fill="white"/>
<path d="M130.936 6.432H136.852V7.392H132.076V10.116H136.528V11.076H132.076V14.04H136.888V15H130.936V6.432ZM138.104 8.796H139.064V9.78H139.088C139.512 9.028 140.184 8.652 141.104 8.652C141.512 8.652 141.852 8.708 142.124 8.82C142.396 8.932 142.616 9.088 142.784 9.288C142.952 9.488 143.068 9.728 143.132 10.008C143.204 10.28 143.24 10.584 143.24 10.92V15H142.22V10.8C142.22 10.416 142.108 10.112 141.884 9.888C141.66 9.664 141.352 9.552 140.96 9.552C140.648 9.552 140.376 9.6 140.144 9.696C139.92 9.792 139.732 9.928 139.58 10.104C139.428 10.28 139.312 10.488 139.232 10.728C139.16 10.96 139.124 11.216 139.124 11.496V15H138.104V8.796ZM150.124 14.472C150.124 15.488 149.892 16.248 149.428 16.752C148.964 17.256 148.236 17.508 147.244 17.508C146.956 17.508 146.66 17.476 146.356 17.412C146.06 17.348 145.788 17.244 145.54 17.1C145.3 16.956 145.1 16.768 144.94 16.536C144.78 16.304 144.692 16.02 144.676 15.684H145.696C145.704 15.868 145.76 16.024 145.864 16.152C145.976 16.28 146.108 16.384 146.26 16.464C146.42 16.544 146.592 16.6 146.776 16.632C146.96 16.672 147.136 16.692 147.304 16.692C147.64 16.692 147.924 16.632 148.156 16.512C148.388 16.4 148.58 16.24 148.732 16.032C148.884 15.832 148.992 15.588 149.056 15.3C149.128 15.012 149.164 14.696 149.164 14.352V13.944H149.14C148.964 14.328 148.696 14.612 148.336 14.796C147.984 14.972 147.608 15.06 147.208 15.06C146.744 15.06 146.34 14.976 145.996 14.808C145.652 14.64 145.364 14.416 145.132 14.136C144.9 13.848 144.724 13.516 144.604 13.14C144.492 12.756 144.436 12.352 144.436 11.928C144.436 11.56 144.484 11.184 144.58 10.8C144.676 10.408 144.836 10.056 145.06 9.744C145.284 9.424 145.58 9.164 145.948 8.964C146.316 8.756 146.768 8.652 147.304 8.652C147.696 8.652 148.056 8.74 148.384 8.916C148.712 9.084 148.968 9.34 149.152 9.684H149.164V8.796H150.124V14.472ZM147.268 14.172C147.604 14.172 147.888 14.104 148.12 13.968C148.36 13.824 148.552 13.64 148.696 13.416C148.84 13.184 148.944 12.924 149.008 12.636C149.08 12.348 149.116 12.06 149.116 11.772C149.116 11.5 149.084 11.232 149.02 10.968C148.956 10.704 148.852 10.468 148.708 10.26C148.572 10.044 148.392 9.872 148.168 9.744C147.944 9.616 147.672 9.552 147.352 9.552C147.024 9.552 146.744 9.616 146.512 9.744C146.28 9.864 146.088 10.028 145.936 10.236C145.792 10.444 145.684 10.684 145.612 10.956C145.548 11.228 145.516 11.512 145.516 11.808C145.516 12.088 145.544 12.368 145.6 12.648C145.656 12.928 145.752 13.184 145.888 13.416C146.024 13.64 146.204 13.824 146.428 13.968C146.652 14.104 146.932 14.172 147.268 14.172ZM151.723 6.432H152.743V15H151.723V6.432ZM155.403 7.68H154.383V6.432H155.403V7.68ZM154.383 8.796H155.403V15H154.383V8.796ZM157.607 13.044C157.615 13.268 157.667 13.46 157.763 13.62C157.859 13.772 157.983 13.896 158.135 13.992C158.295 14.08 158.471 14.144 158.663 14.184C158.863 14.224 159.067 14.244 159.275 14.244C159.435 14.244 159.603 14.232 159.779 14.208C159.955 14.184 160.115 14.14 160.259 14.076C160.411 14.012 160.535 13.92 160.631 13.8C160.727 13.672 160.775 13.512 160.775 13.32C160.775 13.056 160.675 12.856 160.475 12.72C160.275 12.584 160.023 12.476 159.719 12.396C159.423 12.308 159.099 12.232 158.747 12.168C158.395 12.096 158.067 12 157.763 11.88C157.467 11.752 157.219 11.576 157.019 11.352C156.819 11.128 156.719 10.816 156.719 10.416C156.719 10.104 156.787 9.836 156.923 9.612C157.067 9.388 157.247 9.208 157.463 9.072C157.687 8.928 157.935 8.824 158.207 8.76C158.487 8.688 158.763 8.652 159.035 8.652C159.387 8.652 159.711 8.684 160.007 8.748C160.303 8.804 160.563 8.908 160.787 9.06C161.019 9.204 161.203 9.404 161.339 9.66C161.475 9.908 161.555 10.22 161.579 10.596H160.559C160.543 10.396 160.491 10.232 160.403 10.104C160.315 9.968 160.203 9.86 160.067 9.78C159.931 9.7 159.779 9.644 159.611 9.612C159.451 9.572 159.287 9.552 159.119 9.552C158.967 9.552 158.811 9.564 158.651 9.588C158.499 9.612 158.359 9.656 158.231 9.72C158.103 9.776 157.999 9.856 157.919 9.96C157.839 10.056 157.799 10.184 157.799 10.344C157.799 10.52 157.859 10.668 157.979 10.788C158.107 10.9 158.267 10.996 158.459 11.076C158.651 11.148 158.867 11.212 159.107 11.268C159.347 11.316 159.587 11.368 159.827 11.424C160.083 11.48 160.331 11.548 160.571 11.628C160.819 11.708 161.035 11.816 161.219 11.952C161.411 12.08 161.563 12.244 161.675 12.444C161.795 12.644 161.855 12.892 161.855 13.188C161.855 13.564 161.775 13.876 161.615 14.124C161.463 14.372 161.259 14.572 161.003 14.724C160.755 14.876 160.471 14.98 160.151 15.036C159.839 15.1 159.527 15.132 159.215 15.132C158.871 15.132 158.543 15.096 158.231 15.024C157.919 14.952 157.643 14.836 157.403 14.676C157.163 14.508 156.971 14.292 156.827 14.028C156.683 13.756 156.603 13.428 156.587 13.044H157.607ZM162.983 6.432H164.003V9.708H164.027C164.107 9.516 164.219 9.356 164.363 9.228C164.507 9.092 164.667 8.984 164.843 8.904C165.027 8.816 165.215 8.752 165.407 8.712C165.607 8.672 165.799 8.652 165.983 8.652C166.391 8.652 166.731 8.708 167.003 8.82C167.275 8.932 167.495 9.088 167.663 9.288C167.831 9.488 167.947 9.728 168.011 10.008C168.083 10.28 168.119 10.584 168.119 10.92V15H167.099V10.8C167.099 10.416 166.987 10.112 166.763 9.888C166.539 9.664 166.231 9.552 165.839 9.552C165.527 9.552 165.255 9.6 165.023 9.696C164.799 9.792 164.611 9.928 164.459 10.104C164.307 10.28 164.191 10.488 164.111 10.728C164.039 10.96 164.003 11.216 164.003 11.496V15H162.983V6.432Z" fill="white"/>
</svg>
