<svg width="110" height="110" viewBox="0 0 110 110" fill="none" xmlns="http://www.w3.org/2000/svg">
<path d="M62 58.0752V36H71V58.0752H62Z" stroke="white" stroke-width="2"/>
<path d="M58 42.625H59V41.2742L57.708 41.6686L58 42.625ZM37.6374 58.2068V59.2068H38.3582L38.5861 58.523L37.6374 58.2068ZM58 62H57V63H58V62ZM72.2064 62L72.9033 61.2828L72.6122 61H72.2064V62ZM78.6203 70.0781L77.6673 70.3813V70.3813L78.6203 70.0781ZM78.4509 71.5979L77.5279 71.2133V71.2133L78.4509 71.5979ZM71.8763 87.3769L72.7994 87.7616L71.8763 87.3769ZM37.6374 83.5121L38.4374 82.9121L38.1374 82.5121H37.6374V83.5121ZM34.5372 83.5121H33.5372V84.5121H34.5372V83.5121ZM34.5372 58.2068V57.2068H33.5372V58.2068H34.5372ZM29.7305 58.2068H30.7305V57.2068H29.7305V58.2068ZM23 58.2068V57.2068H22V58.2068H23ZM23 83.5121H22V84.5121H23V83.5121ZM29.7305 83.5121V84.5121H30.7305V83.5121H29.7305ZM57.708 41.6686C53.6152 42.918 49.1104 44.789 45.2616 47.4209C41.416 50.0506 38.156 53.4887 36.6887 57.8906L38.5861 58.523C39.8678 54.678 42.7577 51.5559 46.3905 49.0718C50.0201 46.5898 54.322 44.7934 58.292 43.5814L57.708 41.6686ZM59 62V42.625H57V62H59ZM72.2064 61H58V63H72.2064V61ZM79.5732 69.7749C79.1448 68.4283 77.9887 66.8289 76.7609 65.3711C75.5024 63.8769 74.0537 62.4006 72.9033 61.2828L71.5095 62.7172C72.6375 63.8132 74.0335 65.2374 75.2312 66.6594C76.4595 68.1179 77.3712 69.4506 77.6673 70.3813L79.5732 69.7749ZM79.374 71.9825C79.6062 71.4252 79.8422 70.6204 79.5732 69.7749L77.6673 70.3813C77.7186 70.5424 77.7019 70.7957 77.5279 71.2133L79.374 71.9825ZM72.7994 87.7616L79.374 71.9825L77.5279 71.2133L70.9533 86.9923L72.7994 87.7616ZM68.1843 90.8385C70.2029 90.8385 72.0231 89.6247 72.7994 87.7616L70.9533 86.9923C70.4874 88.1103 69.3953 88.8385 68.1843 88.8385V90.8385ZM47.1269 90.8385H68.1843V88.8385H47.1269V90.8385ZM36.8374 84.1121C37.6733 85.2267 39.1578 86.8756 40.9392 88.2564C42.6926 89.6157 44.8908 90.8385 47.1269 90.8385V88.8385C45.5672 88.8385 43.8115 87.9525 42.1645 86.6758C40.5454 85.4207 39.1831 83.9064 38.4374 82.9121L36.8374 84.1121ZM34.5372 84.5121H37.6374V82.5121H34.5372V84.5121ZM33.5372 58.2068V83.5121H35.5372V58.2068H33.5372ZM37.6374 57.2068H34.5372V59.2068H37.6374V57.2068ZM29.7305 57.2068H23V59.2068H29.7305V57.2068ZM22 58.2068V83.5121H24V58.2068H22ZM23 84.5121H29.7305V82.5121H23V84.5121ZM30.7305 83.5121V58.2068H28.7305V83.5121H30.7305Z" fill="white"/>
<rect x="43.3457" y="3" width="44.6552" height="28.7241" rx="3" stroke="white" stroke-width="2"/>
<path d="M73.6135 21.7369H74.4328C75.0518 21.7369 75.6041 21.6398 76.0896 21.4456C76.5751 21.2514 76.9818 20.9844 77.3095 20.6445C77.6493 20.3046 77.9042 19.9041 78.0742 19.4428C78.2562 18.9695 78.3473 18.4536 78.3473 17.8953C78.3473 17.349 78.2562 16.8393 78.0742 16.3659C77.8921 15.8925 77.6311 15.4859 77.2913 15.146C76.9635 14.8061 76.5569 14.5391 76.0714 14.3449C75.5859 14.1507 75.0397 14.0536 74.4328 14.0536H73.6135V21.7369ZM70.0449 11.0312H75.3249C76.2595 11.0312 77.1335 11.2194 77.9467 11.5957C78.7721 11.9719 79.4882 12.4757 80.0951 13.1068C80.7142 13.7259 81.1997 14.4541 81.5517 15.2917C81.9037 16.117 82.0797 16.9849 82.0797 17.8953C82.0797 18.7935 81.9037 19.6613 81.5517 20.4988C81.2118 21.3242 80.7324 22.0525 80.1133 22.6837C79.5064 23.3148 78.7903 23.8186 77.9649 24.1948C77.1517 24.5711 76.2717 24.7593 75.3249 24.7593H70.0449V11.0312Z" fill="white"/>
<path d="M67.1769 11.0312V24.7593H63.6084V11.0312H67.1769Z" fill="white"/>
<path d="M54.5705 21.9918H55.3534C56.2516 21.9918 56.8949 21.8765 57.2833 21.6459C57.6717 21.4153 57.866 21.045 57.866 20.5353C57.866 20.0255 57.6717 19.6553 57.2833 19.4246C56.8949 19.194 56.2516 19.0787 55.3534 19.0787H54.5705V21.9918ZM54.5705 16.4205H55.226C56.3426 16.4205 56.901 15.9775 56.901 15.0914C56.901 14.2053 56.3426 13.7623 55.226 13.7623H54.5705V16.4205ZM51.002 11.0312H56.3184C57.5807 11.0312 58.5396 11.3347 59.1951 11.9416C59.8505 12.5485 60.1782 13.4224 60.1782 14.5634C60.1782 15.2552 60.0508 15.8318 59.7959 16.293C59.5531 16.7421 59.1769 17.1245 58.6671 17.4401C59.1769 17.5372 59.6077 17.6889 59.9597 17.8953C60.3239 18.0895 60.6152 18.3322 60.8337 18.6235C61.0643 18.9148 61.2282 19.2426 61.3253 19.6067C61.4224 19.9708 61.4709 20.3593 61.4709 20.7719C61.4709 21.4153 61.3556 21.9857 61.125 22.4834C60.9065 22.981 60.5909 23.3998 60.1782 23.7397C59.7777 24.0795 59.2861 24.3344 58.7035 24.5044C58.1209 24.6743 57.4654 24.7593 56.7371 24.7593H51.002V11.0312Z" fill="white"/>
</svg>
