<svg width="110" height="110" viewBox="0 0 110 110" fill="none" xmlns="http://www.w3.org/2000/svg">
<path fill-rule="evenodd" clip-rule="evenodd" d="M11 19H98C102.418 19 106 22.5817 106 27V81.5934C106 86.0117 102.418 89.5934 98 89.5934H91.8166C91.7557 89.5196 91.6907 89.4481 91.6217 89.3791L89.836 87.5934H98C101.314 87.5934 104 84.9071 104 81.5934V27C104 23.6863 101.314 21 98 21H11C7.68629 21 5 23.6863 5 27V81.5934C5 84.9071 7.68629 87.5934 11 87.5934H49.4255C51.0775 87.8609 52.7725 88 54.5 88C56.2275 88 57.9225 87.8609 59.5745 87.5934H81.3508L83.3508 89.5934H11C6.58172 89.5934 3 86.0117 3 81.5934V27C3 22.5817 6.58173 19 11 19ZM83.2426 81H99V32H74.3007C75.0805 32.6311 75.8296 33.2986 76.5454 34H97V79H81.2426L83.2426 81ZM32.4546 34H12V79H32.4546C33.1704 79.7014 33.9195 80.3689 34.6993 81H10V32H34.6993C33.9195 32.6311 33.1704 33.2986 32.4546 34ZM74.3007 81C74.3848 80.9319 74.4685 80.8635 74.5519 80.7946L74.7574 81H74.3007Z" fill="white"/>
<path d="M54.5 84.5C69.964 84.5 82.5 71.964 82.5 56.5C82.5 41.036 69.964 28.5 54.5 28.5C39.036 28.5 26.5 41.036 26.5 56.5C26.5 71.964 39.036 84.5 54.5 84.5Z" stroke="white" stroke-width="2" stroke-linecap="round" stroke-linejoin="round"/>
<path d="M89.5004 91.5004L74.2754 76.2754" stroke="white" stroke-width="2" stroke-linecap="round" stroke-linejoin="round"/>
<circle cx="12" cy="27" r="2" fill="white"/>
<circle cx="18" cy="27" r="2" fill="white"/>
<circle cx="24" cy="27" r="2" fill="white"/>
<path fill-rule="evenodd" clip-rule="evenodd" d="M57.4997 64.622C57.4311 64.2435 57.4774 63.8532 57.6327 63.5013C57.7806 63.1562 58.0261 62.8619 58.3391 62.6547C58.6521 62.4474 59.0189 62.3361 59.3943 62.3346H59.4993C60.1182 62.3346 60.7117 62.0888 61.1493 61.6512C61.5868 61.2136 61.8327 60.6201 61.8327 60.0013C61.8327 59.3825 61.5868 58.789 61.1493 58.3514C60.7117 57.9138 60.1182 57.668 59.4993 57.668H59.301C58.9256 57.6665 58.5588 57.5552 58.2458 57.3479C57.9328 57.1407 57.6872 56.8464 57.5393 56.5013V56.408C57.384 56.0561 57.3377 55.6657 57.4063 55.2873C57.475 54.9088 57.6554 54.5596 57.9243 54.2846L57.9943 54.2146C58.2113 53.9979 58.3834 53.7406 58.5008 53.4573C58.6182 53.1741 58.6787 52.8704 58.6787 52.5638C58.6787 52.2572 58.6182 51.9535 58.5008 51.6703C58.3834 51.387 58.2113 51.1297 57.9943 50.913C57.7776 50.696 57.5203 50.5239 57.237 50.4065C56.9538 50.2891 56.6501 50.2286 56.3435 50.2286C56.0369 50.2286 55.7332 50.2891 55.45 50.4065C55.1667 50.5239 54.9094 50.696 54.6927 50.913L54.6227 50.983C54.3477 51.2519 53.9985 51.4324 53.62 51.501C53.2416 51.5696 52.8512 51.5233 52.4993 51.368C52.1543 51.2201 51.86 50.9745 51.6527 50.6615C51.4454 50.3485 51.3342 49.9817 51.3327 49.6063V49.5013C51.3327 48.8825 51.0868 48.289 50.6493 47.8514C50.2117 47.4138 49.6182 47.168 48.9993 47.168C48.3805 47.168 47.787 47.4138 47.3494 47.8514C46.9118 48.289 46.666 48.8825 46.666 49.5013V49.6996C46.6645 50.0751 46.5533 50.4418 46.346 50.7548C46.1387 51.0678 45.8444 51.3134 45.4993 51.4613H45.406C45.0541 51.6166 44.6638 51.6629 44.2853 51.5943C43.9069 51.5257 43.5576 51.3453 43.2827 51.0763L43.2127 51.0063C42.996 50.7894 42.7386 50.6173 42.4554 50.4998C42.1721 50.3824 41.8685 50.322 41.5618 50.322C41.2552 50.322 40.9516 50.3824 40.6683 50.4998C40.3851 50.6173 40.1277 50.7894 39.911 51.0063C39.6941 51.223 39.522 51.4803 39.4045 51.7636C39.2871 52.0469 39.2267 52.3505 39.2267 52.6571C39.2267 52.9638 39.2871 53.2674 39.4045 53.5507C39.522 53.8339 39.6941 54.0913 39.911 54.308L39.981 54.378C40.25 54.6529 40.4304 55.0022 40.499 55.3806C40.5676 55.7591 40.5213 56.1494 40.366 56.5013C40.2327 56.8638 39.9934 57.1779 39.6792 57.4026C39.365 57.6273 38.9905 57.7523 38.6043 57.7613H38.4993C37.8805 57.7613 37.287 58.0071 36.8494 58.4447C36.4118 58.8823 36.166 59.4758 36.166 60.0946C36.166 60.7135 36.4118 61.307 36.8494 61.7445C37.287 62.1821 37.8805 62.428 38.4993 62.428H38.6977C39.0731 62.4295 39.4399 62.5407 39.7529 62.748C40.0659 62.9553 40.3115 63.2496 40.4593 63.5946C40.6146 63.9465 40.661 64.3369 40.5924 64.7153C40.5237 65.0938 40.3433 65.443 40.0743 65.718L40.0043 65.788C39.7874 66.0047 39.6153 66.262 39.4979 66.5453C39.3805 66.8285 39.32 67.1322 39.32 67.4388C39.32 67.7454 39.3805 68.0491 39.4979 68.3323C39.6153 68.6156 39.7874 68.8729 40.0043 69.0896C40.2211 69.3066 40.4784 69.4787 40.7617 69.5961C41.0449 69.7135 41.3485 69.774 41.6552 69.774C41.9618 69.774 42.2654 69.7135 42.5487 69.5961C42.832 69.4787 43.0893 69.3066 43.306 69.0896L43.376 69.0196C43.651 68.7507 44.0002 68.5702 44.3787 68.5016C44.7571 68.433 45.1475 68.4793 45.4993 68.6346C45.8619 68.768 46.1759 69.0073 46.4006 69.3214C46.6253 69.6356 46.7503 70.0101 46.7593 70.3963V70.5013C46.7593 71.1201 47.0052 71.7136 47.4428 72.1512C47.8804 72.5888 48.4738 72.8346 49.0927 72.8346C49.7115 72.8346 50.305 72.5888 50.7426 72.1512C51.1802 71.7136 51.426 71.1201 51.426 70.5013V70.303C51.4275 69.9275 51.5388 69.5608 51.746 69.2478C51.9533 68.9348 52.2476 68.6892 52.5927 68.5413C52.9446 68.386 53.3349 68.3397 53.7134 68.4083C54.0918 68.4769 54.4411 68.6573 54.716 68.9263L54.786 68.9963C55.0027 69.2132 55.2601 69.3853 55.5433 69.5028C55.8266 69.6202 56.1302 69.6806 56.4368 69.6806C56.7435 69.6806 57.0471 69.6202 57.3304 69.5028C57.6136 69.3853 57.871 69.2132 58.0877 68.9963C58.3046 68.7796 58.4767 68.5223 58.5942 68.239C58.7116 67.9557 58.772 67.6521 58.772 67.3455C58.772 67.0388 58.7116 66.7352 58.5942 66.4519C58.4767 66.1687 58.3046 65.9113 58.0877 65.6946L58.0177 65.6246C57.7487 65.3497 57.5683 65.0004 57.4997 64.622ZM46.5 60.001C46.5 58.6203 47.6193 57.501 49 57.501C50.3807 57.501 51.5 58.6203 51.5 60.001C51.5 61.3817 50.3807 62.501 49 62.501C47.6193 62.501 46.5 61.3817 46.5 60.001ZM49 55.501C46.5147 55.501 44.5 57.5157 44.5 60.001C44.5 62.4863 46.5147 64.501 49 64.501C51.4853 64.501 53.5 62.4863 53.5 60.001C53.5 57.5157 51.4853 55.501 49 55.501Z" fill="white"/>
<g clip-path="url(#clip0_2643_7684)">
<path fill-rule="evenodd" clip-rule="evenodd" d="M70.8243 48.2584C70.7212 48.0186 70.6923 47.7535 70.7412 47.4971C70.7863 47.2464 70.9038 47.0143 71.0791 46.8295C71.2544 46.6446 71.4799 46.5151 71.7279 46.4568L71.7973 46.4408C72.2065 46.3463 72.5614 46.0932 72.7839 45.7371C73.0064 45.3809 73.0784 44.951 72.9839 44.5419C72.8895 44.1327 72.6363 43.7778 72.2802 43.5553C71.9241 43.3328 71.4942 43.2608 71.085 43.3553L70.9539 43.3855C70.7054 43.4419 70.4459 43.4243 70.2073 43.335C69.9687 43.2457 69.7614 43.0887 69.611 42.8831L69.5967 42.8214C69.4404 42.6124 69.3501 42.3614 69.3377 42.1007C69.3253 41.84 69.3913 41.5815 69.5272 41.3587L69.5628 41.3017C69.6731 41.1253 69.7477 40.9289 69.7821 40.7237C69.8165 40.5185 69.8101 40.3085 69.7633 40.1058C69.7165 39.903 69.6301 39.7115 69.5093 39.5421C69.3884 39.3728 69.2353 39.2289 69.0588 39.1187C68.8824 39.0084 68.686 38.9339 68.4808 38.8995C68.2756 38.8651 68.0656 38.8714 67.8628 38.9183C67.6601 38.9651 67.4686 39.0514 67.2992 39.1722C67.1298 39.2931 66.986 39.4462 66.8758 39.6227L66.8402 39.6797C66.6995 39.8995 66.4961 40.0721 66.2563 40.1752C66.0166 40.2784 65.7514 40.3073 65.4951 40.2584C65.2443 40.2132 65.0123 40.0958 64.8274 39.9205C64.6426 39.7452 64.5131 39.5197 64.4548 39.2717L64.4388 39.2022C64.3443 38.7931 64.0912 38.4382 63.735 38.2157C63.3789 37.9931 62.949 37.9212 62.5398 38.0157C62.1307 38.1101 61.7758 38.3633 61.5533 38.7194C61.3307 39.0755 61.2588 39.5054 61.3532 39.9146L61.3835 40.0457C61.4398 40.2942 61.4223 40.5537 61.333 40.7923C61.2437 41.0308 61.0866 41.2381 60.8811 41.3886L60.8193 41.4028C60.6104 41.5592 60.3594 41.6494 60.0987 41.6618C59.838 41.6742 59.5795 41.6083 59.3567 41.4724L59.2997 41.4368C59.1233 41.3264 58.9269 41.2519 58.7217 41.2175C58.5165 41.1831 58.3065 41.1895 58.1037 41.2363C57.901 41.2831 57.7095 41.3694 57.5401 41.4903C57.3708 41.6112 57.2269 41.7643 57.1167 41.9408C57.0063 42.1172 56.9318 42.3136 56.8974 42.5188C56.863 42.724 56.8694 42.934 56.9162 43.1367C56.963 43.3395 57.0493 43.531 57.1702 43.7004C57.2911 43.8697 57.4442 44.0136 57.6207 44.1238L57.6777 44.1594C57.8975 44.3001 58.0701 44.5035 58.1732 44.7432C58.2763 44.983 58.3053 45.2481 58.2563 45.5045C58.2235 45.7646 58.1132 46.0087 57.9398 46.2052C57.7664 46.4018 57.5378 46.5416 57.2839 46.6065L57.2145 46.6225C56.8053 46.717 56.4504 46.9701 56.2279 47.3262C56.0054 47.6824 55.9334 48.1123 56.0279 48.5215C56.1223 48.9306 56.3755 49.2855 56.7316 49.508C57.0877 49.7306 57.5176 49.8025 57.9268 49.708L58.0579 49.6778C58.3064 49.6215 58.5659 49.639 58.8045 49.7283C59.0431 49.8176 59.2504 49.9747 59.4008 50.1802C59.5572 50.3892 59.6474 50.6402 59.6598 50.9009C59.6722 51.1616 59.6062 51.4201 59.4704 51.6429L59.4348 51.6999C59.3244 51.8763 59.2499 52.0727 59.2155 52.2779C59.1811 52.4831 59.1875 52.6931 59.2343 52.8958C59.2811 53.0986 59.3674 53.2901 59.4883 53.4595C59.6092 53.6288 59.7622 53.7727 59.9388 53.8829C60.1152 53.9932 60.3116 54.0677 60.5168 54.1021C60.722 54.1365 60.932 54.1302 61.1347 54.0833C61.3375 54.0365 61.529 53.9502 61.6983 53.8294C61.8677 53.7085 62.0116 53.5554 62.1218 53.3789L62.1573 53.3219C62.2981 53.1021 62.5015 52.9295 62.7412 52.8264C62.981 52.7232 63.2461 52.6943 63.5025 52.7432C63.7625 52.7761 64.0067 52.8864 64.2032 53.0598C64.3998 53.2332 64.5396 53.4617 64.6045 53.7157L64.6205 53.7851C64.715 54.1943 64.9681 54.5492 65.3242 54.7717C65.6803 54.9942 66.1103 55.0662 66.5194 54.9717C66.9286 54.8772 67.2835 54.6241 67.506 54.268C67.7285 53.9119 67.8005 53.4819 67.706 53.0728L67.6757 52.9416C67.6194 52.6932 67.637 52.4337 67.7263 52.1951C67.8155 51.9565 67.9726 51.7492 68.1782 51.5988C68.3872 51.4424 68.6382 51.3522 68.8989 51.3398C69.1596 51.3274 69.418 51.3933 69.6409 51.5292L69.6978 51.5648C69.8742 51.6752 70.0707 51.7497 70.2759 51.7841C70.4811 51.8185 70.6911 51.8121 70.8938 51.7653C71.0965 51.7185 71.2881 51.6322 71.4574 51.5113C71.6268 51.3904 71.7707 51.2373 71.8808 51.0608C71.9912 50.8844 72.0657 50.688 72.1001 50.4828C72.1345 50.2776 72.1281 50.0676 72.0813 49.8649C72.0345 49.6621 71.9482 49.4706 71.8273 49.3012C71.7065 49.1319 71.5534 48.988 71.3769 48.8778L71.3199 48.8422C71.1001 48.7015 70.9275 48.4981 70.8243 48.2584ZM63.1591 46.8093C62.9883 46.0694 63.4496 45.3311 64.1896 45.1602C64.9295 44.9894 65.6678 45.4508 65.8386 46.1907C66.0095 46.9306 65.5481 47.6689 64.8082 47.8398C64.0683 48.0106 63.3299 47.5492 63.1591 46.8093ZM63.7397 43.2115C61.9235 43.6308 60.7911 45.443 61.2104 47.2592C61.6297 49.0754 63.4419 50.2078 65.2581 49.7885C67.0743 49.3692 68.2067 47.557 67.7874 45.7408C67.3681 43.9246 65.5559 42.7922 63.7397 43.2115Z" fill="white"/>
</g>
<defs>
<clipPath id="clip0_2643_7684">
<rect width="19" height="19" fill="white" transform="translate(53.1055 39.3809) rotate(-13)"/>
</clipPath>
</defs>
</svg>
