<svg width="109" height="109" viewBox="0 0 109 109" fill="none" xmlns="http://www.w3.org/2000/svg">
<path fill-rule="evenodd" clip-rule="evenodd" d="M56.7938 1.01437C56.7938 1.01511 56.7939 1.01583 56.7943 1.01649L87.0874 62.8195C87.498 63.6571 87.275 64.6673 86.55 65.2542L72.2117 76.8627C71.7426 77.2424 71.4701 77.8136 71.4701 78.4171V87.0736C71.4701 88.1781 70.5747 89.0736 69.4701 89.0736H56.7938H56.7831H44.1067C43.0021 89.0736 42.1067 88.1781 42.1067 87.0736L42.1067 78.4171C42.1067 77.8136 41.8342 77.2424 41.3652 76.8627L27.0268 65.2542C26.3018 64.6673 26.0789 63.6571 26.4894 62.8195L56.7826 1.01649C56.7829 1.01583 56.7831 1.01511 56.7831 1.01437V1.00192C56.7831 0.999889 56.7858 0.999255 56.7867 1.00107C56.7874 1.0025 56.7894 1.0025 56.7901 1.00107C56.791 0.999254 56.7938 0.999889 56.7938 1.00192V1.01437Z" fill="white"/>
<mask id="mask0_2665_8152" style="mask-type:alpha" maskUnits="userSpaceOnUse" x="26" y="1" width="62" height="89">
<path fill-rule="evenodd" clip-rule="evenodd" d="M56.7938 1.01437C56.7938 1.01511 56.7939 1.01583 56.7943 1.01649L87.0874 62.8195C87.498 63.6571 87.275 64.6673 86.55 65.2542L72.2117 76.8627C71.7426 77.2424 71.4701 77.8136 71.4701 78.4171V87.0736C71.4701 88.1781 70.5747 89.0736 69.4701 89.0736H56.7938H56.7831H44.1067C43.0021 89.0736 42.1067 88.1781 42.1067 87.0736L42.1067 78.4171C42.1067 77.8136 41.8342 77.2424 41.3652 76.8627L27.0268 65.2542C26.3018 64.6673 26.0789 63.6571 26.4894 62.8195L56.7826 1.01649C56.7829 1.01583 56.7831 1.01511 56.7831 1.01437V1.00192C56.7831 0.999889 56.7858 0.999255 56.7867 1.00107C56.7874 1.0025 56.7894 1.0025 56.7901 1.00107C56.791 0.999254 56.7938 0.999889 56.7938 1.00192V1.01437Z" fill="#232323"/>
</mask>
<g mask="url(#mask0_2665_8152)">
<rect x="54.7695" y="-0.472656" width="3.89" height="54.4985" fill="#121212"/>
</g>
<ellipse cx="56.7937" cy="56.0655" rx="5.53" ry="5.42684" fill="#121212"/>
<rect x="42.0596" y="92.3203" width="29.4586" height="5.89172" rx="2.94586" fill="white"/>
</svg>
