<svg width="110" height="110" viewBox="0 0 110 110" fill="none" xmlns="http://www.w3.org/2000/svg">
<path fill-rule="evenodd" clip-rule="evenodd" d="M11 0H98C102.418 0 106 3.58172 106 8V62.5934C106 67.0117 102.418 70.5934 98 70.5934H91.8166C91.7557 70.5196 91.6907 70.4481 91.6217 70.3791L89.836 68.5934H98C101.314 68.5934 104 65.9071 104 62.5934V8C104 4.68629 101.314 2 98 2H11C7.68629 2 5 4.68629 5 7.99999V62.5934C5 65.9071 7.68629 68.5934 11 68.5934H49.4255C51.0775 68.8609 52.7725 69 54.5 69C56.2275 69 57.9225 68.8609 59.5745 68.5934H81.3508L83.3508 70.5934H11C6.58172 70.5934 3 67.0117 3 62.5934V7.99999C3 3.58171 6.58173 0 11 0ZM83.2426 62H99V13H74.3007C75.0805 13.6311 75.8296 14.2986 76.5454 15H97V60H81.2426L83.2426 62ZM32.4546 15H12V60H32.4546C33.1704 60.7014 33.9195 61.3689 34.6993 62H10V13H34.6993C33.9195 13.6311 33.1704 14.2986 32.4546 15ZM74.3007 62C74.3848 61.9319 74.4685 61.8635 74.5519 61.7946L74.7574 62H74.3007Z" fill="white"/>
<path d="M54.5 65.5C69.964 65.5 82.5 52.964 82.5 37.5C82.5 22.036 69.964 9.5 54.5 9.5C39.036 9.5 26.5 22.036 26.5 37.5C26.5 52.964 39.036 65.5 54.5 65.5Z" stroke="white" stroke-width="2" stroke-linecap="round" stroke-linejoin="round"/>
<path d="M89.5004 72.5004L74.2754 57.2754" stroke="white" stroke-width="2" stroke-linecap="round" stroke-linejoin="round"/>
<circle cx="12" cy="8" r="2" fill="white"/>
<circle cx="18" cy="8" r="2" fill="white"/>
<circle cx="24" cy="8" r="2" fill="white"/>
<path fill-rule="evenodd" clip-rule="evenodd" d="M57.4997 45.622C57.4311 45.2435 57.4774 44.8532 57.6327 44.5013C57.7806 44.1562 58.0261 43.8619 58.3391 43.6547C58.6521 43.4474 59.0189 43.3361 59.3943 43.3346H59.4993C60.1182 43.3346 60.7117 43.0888 61.1493 42.6512C61.5868 42.2136 61.8327 41.6201 61.8327 41.0013C61.8327 40.3825 61.5868 39.789 61.1493 39.3514C60.7117 38.9138 60.1182 38.668 59.4993 38.668H59.301C58.9256 38.6665 58.5588 38.5552 58.2458 38.3479C57.9328 38.1407 57.6872 37.8464 57.5393 37.5013V37.408C57.384 37.0561 57.3377 36.6657 57.4063 36.2873C57.475 35.9088 57.6554 35.5596 57.9243 35.2846L57.9943 35.2146C58.2113 34.9979 58.3834 34.7406 58.5008 34.4573C58.6182 34.1741 58.6787 33.8704 58.6787 33.5638C58.6787 33.2572 58.6182 32.9535 58.5008 32.6703C58.3834 32.387 58.2113 32.1297 57.9943 31.913C57.7776 31.696 57.5203 31.5239 57.237 31.4065C56.9538 31.2891 56.6501 31.2286 56.3435 31.2286C56.0369 31.2286 55.7332 31.2891 55.45 31.4065C55.1667 31.5239 54.9094 31.696 54.6927 31.913L54.6227 31.983C54.3477 32.2519 53.9985 32.4324 53.62 32.501C53.2416 32.5696 52.8512 32.5233 52.4993 32.368C52.1543 32.2201 51.86 31.9745 51.6527 31.6615C51.4454 31.3485 51.3342 30.9817 51.3327 30.6063V30.5013C51.3327 29.8825 51.0868 29.289 50.6493 28.8514C50.2117 28.4138 49.6182 28.168 48.9993 28.168C48.3805 28.168 47.787 28.4138 47.3494 28.8514C46.9118 29.289 46.666 29.8825 46.666 30.5013V30.6996C46.6645 31.0751 46.5533 31.4418 46.346 31.7548C46.1387 32.0678 45.8444 32.3134 45.4993 32.4613H45.406C45.0541 32.6166 44.6638 32.6629 44.2853 32.5943C43.9069 32.5257 43.5576 32.3453 43.2827 32.0763L43.2127 32.0063C42.996 31.7894 42.7386 31.6173 42.4554 31.4998C42.1721 31.3824 41.8685 31.322 41.5618 31.322C41.2552 31.322 40.9516 31.3824 40.6683 31.4998C40.3851 31.6173 40.1277 31.7894 39.911 32.0063C39.6941 32.223 39.522 32.4803 39.4045 32.7636C39.2871 33.0469 39.2267 33.3505 39.2267 33.6571C39.2267 33.9638 39.2871 34.2674 39.4045 34.5507C39.522 34.8339 39.6941 35.0913 39.911 35.308L39.981 35.378C40.25 35.6529 40.4304 36.0022 40.499 36.3806C40.5676 36.7591 40.5213 37.1494 40.366 37.5013C40.2327 37.8638 39.9934 38.1779 39.6792 38.4026C39.365 38.6273 38.9905 38.7523 38.6043 38.7613H38.4993C37.8805 38.7613 37.287 39.0071 36.8494 39.4447C36.4118 39.8823 36.166 40.4758 36.166 41.0946C36.166 41.7135 36.4118 42.307 36.8494 42.7445C37.287 43.1821 37.8805 43.428 38.4993 43.428H38.6977C39.0731 43.4295 39.4399 43.5407 39.7529 43.748C40.0659 43.9553 40.3115 44.2496 40.4593 44.5946C40.6146 44.9465 40.661 45.3369 40.5924 45.7153C40.5237 46.0938 40.3433 46.443 40.0743 46.718L40.0043 46.788C39.7874 47.0047 39.6153 47.262 39.4979 47.5453C39.3805 47.8285 39.32 48.1322 39.32 48.4388C39.32 48.7454 39.3805 49.0491 39.4979 49.3323C39.6153 49.6156 39.7874 49.8729 40.0043 50.0896C40.2211 50.3066 40.4784 50.4787 40.7617 50.5961C41.0449 50.7135 41.3485 50.774 41.6552 50.774C41.9618 50.774 42.2654 50.7135 42.5487 50.5961C42.832 50.4787 43.0893 50.3066 43.306 50.0896L43.376 50.0196C43.651 49.7507 44.0002 49.5702 44.3787 49.5016C44.7571 49.433 45.1475 49.4793 45.4993 49.6346C45.8619 49.768 46.1759 50.0073 46.4006 50.3214C46.6253 50.6356 46.7503 51.0101 46.7593 51.3963V51.5013C46.7593 52.1201 47.0052 52.7136 47.4428 53.1512C47.8804 53.5888 48.4738 53.8346 49.0927 53.8346C49.7115 53.8346 50.305 53.5888 50.7426 53.1512C51.1802 52.7136 51.426 52.1201 51.426 51.5013V51.303C51.4275 50.9275 51.5388 50.5608 51.746 50.2478C51.9533 49.9348 52.2476 49.6892 52.5927 49.5413C52.9446 49.386 53.3349 49.3397 53.7134 49.4083C54.0918 49.4769 54.4411 49.6573 54.716 49.9263L54.786 49.9963C55.0027 50.2132 55.2601 50.3853 55.5433 50.5028C55.8266 50.6202 56.1302 50.6806 56.4368 50.6806C56.7435 50.6806 57.0471 50.6202 57.3304 50.5028C57.6136 50.3853 57.871 50.2132 58.0877 49.9963C58.3046 49.7796 58.4767 49.5223 58.5942 49.239C58.7116 48.9557 58.772 48.6521 58.772 48.3455C58.772 48.0388 58.7116 47.7352 58.5942 47.4519C58.4767 47.1687 58.3046 46.9113 58.0877 46.6946L58.0177 46.6246C57.7487 46.3497 57.5683 46.0004 57.4997 45.622ZM46.5 41.001C46.5 39.6203 47.6193 38.501 49 38.501C50.3807 38.501 51.5 39.6203 51.5 41.001C51.5 42.3817 50.3807 43.501 49 43.501C47.6193 43.501 46.5 42.3817 46.5 41.001ZM49 36.501C46.5147 36.501 44.5 38.5157 44.5 41.001C44.5 43.4863 46.5147 45.501 49 45.501C51.4853 45.501 53.5 43.4863 53.5 41.001C53.5 38.5157 51.4853 36.501 49 36.501Z" fill="white"/>
<g clip-path="url(#clip0_1800_8414)">
<path fill-rule="evenodd" clip-rule="evenodd" d="M70.8243 29.2584C70.7212 29.0186 70.6923 28.7535 70.7412 28.4971C70.7863 28.2464 70.9038 28.0143 71.0791 27.8295C71.2544 27.6446 71.4799 27.5151 71.7279 27.4568L71.7973 27.4408C72.2065 27.3463 72.5614 27.0932 72.7839 26.7371C73.0064 26.3809 73.0784 25.951 72.9839 25.5419C72.8895 25.1327 72.6363 24.7778 72.2802 24.5553C71.9241 24.3328 71.4942 24.2608 71.085 24.3553L70.9539 24.3855C70.7054 24.4419 70.4459 24.4243 70.2073 24.335C69.9687 24.2457 69.7614 24.0887 69.611 23.8831L69.5967 23.8214C69.4404 23.6124 69.3501 23.3614 69.3377 23.1007C69.3253 22.84 69.3913 22.5815 69.5272 22.3587L69.5628 22.3017C69.6731 22.1253 69.7477 21.9289 69.7821 21.7237C69.8165 21.5185 69.8101 21.3085 69.7633 21.1058C69.7165 20.903 69.6301 20.7115 69.5093 20.5421C69.3884 20.3728 69.2353 20.2289 69.0588 20.1187C68.8824 20.0084 68.686 19.9339 68.4808 19.8995C68.2756 19.8651 68.0656 19.8714 67.8628 19.9183C67.6601 19.9651 67.4686 20.0514 67.2992 20.1722C67.1298 20.2931 66.986 20.4462 66.8758 20.6227L66.8402 20.6797C66.6995 20.8995 66.4961 21.0721 66.2563 21.1752C66.0166 21.2784 65.7514 21.3073 65.4951 21.2584C65.2443 21.2132 65.0123 21.0958 64.8274 20.9205C64.6426 20.7452 64.5131 20.5197 64.4548 20.2717L64.4388 20.2022C64.3443 19.7931 64.0912 19.4382 63.735 19.2157C63.3789 18.9931 62.949 18.9212 62.5398 19.0157C62.1307 19.1101 61.7758 19.3633 61.5533 19.7194C61.3307 20.0755 61.2588 20.5054 61.3532 20.9146L61.3835 21.0457C61.4398 21.2942 61.4223 21.5537 61.333 21.7923C61.2437 22.0308 61.0866 22.2381 60.8811 22.3886L60.8193 22.4028C60.6104 22.5592 60.3594 22.6494 60.0987 22.6618C59.838 22.6742 59.5795 22.6083 59.3567 22.4724L59.2997 22.4368C59.1233 22.3264 58.9269 22.2519 58.7217 22.2175C58.5165 22.1831 58.3065 22.1895 58.1037 22.2363C57.901 22.2831 57.7095 22.3694 57.5401 22.4903C57.3708 22.6112 57.2269 22.7643 57.1167 22.9408C57.0063 23.1172 56.9318 23.3136 56.8974 23.5188C56.863 23.724 56.8694 23.934 56.9162 24.1367C56.963 24.3395 57.0493 24.531 57.1702 24.7004C57.2911 24.8697 57.4442 25.0136 57.6207 25.1238L57.6777 25.1594C57.8975 25.3001 58.0701 25.5035 58.1732 25.7432C58.2763 25.983 58.3053 26.2481 58.2563 26.5045C58.2235 26.7646 58.1132 27.0087 57.9398 27.2052C57.7664 27.4018 57.5378 27.5416 57.2839 27.6065L57.2145 27.6225C56.8053 27.717 56.4504 27.9701 56.2279 28.3262C56.0054 28.6824 55.9334 29.1123 56.0279 29.5215C56.1223 29.9306 56.3755 30.2855 56.7316 30.508C57.0877 30.7306 57.5176 30.8025 57.9268 30.708L58.0579 30.6778C58.3064 30.6215 58.5659 30.639 58.8045 30.7283C59.0431 30.8176 59.2504 30.9747 59.4008 31.1802C59.5572 31.3892 59.6474 31.6402 59.6598 31.9009C59.6722 32.1616 59.6062 32.4201 59.4704 32.6429L59.4348 32.6999C59.3244 32.8763 59.2499 33.0727 59.2155 33.2779C59.1811 33.4831 59.1875 33.6931 59.2343 33.8958C59.2811 34.0986 59.3674 34.2901 59.4883 34.4595C59.6092 34.6288 59.7622 34.7727 59.9388 34.8829C60.1152 34.9932 60.3116 35.0677 60.5168 35.1021C60.722 35.1365 60.932 35.1302 61.1347 35.0833C61.3375 35.0365 61.529 34.9502 61.6983 34.8294C61.8677 34.7085 62.0116 34.5554 62.1218 34.3789L62.1573 34.3219C62.2981 34.1021 62.5015 33.9295 62.7412 33.8264C62.981 33.7232 63.2461 33.6943 63.5025 33.7432C63.7625 33.7761 64.0067 33.8864 64.2032 34.0598C64.3998 34.2332 64.5396 34.4617 64.6045 34.7157L64.6205 34.7851C64.715 35.1943 64.9681 35.5492 65.3242 35.7717C65.6803 35.9942 66.1103 36.0662 66.5194 35.9717C66.9286 35.8772 67.2835 35.6241 67.506 35.268C67.7285 34.9119 67.8005 34.4819 67.706 34.0728L67.6757 33.9416C67.6194 33.6932 67.637 33.4337 67.7263 33.1951C67.8155 32.9565 67.9726 32.7492 68.1782 32.5988C68.3872 32.4424 68.6382 32.3522 68.8989 32.3398C69.1596 32.3274 69.418 32.3933 69.6409 32.5292L69.6978 32.5648C69.8742 32.6752 70.0707 32.7497 70.2759 32.7841C70.4811 32.8185 70.6911 32.8121 70.8938 32.7653C71.0965 32.7185 71.2881 32.6322 71.4574 32.5113C71.6268 32.3904 71.7707 32.2373 71.8808 32.0608C71.9912 31.8844 72.0657 31.688 72.1001 31.4828C72.1345 31.2776 72.1281 31.0676 72.0813 30.8649C72.0345 30.6621 71.9482 30.4706 71.8273 30.3012C71.7065 30.1319 71.5534 29.988 71.3769 29.8778L71.3199 29.8422C71.1001 29.7015 70.9275 29.4981 70.8243 29.2584ZM63.1591 27.8093C62.9883 27.0694 63.4496 26.3311 64.1896 26.1602C64.9295 25.9894 65.6678 26.4508 65.8386 27.1907C66.0095 27.9306 65.5481 28.6689 64.8082 28.8398C64.0683 29.0106 63.3299 28.5492 63.1591 27.8093ZM63.7397 24.2115C61.9235 24.6308 60.7911 26.443 61.2104 28.2592C61.6297 30.0754 63.4419 31.2078 65.2581 30.7885C67.0743 30.3692 68.2067 28.557 67.7874 26.7408C67.3681 24.9246 65.5559 23.7922 63.7397 24.2115Z" fill="white"/>
</g>
<defs>
<clipPath id="clip0_1800_8414">
<rect width="19" height="19" fill="white" transform="translate(53.1055 20.3809) rotate(-13)"/>
</clipPath>
</defs>
</svg>
