<svg width="109" height="109" viewBox="0 0 109 109" fill="none" xmlns="http://www.w3.org/2000/svg">
<rect x="4" width="101" height="66.5934" rx="6" fill="white"/>
<path d="M10 11H99V60H10V11Z" fill="#121212"/>
<path d="M55.0833 71.4167C72.3883 71.4167 86.4167 57.3883 86.4167 40.0833C86.4167 22.7784 72.3883 8.75 55.0833 8.75C37.7784 8.75 23.75 22.7784 23.75 40.0833C23.75 57.3883 37.7784 71.4167 55.0833 71.4167Z" fill="#121212"/>
<rect x="17" y="19" width="34" height="4" rx="2" fill="#D9D9D9"/>
<rect x="17" y="28" width="45" height="4" rx="2" fill="#D9D9D9"/>
<rect x="17" y="37" width="21" height="4" rx="2" fill="#D9D9D9"/>
<rect x="55" y="19" width="19" height="4" rx="2" fill="#D9D9D9"/>
<rect x="66" y="28" width="8" height="4" rx="2" fill="#D9D9D9"/>
<rect x="41" y="37" width="13" height="4" rx="2" fill="#D9D9D9"/>
<rect x="57" y="37" width="38" height="4" rx="2" fill="#D9D9D9"/>
<rect x="86" y="19" width="6" height="4" rx="2" fill="#D9D9D9"/>
<rect x="86" y="28" width="6" height="4" rx="2" fill="#D9D9D9"/>
<rect x="86" y="37" width="6" height="4" rx="2" fill="#D9D9D9"/>
<mask id="path-14-outside-1_127_1912" maskUnits="userSpaceOnUse" x="15.75" y="0.75" width="87" height="87" fill="black">
<rect fill="white" x="15.75" y="0.75" width="87" height="87"/>
<path fill-rule="evenodd" clip-rule="evenodd" d="M26.75 40.0833C26.75 24.4353 39.4353 11.75 55.0833 11.75C70.7314 11.75 83.4167 24.4353 83.4167 40.0833C83.4167 47.7435 80.3768 54.6936 75.4377 59.7932C75.3166 59.8823 75.2007 59.9816 75.0911 60.0912C74.9815 60.2007 74.8822 60.3167 74.7931 60.4378C69.6935 65.3769 62.7434 68.4167 55.0833 68.4167C39.4353 68.4167 26.75 55.7314 26.75 40.0833ZM77.147 66.3897C71.1801 71.3995 63.4841 74.4167 55.0833 74.4167C36.1216 74.4167 20.75 59.0451 20.75 40.0833C20.75 21.1216 36.1216 5.75 55.0833 5.75C74.0451 5.75 89.4167 21.1216 89.4167 40.0833C89.4167 48.4841 86.3995 56.1802 81.3897 62.1471L96.3712 77.1287C97.5428 78.3002 97.5428 80.1997 96.3712 81.3713C95.1996 82.5429 93.3002 82.5429 92.1286 81.3713L77.147 66.3897Z"/>
</mask>
<path fill-rule="evenodd" clip-rule="evenodd" d="M26.75 40.0833C26.75 24.4353 39.4353 11.75 55.0833 11.75C70.7314 11.75 83.4167 24.4353 83.4167 40.0833C83.4167 47.7435 80.3768 54.6936 75.4377 59.7932C75.3166 59.8823 75.2007 59.9816 75.0911 60.0912C74.9815 60.2007 74.8822 60.3167 74.7931 60.4378C69.6935 65.3769 62.7434 68.4167 55.0833 68.4167C39.4353 68.4167 26.75 55.7314 26.75 40.0833ZM77.147 66.3897C71.1801 71.3995 63.4841 74.4167 55.0833 74.4167C36.1216 74.4167 20.75 59.0451 20.75 40.0833C20.75 21.1216 36.1216 5.75 55.0833 5.75C74.0451 5.75 89.4167 21.1216 89.4167 40.0833C89.4167 48.4841 86.3995 56.1802 81.3897 62.1471L96.3712 77.1287C97.5428 78.3002 97.5428 80.1997 96.3712 81.3713C95.1996 82.5429 93.3002 82.5429 92.1286 81.3713L77.147 66.3897Z" fill="white"/>
<path d="M75.4377 59.7932L78.4002 63.8211C78.6248 63.6559 78.8353 63.4721 79.0293 63.2718L75.4377 59.7932ZM74.7931 60.4378L78.2717 64.0294C78.472 63.8354 78.6558 63.6249 78.821 63.4002L74.7931 60.4378ZM77.147 66.3897L80.6825 62.8542C78.849 61.0206 75.9179 60.8931 73.932 62.5605L77.147 66.3897ZM81.3897 62.1471L77.5604 58.932C75.893 60.918 76.0205 63.8491 77.8541 65.6826L81.3897 62.1471ZM96.3712 77.1287L92.8357 80.6642L92.8357 80.6642L96.3712 77.1287ZM92.1286 81.3713L95.6641 77.8358L95.6641 77.8358L92.1286 81.3713ZM55.0833 6.75C36.6738 6.75 21.75 21.6738 21.75 40.0833H31.75C31.75 27.1967 42.1967 16.75 55.0833 16.75V6.75ZM88.4167 40.0833C88.4167 21.6738 73.4928 6.75 55.0833 6.75V16.75C67.97 16.75 78.4167 27.1967 78.4167 40.0833H88.4167ZM79.0293 63.2718C84.8353 57.2771 88.4167 49.0933 88.4167 40.0833H78.4167C78.4167 46.3936 75.9184 52.1101 71.8461 56.3146L79.0293 63.2718ZM78.6266 63.6267C78.5572 63.6961 78.4815 63.7613 78.4002 63.8211L72.4752 55.7653C72.1517 56.0033 71.8441 56.2671 71.5555 56.5556L78.6266 63.6267ZM78.821 63.4002C78.7612 63.4816 78.696 63.5573 78.6266 63.6267L71.5555 56.5556C71.267 56.8442 71.0032 57.1518 70.7652 57.4753L78.821 63.4002ZM55.0833 73.4167C64.0933 73.4167 72.277 69.8354 78.2717 64.0294L71.3146 56.8462C67.11 60.9184 61.3936 63.4167 55.0833 63.4167V73.4167ZM21.75 40.0833C21.75 58.4928 36.6738 73.4167 55.0833 73.4167V63.4167C42.1967 63.4167 31.75 52.97 31.75 40.0833H21.75ZM73.932 62.5605C68.8321 66.8423 62.2649 69.4167 55.0833 69.4167V79.4167C64.7033 79.4167 73.5282 75.9567 80.3621 70.219L73.932 62.5605ZM55.0833 69.4167C38.883 69.4167 25.75 56.2837 25.75 40.0833H15.75C15.75 61.8065 33.3601 79.4167 55.0833 79.4167V69.4167ZM25.75 40.0833C25.75 23.883 38.883 10.75 55.0833 10.75V0.75C33.3601 0.75 15.75 18.3601 15.75 40.0833H25.75ZM55.0833 10.75C71.2837 10.75 84.4167 23.883 84.4167 40.0833H94.4167C94.4167 18.3601 76.8065 0.75 55.0833 0.75V10.75ZM84.4167 40.0833C84.4167 47.2649 81.8423 53.8322 77.5604 58.932L85.2189 65.3622C90.9567 58.5283 94.4167 49.7034 94.4167 40.0833H84.4167ZM77.8541 65.6826L92.8357 80.6642L99.9068 73.5931L84.9252 58.6116L77.8541 65.6826ZM92.8357 80.6642C92.0546 79.8832 92.0546 78.6168 92.8357 77.8358L99.9068 84.9069C103.031 81.7827 103.031 76.7173 99.9067 73.5931L92.8357 80.6642ZM92.8357 77.8358C93.6167 77.0547 94.8831 77.0547 95.6641 77.8358L88.593 84.9068C91.7172 88.0311 96.7826 88.031 99.9068 84.9069L92.8357 77.8358ZM95.6641 77.8358L80.6825 62.8542L73.6115 69.9253L88.593 84.9069L95.6641 77.8358Z" fill="#121212" mask="url(#path-14-outside-1_127_1912)"/>
<circle cx="12" cy="6" r="2" fill="#121212"/>
<circle cx="18" cy="6" r="2" fill="#121212"/>
<circle cx="24" cy="6" r="2" fill="#121212"/>
</svg>
