<svg width="110" height="110" viewBox="0 0 110 110" fill="none" xmlns="http://www.w3.org/2000/svg">
<path d="M18 42C18 41.4477 18.4477 41 19 41H51C51.5523 41 52 41.4477 52 42C52 42.5523 51.5523 43 51 43H19C18.4477 43 18 42.5523 18 42Z" fill="white"/>
<path d="M18 51C18 50.4477 18.4477 50 19 50H62C62.5523 50 63 50.4477 63 51C63 51.5523 62.5523 52 62 52H19C18.4477 52 18 51.5523 18 51Z" fill="white"/>
<path d="M19 59C18.4477 59 18 59.4477 18 60C18 60.5523 18.4477 61 19 61H38C38.5523 61 39 60.5523 39 60C39 59.4477 38.5523 59 38 59H19Z" fill="white"/>
<path d="M56 42C56 41.4477 56.4477 41 57 41H74C74.5523 41 75 41.4477 75 42C75 42.5523 74.5523 43 74 43H57C56.4477 43 56 42.5523 56 42Z" fill="white"/>
<path d="M68 50C67.4477 50 67 50.4477 67 51C67 51.5523 67.4477 52 68 52H74C74.5523 52 75 51.5523 75 51C75 50.4477 74.5523 50 74 50H68Z" fill="white"/>
<path d="M42 60C42 59.4477 42.4477 59 43 59H54C54.5523 59 55 59.4477 55 60C55 60.5523 54.5523 61 54 61H43C42.4477 61 42 60.5523 42 60Z" fill="white"/>
<path d="M59 59C58.4477 59 58 59.4477 58 60C58 60.5523 58.4477 61 59 61H82C82.5523 61 83 60.5523 83 60C83 59.4477 82.5523 59 82 59H59Z" fill="white"/>
<path d="M79 42C79 41.4477 79.4477 41 80 41H92C92.5523 41 93 41.4477 93 42C93 42.5523 92.5523 43 92 43H80C79.4477 43 79 42.5523 79 42Z" fill="white"/>
<path d="M80 50C79.4477 50 79 50.4477 79 51C79 51.5523 79.4477 52 80 52H89C89.5523 52 90 51.5523 90 51C90 50.4477 89.5523 50 89 50H80Z" fill="white"/>
<path d="M87 60C87 59.4477 87.4477 59 88 59H92C92.5523 59 93 59.4477 93 60C93 60.5523 92.5523 61 92 61H88C87.4477 61 87 60.5523 87 60Z" fill="white"/>
<path fill-rule="evenodd" clip-rule="evenodd" d="M11 33V82H100V33H11ZM98 35H13V80H98V35Z" fill="white"/>
<path fill-rule="evenodd" clip-rule="evenodd" d="M99 20H12C7.58173 20 4 23.5817 4 28V82.5934C4 87.0117 7.58172 90.5934 12 90.5934H99C103.418 90.5934 107 87.0117 107 82.5934V28C107 23.5817 103.418 20 99 20ZM6 28C6 24.6863 8.68629 22 12 22H99C102.314 22 105 24.6863 105 28V82.5934C105 85.9071 102.314 88.5934 99 88.5934H12C8.68629 88.5934 6 85.9071 6 82.5934V28Z" fill="white"/>
<mask id="mask0_1821_9476" style="mask-type:alpha" maskUnits="userSpaceOnUse" x="31" y="33" width="49" height="49">
<circle cx="55.5" cy="57.5" r="24.5" fill="#474747"/>
</mask>
<g mask="url(#mask0_1821_9476)">
<path fill-rule="evenodd" clip-rule="evenodd" d="M19 41C18.4477 41 18 41.4477 18 42C18 42.5523 18.4477 43 19 43H51C51.5523 43 52 42.5523 52 42C52 41.4477 51.5523 41 51 41H19ZM19 50C18.4477 50 18 50.4477 18 51C18 51.5523 18.4477 52 19 52H62C62.5523 52 63 51.5523 63 51C63 50.4477 62.5523 50 62 50H19ZM18 60C18 59.4477 18.4477 59 19 59H38C38.5523 59 39 59.4477 39 60C39 60.5523 38.5523 61 38 61H19C18.4477 61 18 60.5523 18 60ZM57 41C56.4477 41 56 41.4477 56 42C56 42.5523 56.4477 43 57 43H74C74.5523 43 75 42.5523 75 42C75 41.4477 74.5523 41 74 41H57ZM67 51C67 50.4477 67.4477 50 68 50H74C74.5523 50 75 50.4477 75 51C75 51.5523 74.5523 52 74 52H68C67.4477 52 67 51.5523 67 51ZM43 59C42.4477 59 42 59.4477 42 60C42 60.5523 42.4477 61 43 61H54C54.5523 61 55 60.5523 55 60C55 59.4477 54.5523 59 54 59H43ZM58 60C58 59.4477 58.4477 59 59 59H82C82.5523 59 83 59.4477 83 60C83 60.5523 82.5523 61 82 61H59C58.4477 61 58 60.5523 58 60ZM80 41C79.4477 41 79 41.4477 79 42C79 42.5523 79.4477 43 80 43H92C92.5523 43 93 42.5523 93 42C93 41.4477 92.5523 41 92 41H80ZM79 51C79 50.4477 79.4477 50 80 50H89C89.5523 50 90 50.4477 90 51C90 51.5523 89.5523 52 89 52H80C79.4477 52 79 51.5523 79 51ZM88 59C87.4477 59 87 59.4477 87 60C87 60.5523 87.4477 61 88 61H92C92.5523 61 93 60.5523 93 60C93 59.4477 92.5523 59 92 59H88Z" fill="white"/>
</g>
<circle cx="13" cy="28" r="2" fill="white"/>
<circle cx="19" cy="28" r="2" fill="white"/>
<circle cx="25" cy="28" r="2" fill="white"/>
</svg>
