<svg width="110" height="110" viewBox="0 0 110 110" fill="none" xmlns="http://www.w3.org/2000/svg">
<rect x="3" y="21" width="103" height="68.5934" rx="7" stroke="white" stroke-width="2"/>
<path d="M10 32H9V33V82V83H10H99H100V82V33V32H99H10Z" stroke="white" stroke-width="2"/>
<circle cx="12" cy="27" r="2" fill="white"/>
<circle cx="18" cy="27" r="2" fill="white"/>
<circle cx="24" cy="27" r="2" fill="white"/>
<mask id="path-6-inside-1_1807_8887" fill="white">
<path d="M47.4507 57.2761C47.4507 60.3863 46.5284 63.4267 44.8005 66.0127C43.0726 68.5987 40.6166 70.6143 37.7432 71.8045C34.8698 72.9947 31.7079 73.3061 28.6575 72.6993C25.6071 72.0926 22.8051 70.5949 20.6058 68.3956C18.4066 66.1964 16.9089 63.3944 16.3022 60.344C15.6954 57.2936 16.0068 54.1317 17.197 51.2583C18.3872 48.3849 20.4028 45.9289 22.9888 44.201C25.5748 42.4731 28.6152 41.5508 31.7254 41.5508V57.2761H47.4507Z"/>
</mask>
<path d="M47.4507 57.2761C47.4507 60.3863 46.5284 63.4267 44.8005 66.0127C43.0726 68.5987 40.6166 70.6143 37.7432 71.8045C34.8698 72.9947 31.7079 73.3061 28.6575 72.6993C25.6071 72.0926 22.8051 70.5949 20.6058 68.3956C18.4066 66.1964 16.9089 63.3944 16.3022 60.344C15.6954 57.2936 16.0068 54.1317 17.197 51.2583C18.3872 48.3849 20.4028 45.9289 22.9888 44.201C25.5748 42.4731 28.6152 41.5508 31.7254 41.5508V57.2761H47.4507Z" stroke="white" stroke-width="4" mask="url(#path-6-inside-1_1807_8887)"/>
<path d="M47.8789 49.0902C48.491 50.5681 48.8574 52.1338 48.9658 53.7254H35.2744L35.2744 40.034C36.866 40.1423 38.4317 40.5087 39.9096 41.1209C41.6961 41.8609 43.3194 42.9456 44.6868 44.313C46.0542 45.6803 47.1388 47.3036 47.8789 49.0902Z" stroke="white" stroke-width="2"/>
<ellipse cx="58.5" cy="64.5" rx="2.5" ry="2.5" fill="white"/>
<ellipse cx="67.5" cy="66.5" rx="2.5" ry="2.5" fill="white"/>
<ellipse cx="74.5" cy="54.5" rx="2.5" ry="2.5" fill="white"/>
<ellipse cx="84.5" cy="58.5" rx="2.5" ry="2.5" fill="white"/>
<path fill-rule="evenodd" clip-rule="evenodd" d="M89.9772 47.9258L86.0983 55.3852C86.7323 55.7112 87.2537 56.225 87.5893 56.8531L91.7186 48.9122C91.0428 48.7581 90.4414 48.4084 89.9772 47.9258ZM81.0227 58.0993C81.1026 57.397 81.3905 56.7578 81.8232 56.2447L77.9443 53.8742C77.9809 54.0772 78 54.2862 78 54.4997C78 55.0507 77.8727 55.572 77.6458 56.0357L81.0227 58.0993ZM73.2394 57.7658C72.591 57.5154 72.0359 57.0775 71.6405 56.5185L68.1019 63.0513C68.7879 63.1702 69.4054 63.4888 69.8924 63.945L73.2394 57.7658ZM64.015 66.8258C64.0051 66.7184 64 66.6097 64 66.4997C64 65.8968 64.1525 65.3294 64.421 64.8341L61.9381 63.841C61.9787 64.0543 62 64.2746 62 64.4997C62 64.9987 61.8956 65.4733 61.7074 65.9028L64.015 66.8258ZM56.5787 67.4257C56.0006 67.0453 55.5419 66.4982 55.2711 65.8527L51.2137 71.0167C50.8725 71.451 50.9479 72.0796 51.3822 72.4208C51.8165 72.762 52.4451 72.6866 52.7864 72.2523L56.5787 67.4257Z" fill="white"/>
<ellipse cx="92.5" cy="45.5" rx="2.5" ry="2.5" fill="white"/>
</svg>
