<svg width="20" height="21" viewBox="0 0 20 21" fill="none" xmlns="http://www.w3.org/2000/svg">
<g clip-path="url(#clip0_3297_4156)">
<path fill-rule="evenodd" clip-rule="evenodd" d="M4.51249 10.5C4.51256 10.3841 4.55865 10.2729 4.64063 10.1909C4.72261 10.1089 4.83378 10.0628 4.94972 10.0628L14.8492 10.0628C14.9079 10.0607 14.9665 10.0705 15.0213 10.0915C15.0762 10.1126 15.1262 10.1444 15.1685 10.1852C15.2108 10.226 15.2444 10.2749 15.2673 10.329C15.2903 10.3831 15.3021 10.4412 15.3021 10.5C15.3021 10.5588 15.2903 10.6169 15.2673 10.671C15.2444 10.7251 15.2108 10.774 15.1685 10.8148C15.1262 10.8556 15.0762 10.8874 15.0213 10.9085C14.9665 10.9295 14.9079 10.9393 14.8492 10.9372L4.94972 10.9372C4.83378 10.9372 4.72261 10.8911 4.64063 10.8091C4.55865 10.7271 4.51256 10.6159 4.51249 10.5Z" fill="black"/>
<path fill-rule="evenodd" clip-rule="evenodd" d="M9.89934 5.11266C10.0153 5.11273 10.1265 5.15882 10.2084 5.2408C10.2904 5.32278 10.3365 5.43395 10.3366 5.54988L10.3366 15.4494C10.3326 15.5627 10.2848 15.67 10.2032 15.7487C10.1216 15.8274 10.0127 15.8714 9.89934 15.8714C9.78598 15.8714 9.67705 15.8274 9.59549 15.7487C9.51393 15.67 9.46611 15.5627 9.46212 15.4494L9.46212 5.54988C9.46219 5.43395 9.50828 5.32278 9.59026 5.2408C9.67224 5.15882 9.78341 5.11273 9.89934 5.11266Z" fill="black"/>
</g>
<defs>
<clipPath id="clip0_3297_4156">
<rect width="14" height="14" fill="white" transform="translate(0 10.5) rotate(-45)"/>
</clipPath>
</defs>
</svg>
