<svg width="79" height="87" viewBox="0 0 79 87" fill="none" xmlns="http://www.w3.org/2000/svg">
<g clip-path="url(#clip0_3339_1137)">
<path d="M79.0791 65.4534C78.6295 65.7064 78.1707 65.9041 77.7321 66.1405C76.8123 66.6362 75.9045 67.1547 74.9894 67.6594C72.8414 68.8442 70.6929 70.028 68.5429 71.2091C67.0555 72.0262 65.5639 72.8354 64.0767 73.6531C61.8353 74.8855 59.597 76.1236 57.3559 77.3567C54.9306 78.6911 52.5039 80.0231 50.0773 81.3551C48.1093 82.4353 46.1402 83.5131 44.1724 84.5934C42.8105 85.3411 41.4493 86.09 40.0901 86.8427C40.0142 86.8847 39.9595 86.9664 39.9149 87.0549C39.7214 87.0801 39.5079 87.0801 39.2588 87.0801C39.1628 86.9975 39.12 86.882 39.0394 86.8372C37.6587 86.0703 36.2725 85.3133 34.889 84.5516C32.6486 83.318 30.4095 82.0821 28.1694 80.848C25.8719 79.5824 23.5741 78.3174 21.2761 77.0529C18.9897 75.7948 16.7037 74.5358 14.4158 73.2804C11.933 71.918 9.44596 70.5636 6.96509 69.1976C4.90836 68.0652 2.85849 66.9198 0.803782 65.7835C0.586623 65.6634 0.35733 65.5661 0.106383 65.4747C0.0791014 50.9358 0.0791014 36.3804 0.0791016 21.7873C1.12022 21.1863 2.16332 20.6268 3.20176 20.0585C3.87707 19.6889 4.5427 19.3009 5.21767 18.9307C7.7006 17.5687 10.1885 16.2162 12.669 14.8495C14.7132 13.7231 16.747 12.5774 18.7901 11.4488C19.9316 10.8182 21.0863 10.2124 22.2282 9.58242C24.3517 8.41085 26.4682 7.22619 28.5914 6.0541C29.6988 5.44277 30.8172 4.85216 31.9254 4.24241C34.0965 3.04792 36.2649 1.84828 38.4318 0.646032C38.7134 0.489795 38.98 0.305521 39.2384 0.107156C39.4368 0.0800781 39.6503 0.080078 39.8994 0.0800781C40.014 0.174266 40.075 0.30256 40.1749 0.357625C42.3466 1.55501 44.5236 2.74251 46.6977 3.93556C48.6538 5.00901 50.6077 6.08658 52.5624 7.16277C54.5056 8.23267 56.448 9.30416 58.3918 10.373C60.3583 11.4543 62.3268 12.532 64.2931 13.6136C66.2142 14.6704 68.1338 15.7298 70.0537 16.7888C72.3183 18.038 74.5812 19.2904 76.8476 20.5363C77.5684 20.9325 78.298 21.3121 79.0513 21.6841C79.0791 36.2512 79.0791 50.8334 79.0791 65.4534ZM0.716104 62.6315C0.716105 63.2892 0.727302 63.9473 0.710371 64.6046C0.703964 64.8533 0.78545 64.9856 1.00138 65.1028C2.45383 65.8906 3.89805 66.6942 5.34584 67.4909C16.6384 73.7056 27.9317 79.9188 39.2206 86.1404C39.4846 86.2859 39.6768 86.2889 39.9415 86.1426C44.6391 83.546 49.3427 80.9605 54.045 78.3725C62.0598 73.9616 70.0739 69.5495 78.092 65.1448C78.3405 65.0083 78.4495 64.8661 78.4493 64.5627C78.441 50.5736 78.4413 36.5845 78.4478 22.5954C78.448 22.3188 78.3701 22.1674 78.1245 22.0345C76.5085 21.16 74.9024 20.2669 73.2925 19.3808C62.1976 13.2732 51.1017 7.1673 40.0113 1.0512C39.6944 0.876412 39.4598 0.88343 39.1479 1.05597C34.4743 3.64131 29.7939 6.214 25.1149 8.78939C17.1119 13.1944 9.1098 17.601 1.10206 21.997C0.805692 22.1597 0.707704 22.3364 0.707951 22.678C0.717556 35.9689 0.716104 49.2599 0.716104 62.6315Z" fill="#6B7A7E"/>
<path d="M0.716162 62.5917C0.716162 49.2605 0.717614 35.9695 0.708008 22.6785C0.707761 22.3369 0.80575 22.1602 1.10212 21.9975C9.10986 17.6015 17.112 13.1949 25.115 8.78992C29.7939 6.21453 34.4743 3.64184 39.148 1.0565C39.4599 0.883959 39.6944 0.876941 40.0114 1.05173C51.1018 7.16782 62.1976 13.2737 73.2926 19.3813C74.9024 20.2675 76.5086 21.1606 78.1245 22.035C78.3701 22.1679 78.448 22.3193 78.4479 22.596C78.4414 36.5851 78.4411 50.5742 78.4493 64.5633C78.4495 64.8667 78.3405 65.0088 78.0921 65.1453C70.074 69.55 62.0598 73.9621 54.0451 78.3731C49.3428 80.961 44.6392 83.5465 39.9416 86.1432C39.6769 86.2895 39.4847 86.2865 39.2206 86.141C27.9318 79.9193 16.6385 73.7061 5.3459 67.4915C3.89811 66.6947 2.45389 65.8911 1.00144 65.1033C0.785508 64.9862 0.704022 64.8538 0.710429 64.6051C0.727359 63.9478 0.716162 63.2897 0.716162 62.5917ZM76.9391 55.501C76.9406 47.5962 76.9422 39.6914 76.943 31.7867C76.943 31.72 76.9319 31.6533 76.9404 31.5113C76.9415 28.9345 76.9284 26.3576 76.9568 23.7811C76.9619 23.322 76.8102 23.1016 76.43 22.8946C64.291 16.2835 52.1569 9.66311 40.028 3.03292C39.6981 2.85258 39.4641 2.85487 39.1352 3.03491C30.5452 7.73617 21.9487 12.4249 13.3528 17.1151C9.81478 19.0455 6.27945 20.9813 2.73218 22.8941C2.32827 23.1119 2.17126 23.3501 2.20262 23.8185C2.24912 24.5132 2.2131 25.2135 2.21496 25.9113C2.21997 27.8032 2.22643 29.6951 2.21922 31.6602C2.21768 39.565 2.21609 47.4697 2.21533 55.3745C2.21533 55.4411 2.22643 55.5078 2.21797 55.6499C2.21687 58.3206 2.21907 60.9914 2.20901 63.6621C2.20812 63.9005 2.28935 64.0174 2.49006 64.1239C3.37693 64.5947 4.25433 65.084 5.13595 65.565C16.4809 71.7553 27.8266 77.9442 39.1675 84.1423C39.4656 84.3051 39.6843 84.3169 39.9902 84.1493C47.0952 80.2579 54.2064 76.3783 61.3173 72.4982C66.3519 69.7511 71.3863 67.0036 76.4263 64.267C76.7814 64.0742 76.9896 63.8844 76.9566 63.4231C76.907 62.7289 76.9452 62.0283 76.9434 61.3304C76.9383 59.4117 76.9319 57.493 76.9391 55.501Z" fill="#FEFEFE"/>
<path d="M76.926 31.5863C76.9319 31.653 76.943 31.7196 76.943 31.7863C76.9422 39.6911 76.9406 47.5958 76.8968 55.5336C75.8671 55.566 74.8792 55.5824 73.8925 55.5562C73.5064 55.546 73.3721 55.636 73.378 56.062C73.4032 57.899 73.3515 59.7377 73.4081 61.5732C73.4291 62.2536 73.2156 62.6273 72.6022 62.7744C72.5982 62.7181 72.5965 62.6957 72.6134 62.6526C73.1292 62.4711 73.2539 62.1391 73.247 61.6072C73.2136 59.0172 73.2319 56.4264 73.2319 53.8359C73.2319 53.6917 73.2319 53.5476 73.2319 53.3904C50.8557 53.3904 28.5152 53.3904 6.14186 53.3904C6.14186 53.5588 6.14186 53.7045 6.14186 53.8501C6.14186 56.4406 6.15222 59.0312 6.13207 61.6215C6.12855 62.074 6.18107 62.4268 6.64002 62.6267C6.63603 62.6825 6.6345 62.7048 6.60488 62.716C6.12078 62.5701 5.9754 62.2804 5.98346 61.7846C6.0148 59.8561 5.99003 57.9267 6.00225 55.9978C6.0043 55.6741 5.92328 55.5509 5.58517 55.5576C4.46788 55.5797 3.35 55.571 2.23235 55.5741C2.22643 55.5074 2.21533 55.4408 2.21533 55.3741C2.21609 47.4694 2.21768 39.5646 2.26154 31.6269C3.38455 31.5945 4.46563 31.5786 5.54572 31.6047C5.92468 31.6139 6.00584 31.4778 6.00323 31.1205C5.98867 29.1336 6.00107 27.1465 5.99066 25.1596C5.98922 24.8865 6.06287 24.7166 6.30448 24.5823C10.56 22.2176 14.812 19.8463 19.0645 17.4759C22.2192 15.7174 25.3742 13.9593 28.5278 12.1987C32.1666 10.1674 35.803 8.13163 39.4465 6.10906C39.5665 6.04243 39.776 6.04692 39.9031 6.10729C40.3202 6.30546 40.7194 6.54305 41.1239 6.76846C44.5677 8.68766 48.0116 10.6067 51.4546 12.5274C56.0761 15.1055 60.6966 17.6854 65.3181 20.2636C67.8599 21.6816 70.4 23.1027 72.9483 24.5085C73.2761 24.6893 73.4045 24.8925 73.3997 25.2871C73.3758 27.2604 73.3939 29.2342 73.3833 31.2078C73.3817 31.5036 73.4644 31.6069 73.7633 31.6017C74.8173 31.5831 75.8717 31.5894 76.926 31.5863ZM64.41 33.7931C67.3438 33.7931 70.2777 33.7931 73.2319 33.7931C73.2319 33.5949 73.2319 33.448 73.2319 33.3011C73.2319 30.6832 73.2176 28.0651 73.2453 25.4475C73.2502 24.9876 73.0939 24.7752 72.7179 24.5659C61.8599 18.5236 51.0075 12.4708 40.1602 6.40867C39.8247 6.2212 39.5855 6.19732 39.2347 6.39348C28.3083 12.5044 17.3748 18.6023 6.43792 24.6939C6.20461 24.8238 6.1353 24.9634 6.13618 25.2231C6.14542 27.9484 6.14189 30.6737 6.14189 33.399C6.14189 33.5173 6.14189 33.6356 6.14189 33.7931C25.563 33.7931 44.9469 33.7931 64.41 33.7931ZM23.0961 48.2934C25.3263 49.2716 27.9083 48.7616 29.2953 47.0489C28.9214 46.6849 28.5461 46.3197 28.1721 45.9557C26.3127 47.8345 23.9777 47.3272 22.9313 46.2098C21.738 44.9356 21.6885 42.7271 22.8487 41.3939C24.1502 39.8983 26.1173 39.9363 28.1606 41.5168C28.5365 41.1603 28.9164 40.7999 29.3057 40.4305C28.2292 39.3026 26.9664 38.7368 25.4707 38.7083C23.0767 38.6628 21.0684 40.1656 20.5011 42.4303C19.9021 44.8216 20.9237 47.1654 23.0961 48.2934ZM58.3511 42.916C57.1521 41.4216 55.6914 41.4962 54.0938 42.2327C54.0938 40.9177 54.0938 39.6502 54.0938 38.3715C53.5253 38.3715 52.9913 38.3715 52.4363 38.3715C52.4363 41.7742 52.4363 45.1592 52.4363 48.5553C52.9974 48.5553 53.5428 48.5553 54.1111 48.5553C54.1111 47.3949 54.1013 46.2566 54.1138 45.1187C54.127 43.9276 54.7947 43.2903 55.9617 43.3267C56.4973 43.3435 56.8705 43.6139 57.0047 44.1371C57.0735 44.4052 57.0951 44.6919 57.0973 44.9706C57.1069 46.1607 57.1014 47.351 57.1014 48.5477C57.6926 48.5477 58.2481 48.5477 58.811 48.5477C58.811 47.1912 58.8512 45.8628 58.7912 44.5392C58.7672 44.0102 58.5222 43.4916 58.3511 42.916ZM34.895 44.0233C34.895 43.3039 34.895 42.5845 34.895 41.8598C34.3744 41.8598 33.9077 41.8598 33.4602 41.8598C33.4602 43.4118 33.3716 44.945 33.4861 46.4622C33.5926 47.8751 34.7374 48.7929 36.137 48.8368C36.8259 48.8583 37.4591 48.6686 38.0547 48.3314C38.1735 48.6083 39.0155 48.6932 39.7836 48.5294C39.7836 46.307 39.7836 44.0846 39.7836 41.866C39.2136 41.866 38.6696 41.866 38.1081 41.866C38.1081 42.9846 38.1109 44.0712 38.1061 45.1579C38.1049 45.4117 38.1034 45.6703 38.0579 45.9183C37.8984 46.7867 37.1008 47.3303 36.1279 47.2533C35.3602 47.1925 34.9213 46.6523 34.8981 45.7147C34.8848 45.1781 34.8952 44.6408 34.895 44.0233ZM48.4517 41.6415C46.0777 41.8269 44.5947 43.8409 45.1576 46.1151C45.553 47.7128 47.0555 48.8178 48.8459 48.8024C49.9393 48.793 50.8892 48.4077 51.6952 47.595C51.2846 47.2099 50.8999 46.849 50.5185 46.4913C49.4019 47.3901 48.1454 47.4416 47.3132 46.6397C46.62 45.9718 46.5099 44.8102 47.0684 44.0304C47.3615 43.6211 47.7675 43.38 48.2442 43.2773C49.1106 43.0906 49.8811 43.313 50.5307 43.9286C50.9365 43.5419 51.3107 43.1853 51.701 42.8132C50.796 41.95 49.7485 41.5533 48.4517 41.6415ZM43.4353 44.7484C43.4353 44.2284 43.4353 43.7085 43.4353 43.1481C43.8792 43.1481 44.2811 43.1481 44.6912 43.1481C44.6912 42.688 44.6912 42.2701 44.6912 41.8259C44.2642 41.8259 43.8719 41.8259 43.4377 41.8259C43.4377 41.0292 43.4377 40.2584 43.4377 39.4716C42.7828 39.4716 42.1702 39.4716 41.5075 39.4716C41.5075 40.263 41.5075 41.0435 41.5075 41.8544C41.1339 41.8544 40.8101 41.8544 40.4769 41.8544C40.4769 42.2961 40.4769 42.7054 40.4769 43.1595C40.8316 43.1595 41.1652 43.1595 41.5366 43.1595C41.5366 44.9933 41.5366 46.7824 41.5366 48.5542C42.1915 48.5542 42.8055 48.5542 43.4353 48.5542C43.4353 47.2955 43.4353 46.0622 43.4353 44.7484ZM31.9165 47.0843C31.9165 44.1804 31.9165 41.2765 31.9165 38.3744C31.2462 38.3744 30.6328 38.3744 30.0025 38.3744C30.0025 41.7798 30.0025 45.1632 30.0025 48.5531C30.6455 48.5531 31.2676 48.5531 31.9165 48.5531C31.9165 48.0726 31.9165 47.6187 31.9165 47.0843ZM48.8158 44.0052C48.2406 44.0183 47.7986 44.256 47.5687 44.8118C47.3955 45.2303 47.5202 45.7427 47.8651 46.0587C48.2739 46.4332 48.7486 46.5095 49.2573 46.3124C49.7481 46.1223 50.0478 45.6275 50.0053 45.1144C49.9582 44.5454 49.5776 44.1728 48.8158 44.0052Z" fill="#18323C"/>
<path d="M76.9331 31.5487C75.8717 31.5895 74.8173 31.5832 73.7633 31.6017C73.4644 31.6069 73.3817 31.5037 73.3833 31.2078C73.3939 29.2343 73.3758 27.2605 73.3997 25.2872C73.4045 24.8925 73.2761 24.6894 72.9483 24.5085C70.4 23.1027 67.8599 21.6817 65.3181 20.2637C60.6966 17.6855 56.0761 15.1055 51.4546 12.5274C48.0116 10.6067 44.5677 8.68769 41.1239 6.76849C40.7194 6.54307 40.3202 6.30549 39.9031 6.10731C39.776 6.04695 39.5665 6.04246 39.4465 6.10909C35.803 8.13166 32.1666 10.1674 28.5278 12.1988C25.3742 13.9593 22.2192 15.7174 19.0645 17.4759C14.812 19.8463 10.56 22.2176 6.30448 24.5824C6.06287 24.7166 5.98922 24.8865 5.99065 25.1596C6.00106 27.1466 5.98866 29.1337 6.00322 31.1206C6.00584 31.4778 5.92468 31.6139 5.54571 31.6048C4.46562 31.5786 3.38454 31.5945 2.26808 31.5903C2.22642 29.6947 2.21996 27.8029 2.21495 25.911C2.2131 25.2131 2.24911 24.5128 2.20261 23.8182C2.17125 23.3497 2.32826 23.1116 2.73217 22.8938C6.27944 20.981 9.81477 19.0452 13.3528 17.1147C21.9487 12.4246 30.5452 7.73584 39.1352 3.03458C39.4641 2.85454 39.6981 2.85225 40.028 3.03259C52.1569 9.66278 64.291 16.2832 76.43 22.8942C76.8101 23.1012 76.9619 23.3217 76.9568 23.7808C76.9284 26.3573 76.9415 28.9342 76.9331 31.5487Z" fill="#6A797D"/>
<path d="M72.6046 62.8096C73.2156 62.6285 73.429 62.2548 73.4081 61.5744C73.3515 59.7389 73.4032 57.9002 73.378 56.0632C73.3721 55.6372 73.5064 55.5472 73.8925 55.5574C74.8792 55.5836 75.8671 55.5672 76.8902 55.5715C76.9319 57.4938 76.9383 59.4125 76.9434 61.3312C76.9452 62.0291 76.907 62.7297 76.9566 63.4239C76.9895 63.8852 76.7813 64.075 76.4262 64.2678C71.3862 67.0045 66.3519 69.7519 61.3173 72.499C54.2064 76.3791 47.0952 80.2587 39.9902 84.1501C39.6843 84.3177 39.4656 84.306 39.1675 84.1431C27.8266 77.945 16.4809 71.7562 5.13593 65.5658C4.25431 65.0848 3.37691 64.5955 2.49004 64.1248C2.28933 64.0182 2.20809 63.9013 2.20899 63.6629C2.21905 60.9922 2.21685 58.3214 2.22514 55.613C3.34998 55.5722 4.46786 55.5809 5.58515 55.5588C5.92326 55.5521 6.00428 55.6752 6.00223 55.999C5.99001 57.9279 6.01478 59.8573 5.98344 61.7857C5.97538 62.2816 6.12076 62.5713 6.61792 62.7365C9.46131 64.3374 12.2614 65.9119 15.0663 67.4775C18.8417 69.5847 22.6219 71.6827 26.3977 73.7892C30.6583 76.1661 34.9189 78.5429 39.1706 80.9362C39.5495 81.1495 39.8325 81.1508 40.2119 80.9364C43.3889 79.1407 46.5768 77.3651 49.7637 75.5878C52.6852 73.9585 55.6106 72.3367 58.5324 70.7079C62.3316 68.5899 66.13 66.4703 69.9261 64.3466C70.8243 63.8442 71.7121 63.3224 72.6046 62.8096Z" fill="#6A797D"/>
<path d="M64.3705 33.7941C44.947 33.7941 25.563 33.7941 6.14195 33.7941C6.14195 33.6365 6.14195 33.5183 6.14195 33.4C6.14195 30.6747 6.14548 27.9494 6.13624 25.2241C6.13536 24.9644 6.20467 24.8248 6.43798 24.6949C17.3748 18.6033 28.3084 12.5054 39.2348 6.39445C39.5855 6.19829 39.8248 6.22217 40.1603 6.40964C51.0076 12.4717 61.86 18.5245 72.7179 24.5669C73.094 24.7761 73.2503 24.9886 73.2454 25.4485C73.2177 28.0661 73.232 30.6842 73.232 33.3021C73.232 33.449 73.232 33.5959 73.232 33.7941C70.2778 33.7941 67.3439 33.7941 64.3705 33.7941ZM36.9337 26.7038C36.7662 27.175 36.5986 27.6462 36.3987 28.2084C36.1141 27.4074 35.8602 26.6945 35.6075 25.9811C35.4043 25.4071 35.3908 25.3991 34.7667 25.5489C34.7033 26.7112 34.6394 27.8826 34.575 29.0637C34.7519 29.0637 34.8914 29.0637 35.044 29.0637C35.0899 28.1286 35.1349 27.2119 35.1798 26.2953C35.2845 26.3723 35.322 26.465 35.3546 26.5594C35.5943 27.253 35.8379 27.9453 36.0687 28.642C36.1334 28.8371 36.2421 28.9588 36.4356 28.8879C36.5447 28.8479 36.6635 28.7305 36.7045 28.6197C36.9885 27.8538 37.2531 27.0805 37.5239 26.3096C37.5533 26.3141 37.5827 26.3187 37.6121 26.3232C37.6547 27.2351 37.6973 28.147 37.74 29.0608C37.9086 29.0608 38.0458 29.0608 38.2154 29.0608C38.1506 27.8654 38.0871 26.6938 38.0239 25.5293C37.3884 25.429 37.3884 25.4291 37.1962 25.9658C37.1152 26.1918 37.034 26.4178 36.9337 26.7038ZM47.1018 25.6741C46.9087 25.3365 46.6338 25.5127 46.3795 25.5271C46.3795 26.7184 46.3795 27.8818 46.3795 29.0599C46.5331 29.0599 46.6684 29.0599 46.8404 29.0599C46.8404 28.1252 46.8404 27.2128 46.8404 26.1827C47.3258 27.0711 47.7771 27.8403 48.1699 28.6394C48.371 29.0484 48.6202 29.1811 49.0325 29.0428C49.0325 27.8675 49.0325 26.6918 49.0325 25.5051C48.8845 25.5051 48.7582 25.5051 48.5858 25.5051C48.5858 26.4208 48.5858 27.3177 48.5858 28.2145C48.5578 28.2211 48.5298 28.2278 48.5018 28.2344C48.0446 27.399 47.5874 26.5637 47.1018 25.6741ZM34.9484 21.0415C34.9786 20.4341 35.0759 19.8203 35.0215 19.2208C34.9561 18.5004 34.4943 18.1507 33.7889 18.126C33.0253 18.0992 32.4897 18.4183 32.3664 19.1066C32.2693 19.6488 32.2495 20.2283 32.3221 20.7737C32.4256 21.5518 32.9092 21.9405 33.673 21.8506C34.1622 21.7929 34.4962 21.9004 34.7644 22.2962C34.776 22.3134 34.8117 22.3137 34.8446 22.3246C34.9462 22.2305 35.0505 22.1341 35.1669 22.0263C34.9978 21.8293 34.8529 21.6606 34.7078 21.4916C34.7855 21.3521 34.8558 21.226 34.9484 21.0415ZM27.2429 31.5786C21.9486 31.5786 16.6543 31.5786 11.36 31.5786C11.36 31.5976 11.36 31.6165 11.36 31.6354C30.1718 31.6354 48.9836 31.6354 67.7954 31.6354C67.7954 31.6165 67.7954 31.5976 67.7954 31.5786C54.3042 31.5786 40.8131 31.5786 27.2429 31.5786ZM33.2638 28.3483C33.4864 27.7258 33.5008 27.09 33.3742 26.4472C33.238 25.756 32.8305 25.4048 32.142 25.3763C31.3763 25.3447 30.8331 25.6616 30.7078 26.3463C30.6085 26.8892 30.5957 27.4678 30.6584 28.0171C30.7344 28.6842 31.0942 29.0035 31.6572 29.0909C32.4171 29.2089 32.89 29.002 33.2638 28.3483ZM40.8148 13.729C40.8388 13.1334 40.9277 12.5311 40.8699 11.9439C40.8015 11.2488 40.3391 10.9032 39.6499 10.8762C38.8842 10.8462 38.3566 11.1654 38.2163 11.8505C38.1186 12.3283 38.1029 12.8358 38.1312 13.3251C38.1737 14.0596 38.5459 14.4832 39.1346 14.5865C39.9468 14.729 40.4565 14.4852 40.8148 13.729ZM43.3566 18.5883C43.3566 19.6565 43.3566 20.7246 43.3566 21.8124C43.5276 21.8124 43.6637 21.8124 43.8369 21.8124C43.8369 21.3338 43.8369 20.8716 43.8369 20.3453C44.147 20.3903 44.5454 20.3326 44.653 20.4863C44.9217 20.8703 45.0583 21.3501 45.2544 21.8065C45.3542 21.8065 45.5034 21.8065 45.6733 21.8065C45.5332 21.2034 45.5395 20.5749 44.9971 20.1748C45.5337 19.8761 45.737 19.4519 45.6078 18.9202C45.5016 18.4833 45.1855 18.286 44.5596 18.2744C44.2443 18.2686 43.9273 18.2552 43.6144 18.2836C43.5226 18.2919 43.4423 18.432 43.3566 18.5883ZM36.3967 19.6961C36.4088 20.098 36.3918 20.5035 36.4394 20.901C36.5202 21.5752 36.916 21.8727 37.6598 21.8726C38.4212 21.8725 38.8752 21.5644 38.9151 20.8913C38.9673 20.0123 38.9279 19.1277 38.9279 18.2248C38.7957 18.2248 38.6599 18.2248 38.4935 18.2248C38.4935 19.047 38.5052 19.8501 38.4897 20.6527C38.4779 21.2632 38.2816 21.4418 37.6929 21.4445C37.0782 21.4474 36.8888 21.273 36.8778 20.6344C36.864 19.8327 36.8745 19.0305 36.8745 18.2284C36.6995 18.2284 36.5616 18.2284 36.3967 18.2284C36.3967 18.7066 36.3967 19.1612 36.3967 19.6961ZM43.8736 25.4935C43.7752 25.5924 43.6291 25.6736 43.5862 25.7931C43.3428 26.472 43.1233 27.1598 42.8974 27.8451C42.7656 28.2448 42.637 28.6457 42.4989 29.071C42.6914 29.071 42.8339 29.071 42.9908 29.071C43.0917 28.781 43.191 28.4957 43.2883 28.2161C43.7541 28.2161 44.1985 28.2161 44.6409 28.2161C44.74 28.5118 44.833 28.7896 44.926 29.0673C45.0942 29.0673 45.2497 29.0673 45.4442 29.0673C45.0816 27.9643 44.7157 26.8906 44.3817 25.8067C44.3011 25.5452 44.1817 25.4567 43.8736 25.4935ZM39.8973 29.0752C39.9296 28.6332 39.962 28.1912 39.9969 27.7148C40.3214 27.7148 40.6247 27.738 40.9233 27.7097C41.4466 27.6601 41.7197 27.3154 41.7493 26.7173C41.7821 26.055 41.5426 25.6134 41.0329 25.5577C40.5319 25.5029 40.0206 25.5458 39.5003 25.5458C39.5003 26.7284 39.5003 27.8869 39.5003 29.0648C39.6195 29.0711 39.7213 29.0765 39.8973 29.0752ZM44.5126 11.9156C44.3866 11.3263 44.1985 11.0803 43.7412 11.0459C43.2605 11.0098 42.7752 11.0378 42.2756 11.0378C42.2756 12.2247 42.2756 13.394 42.2756 14.5536C42.4399 14.5536 42.5763 14.5536 42.7468 14.5536C42.7468 14.1021 42.7468 13.6797 42.7468 13.2858C43.1971 13.2274 43.6327 13.2407 44.0164 13.1035C44.5037 12.9293 44.5226 12.4404 44.5126 11.9156ZM41.4721 18.268C41.0827 18.268 40.6932 18.268 40.294 18.268C40.294 19.4809 40.294 20.6403 40.294 21.8093C40.9397 21.8093 41.5641 21.8093 42.1921 21.8093C42.1921 21.6727 42.1921 21.5597 42.1921 21.3999C41.7066 21.3999 41.241 21.3999 40.7702 21.3999C40.7702 20.9845 40.7702 20.6162 40.7702 20.2153C41.2085 20.2153 41.6246 20.2153 42.068 20.2153C42.0608 20.0574 42.0552 19.9342 42.0479 19.773C41.5946 19.773 41.1807 19.773 40.7742 19.773C40.7742 19.3907 40.7742 19.0491 40.7742 18.673C41.2551 18.673 41.7091 18.673 42.1843 18.673C42.1755 18.5217 42.1688 18.4069 42.1607 18.268C41.9407 18.268 41.7448 18.268 41.4721 18.268ZM28.1677 25.3961C27.5953 25.5171 27.2493 25.8888 27.1942 26.4625C27.1423 27.0022 27.1447 27.5556 27.1983 28.0952C27.2478 28.5939 27.5269 28.9777 28.047 29.0795C28.6237 29.1924 29.1402 29.0802 29.5479 28.5425C29.4578 28.4499 29.3772 28.3671 29.2905 28.2781C29.1645 28.3752 29.0758 28.4522 28.9791 28.5168C28.3724 28.9223 27.7645 28.6821 27.6678 27.9532C27.6053 27.4825 27.6142 26.9901 27.6721 26.5177C27.7459 25.9157 28.1463 25.682 28.7255 25.8412C28.8977 25.8886 29.0569 25.9845 29.2491 26.0701C29.3167 25.9871 29.3962 25.8894 29.4824 25.7834C29.1253 25.3888 28.6912 25.3495 28.1677 25.3961ZM35.6959 14.1968C35.6959 14.315 35.6959 14.4333 35.6959 14.5639C35.8692 14.5639 36.0076 14.5639 36.1787 14.5639C36.1787 13.5202 36.1787 12.4949 36.1787 11.4378C36.5484 11.4378 36.8859 11.4378 37.2481 11.4378C37.2392 11.2793 37.2322 11.1549 37.2255 11.0363C36.346 11.0363 35.4985 11.0363 34.6432 11.0363C34.6432 11.1775 34.6432 11.2936 34.6432 11.4442C34.9924 11.4442 35.3291 11.4442 35.6959 11.4442C35.6959 12.3592 35.6959 13.2399 35.6959 14.1968ZM51.3729 27.0735C51.177 26.6665 50.9557 26.2697 50.7931 25.8493C50.6586 25.5015 50.4612 25.4181 50.1069 25.545C50.6011 26.6854 51.4753 27.6911 51.1187 29.0621C51.3354 29.0621 51.4721 29.0621 51.6367 29.0621C51.6367 28.8436 51.6504 28.6442 51.634 28.4474C51.5917 27.9407 51.6848 27.4802 51.9488 27.0355C52.2308 26.5606 52.4567 26.0512 52.7164 25.5386C52.3783 25.4376 52.1704 25.4827 52.0351 25.8203C51.8625 26.2513 51.6368 26.6603 51.3729 27.0735ZM48.0781 20.6194C48.1272 20.4567 48.1557 20.2835 48.229 20.1331C48.5296 19.5164 48.8439 18.9066 49.157 18.2866C48.7944 18.1739 48.598 18.2628 48.4683 18.5923C48.3 19.02 48.0794 19.4263 47.847 19.9137C47.6169 19.4269 47.3972 19.0199 47.2306 18.5914C47.0945 18.2412 46.8928 18.1696 46.5441 18.2958C47.0598 19.4411 47.9107 20.4554 47.559 21.8418C47.7901 21.8288 47.9275 21.821 48.0781 21.8125C48.0781 21.4146 48.0781 21.0536 48.0781 20.6194ZM31.0053 21.6908C31.0053 20.5311 31.0053 19.3715 31.0053 18.1982C30.8232 18.2079 30.6958 18.2147 30.5366 18.2232C30.5366 18.3227 30.5367 18.4001 30.5366 18.4776C30.5349 19.5769 30.5411 20.6763 30.5281 21.7755C30.522 22.2873 30.3817 22.4045 29.8795 22.3992C29.8182 22.3986 29.7568 22.4069 29.6751 22.4123C29.6623 22.5612 29.6517 22.6858 29.6416 22.8033C30.4792 23.0233 30.9287 22.6667 31.0053 21.6908Z" fill="#FEFEFE"/>
<path d="M6.6424 62.5935C6.18099 62.4271 6.12847 62.0742 6.13199 61.6218C6.15214 59.0314 6.14178 56.4409 6.14178 53.8504C6.14178 53.7047 6.14178 53.5591 6.14178 53.3906C28.5152 53.3906 50.8556 53.3906 73.2318 53.3906C73.2318 53.5478 73.2318 53.692 73.2318 53.8362C73.2318 56.4267 73.2136 59.0174 73.247 61.6075C73.2538 62.1394 73.1291 62.4713 72.5854 62.6559C61.7093 68.7196 50.8792 74.7585 40.0537 80.8059C39.7926 80.9517 39.607 80.9632 39.3388 80.8134C30.187 75.6979 21.0304 70.5914 11.873 65.4864C10.1326 64.5162 8.38608 63.5575 6.6424 62.5935ZM61.0039 63.9383C61.1011 63.8558 61.2442 63.7927 61.2873 63.6873C61.4485 63.2928 61.5759 62.884 61.7181 62.4814C61.8512 62.1045 61.987 61.7286 62.1216 61.3522C62.1499 61.3581 62.1782 61.364 62.2065 61.3699C62.249 62.2828 62.2915 63.1958 62.3349 64.1278C62.5097 64.1197 62.6472 64.1133 62.8097 64.1058C62.7438 62.8984 62.6799 61.727 62.6164 60.5634C61.9769 60.4802 61.9761 60.4799 61.7852 61.017C61.5313 61.7314 61.2788 62.4464 60.9935 63.2523C60.7113 62.458 60.4578 61.7457 60.2052 61.0331C60.0003 60.4549 60.0009 60.4547 59.3616 60.5795C59.2977 61.7424 59.2332 62.9143 59.1677 64.1059C59.3367 64.1059 59.4755 64.1059 59.6354 64.1059C59.6827 63.1739 59.7292 62.2552 59.7758 61.3365C60.1215 62.0995 60.3797 62.8683 60.6593 63.6289C60.7042 63.7508 60.8451 63.836 61.0039 63.9383ZM46.2862 61.6667C46.2862 61.2959 46.2862 60.9251 46.2862 60.5479C46.1125 60.5479 45.987 60.5479 45.8156 60.5479C45.8156 61.4644 45.8156 62.36 45.8156 63.2556C45.3085 62.4982 44.8604 61.7337 44.4664 60.9411C44.267 60.5398 44.0184 60.4334 43.6157 60.5727C43.6157 61.7526 43.6157 62.9254 43.6157 64.0953C43.7746 64.0953 43.9096 64.0953 44.0816 64.0953C44.0816 63.1588 44.0816 62.2501 44.0816 61.2401C44.5615 62.1177 45.0149 62.8873 45.4067 63.6882C45.6093 64.1022 45.8612 64.2171 46.2862 64.0788C46.2862 63.3001 46.2862 62.5234 46.2862 61.6667ZM22.666 62.5472C22.666 62.785 22.666 63.0229 22.666 63.2607C22.6307 63.2636 22.5955 63.2664 22.5603 63.2693C22.1331 62.4897 21.7059 61.7102 21.2789 60.9306C21.0228 60.4631 20.9647 60.4393 20.4527 60.5901C20.4527 61.7637 20.4527 62.935 20.4527 64.1042C20.6088 64.1042 20.7347 64.1042 20.8946 64.1042C20.8946 63.172 20.8946 62.2587 20.8946 61.3453C21.3847 62.1071 21.8331 62.8736 22.2257 63.6686C22.4244 64.071 22.671 64.2218 23.0997 64.0896C23.0997 62.9211 23.0997 61.7456 23.0997 60.5551C22.9489 60.5551 22.8147 60.5551 22.6653 60.5551C22.6653 61.2121 22.6653 61.8398 22.666 62.5472ZM36.7322 55.5029C28.2809 55.5029 19.8295 55.5029 11.3781 55.5029C11.3782 55.522 11.3782 55.5411 11.3783 55.5601C30.1843 55.5601 48.9903 55.5601 67.7964 55.5601C67.7964 55.5411 67.7964 55.522 67.7964 55.5029C57.468 55.5029 47.1397 55.5029 36.7322 55.5029ZM55.2671 63.1818C55.4831 63.8849 55.8812 64.1758 56.6087 64.162C57.3324 64.1483 57.8282 63.8005 57.9383 63.1001C58.0199 62.5807 58.02 62.0321 57.9574 61.5088C57.8713 60.7885 57.4244 60.4399 56.716 60.4168C55.9515 60.3918 55.4169 60.7119 55.2984 61.4057C55.2034 61.9614 55.2621 62.5444 55.2671 63.1818ZM52.0775 60.5587C51.8714 60.5587 51.6653 60.5587 51.4226 60.5587C51.4226 61.1893 51.4226 61.7752 51.4226 62.361C51.4226 62.9435 51.4226 63.526 51.4226 64.1204C51.9147 64.1204 52.3483 64.1356 52.7806 64.1169C53.43 64.0887 53.8399 63.7424 53.9453 63.0863C54.0104 62.6812 54.0221 62.26 54.0003 61.8493C53.9535 60.9679 53.5411 60.5861 52.6674 60.5612C52.4967 60.5564 52.3258 60.5594 52.0775 60.5587ZM32.761 63.9701C32.8072 64.0208 32.8531 64.1151 32.8995 64.1154C33.372 64.1184 33.8495 64.1464 34.3158 64.0873C34.8491 64.0196 35.2233 63.6796 35.2727 63.1219C35.3217 62.5689 35.3196 62.0032 35.2638 61.451C35.2141 60.9593 34.8598 60.6503 34.3914 60.6022C33.8635 60.548 33.3262 60.5897 32.76 60.5897C32.76 61.7044 32.76 62.7994 32.761 63.9701ZM40.0124 60.767C39.7394 61.1277 39.4796 61.5002 39.186 61.8426C39.085 61.9603 38.8994 62.0026 38.6674 62.1239C38.6674 61.4971 38.6674 61.0213 38.6674 60.519C38.4955 60.5321 38.3603 60.5425 38.2338 60.5522C38.2338 61.7665 38.2338 62.9297 38.2338 64.1065C38.3915 64.1065 38.5306 64.1065 38.7042 64.1065C38.7042 63.5726 38.7042 63.0559 38.7042 62.4263C38.9079 62.5453 39.0696 62.5929 39.1612 62.7018C39.4521 63.0472 39.7389 63.4006 39.985 63.7795C40.1878 64.0918 40.4278 64.2006 40.8115 64.0853C40.3503 63.4761 39.8977 62.8782 39.4429 62.2775C39.8785 61.6941 40.2959 61.1351 40.7133 60.576C40.6869 60.5359 40.6604 60.4958 40.634 60.4558C40.4389 60.5441 40.2437 60.6324 40.0124 60.767ZM47.6029 61.931C47.6055 62.2659 47.586 62.6029 47.6156 62.9353C47.6711 63.5584 47.9691 64.0045 48.4945 64.076C48.9781 64.1419 49.4821 64.0679 49.9752 64.03C50.0526 64.0241 50.1795 63.8853 50.1823 63.8042C50.201 63.2729 50.192 62.7407 50.192 62.2156C49.7543 62.2156 49.366 62.2156 48.9579 62.2156C48.9705 62.3599 48.9805 62.4741 48.9936 62.6242C49.249 62.6242 49.4797 62.6242 49.7215 62.6242C49.7272 62.7406 49.7336 62.8192 49.7346 62.8979C49.7459 63.7778 49.6711 63.8411 48.8046 63.7308C48.4297 63.6831 48.1878 63.4889 48.1478 63.1034C48.1078 62.7186 48.0787 62.3288 48.0928 61.943C48.126 61.0353 48.7228 60.6602 49.5538 61.0052C49.661 61.0497 49.7602 61.1143 49.879 61.1782C49.9625 61.0702 50.0414 60.9681 50.135 60.8468C49.6133 60.4047 49.0351 60.4047 48.4496 60.5773C47.8351 60.7585 47.6795 61.2878 47.6029 61.931ZM17.6979 64.1593C18.6586 64.1485 19.0475 63.864 19.0941 63.0209C19.1396 62.1954 19.104 61.3652 19.104 60.5163C18.9477 60.5163 18.8121 60.5163 18.6467 60.5163C18.6467 60.718 18.647 60.9032 18.6467 61.0884C18.6458 61.7184 18.6555 62.3487 18.639 62.9783C18.6308 63.2915 18.5787 63.6422 18.2038 63.6988C17.2643 63.8407 17.0281 63.6465 17.0253 62.8144C17.0228 62.0514 17.0248 61.2883 17.0248 60.5133C16.8609 60.5133 16.7215 60.5133 16.5619 60.5133C16.5619 61.3728 16.5293 62.2162 16.5718 63.0557C16.6089 63.7905 16.9071 64.0554 17.6979 64.1593ZM36.825 68.5799C36.8095 69.1915 36.7413 69.8077 36.7926 70.4134C36.8494 71.0838 37.2364 71.4054 37.8168 71.4113C38.3969 71.4173 38.8091 71.1029 38.8885 70.4551C38.9608 69.8648 38.9652 69.2542 38.9066 68.662C38.8422 68.0102 38.4927 67.7002 37.9631 67.6675C37.3895 67.6319 37.0588 67.8824 36.825 68.5799ZM29.5971 63.8183C29.6599 63.9199 29.7193 64.1069 29.786 64.1096C30.3604 64.1329 30.936 64.123 31.5173 64.123C31.5173 63.9656 31.5173 63.8526 31.5173 63.6928C31.0328 63.6928 30.5671 63.6928 30.0936 63.6928C30.0936 63.2774 30.0936 62.9091 30.0936 62.5079C30.5309 62.5079 30.947 62.5079 31.3628 62.5079C31.3628 62.3502 31.3628 62.2276 31.3628 62.0656C30.9204 62.0656 30.5064 62.0656 30.0977 62.0656C30.0977 61.6833 30.0977 61.3417 30.0977 60.9655C30.5779 60.9655 31.0321 60.9655 31.5072 60.9655C31.4992 60.8142 31.4931 60.6994 31.4871 60.5858C30.8503 60.5858 30.2392 60.5858 29.5971 60.5858C29.5971 61.6555 29.5971 62.6987 29.5971 63.8183ZM43.7453 70.014C44.0351 69.2873 44.325 68.5606 44.6151 67.8332C44.2826 67.7111 44.1315 67.8163 44.0253 68.1196C43.8093 68.7366 43.5431 69.3351 43.3167 69.9486C43.2468 70.1379 43.239 70.351 43.1939 70.6025C43.6928 70.6025 44.1214 70.6025 44.5869 70.6025C44.5869 70.876 44.5869 71.1113 44.5869 71.3539C44.7496 71.3539 44.8743 71.3539 45.0405 71.3539C45.0405 71.1006 45.0405 70.8659 45.0405 70.6215C45.2575 70.6027 45.4346 70.5873 45.6139 70.5717C45.6139 70.4284 45.6139 70.3122 45.6139 70.1768C45.4127 70.1657 45.2238 70.1552 45.016 70.1437C45.016 69.6768 45.016 69.2492 45.016 68.814C44.8691 68.814 44.7441 68.814 44.5828 68.814C44.5828 69.2687 44.5828 69.7049 44.5828 70.2011C44.2712 70.157 44.0013 70.1187 43.7453 70.014ZM33.9829 70.0239C33.5645 70.3758 33.473 70.8328 33.5521 71.3606C34.2663 71.3606 34.9601 71.3606 35.6699 71.3606C35.6699 71.2225 35.6699 71.098 35.6699 70.9469C35.1091 70.9469 34.5734 70.9469 34.0377 70.9469C34.0085 70.9167 33.9792 70.8864 33.95 70.8562C34.1059 70.6443 34.2355 70.4032 34.4237 70.2272C34.7231 69.9473 35.0869 69.7375 35.378 69.4502C35.8929 68.9419 35.8001 68.0952 35.2085 67.858C34.6631 67.6393 34.124 67.6835 33.6441 68.0685C33.6171 68.0902 33.6086 68.1359 33.5831 68.1873C33.6661 68.2669 33.7476 68.345 33.7848 68.3807C34.0713 68.295 34.3077 68.167 34.5418 68.1712C34.7519 68.1751 35.0993 68.2836 35.137 68.4183C35.2014 68.6486 35.1066 68.9502 35.009 69.1928C34.9519 69.3349 34.7633 69.4249 34.6283 69.5311C34.4305 69.6866 34.2277 69.8356 33.9829 70.0239ZM40.6768 67.787C40.4647 67.8923 40.2525 67.9976 39.9923 68.1267C40.1535 68.2737 40.237 68.3498 40.3156 68.4215C40.433 68.3534 40.5201 68.2922 40.6152 68.2495C41.0096 68.0728 41.4869 68.1383 41.6343 68.3839C41.8052 68.6687 41.6676 69.0996 41.2985 69.3945C41.071 69.5762 40.8327 69.7439 40.5969 69.9145C40.1067 70.2692 39.9393 70.7511 40.0346 71.3501C40.7507 71.3501 41.4531 71.3501 42.1587 71.3501C42.1587 71.2119 42.1587 71.0974 42.1587 70.9395C41.5964 70.9395 41.0543 70.9395 40.5122 70.9395C40.4881 70.9063 40.4641 70.8732 40.44 70.84C40.5902 70.6366 40.7148 70.4045 40.8964 70.2364C41.1872 69.9671 41.5298 69.7563 41.8249 69.4911C42.1683 69.1826 42.2798 68.6759 42.113 68.2796C41.9376 67.863 41.5751 67.7597 41.1744 67.7461C41.0304 67.7413 40.8857 67.7595 40.6768 67.787ZM27.1794 64.121C27.2947 64.121 27.4101 64.121 27.5577 64.121C27.5577 63.0634 27.5577 62.0374 27.5577 60.9796C27.9269 60.9796 28.2649 60.9796 28.6273 60.9796C28.6192 60.821 28.6128 60.6965 28.6067 60.5772C27.727 60.5772 26.8792 60.5772 26.0235 60.5772C26.0235 60.7184 26.0235 60.8345 26.0235 60.9853C26.3727 60.9853 26.7095 60.9853 27.0762 60.9853C27.0762 61.2443 27.0736 61.469 27.0767 61.6937C27.0878 62.495 27.1009 63.2963 27.1794 64.121ZM42.2515 61.827C42.2515 61.402 42.2515 60.9771 42.2515 60.5215C42.0691 60.531 41.9328 60.5381 41.7976 60.5452C41.7976 61.7604 41.7976 62.9319 41.7976 64.0996C41.9594 64.0996 42.0965 64.0996 42.2515 64.0996C42.2515 63.3522 42.2515 62.6297 42.2515 61.827ZM25.0123 63.1133C25.0123 62.2599 25.0123 61.4064 25.0123 60.5216C24.8302 60.531 24.6939 60.538 24.5583 60.545C24.5583 61.7601 24.5583 62.9318 24.5583 64.0996C24.7201 64.0996 24.8573 64.0996 25.0123 64.0996C25.0123 63.7807 25.0123 63.4868 25.0123 63.1133Z" fill="#FEFEFE"/>
<path d="M23.0697 48.2784C20.9234 47.1651 19.9019 44.8213 20.5009 42.43C21.0682 40.1654 23.0765 38.6625 25.4704 38.708C26.9662 38.7365 28.2289 39.3023 29.3055 40.4303C28.9161 40.7996 28.5362 41.16 28.1604 41.5165C26.117 39.936 24.1499 39.8981 22.8485 41.3936C21.6883 42.7268 21.7377 44.9353 22.931 46.2095C23.9774 47.3269 26.3125 47.8342 28.1718 45.9554C28.5459 46.3194 28.9211 46.6847 29.2951 47.0486C27.908 48.7613 25.326 49.2713 23.0697 48.2784Z" fill="#FCFCFC"/>
<path d="M58.3642 42.9417C58.5219 43.4912 58.767 44.0097 58.7909 44.5387C58.8509 45.8624 58.8107 47.1908 58.8107 48.5473C58.2478 48.5473 57.6923 48.5473 57.1012 48.5473C57.1012 47.3505 57.1067 46.1603 57.0971 44.9702C57.0948 44.6915 57.0732 44.4047 57.0045 44.1366C56.8703 43.6134 56.4971 43.343 55.9614 43.3263C54.7944 43.2898 54.1267 43.9272 54.1135 45.1182C54.101 46.2562 54.1108 47.3944 54.1108 48.5548C53.5425 48.5548 52.9971 48.5548 52.436 48.5548C52.436 45.1588 52.436 41.7738 52.436 38.3711C52.991 38.3711 53.525 38.3711 54.0935 38.3711C54.0935 39.6498 54.0935 40.9173 54.0935 42.2323C55.6911 41.4957 57.1518 41.4212 58.3642 42.9417Z" fill="#FDFDFD"/>
<path d="M34.8947 44.0631C34.895 44.6404 34.8845 45.1776 34.8978 45.7143C34.921 46.6518 35.3599 47.192 36.1277 47.2528C37.1005 47.3298 37.8981 46.7862 38.0576 45.9178C38.1031 45.6698 38.1047 45.4112 38.1058 45.1574C38.1107 44.0708 38.1079 42.9841 38.1079 41.8656C38.6693 41.8656 39.2133 41.8656 39.7834 41.8656C39.7834 44.0842 39.7834 46.3065 39.7837 48.529C39.0152 48.6927 38.1732 48.6078 38.0544 48.331C37.4589 48.6682 36.8257 48.8579 36.1367 48.8363C34.7372 48.7925 33.5924 47.8747 33.4858 46.4618C33.3714 44.9445 33.46 43.4114 33.46 41.8594C33.9074 41.8594 34.3741 41.8594 34.8947 41.8594C34.8947 42.584 34.8947 43.3034 34.8947 44.0631Z" fill="#FCFCFC"/>
<path d="M48.489 41.6407C49.7483 41.5534 50.7958 41.9501 51.7008 42.8133C51.3104 43.1853 50.9362 43.5419 50.5305 43.9287C49.8809 43.3131 49.1103 43.0907 48.2439 43.2774C47.7673 43.3801 47.3612 43.6212 47.0682 44.0304C46.5096 44.8103 46.6198 45.9719 47.3129 46.6398C48.1452 47.4417 49.4017 47.3902 50.5183 46.4914C50.8997 46.8491 51.2844 47.2099 51.695 47.5951C50.889 48.4078 49.9391 48.7931 48.8456 48.8025C47.0553 48.8179 45.5528 47.7129 45.1573 46.1151C44.5944 43.8409 46.0774 41.827 48.489 41.6407Z" fill="#FCFCFD"/>
<path d="M43.4355 44.7897C43.4355 46.0633 43.4355 47.2966 43.4355 48.5553C42.8057 48.5553 42.1916 48.5553 41.5367 48.5553C41.5367 46.7835 41.5367 44.9944 41.5367 43.1606C41.1654 43.1606 40.8318 43.1606 40.4771 43.1606C40.4771 42.7065 40.4771 42.2972 40.4771 41.8555C40.8103 41.8555 41.1341 41.8555 41.5077 41.8555C41.5077 41.0446 41.5077 40.2641 41.5077 39.4727C42.1703 39.4727 42.783 39.4727 43.4379 39.4727C43.4379 40.2595 43.4379 41.0303 43.4379 41.827C43.872 41.827 44.2644 41.827 44.6913 41.827C44.6913 42.2712 44.6913 42.6891 44.6913 43.1491C44.2812 43.1491 43.8794 43.1491 43.4355 43.1491C43.4355 43.7096 43.4355 44.2295 43.4355 44.7897Z" fill="#FDFDFD"/>
<path d="M31.9165 47.1251C31.9165 47.6193 31.9165 48.0731 31.9165 48.5537C31.2676 48.5537 30.6455 48.5537 30.0024 48.5537C30.0024 45.1638 30.0024 41.7803 30.0024 38.375C30.6327 38.375 31.2462 38.375 31.9165 38.375C31.9165 41.277 31.9165 44.181 31.9165 47.1251Z" fill="#F8F9F9"/>
<path d="M6.64015 62.627C8.38628 63.5575 10.1328 64.5162 11.8732 65.4864C21.0306 70.5914 30.1872 75.6979 39.339 80.8133C39.6072 80.9632 39.7928 80.9517 40.0539 80.8058C50.8794 74.7585 61.7095 68.7195 72.567 62.6765C72.5966 62.6959 72.5983 62.7183 72.6023 62.7747C71.7122 63.3215 70.8244 63.8432 69.9263 64.3457C66.1301 66.4694 62.3317 68.589 58.5325 70.707C55.6108 72.3358 52.6853 73.9576 49.7639 75.5868C46.5769 77.3642 43.389 79.1398 40.212 80.9354C39.8327 81.1498 39.5497 81.1486 39.1707 80.9352C34.919 78.542 30.6584 76.1651 26.3978 73.7882C22.6221 71.6818 18.8418 69.5838 15.0665 67.4765C12.2616 65.9109 9.46145 64.3365 6.64615 62.7467C6.63463 62.705 6.63616 62.6827 6.64015 62.627Z" fill="#2A424B"/>
<path d="M48.8475 44.0078C49.5777 44.1721 49.9583 44.5447 50.0054 45.1137C50.0479 45.6268 49.7482 46.1216 49.2574 46.3118C48.7487 46.5089 48.2739 46.4325 47.8652 46.058C47.5203 45.742 47.3956 45.2296 47.5687 44.8111C47.7987 44.2554 48.2407 44.0177 48.8475 44.0078Z" fill="#FC3D2E"/>
<path d="M36.943 26.6738C37.0337 26.4178 37.1149 26.1918 37.1959 25.9658C37.3881 25.4291 37.3881 25.429 38.0237 25.5293C38.0868 26.6938 38.1503 27.8654 38.2151 29.0608C38.0456 29.0608 37.9084 29.0608 37.7397 29.0608C37.697 28.147 37.6544 27.2351 37.6118 26.3232C37.5824 26.3187 37.553 26.3141 37.5236 26.3096C37.2528 27.0805 36.9882 27.8538 36.7043 28.6197C36.6632 28.7305 36.5444 28.8479 36.4353 28.8879C36.2418 28.9588 36.1331 28.8371 36.0684 28.642C35.8376 27.9453 35.594 27.253 35.3544 26.5594C35.3217 26.465 35.2842 26.3723 35.1796 26.2953C35.1346 27.2119 35.0896 28.1286 35.0437 29.0637C34.8912 29.0637 34.7517 29.0637 34.5747 29.0637C34.6391 27.8826 34.703 26.7112 34.7665 25.5489C35.3905 25.3991 35.404 25.4071 35.6073 25.9811C35.8599 26.6945 36.1139 27.4074 36.3985 28.2084C36.5984 27.6462 36.7659 27.175 36.943 26.6738Z" fill="#223B45"/>
<path d="M47.1159 25.7C47.5873 26.5624 48.0445 27.3977 48.5017 28.2331C48.5297 28.2265 48.5577 28.2198 48.5856 28.2132C48.5856 27.3164 48.5856 26.4195 48.5856 25.5038C48.7581 25.5038 48.8844 25.5038 49.0324 25.5038C49.0324 26.6905 49.0324 27.8662 49.0324 29.0415C48.62 29.1798 48.3709 29.0471 48.1698 28.6381C47.777 27.839 47.3257 27.0698 46.8402 26.1814C46.8402 27.2115 46.8402 28.1239 46.8402 29.0586C46.6682 29.0586 46.533 29.0586 46.3794 29.0586C46.3794 27.8805 46.3794 26.7171 46.3794 25.5258C46.6337 25.5114 46.9086 25.3352 47.1159 25.7Z" fill="#213A44"/>
<path d="M34.9373 21.0693C34.8558 21.2246 34.7855 21.3507 34.7078 21.4902C34.8529 21.6592 34.9978 21.8279 35.1669 22.0249C35.0505 22.1327 34.9462 22.2291 34.8445 22.3232C34.8117 22.3123 34.776 22.312 34.7643 22.2948C34.4962 21.899 34.1622 21.7915 33.673 21.8492C32.9092 21.9391 32.4256 21.5504 32.3221 20.7723C32.2495 20.2269 32.2693 19.6474 32.3664 19.1052C32.4897 18.4169 33.0253 18.0978 33.7888 18.1246C34.4943 18.1494 34.9561 18.499 35.0215 19.2194C35.0759 19.8189 34.9785 20.4327 34.9373 21.0693ZM32.918 18.9338C32.8801 19.5276 32.7893 20.1242 32.8196 20.7143C32.8478 21.266 33.1216 21.4468 33.6634 21.4422C34.1931 21.4377 34.4962 21.1996 34.546 20.6736C34.5861 20.2496 34.576 19.8179 34.5549 19.3914C34.5378 19.0464 34.4375 18.7187 34.058 18.606C33.6428 18.4826 33.2503 18.4954 32.918 18.9338Z" fill="#213943"/>
<path d="M27.2823 31.5781C40.813 31.5781 54.3041 31.5781 67.7953 31.5781C67.7953 31.5971 67.7953 31.616 67.7953 31.6349C48.9835 31.6349 30.1717 31.6349 11.3599 31.6349C11.3599 31.616 11.3599 31.5971 11.3599 31.5781C16.6542 31.5781 21.9485 31.5781 27.2823 31.5781Z" fill="#17313B"/>
<path d="M33.2484 28.3738C32.89 29.0009 32.4171 29.2077 31.6572 29.0898C31.0942 29.0023 30.7344 28.6831 30.6584 28.016C30.5958 27.4667 30.6085 26.888 30.7078 26.3452C30.8332 25.6605 31.3764 25.3436 32.1421 25.3752C32.8305 25.4036 33.238 25.7549 33.3742 26.4461C33.5008 27.0889 33.4864 27.7247 33.2484 28.3738ZM31.7449 25.8306C31.3839 25.9028 31.191 26.155 31.1645 26.4998C31.1279 26.9765 31.1028 27.4618 31.1494 27.9355C31.2065 28.5168 31.4568 28.6999 32.0134 28.6919C32.5524 28.6842 32.8428 28.4315 32.8921 27.8735C32.925 27.5019 32.929 27.1238 32.904 26.7516C32.852 25.9804 32.5678 25.7489 31.7449 25.8306Z" fill="#213A43"/>
<path d="M40.8072 13.7583C40.4566 14.484 39.9469 14.7278 39.1347 14.5853C38.5459 14.482 38.1737 14.0584 38.1313 13.324C38.1029 12.8346 38.1186 12.3271 38.2164 11.8493C38.3566 11.1642 38.8843 10.845 39.6499 10.875C40.3391 10.902 40.8015 11.2476 40.87 11.9427C40.9278 12.5299 40.8388 13.1322 40.8072 13.7583ZM38.8872 14.0045C39.5239 14.3932 40.2545 14.2146 40.3505 13.5792C40.4364 13.0101 40.3878 12.4114 40.3339 11.832C40.2969 11.434 39.9546 11.3108 39.6042 11.2954C39.2473 11.2798 38.8822 11.3469 38.7587 11.7384C38.5247 12.4803 38.4806 13.2322 38.8872 14.0045Z" fill="#213A43"/>
<path d="M43.3565 18.5495C43.4421 18.4315 43.5224 18.2914 43.6142 18.2831C43.9271 18.2547 44.2441 18.2681 44.5594 18.2739C45.1853 18.2855 45.5014 18.4828 45.6076 18.9197C45.7368 19.4514 45.5335 19.8756 44.9969 20.1743C45.5393 20.5744 45.533 21.2029 45.6732 21.806C45.5032 21.806 45.3541 21.806 45.2542 21.806C45.0581 21.3496 44.9215 20.8697 44.6528 20.4858C44.5453 20.3321 44.1468 20.3897 43.8367 20.3448C43.8367 20.8711 43.8367 21.3333 43.8367 21.8119C43.6636 21.8119 43.5274 21.8119 43.3564 21.8119C43.3564 20.7241 43.3564 19.6559 43.3565 18.5495ZM45.0685 18.9051C44.708 18.512 44.2646 18.7567 43.8288 18.6867C43.8288 18.9403 43.8288 19.1395 43.8288 19.3386C43.8288 19.5359 43.8288 19.7332 43.8288 19.9232C44.8728 20.0725 45.2547 19.7698 45.0685 18.9051Z" fill="#213943"/>
<path d="M36.3965 19.6557C36.3965 19.161 36.3965 18.7064 36.3965 18.2281C36.5614 18.2281 36.6993 18.2281 36.8743 18.2281C36.8743 19.0303 36.8638 19.8324 36.8776 20.6341C36.8886 21.2728 37.078 21.4471 37.6927 21.4443C38.2814 21.4415 38.4777 21.263 38.4895 20.6525C38.505 19.8499 38.4933 19.0467 38.4933 18.2246C38.6597 18.2246 38.7955 18.2246 38.9277 18.2246C38.9277 19.1274 38.967 20.0121 38.9149 20.8911C38.875 21.5641 38.421 21.8723 37.6596 21.8724C36.9158 21.8725 36.5199 21.5749 36.4392 20.9008C36.3916 20.5033 36.4086 20.0978 36.3965 19.6557Z" fill="#243D46"/>
<path d="M43.905 25.4923C44.1814 25.4556 44.3008 25.5441 44.3814 25.8056C44.7153 26.8895 45.0813 27.9632 45.4439 29.0663C45.2493 29.0663 45.0939 29.0663 44.9257 29.0663C44.8326 28.7885 44.7396 28.5108 44.6406 28.215C44.1982 28.215 43.7537 28.215 43.288 28.215C43.1906 28.4946 43.0914 28.7799 42.9904 29.0699C42.8335 29.0699 42.691 29.0699 42.4985 29.0699C42.6367 28.6446 42.7653 28.2438 42.8971 27.844C43.123 27.1587 43.3425 26.4709 43.5858 25.7921C43.6287 25.6725 43.7748 25.5913 43.905 25.4923ZM44.0468 26.2522C43.9956 26.247 43.9027 26.2276 43.8991 26.2387C43.7331 26.7417 43.575 27.2474 43.4097 27.7729C43.7924 27.7729 44.1412 27.7729 44.5252 27.7729C44.3654 27.2701 44.2129 26.7901 44.0468 26.2522Z" fill="#213A43"/>
<path d="M39.8599 29.078C39.7211 29.076 39.6193 29.0706 39.5 29.0642C39.5 27.8863 39.5 26.7279 39.5 25.5452C40.0204 25.5452 40.5316 25.5024 41.0326 25.5572C41.5424 25.6129 41.7818 26.0545 41.7491 26.7168C41.7195 27.3149 41.4464 27.6595 40.923 27.7091C40.6244 27.7374 40.3212 27.7143 39.9966 27.7143C39.9617 28.1906 39.9294 28.6326 39.8599 29.078ZM39.9623 27.2311C40.2911 27.243 40.6332 27.3182 40.9452 27.25C41.3006 27.1725 41.2618 26.804 41.2521 26.5147C41.2432 26.2504 41.17 25.9885 40.8553 25.9596C40.5634 25.9328 40.2673 25.9539 39.9555 25.9539C39.9555 26.3851 39.9555 26.7706 39.9623 27.2311Z" fill="#213A43"/>
<path d="M44.5145 11.9501C44.5224 12.4403 44.5035 12.9292 44.0162 13.1034C43.6324 13.2405 43.1969 13.2273 42.7466 13.2857C42.7466 13.6796 42.7466 14.102 42.7466 14.5534C42.576 14.5534 42.4396 14.5534 42.2754 14.5534C42.2754 13.3939 42.2754 12.2246 42.2754 11.0377C42.7749 11.0377 43.2603 11.0097 43.741 11.0458C44.1983 11.0802 44.3863 11.3262 44.5145 11.9501ZM43.2122 12.8087C43.4913 12.7937 43.8616 12.8903 43.9456 12.522C44.0113 12.2343 44.0266 11.8193 43.8696 11.6195C43.5918 11.2659 43.1297 11.4783 42.7405 11.4484C42.7405 11.9247 42.7405 12.3472 42.7405 12.8087C42.8855 12.8087 43.0127 12.8087 43.2122 12.8087Z" fill="#213A43"/>
<path d="M41.5105 18.2676C41.7448 18.2676 41.9407 18.2676 42.1607 18.2676C42.1688 18.4064 42.1755 18.5212 42.1843 18.6726C41.7091 18.6726 41.2551 18.6726 40.7742 18.6726C40.7742 19.0486 40.7742 19.3902 40.7742 19.7726C41.1806 19.7726 41.5945 19.7726 42.0479 19.7726C42.0552 19.9337 42.0608 20.057 42.068 20.2148C41.6246 20.2148 41.2085 20.2148 40.7702 20.2148C40.7702 20.6157 40.7702 20.984 40.7702 21.3995C41.241 21.3995 41.7066 21.3995 42.1921 21.3995C42.1921 21.5592 42.1921 21.6723 42.1921 21.8088C41.5641 21.8088 40.9397 21.8088 40.2939 21.8088C40.2939 20.6399 40.2939 19.4804 40.2939 18.2676C40.6932 18.2676 41.0826 18.2676 41.5105 18.2676Z" fill="#1F3842"/>
<path d="M28.2009 25.3899C28.6913 25.3485 29.1254 25.3879 29.4825 25.7825C29.3962 25.8885 29.3167 25.9861 29.2492 26.0692C29.057 25.9835 28.8977 25.8876 28.7256 25.8403C28.1464 25.681 27.7459 25.9147 27.6721 26.5168C27.6142 26.9891 27.6054 27.4815 27.6678 27.9522C27.7645 28.6811 28.3725 28.9214 28.9792 28.5159C29.0759 28.4512 29.1646 28.3743 29.2906 28.2771C29.3772 28.3661 29.4578 28.4489 29.548 28.5415C29.1402 29.0792 28.6238 29.1914 28.0471 29.0786C27.527 28.9768 27.2479 28.593 27.1983 28.0942C27.1448 27.5546 27.1424 27.0013 27.1943 26.4616C27.2493 25.8879 27.5954 25.5161 28.2009 25.3899Z" fill="#213943"/>
<path d="M35.6958 14.1575C35.6958 13.2387 35.6958 12.358 35.6958 11.4431C35.3289 11.4431 34.9922 11.4431 34.6431 11.4431C34.6431 11.2924 34.6431 11.1764 34.6431 11.0352C35.4983 11.0352 36.3458 11.0352 37.2254 11.0352C37.232 11.1537 37.239 11.2781 37.2479 11.4367C36.8857 11.4367 36.5482 11.4367 36.1785 11.4367C36.1785 12.4937 36.1785 13.519 36.1785 14.5627C36.0074 14.5627 35.869 14.5627 35.6958 14.5627C35.6958 14.4321 35.6958 14.3139 35.6958 14.1575Z" fill="#223B44"/>
<path d="M51.4035 27.0755C51.6369 26.6596 51.8625 26.2506 52.0352 25.8196C52.1705 25.482 52.3784 25.4369 52.7165 25.5379C52.4568 26.0505 52.2308 26.5599 51.9489 27.0348C51.6849 27.4795 51.5918 27.94 51.634 28.4467C51.6504 28.6435 51.6367 28.8429 51.6367 29.0614C51.4721 29.0614 51.3354 29.0614 51.1187 29.0614C51.4753 27.6904 50.6012 26.6847 50.1069 25.5443C50.4613 25.4174 50.6587 25.5008 50.7932 25.8486C50.9558 26.269 51.1771 26.6658 51.4035 27.0755Z" fill="#223B44"/>
<path d="M48.0779 20.6545C48.0779 21.0521 48.0779 21.4131 48.0779 21.811C47.9273 21.8195 47.7899 21.8273 47.5588 21.8404C47.9105 20.4539 47.0596 19.4396 46.5439 18.2943C46.8926 18.1681 47.0944 18.2397 47.2305 18.5899C47.397 19.0184 47.6168 19.4254 47.8468 19.9122C48.0792 19.4249 48.2998 19.0185 48.4681 18.5908C48.5978 18.2613 48.7942 18.1724 49.1568 18.2851C48.8438 18.9051 48.5295 19.5149 48.2289 20.1316C48.1555 20.282 48.1271 20.4552 48.0779 20.6545Z" fill="#223B44"/>
<path d="M31.0039 21.7272C30.9287 22.6657 30.4792 23.0223 29.6416 22.8024C29.6517 22.6849 29.6623 22.5603 29.6751 22.4114C29.7568 22.4059 29.8182 22.3977 29.8795 22.3983C30.3817 22.4035 30.522 22.2863 30.528 21.7746C30.5411 20.6754 30.5349 19.576 30.5366 18.4767C30.5367 18.3992 30.5366 18.3217 30.5366 18.2222C30.6957 18.2138 30.8231 18.207 31.0053 18.1973C31.0053 19.3705 31.0053 20.5302 31.0039 21.7272Z" fill="#213A44"/>
<path d="M60.9726 63.939C60.8449 63.8368 60.704 63.7516 60.6591 63.6297C60.3795 62.8691 60.1213 62.1002 59.7756 61.3373C59.729 62.256 59.6825 63.1747 59.6352 64.1066C59.4753 64.1066 59.3365 64.1066 59.1675 64.1066C59.233 62.915 59.2975 61.7431 59.3614 60.5802C60.0007 60.4554 60.0001 60.4556 60.205 61.0338C60.4576 61.7464 60.7111 62.4587 60.9933 63.253C61.2786 62.4471 61.5311 61.7321 61.785 61.0177C61.9758 60.4807 61.9767 60.481 62.6162 60.5641C62.6797 61.7278 62.7436 62.8991 62.8095 64.1065C62.6469 64.1141 62.5095 64.1204 62.3347 64.1285C62.2913 63.1965 62.2488 62.2836 62.2063 61.3707C62.178 61.3648 62.1497 61.3589 62.1214 61.353C61.9868 61.7293 61.851 62.1052 61.7179 62.4821C61.5757 62.8848 61.4483 63.2935 61.2871 63.688C61.244 63.7935 61.1009 63.8565 60.9726 63.939Z" fill="#223B45"/>
<path d="M46.2862 61.7058C46.2862 62.5225 46.2862 63.2992 46.2862 64.0779C45.8612 64.2162 45.6093 64.1013 45.4068 63.6873C45.0149 62.8864 44.5615 62.1168 44.0817 61.2392C44.0817 62.2493 44.0817 63.1579 44.0817 64.0944C43.9097 64.0944 43.7746 64.0944 43.6157 64.0944C43.6157 62.9245 43.6157 61.7517 43.6157 60.5718C44.0185 60.4325 44.267 60.539 44.4665 60.9402C44.8604 61.7328 45.3086 62.4974 45.8157 63.2547C45.8157 62.3591 45.8157 61.4635 45.8157 60.547C45.987 60.547 46.1126 60.547 46.2862 60.547C46.2862 60.9242 46.2862 61.295 46.2862 61.7058Z" fill="#213A44"/>
<path d="M22.6656 62.5078C22.6653 61.8403 22.6653 61.2126 22.6653 60.5556C22.8147 60.5556 22.9489 60.5556 23.0996 60.5556C23.0996 61.746 23.0996 62.9215 23.0996 64.09C22.6709 64.2223 22.4244 64.0715 22.2256 63.6691C21.833 62.874 21.3846 62.1075 20.8945 61.3457C20.8945 62.2591 20.8945 63.1725 20.8945 64.1046C20.7346 64.1046 20.6088 64.1046 20.4526 64.1046C20.4526 62.9354 20.4526 61.7641 20.4526 60.5905C20.9646 60.4397 21.0228 60.4635 21.2788 60.931C21.7058 61.7107 22.1331 62.4902 22.5602 63.2697C22.5954 63.2669 22.6307 63.264 22.6659 63.2611C22.6659 63.0233 22.6659 62.7854 22.6656 62.5078Z" fill="#213A44"/>
<path d="M36.7716 55.5039C47.1395 55.5039 57.4678 55.5039 67.7962 55.5039C67.7962 55.523 67.7962 55.542 67.7962 55.5611C48.9901 55.5611 30.1841 55.5611 11.3781 55.5611C11.378 55.542 11.378 55.523 11.3779 55.5039C19.8293 55.5039 28.2807 55.5039 36.7716 55.5039Z" fill="#17313B"/>
<path d="M55.26 63.1492C55.2623 62.545 55.2036 61.962 55.2985 61.4062C55.4171 60.7125 55.9517 60.3924 56.7161 60.4174C57.4246 60.4405 57.8714 60.7891 57.9576 61.5094C58.0202 62.0327 58.0201 62.5813 57.9385 63.1007C57.8284 63.8011 57.3326 64.1489 56.6089 64.1626C55.8814 64.1764 55.4833 63.8855 55.26 63.1492ZM55.8511 61.2268C55.8131 61.8205 55.7224 62.4171 55.7526 63.0072C55.7809 63.5589 56.0545 63.7397 56.5964 63.735C57.126 63.7305 57.4291 63.4925 57.4789 62.9665C57.519 62.5425 57.5089 62.1109 57.4878 61.6844C57.4707 61.3395 57.3704 61.0117 56.991 60.899C56.5759 60.7757 56.1833 60.7884 55.8511 61.2268Z" fill="#213A43"/>
<path d="M52.1161 60.5589C52.3257 60.5596 52.4965 60.5566 52.6672 60.5614C53.5409 60.5863 53.9533 60.9681 54.0001 61.8495C54.0219 62.2602 54.0102 62.6814 53.9451 63.0865C53.8397 63.7426 53.4298 64.0889 52.7804 64.1171C52.3481 64.1358 51.9145 64.1206 51.4224 64.1206C51.4224 63.5262 51.4224 62.9437 51.4224 62.3612C51.4224 61.7754 51.4224 61.1895 51.4224 60.5589C51.6652 60.5589 51.8712 60.5589 52.1161 60.5589ZM53.3334 63.3787C53.6103 62.7615 53.5994 62.1162 53.408 61.4953C53.3452 61.2915 53.0689 61.082 52.8506 61.0201C52.563 60.9386 52.2364 61.0001 51.9279 61.0001C51.9279 61.9133 51.9279 62.7918 51.9279 63.703C52.4159 63.6725 52.9019 63.8148 53.3334 63.3787Z" fill="#213943"/>
<path d="M32.7607 63.9321C32.7603 62.7992 32.7603 61.7042 32.7603 60.5896C33.3264 60.5896 33.8638 60.5478 34.3916 60.602C34.86 60.6501 35.2143 60.9591 35.264 61.4508C35.3198 62.003 35.3219 62.5687 35.2729 63.1217C35.2235 63.6794 34.8493 64.0194 34.316 64.0871C33.8497 64.1462 33.3722 64.1182 32.8997 64.1152C32.8533 64.1149 32.8074 64.0206 32.7607 63.9321ZM34.3857 63.616C34.8617 63.2891 35.0413 62.2506 34.757 61.4689C34.5919 61.015 34.1646 60.885 33.2726 61.0191C33.2726 61.9072 33.2726 62.7954 33.2726 63.7291C33.6475 63.6959 33.9861 63.6659 34.3857 63.616Z" fill="#213943"/>
<path d="M40.0305 60.7432C40.2438 60.6318 40.4389 60.5434 40.6341 60.4551C40.6605 60.4951 40.6869 60.5352 40.7134 60.5753C40.2959 61.1344 39.8785 61.6935 39.443 62.2768C39.8977 62.8775 40.3504 63.4754 40.8116 64.0846C40.4278 64.1999 40.1879 64.0911 39.985 63.7788C39.739 63.3999 39.4522 63.0465 39.1613 62.7011C39.0696 62.5923 38.908 62.5446 38.7042 62.4256C38.7042 63.0553 38.7042 63.5719 38.7042 64.1058C38.5306 64.1058 38.3915 64.1058 38.2339 64.1058C38.2339 62.929 38.2339 61.7658 38.2339 60.5515C38.3604 60.5418 38.4955 60.5315 38.6674 60.5183C38.6674 61.0206 38.6674 61.4964 38.6674 62.1232C38.8994 62.002 39.085 61.9596 39.186 61.8419C39.4797 61.4995 39.7394 61.127 40.0305 60.7432Z" fill="#243D46"/>
<path d="M47.6047 61.8948C47.6795 61.2885 47.835 60.7591 48.4496 60.5779C49.0351 60.4053 49.6132 60.4054 50.135 60.8474C50.0413 60.9687 49.9624 61.0709 49.879 61.1788C49.7601 61.1149 49.661 61.0503 49.5538 61.0058C48.7227 60.6608 48.1259 61.0359 48.0927 61.9436C48.0786 62.3294 48.1078 62.7193 48.1477 63.104C48.1877 63.4895 48.4296 63.6837 48.8045 63.7314C49.671 63.8418 49.7458 63.7784 49.7345 62.8986C49.7335 62.8199 49.7272 62.7412 49.7214 62.6248C49.4796 62.6248 49.249 62.6248 48.9936 62.6248C48.9805 62.4747 48.9705 62.3605 48.9579 62.2162C49.366 62.2162 49.7542 62.2162 50.1919 62.2162C50.1919 62.7413 50.201 63.2736 50.1823 63.8048C50.1794 63.8859 50.0525 64.0247 49.9751 64.0306C49.482 64.0685 48.9781 64.1425 48.4945 64.0767C47.9691 64.0051 47.6711 63.559 47.6156 62.936C47.586 62.6035 47.6055 62.2666 47.6047 61.8948Z" fill="#213A44"/>
<path d="M17.6655 64.1563C16.9069 64.0558 16.6088 63.7909 16.5716 63.0561C16.5292 62.2166 16.5618 61.3732 16.5618 60.5137C16.7213 60.5137 16.8608 60.5137 17.0246 60.5137C17.0246 61.2887 17.0226 62.0518 17.0252 62.8148C17.0279 63.6469 17.2642 63.8411 18.2037 63.6992C18.5786 63.6426 18.6306 63.2919 18.6388 62.9787C18.6553 62.3491 18.6456 61.7188 18.6465 61.0888C18.6468 60.9036 18.6466 60.7184 18.6466 60.5167C18.8119 60.5167 18.9476 60.5167 19.1038 60.5167C19.1038 61.3656 19.1394 62.1958 19.0939 63.0213C19.0474 63.8643 18.6584 64.1489 17.6655 64.1563Z" fill="#243D46"/>
<path d="M36.8333 68.5483C37.0588 67.8823 37.3895 67.6318 37.9631 67.6673C38.4927 67.7001 38.8422 68.0101 38.9066 68.6619C38.9651 69.254 38.9608 69.8647 38.8885 70.4549C38.8091 71.1028 38.3969 71.4172 37.8168 71.4112C37.2364 71.4053 36.8494 71.0836 36.7926 70.4133C36.7413 69.8076 36.8095 69.1913 36.8333 68.5483ZM38.4872 70.0748C38.4695 69.5941 38.4685 69.1119 38.4281 68.6332C38.402 68.3241 38.2255 68.1011 37.8956 68.0901C37.5732 68.0793 37.3534 68.2675 37.3176 68.5812C37.2604 69.0834 37.2171 69.5932 37.236 70.0971C37.2607 70.7527 37.4387 70.9753 37.819 70.9846C38.2057 70.9941 38.3566 70.801 38.4872 70.0748Z" fill="#213943"/>
<path d="M29.5972 63.7802C29.5972 62.6988 29.5972 61.6556 29.5972 60.5859C30.2393 60.5859 30.8504 60.5859 31.4872 60.5859C31.4932 60.6995 31.4993 60.8143 31.5073 60.9656C31.0322 60.9656 30.578 60.9656 30.0978 60.9656C30.0978 61.3418 30.0978 61.6834 30.0978 62.0657C30.5065 62.0657 30.9205 62.0657 31.3629 62.0657C31.3629 62.2277 31.3629 62.3503 31.3629 62.508C30.9471 62.508 30.531 62.508 30.0937 62.508C30.0937 62.9092 30.0937 63.2775 30.0937 63.6929C30.5672 63.6929 31.0329 63.6929 31.5174 63.6929C31.5174 63.8527 31.5174 63.9657 31.5174 64.1231C30.9361 64.1231 30.3605 64.133 29.7861 64.1097C29.7194 64.107 29.66 63.92 29.5972 63.7802Z" fill="#1F3842"/>
<path d="M43.7383 70.047C44.0013 70.1185 44.2712 70.1568 44.5827 70.2009C44.5827 69.7047 44.5827 69.2685 44.5827 68.8138C44.744 68.8138 44.8691 68.8138 45.0159 68.8138C45.0159 69.249 45.0159 69.6766 45.0159 70.1435C45.2237 70.155 45.4127 70.1655 45.6138 70.1766C45.6138 70.312 45.6138 70.4282 45.6138 70.5715C45.4345 70.5871 45.2574 70.6025 45.0405 70.6213C45.0405 70.8657 45.0405 71.1004 45.0405 71.3537C44.8743 71.3537 44.7496 71.3537 44.5869 71.3537C44.5869 71.1111 44.5869 70.8758 44.5869 70.6023C44.1213 70.6023 43.6927 70.6023 43.1938 70.6023C43.2389 70.3508 43.2468 70.1377 43.3167 69.9484C43.5431 69.3349 43.8093 68.7364 44.0253 68.1194C44.1315 67.8161 44.2826 67.7109 44.6151 67.833C44.3249 68.5604 44.0351 69.2871 43.7383 70.047Z" fill="#1D3640"/>
<path d="M34.0049 70.0055C34.2276 69.8355 34.4303 69.6865 34.6281 69.531C34.7632 69.4248 34.9518 69.3348 35.0089 69.1926C35.1064 68.95 35.2013 68.6485 35.1369 68.4182C35.0992 68.2835 34.7518 68.175 34.5417 68.1711C34.3076 68.1669 34.0712 68.2948 33.7847 68.3805C33.7475 68.3449 33.666 68.2668 33.583 68.1872C33.6085 68.1358 33.6169 68.0901 33.644 68.0683C34.1238 67.6834 34.663 67.6392 35.2084 67.8579C35.7999 68.0951 35.8928 68.9418 35.3778 69.4501C35.0868 69.7374 34.7229 69.9472 34.4236 70.2271C34.2353 70.4031 34.1058 70.6442 33.9499 70.8561C33.9791 70.8863 34.0083 70.9166 34.0375 70.9468C34.5732 70.9468 35.1089 70.9468 35.6698 70.9468C35.6698 71.0979 35.6698 71.2224 35.6698 71.3605C34.96 71.3605 34.2661 71.3605 33.552 71.3605C33.4729 70.8327 33.5644 70.3757 34.0049 70.0055Z" fill="#1F3842"/>
<path d="M40.709 67.7779C40.8856 67.7603 41.0303 67.742 41.1743 67.7469C41.575 67.7604 41.9375 67.8638 42.1129 68.2804C42.2797 68.6767 42.1682 69.1833 41.8248 69.4919C41.5297 69.757 41.1871 69.9678 40.8963 70.2371C40.7147 70.4053 40.5901 70.6373 40.4399 70.8407C40.464 70.8739 40.488 70.9071 40.5121 70.9403C41.0542 70.9403 41.5963 70.9403 42.1586 70.9403C42.1586 71.0981 42.1586 71.2127 42.1586 71.3508C41.453 71.3508 40.7506 71.3508 40.0345 71.3508C39.9392 70.7519 40.1066 70.27 40.5968 69.9153C40.8326 69.7447 41.0709 69.5769 41.2984 69.3953C41.6675 69.1004 41.8051 68.6694 41.6342 68.3846C41.4868 68.139 41.0095 68.0735 40.615 68.2503C40.52 68.2929 40.4329 68.3541 40.3155 68.4223C40.2369 68.3506 40.1534 68.2744 39.9922 68.1275C40.2524 67.9984 40.4646 67.8931 40.709 67.7779Z" fill="#1F3842"/>
<path d="M27.1463 64.1102C27.1009 63.2972 27.0878 62.4959 27.0766 61.6946C27.0735 61.4699 27.0761 61.2452 27.0761 60.9862C26.7095 60.9862 26.3726 60.9862 26.0234 60.9862C26.0234 60.8354 26.0234 60.7193 26.0234 60.5781C26.8792 60.5781 27.727 60.5781 28.6066 60.5781C28.6127 60.6974 28.6191 60.8219 28.6273 60.9805C28.2648 60.9805 27.9268 60.9805 27.5576 60.9805C27.5576 62.0383 27.5576 63.0643 27.5576 64.122C27.41 64.122 27.2947 64.122 27.1463 64.1102Z" fill="#223B44"/>
<path d="M42.2513 61.8671C42.2513 62.6297 42.2513 63.3522 42.2513 64.0996C42.0963 64.0996 41.9592 64.0996 41.7974 64.0996C41.7974 62.9319 41.7974 61.7604 41.7974 60.5452C41.9326 60.5381 42.0688 60.531 42.2513 60.5215C42.2513 60.9771 42.2513 61.402 42.2513 61.8671Z" fill="#273F49"/>
<path d="M25.0121 63.153C25.0121 63.4867 25.0121 63.7806 25.0121 64.0995C24.857 64.0995 24.7199 64.0995 24.5581 64.0995C24.5581 62.9317 24.5581 61.76 24.5581 60.5449C24.6937 60.5379 24.83 60.5309 25.0121 60.5215C25.0121 61.4063 25.0121 62.2598 25.0121 63.153Z" fill="#273F49"/>
<path d="M32.9354 18.9092C33.2502 18.4967 33.6428 18.484 34.058 18.6073C34.4374 18.72 34.5377 19.0477 34.5548 19.3927C34.5759 19.8193 34.5861 20.2509 34.5459 20.6749C34.4962 21.201 34.193 21.439 33.6633 21.4435C33.1215 21.4482 32.8477 21.2673 32.8195 20.7157C32.7893 20.1255 32.88 19.5289 32.9354 18.9092Z" fill="#FBFBFC"/>
<path d="M31.775 25.821C32.5678 25.7492 32.852 25.9807 32.904 26.7519C32.929 27.1241 32.925 27.5022 32.8921 27.8738C32.8428 28.4318 32.5524 28.6845 32.0134 28.6922C31.4568 28.7002 31.2065 28.5171 31.1494 27.9358C31.1028 27.462 31.1279 26.9768 31.1645 26.5001C31.191 26.1553 31.3839 25.9031 31.775 25.821Z" fill="#FBFBFC"/>
<path d="M38.8646 13.9814C38.4804 13.2318 38.5244 12.4799 38.7585 11.738C38.882 11.3465 39.247 11.2794 39.604 11.295C39.9543 11.3104 40.2966 11.4336 40.3337 11.8316C40.3876 12.411 40.4361 13.0097 40.3502 13.5788C40.2543 14.2142 39.5237 14.3928 38.8646 13.9814Z" fill="#FBFBFC"/>
<path d="M45.0786 18.9353C45.2545 19.7689 44.8726 20.0717 43.8286 19.9224C43.8286 19.7324 43.8286 19.5351 43.8286 19.3378C43.8286 19.1386 43.8286 18.9394 43.8286 18.6859C44.2644 18.7558 44.7078 18.5111 45.0786 18.9353Z" fill="#F4F5F6"/>
<path d="M44.0541 26.282C44.2134 26.7909 44.3659 27.2709 44.5256 27.7737C44.1417 27.7737 43.7929 27.7737 43.4102 27.7737C43.5755 27.2482 43.7336 26.7425 43.8995 26.2395C43.9032 26.2284 43.996 26.2478 44.0541 26.282Z" fill="#F6F7F7"/>
<path d="M39.959 27.1929C39.9556 26.7699 39.9556 26.3844 39.9556 25.9532C40.2673 25.9532 40.5634 25.9321 40.8553 25.9589C41.17 25.9878 41.2432 26.2497 41.2521 26.514C41.2619 26.8033 41.3006 27.1718 40.9452 27.2494C40.6332 27.3175 40.2911 27.2423 39.959 27.1929Z" fill="#F6F7F7"/>
<path d="M43.1763 12.8087C43.0129 12.8087 42.8857 12.8087 42.7407 12.8087C42.7407 12.3473 42.7407 11.9248 42.7407 11.4484C43.1299 11.4783 43.592 11.2659 43.8698 11.6195C44.0268 11.8193 44.0115 12.2343 43.9459 12.522C43.8618 12.8903 43.4915 12.7937 43.1763 12.8087Z" fill="#F6F7F7"/>
<path d="M55.8685 61.2002C56.1833 60.7877 56.5758 60.775 56.991 60.8983C57.3704 61.011 57.4707 61.3388 57.4877 61.6837C57.5089 62.1102 57.519 62.5418 57.4789 62.9658C57.4291 63.4918 57.126 63.7298 56.5963 63.7343C56.0544 63.739 55.7808 63.5582 55.7526 63.0065C55.7224 62.4164 55.8131 61.8198 55.8685 61.2002Z" fill="#FBFBFC"/>
<path d="M53.3155 63.4048C52.9023 63.8155 52.4163 63.6732 51.9282 63.7037C51.9282 62.7925 51.9282 61.914 51.9282 61.0008C52.2367 61.0008 52.5634 60.9393 52.851 61.0208C53.0693 61.0827 53.3455 61.2922 53.4084 61.496C53.5998 62.1169 53.6107 62.7622 53.3155 63.4048Z" fill="#F7F8F8"/>
<path d="M34.3551 63.6257C33.986 63.6657 33.6474 63.6957 33.2725 63.7289C33.2725 62.7952 33.2725 61.907 33.2725 61.0189C34.1644 60.8848 34.5917 61.0148 34.7568 61.4687C35.0411 62.2504 34.8615 63.2888 34.3551 63.6257Z" fill="#F7F8F8"/>
<path d="M38.4814 70.1099C38.3566 70.8012 38.2057 70.9943 37.8189 70.9848C37.4386 70.9755 37.2606 70.7529 37.236 70.0973C37.217 69.5934 37.2603 69.0836 37.3176 68.5814C37.3533 68.2677 37.5731 68.0795 37.8956 68.0903C38.2254 68.1013 38.4019 68.3243 38.428 68.6334C38.4685 69.1121 38.4695 69.5943 38.4814 70.1099Z" fill="#FAFAFB"/>
</g>
<defs>
<clipPath id="clip0_3339_1137">
<rect width="79" height="87" fill="white"/>
</clipPath>
</defs>
</svg>
