<svg width="134" height="54" viewBox="0 0 134 54" fill="none" xmlns="http://www.w3.org/2000/svg">
<g clip-path="url(#clip0_2926_7983)">
<path fill-rule="evenodd" clip-rule="evenodd" d="M134 49.9667V53.5H116.368V49.9667H134ZM91.6842 49.9667V53.5H74.0526V49.9667H91.6842ZM105.441 49.9667L104.022 53.5L102.623 49.9667H105.441ZM65.9421 49.9667C63.4124 52.1609 60.0757 53.5 56.3505 53.5H28.2105V49.9667H65.9421ZM24.6842 49.9667V53.5H0V49.9667H24.6842ZM91.6842 42.9V46.4333H74.0526V42.9H91.6842ZM108.198 42.9L106.825 46.4333H101.242L99.8592 42.9H108.198ZM69.4684 42.9C69.1501 44.1563 68.6416 45.3425 67.9874 46.4333H28.2105V42.9H69.4684ZM24.6842 42.9V46.4333H0V42.9H24.6842ZM134 42.9V46.4333H116.368V42.9H134ZM126.947 35.8333V39.3667H116.368V35.8333H126.947ZM91.6842 35.8333V39.3667H81.1053V35.8333H91.6842ZM110.964 35.8333L109.579 39.3667H98.4748L97.0784 35.8333H110.964ZM68.9747 35.8333C69.2916 36.9598 69.4684 38.1432 69.4684 39.3667H56.4211V35.8333H68.9747ZM45.8421 35.8333V39.3667H35.2632V35.8333H45.8421ZM17.6316 35.8333V39.3667H7.05263V35.8333H17.6316ZM126.947 28.7667V32.3H116.368V28.7667H126.947ZM91.6842 28.7667V32.3H81.1053V28.7667H91.6842ZM113.727 28.7667L112.349 32.3H95.669L94.3009 28.7667H113.727ZM64.6374 28.7667C65.8535 29.764 66.9008 30.9593 67.7053 32.3H35.2632V28.7667H64.6374ZM17.6316 28.7667V32.3H7.05263V28.7667H17.6316ZM103.038 21.7L104.026 24.5559L105.013 21.7H126.947V25.2333H116.368V21.9865L115.169 25.2333H92.8479L91.6842 21.9862V25.2333H81.1053V21.7H103.038ZM17.6316 21.7V25.2333H7.05263V21.7H17.6316ZM67.7053 21.7C66.9008 23.0407 65.8535 24.2356 64.6374 25.2333H35.2632V21.7H67.7053ZM126.947 14.6333V18.1667H106.237L107.485 14.6333H126.947ZM100.579 14.6333L101.828 18.1667H81.1053V14.6333H100.579ZM69.4684 14.6333C69.4684 15.8565 69.2916 17.0399 68.9747 18.1667H56.4211V14.6333H69.4684ZM45.8421 14.6333V18.1667H35.2632V14.6333H45.8421ZM17.6316 14.6333V18.1667H7.05263V14.6333H17.6316ZM98.1375 7.56667L99.3631 11.1H74.053L74.0526 7.56667H98.1375ZM134 7.56667V11.1H108.676L109.95 7.56667H134ZM67.9874 7.56667C68.6416 8.6575 69.1501 9.84374 69.4684 11.1H28.2105V7.56667H67.9874ZM24.6842 7.56667V11.1H0V7.56667H24.6842ZM95.6614 0.5L96.9104 4.03333H74.053L74.0526 0.5H95.6614ZM134 0.5V4.03333H111.171L112.391 0.5H134ZM56.3505 0.5C60.0487 0.5 63.4127 1.83913 65.9421 4.03333H28.2105V0.5H56.3505ZM24.6842 0.5V4.03333H0V0.5H24.6842Z" fill="#161616"/>
</g>
<defs>
<clipPath id="clip0_2926_7983">
<rect width="134" height="53" fill="white" transform="translate(0 0.5)"/>
</clipPath>
</defs>
</svg>
