<svg width="110" height="110" viewBox="0 0 110 110" fill="none" xmlns="http://www.w3.org/2000/svg">
<path d="M74 90H3V19H74V90Z" stroke="white" stroke-width="2"/>
<rect x="72" y="17" width="4" height="4" stroke="white" stroke-width="2"/>
<rect x="1" y="17" width="4" height="4" stroke="white" stroke-width="2"/>
<rect x="1" y="88" width="4" height="4" stroke="white" stroke-width="2"/>
<rect x="72" y="88" width="4" height="4" stroke="white" stroke-width="2"/>
<g filter="url(#filter0_d_1118_1385)">
<path fill-rule="evenodd" clip-rule="evenodd" d="M36.8381 53.2909L22.9722 39.4249L31.602 64.648C31.8821 65.4665 32.6908 65.9827 33.5511 65.8922L40.1232 65.2008C40.6798 65.1422 41.2331 65.3381 41.6289 65.7339L43.1996 67.3046C43.9239 68.029 45.0984 68.029 45.8228 67.3046L52.0715 61.0559C52.7958 60.3315 52.7958 59.1571 52.0715 58.4327L50.5008 56.862C50.105 56.4662 49.9091 55.9129 49.9677 55.3563L50.6591 48.7843C50.7496 47.9239 50.2334 47.1152 49.4148 46.8351L24.0572 38.1593L37.9957 52.0977C38.8681 51.6792 39.9355 51.823 40.647 52.5345C41.5526 53.4401 41.5386 54.9222 40.6158 55.845C39.693 56.7678 38.2109 56.7818 37.3053 55.8762C36.6117 55.1825 36.4575 54.1506 36.8381 53.2909ZM46.3684 68.7214C45.8769 69.213 45.8769 70.0099 46.3684 70.5015C46.86 70.9931 47.657 70.9931 48.1485 70.5015L55.2691 63.381C55.7606 62.8894 55.7606 62.0924 55.2691 61.6009C54.7775 61.1093 53.9805 61.1093 53.4889 61.6009L46.3684 68.7214Z" fill="white"/>
</g>
<defs>
<filter id="filter0_d_1118_1385" x="18.9722" y="36.1593" width="40.6655" height="40.7109" filterUnits="userSpaceOnUse" color-interpolation-filters="sRGB">
<feFlood flood-opacity="0" result="BackgroundImageFix"/>
<feColorMatrix in="SourceAlpha" type="matrix" values="0 0 0 0 0 0 0 0 0 0 0 0 0 0 0 0 0 0 127 0" result="hardAlpha"/>
<feOffset dy="2"/>
<feGaussianBlur stdDeviation="2"/>
<feComposite in2="hardAlpha" operator="out"/>
<feColorMatrix type="matrix" values="0 0 0 0 0 0 0 0 0 0 0 0 0 0 0 0 0 0 0.15 0"/>
<feBlend mode="normal" in2="BackgroundImageFix" result="effect1_dropShadow_1118_1385"/>
<feBlend mode="normal" in="SourceGraphic" in2="effect1_dropShadow_1118_1385" result="shape"/>
</filter>
</defs>
</svg>
