<svg width="114" height="110" viewBox="0 0 114 110" fill="none" xmlns="http://www.w3.org/2000/svg">
<path fill-rule="evenodd" clip-rule="evenodd" d="M6 23H95C97.2091 23 99 24.7909 99 27V64.3031C99.7228 65.0406 100.392 65.8313 101 66.6686V27C101 23.6863 98.3137 21 95 21H6C2.68629 21 0 23.6863 0 27V82C0 85.3137 2.68629 88 6 88H65.0209C64.7126 87.351 64.4366 86.6836 64.1949 86H6C3.79086 86 2 84.2091 2 82V27C2 24.7909 3.79086 23 6 23Z" fill="white"/>
<path fill-rule="evenodd" clip-rule="evenodd" d="M8 34H93V60.0209C93.6881 60.3478 94.3556 60.711 95 61.108V32H6V81H63.094C63.0318 80.3417 63 79.6746 63 79H8V34Z" fill="white"/>
<g filter="url(#filter0_d_1118_1498)">
<path d="M37.4247 64.286C36.5593 64.286 35.7307 64.1503 34.9387 63.879C34.1467 63.6003 33.4537 63.2043 32.8597 62.691C32.2657 62.1703 31.8367 61.5507 31.5727 60.832L34.6747 59.688C34.748 59.9007 34.9093 60.106 35.1587 60.304C35.4153 60.502 35.738 60.667 36.1267 60.799C36.5153 60.9237 36.948 60.986 37.4247 60.986C37.8647 60.986 38.279 60.9237 38.6677 60.799C39.0563 60.667 39.3717 60.4873 39.6137 60.26C39.8557 60.0327 39.9767 59.7687 39.9767 59.468C39.9767 59.16 39.8483 58.907 39.5917 58.709C39.3423 58.5037 39.0197 58.3423 38.6237 58.225C38.235 58.1003 37.8353 58.0087 37.4247 57.95C36.31 57.7887 35.309 57.5247 34.4217 57.158C33.5417 56.784 32.845 56.2707 32.3317 55.618C31.8257 54.9653 31.5727 54.1367 31.5727 53.132C31.5727 52.1713 31.844 51.3317 32.3867 50.613C32.9293 49.887 33.6443 49.3223 34.5317 48.919C35.4263 48.5157 36.3907 48.314 37.4247 48.314C38.29 48.314 39.1187 48.4533 39.9107 48.732C40.71 49.0033 41.4067 49.3993 42.0007 49.92C42.5947 50.4407 43.02 51.064 43.2767 51.79L40.1747 52.912C40.1013 52.6993 39.9363 52.4977 39.6797 52.307C39.4303 52.109 39.1113 51.9477 38.7227 51.823C38.334 51.6983 37.9013 51.636 37.4247 51.636C36.9993 51.6287 36.5923 51.691 36.2037 51.823C35.815 51.955 35.496 52.1347 35.2467 52.362C34.9973 52.5893 34.8727 52.846 34.8727 53.132C34.8727 53.528 34.99 53.825 35.2247 54.023C35.4593 54.2137 35.7673 54.3493 36.1487 54.43C36.5373 54.5107 36.9627 54.584 37.4247 54.65C38.4807 54.804 39.4523 55.079 40.3397 55.475C41.227 55.871 41.9383 56.399 42.4737 57.059C43.009 57.719 43.2767 58.522 43.2767 59.468C43.2767 60.4287 43.0053 61.272 42.4627 61.998C41.9273 62.7167 41.216 63.2777 40.3287 63.681C39.4413 64.0843 38.4733 64.286 37.4247 64.286ZM45.693 64V48.6H55.505V51.9H48.993V54.1H54.009V57.4H48.993V60.7H55.505V64H45.693ZM65.0677 64.286C64.0263 64.286 63.0473 64.0807 62.1307 63.67C61.214 63.252 60.4073 62.6763 59.7107 61.943C59.014 61.2097 58.4677 60.3627 58.0717 59.402C57.6757 58.434 57.4777 57.4 57.4777 56.3C57.4777 55.2 57.6757 54.1697 58.0717 53.209C58.4677 52.241 59.014 51.3903 59.7107 50.657C60.4073 49.9237 61.214 49.3517 62.1307 48.941C63.0473 48.523 64.0263 48.314 65.0677 48.314C66.1163 48.314 67.099 48.523 68.0157 48.941C68.9323 49.3517 69.739 49.9237 70.4357 50.657C71.1323 51.3903 71.675 52.241 72.0637 53.209C72.4597 54.1697 72.6577 55.2 72.6577 56.3C72.6577 57.4 72.4597 58.434 72.0637 59.402C71.675 60.3627 71.1323 61.2097 70.4357 61.943C69.739 62.6763 68.9323 63.252 68.0157 63.67C67.099 64.0807 66.1163 64.286 65.0677 64.286ZM65.0677 60.986C65.6543 60.986 66.2043 60.865 66.7177 60.623C67.2383 60.3737 67.6967 60.0363 68.0927 59.611C68.4887 59.1783 68.7967 58.6797 69.0167 58.115C69.244 57.5503 69.3577 56.9453 69.3577 56.3C69.3577 55.6547 69.244 55.0497 69.0167 54.485C68.7967 53.9203 68.4887 53.4253 68.0927 53C67.6967 52.5673 67.2383 52.23 66.7177 51.988C66.2043 51.7387 65.6543 51.614 65.0677 51.614C64.481 51.614 63.9273 51.7387 63.4067 51.988C62.8933 52.23 62.4387 52.5673 62.0427 53C61.6467 53.4253 61.335 53.9203 61.1077 54.485C60.8877 55.0497 60.7777 55.6547 60.7777 56.3C60.7777 56.9453 60.8877 57.5503 61.1077 58.115C61.335 58.6797 61.6467 59.1783 62.0427 59.611C62.4387 60.0363 62.8933 60.3737 63.4067 60.623C63.9273 60.865 64.481 60.986 65.0677 60.986Z" fill="white"/>
</g>
<g filter="url(#filter1_d_1118_1498)">
<path fill-rule="evenodd" clip-rule="evenodd" d="M97.7772 88.6184C97.4757 88.7475 97.1996 89.0893 96.8742 89.492L96.8742 89.492C96.6664 89.7491 96.4386 90.031 96.1713 90.2983C95.9039 90.5657 95.622 90.7935 95.3649 91.0012C94.8435 91.4225 94.4244 91.7612 94.4369 92.1792C95.725 91.1726 96.8532 89.9708 97.7772 88.6184ZM99.4816 89.6689C99.1041 90.2276 98.6959 90.7637 98.2592 91.2749L107.06 100.076C107.367 100.383 107.367 100.88 107.06 101.187C106.753 101.494 106.256 101.494 105.949 101.187L97.1867 92.4242C96.7099 92.8922 96.2069 93.3336 95.6801 93.746L104.535 102.601C105.623 103.689 107.387 103.689 108.474 102.601C109.562 101.513 109.562 99.7496 108.474 98.6618L99.4816 89.6689Z" fill="white"/>
<path d="M100.654 78.8272C100.654 88.1207 93.1207 95.6545 83.8272 95.6545C74.5338 95.6545 67 88.1207 67 78.8272C67 69.5338 74.5338 62 83.8272 62C93.1207 62 100.654 69.5338 100.654 78.8272Z" stroke="white" stroke-width="2"/>
<path d="M83.8249 91.083C90.5938 91.083 96.0811 85.5957 96.0811 78.8268C96.0811 72.0579 90.5938 66.5706 83.8249 66.5706C77.056 66.5706 71.5687 72.0579 71.5687 78.8268C71.5687 85.5957 77.056 91.083 83.8249 91.083Z" stroke="white" stroke-width="2" stroke-linecap="round" stroke-linejoin="round"/>
</g>
<circle cx="8" cy="28" r="1" stroke="white" stroke-width="2"/>
<circle cx="14" cy="28" r="1" stroke="white" stroke-width="2"/>
<circle cx="20" cy="28" r="1" stroke="white" stroke-width="2"/>
<defs>
<filter id="filter0_d_1118_1498" x="27.5726" y="46.314" width="49.085" height="23.972" filterUnits="userSpaceOnUse" color-interpolation-filters="sRGB">
<feFlood flood-opacity="0" result="BackgroundImageFix"/>
<feColorMatrix in="SourceAlpha" type="matrix" values="0 0 0 0 0 0 0 0 0 0 0 0 0 0 0 0 0 0 127 0" result="hardAlpha"/>
<feOffset dy="2"/>
<feGaussianBlur stdDeviation="2"/>
<feComposite in2="hardAlpha" operator="out"/>
<feColorMatrix type="matrix" values="0 0 0 0 0 0 0 0 0 0 0 0 0 0 0 0 0 0 0.15 0"/>
<feBlend mode="normal" in2="BackgroundImageFix" result="effect1_dropShadow_1118_1498"/>
<feBlend mode="normal" in="SourceGraphic" in2="effect1_dropShadow_1118_1498" result="shape"/>
</filter>
<filter id="filter1_d_1118_1498" x="62" y="59" width="51.2903" height="50.4169" filterUnits="userSpaceOnUse" color-interpolation-filters="sRGB">
<feFlood flood-opacity="0" result="BackgroundImageFix"/>
<feColorMatrix in="SourceAlpha" type="matrix" values="0 0 0 0 0 0 0 0 0 0 0 0 0 0 0 0 0 0 127 0" result="hardAlpha"/>
<feOffset dy="2"/>
<feGaussianBlur stdDeviation="2"/>
<feComposite in2="hardAlpha" operator="out"/>
<feColorMatrix type="matrix" values="0 0 0 0 0 0 0 0 0 0 0 0 0 0 0 0 0 0 0.15 0"/>
<feBlend mode="normal" in2="BackgroundImageFix" result="effect1_dropShadow_1118_1498"/>
<feBlend mode="normal" in="SourceGraphic" in2="effect1_dropShadow_1118_1498" result="shape"/>
</filter>
</defs>
</svg>
