<svg width="110" height="110" viewBox="0 0 110 110" fill="none" xmlns="http://www.w3.org/2000/svg">
<path d="M1 23C1 20.2386 3.23858 18 6 18H77C79.7614 18 82 20.2386 82 23V87C82 89.7614 79.7614 92 77 92H6C3.23858 92 1 89.7614 1 87V23Z" stroke="white" stroke-width="2"/>
<path d="M1 23C1 20.2386 3.23858 18 6 18H77C79.7614 18 82 20.2386 82 23V45H1V23Z" stroke="white" stroke-width="2"/>
<mask id="mask0_1118_1428" style="mask-type:alpha" maskUnits="userSpaceOnUse" x="0" y="17" width="83" height="29">
<path d="M0 23C0 19.6863 2.68629 17 6 17H77C80.3137 17 83 19.6863 83 23V46H0V23Z" fill="white"/>
</mask>
<g mask="url(#mask0_1118_1428)">
<path d="M18 15L4 53" stroke="white" stroke-width="2"/>
<path d="M33 15L19 53" stroke="white" stroke-width="2"/>
<path d="M48 15L34 53" stroke="white" stroke-width="2"/>
<path d="M63 15L49 53" stroke="white" stroke-width="2"/>
<path d="M78 15L64 53" stroke="white" stroke-width="2"/>
</g>
<g filter="url(#filter0_d_1118_1428)">
<path d="M37 60L49 69.1346L37 79V60Z" fill="white"/>
</g>
<defs>
<filter id="filter0_d_1118_1428" x="33" y="58" width="20" height="27" filterUnits="userSpaceOnUse" color-interpolation-filters="sRGB">
<feFlood flood-opacity="0" result="BackgroundImageFix"/>
<feColorMatrix in="SourceAlpha" type="matrix" values="0 0 0 0 0 0 0 0 0 0 0 0 0 0 0 0 0 0 127 0" result="hardAlpha"/>
<feOffset dy="2"/>
<feGaussianBlur stdDeviation="2"/>
<feComposite in2="hardAlpha" operator="out"/>
<feColorMatrix type="matrix" values="0 0 0 0 0 0 0 0 0 0 0 0 0 0 0 0 0 0 0.15 0"/>
<feBlend mode="normal" in2="BackgroundImageFix" result="effect1_dropShadow_1118_1428"/>
<feBlend mode="normal" in="SourceGraphic" in2="effect1_dropShadow_1118_1428" result="shape"/>
</filter>
</defs>
</svg>
