<svg width="110" height="110" viewBox="0 0 110 110" fill="none" xmlns="http://www.w3.org/2000/svg">
<path fill-rule="evenodd" clip-rule="evenodd" d="M59.5732 92.924C54.6298 95.0026 49.199 96.1514 43.5 96.1514C20.5802 96.1514 2 77.5712 2 54.6514C2 31.7316 20.5802 13.1514 43.5 13.1514C66.4198 13.1514 85 31.7316 85 54.6514C85 61.9253 83.1286 68.7621 79.8411 74.7066L81.6473 75.5736C85.0592 69.3659 87 62.2353 87 54.6514C87 30.627 67.5244 11.1514 43.5 11.1514C19.4756 11.1514 0 30.627 0 54.6514C0 78.6758 19.4756 98.1514 43.5 98.1514C49.2557 98.1514 54.7504 97.0335 59.7786 95.0031L59.5732 92.924Z" fill="white"/>
<path fill-rule="evenodd" clip-rule="evenodd" d="M58.1424 78.4412C53.8848 81.0674 48.8691 82.5826 43.4996 82.5826C28.0736 82.5826 15.5684 70.0774 15.5684 54.6514C15.5684 39.2254 28.0736 26.7202 43.4996 26.7202C58.9255 26.7202 71.4307 39.2254 71.4307 54.6514C71.4307 59.8225 70.0255 64.6654 67.576 68.8191L69.3855 69.6876C71.9575 65.2692 73.4307 60.1324 73.4307 54.6514C73.4307 38.1209 60.0301 24.7202 43.4996 24.7202C26.969 24.7202 13.5684 38.1209 13.5684 54.6514C13.5684 71.1819 26.969 84.5826 43.4996 84.5826C48.9078 84.5826 53.981 83.1482 58.3596 80.6391L58.1424 78.4412Z" fill="white"/>
<g filter="url(#filter0_d_1118_1482)">
<path d="M36.8936 65.2442V61.5842C37.4036 61.5842 37.9236 61.5192 38.4536 61.3892C38.9836 61.2593 39.4536 61.0742 39.8636 60.8342C40.2836 60.5842 40.5786 60.2843 40.7486 59.9342C40.9286 59.5842 40.9236 59.1943 40.7336 58.7642C40.6336 58.3842 40.4586 58.0243 40.2086 57.6842C39.9586 57.3342 39.6736 56.9893 39.3536 56.6493C39.0336 56.2992 38.7086 55.9443 38.3786 55.5842C38.0486 55.2142 37.7436 54.8292 37.4636 54.4292C37.1836 54.0192 36.9586 53.5842 36.7886 53.1242C36.6186 52.6542 36.5336 52.1493 36.5336 51.6092C36.5336 50.5392 36.7336 49.5392 37.1336 48.6092C37.5436 47.6792 38.1036 46.8592 38.8136 46.1492C39.5336 45.4292 40.3586 44.8692 41.2886 44.4692C42.2186 44.0592 43.2186 43.8542 44.2886 43.8542C45.3586 43.8542 46.3636 44.0592 47.3036 44.4692C48.2436 44.8692 49.0686 45.4242 49.7786 46.1342C50.4986 46.8442 51.0586 47.6692 51.4586 48.6092C51.8586 49.5392 52.0586 50.5392 52.0586 51.6092H48.3986C48.3986 50.8592 48.2136 50.1742 47.8436 49.5542C47.4736 48.9342 46.9736 48.4392 46.3436 48.0692C45.7236 47.6992 45.0386 47.5142 44.2886 47.5142C43.5386 47.5142 42.8536 47.6992 42.2336 48.0692C41.6136 48.4392 41.1186 48.9342 40.7486 49.5542C40.3786 50.1742 40.1936 50.8592 40.1936 51.6092C40.1936 52.2292 40.2986 52.7692 40.5086 53.2292C40.7186 53.6892 40.9886 54.1092 41.3186 54.4892C41.6486 54.8692 41.9986 55.2392 42.3686 55.5992C42.7486 55.9492 43.1036 56.3242 43.4336 56.7242C43.7636 57.1242 44.0336 57.5792 44.2436 58.0892C44.4536 58.5892 44.5586 59.1842 44.5586 59.8742C44.5586 60.1142 44.5186 60.3492 44.4386 60.5792C44.3586 60.7992 44.2636 60.9992 44.1536 61.1792C44.0436 61.3592 43.9286 61.4942 43.8086 61.5842H51.7586V65.2442H36.8936ZM36.8936 58.5542V56.0492H48.4436V58.5542H36.8936Z" fill="white"/>
</g>
<path d="M63.2858 93.9682L60.8445 69.257L83.2304 80.0029L77.274 84.1736L76.3388 84.8284L77.1112 85.6693L85.4335 94.7281C85.8556 95.1876 85.7585 95.9173 85.2308 96.2503L77.5429 101.102C77.0429 101.417 76.3798 101.233 76.1151 100.704L70.8049 90.1023L70.2861 89.0666L69.3372 89.731L63.2858 93.9682Z" stroke="white" stroke-width="2"/>
<defs>
<filter id="filter0_d_1118_1482" x="32.5336" y="41.8542" width="23.525" height="29.39" filterUnits="userSpaceOnUse" color-interpolation-filters="sRGB">
<feFlood flood-opacity="0" result="BackgroundImageFix"/>
<feColorMatrix in="SourceAlpha" type="matrix" values="0 0 0 0 0 0 0 0 0 0 0 0 0 0 0 0 0 0 127 0" result="hardAlpha"/>
<feOffset dy="2"/>
<feGaussianBlur stdDeviation="2"/>
<feComposite in2="hardAlpha" operator="out"/>
<feColorMatrix type="matrix" values="0 0 0 0 0 0 0 0 0 0 0 0 0 0 0 0 0 0 0.15 0"/>
<feBlend mode="normal" in2="BackgroundImageFix" result="effect1_dropShadow_1118_1482"/>
<feBlend mode="normal" in="SourceGraphic" in2="effect1_dropShadow_1118_1482" result="shape"/>
</filter>
</defs>
</svg>
